<svg xmlns="http://www.w3.org/2000/svg" width="1920" height="1080" viewBox="0 0 1920 1080" fill="none" role="img" aria-label="Animated color loop">
  <g clip-path="url(#clip0_1_2554)">
    <path id="bg" d="M1920 0H0V1080H1920V0Z" fill="#29bdad">
      <animate xmlns="http://www.w3.org/2000/svg" attributeName="fill" values="#008aa1;#ffe600;#00d973;#00d973;#000000;#000000;#324e2a;#0d75ff;#a32100;#a32100;#80ffcc;#80ffcc;#80ffcc;#e6adcf;#e6adcf;#a10b2b;#a10b2b;#29bdad;#29bdad;#29bdad;#66ab56;#ffbf6e;#c2612c;#c2612c;#a3ad00;#a6d40d;#ffa6d9;#ffa6d9;#4d52de;#0024cc;#0f261f;#6e66d4;#06004f;#2d0060;#2d0060;#ff5ec4;#ff5ec4;#c9303e;#c9303e;#d1b0b3;#fa9442;#b8b8ff;#ff616b;#ff616b;#681916;#0057ba;#0057ba;#c3a55c;#c3a55c;#ebd999;#ebd999;#ebd999;#759243;#f2ff26;#b08699;#b08699;#a6e6db;#a6e6db;#bdf226;#9161f2;#23c17c;#651300;#651300;#522000;#b5d1cc;#bfffe6;#d99e73;#bcd382;#d1bd19;#4f8fe6;#ff5200;#c05200;#c05200;#ffab00;#fff59e;#5e4017;#ff3319;#f2ad78;#a90636;#a90636;#a90636;#b85e00;#b85e00;#e81900;#33ff7d;#33ff7d;#33ff7d;#ffcfc4;#503d00;#1b3644;#1b3644;#1b3644;#ff4dc9;#f5f5b8;#f5f5b8;#b5ffc2;#b5ffc2;#003e83;#003e83;#362304;#362304;#740909;#7e3075;#c74300;#2619d1;#202d85;#202d85;#202d85;#3d0079;#9cb29e;#9cb29e;#9cb29e;#ffffff;#ffff00;#ffff00;#a6ff47;#e0b81f;#e0b81f;#e0b81f;#ff8c00" dur="60s" repeatCount="indefinite" calcMode="discrete" />

    </path>

    <path xmlns="http://www.w3.org/2000/svg" id="shape" d="M960 271C1071.54 271 1127.3 271 1166.53 299.188C1179.74 308.68 1191.32 320.258 1200.81 333.469C1229 372.696 1229 428.464 1229 540C1229 651.536 1229 707.304 1200.81 746.531C1191.32 759.742 1179.74 771.32 1166.53 780.812C1127.3 809 1071.54 809 960 809C848.464 809 792.696 809 753.469 780.812C740.258 771.32 728.68 759.742 719.188 746.531C691 707.304 691 651.536 691 540C691 428.464 691 372.696 719.188 333.469C728.68 320.258 740.258 308.68 753.469 299.188C792.696 271 848.464 271 960 271ZM996.5 321C981.023 321 973.284 321 967.929 325.054C966.465 326.161 965.161 327.465 964.054 328.929C960 334.284 960 342.023 960 357.5V722.5C960 737.977 960 745.716 964.054 751.071C965.161 752.535 966.465 753.839 967.929 754.946C973.284 759 981.023 759 996.5 759C1073.89 759 1112.58 759 1139.36 738.732C1146.67 733.193 1153.19 726.673 1158.73 719.355C1179 692.581 1179 653.887 1179 576.5V503.5C1179 426.113 1179 387.419 1158.73 360.645C1153.19 353.327 1146.67 346.807 1139.36 341.268C1112.58 321 1073.89 321 996.5 321Z" fill="#de4500">
      <animate xmlns="http://www.w3.org/2000/svg" attributeName="fill" values="#06004f;#76844e;#b8b8ff;#ff7399;#ff5200;#d60036;#fff59e;#abf5ed;#3400a3;#ff5ec4;#cc85d1;#7e8743;#baa600;#0024cc;#4733ff;#0d75ff;#f5f5b8;#de4500;#5c2c45;#fff59e;#e6adcf;#9161f2;#7e8743;#2d0060;#a6e6db;#c74300;#9c52f2;#a6d40d;#9c52f2;#1b8e13;#ffcfc4;#888d2a;#681916;#ff8c00;#681916;#a3ad00;#9c52f2;#bfabcc;#ffa6d9;#2d0060;#5e4017;#c2612c;#000831;#000000;#33ff7d;#d60036;#b319ab;#3400a3;#2dbc94;#9fc2b2;#2d0060;#00592e;#96bfe6;#ffcfc4;#a10b2b;#ffff00;#00d973;#0d2b52;#340059;#f5f5b8;#4f8fe6;#000831;#2dbc94;#7aff00;#ff5ec4;#c9303e;#7aff00;#202d85;#58771e;#0d2b52;#b3e8c2;#5c2c45;#ebd999;#008aa1;#0d2b52;#85b857;#faed8f;#6bffb3;#9fc2b2;#d99e73;#e6adcf;#fff59e;#405416;#fff59e;#e62e73;#ff616b;#b85e00;#0d75ff;#7e3075;#ffa6d9;#b85e00;#6b2e63;#faed8f;#000000;#abf5ed;#baa600;#2dbc94;#328e13;#e62e73;#6c2b11;#ffcfc4;#abf5ed;#b85e00;#008aa1;#bfabcc;#abf5ed;#ff8c00;#651300;#6e66d4;#000000;#fff59e;#fa9442;#d94d99;#0024cc;#000000;#fff59e;#2619d1;#718600;#362304;#0d2b52" dur="60s" repeatCount="indefinite" calcMode="discrete" />
    </path>
  </g>
  <defs>
    <clipPath id="clip0_1_2554">
      <rect width="1920" height="1080" fill="white" />
    </clipPath>
  </defs>
</svg>