<svg width="1920" height="1080" viewBox="0 0 1920 1080" fill="black" xmlns="http://www.w3.org/2000/svg">
<rect width="1920" height="1080" fill="black" shape-rendering="crispEdges"/>
<path d="M924.34 620.09C924.34 620.09 857.11 662.18 759.64 662.18C640.86 662.18 593.25 596.11 593.25 525.04C593.25 453.97 650.66 381.04 763.9 381.04C877.14 381.04 907.13 470.24 899.9 528.34H620.28V497.74H846.69C846.69 497.74 849.6 419.74 759.15 419.74C685 419.74 645.33 475.87 645.33 523.28C645.33 560.96 669.33 620.84 769.33 620.84C853.33 620.84 909.87 584.21 929.16 572.33L924.34 620.09Z" fill="#DADADA"/>
<path d="M1703.06 623C1703.06 623 1639.38 662.17 1541.9 662.17C1423.1 662.17 1375.48 596.1 1375.48 525.03C1375.48 453.96 1432.89 381.03 1546.16 381.03C1659.43 381.03 1689.41 470.23 1682.16 528.33H1402.51V497.73H1629C1629 497.73 1631.91 419.73 1541.44 419.73C1467.28 419.73 1427.61 475.86 1427.61 523.27C1427.61 560.95 1451.61 620.83 1551.61 620.83C1635.61 620.83 1705.32 580.15 1747.8 533.76L1703.06 623Z" fill="#DADADA"/>
<path d="M1311.59 623C1311.59 623 1247.98 662.17 1150.59 662.17C1031.92 662.17 984.36 596.1 984.36 525.03C984.36 453.96 1041.71 381.03 1154.85 381.03C1267.99 381.03 1297.94 470.23 1290.71 528.33H1011.37V497.73H1237.57C1237.57 497.73 1240.47 419.73 1150.11 419.73C1076.02 419.73 1036.4 475.86 1036.4 523.27C1036.4 560.95 1060.4 620.83 1160.31 620.83C1224.71 621.094 1287.16 598.805 1336.84 557.83L1311.59 623Z" fill="#DADADA"/>
<path d="M533.52 620C533.52 620 465.69 662.17 368.34 662.17C249.7 662.17 202.14 596.1 202.14 525.03C202.14 453.96 259.48 381.03 372.6 381.03C485.72 381.03 515.66 470.23 508.43 528.33H229.14V497.73H455.29C455.29 497.73 458.19 419.73 367.85 419.73C293.78 419.73 254.16 475.86 254.16 523.27C254.16 560.95 278.16 620.83 378.04 620.83C461.97 620.83 516.2 587.24 533.52 576.19V620Z" fill="#DADADA"/>
</svg>