<svg width="3000" height="4000" viewBox="0 0 3000 4000" fill="none" xmlns="http://www.w3.org/2000/svg">
<rect width="3000" height="4000" transform="translate(0 -0.000244141)" fill="#ECECEC"/>
<rect x="789" y="1289" width="1422" height="1422" rx="320" fill="url(#paint0_linear_1_113)"/>
<path d="M1685 2029C1541.85 2029 1428 1915.12 1428 1773C1428 1631.87 1541.87 1517 1685 1517C1825.12 1517 1940 1631.85 1940 1773C1940 1915.15 1826.12 2029 1685 2029Z" stroke="#677677" stroke-width="14"/>
<path d="M1490 2550C1272.83 2550 1101 2377.1 1101 2165C1101 1948.95 1272.78 1780 1490 1780C1705.2 1780 1877 1947.94 1877 2165C1877 2377.12 1705.15 2550 1490 2550Z" stroke="#677677" stroke-width="14"/>
<path d="M1094 2165C1094 2360 1228 2476 1373 2476C1538 2476 1634 2369 1634 2234C1634 2054 1429 2003 1429 1788C1289 1788 1094 1925 1094 2165Z" fill="url(#paint1_linear_1_113)"/>
<path d="M1685 1510C1535 1510 1429 1643 1429 1788C1549 1788 1598 1871 1728 1871C1843 1871 1905 1791 1905 1706C1905 1596 1815 1510 1685 1510Z" fill="url(#paint2_linear_1_113)"/>
<defs>
<linearGradient id="paint0_linear_1_113" x1="1500" y1="1475.16" x2="1500" y2="3740.05" gradientUnits="userSpaceOnUse">
<stop stop-color="#677677"/>
<stop offset="1"/>
</linearGradient>
<linearGradient id="paint1_linear_1_113" x1="1364" y1="1871" x2="1364" y2="2476" gradientUnits="userSpaceOnUse">
<stop stop-color="#677677"/>
<stop offset="1" stop-color="#ECECEC"/>
</linearGradient>
<linearGradient id="paint2_linear_1_113" x1="1429" y1="1395" x2="1905" y2="1871" gradientUnits="userSpaceOnUse">
<stop stop-color="#ECECEC"/>
<stop offset="1" stop-color="#677677"/>
</linearGradient>
</defs>
</svg>
