<svg width="6000" height="4000" viewBox="0 0 6000 4000" fill="none" xmlns="http://www.w3.org/2000/svg">
<rect width="6000" height="4000" fill="black"/>
<g clip-path="url(#clip0_2_457)">
<path d="M436.5 620C436.5 728.524 348.524 816.5 240 816.5C131.476 816.5 43.5 728.524 43.5 620C43.5 511.476 131.476 423.5 240 423.5C348.524 423.5 436.5 511.476 436.5 620Z" stroke="#333333" stroke-width="7"/>
<path d="M336.5 620C336.5 673.296 293.296 716.5 240 716.5C186.705 716.5 143.5 673.296 143.5 620C143.5 566.705 186.705 523.5 240 523.5C293.296 523.5 336.5 566.705 336.5 620Z" stroke="#333333" stroke-width="7"/>
<path d="M100 443.5H380C400.158 443.5 416.5 459.842 416.5 480V760C416.5 780.158 400.158 796.5 380 796.5H100C79.8416 796.5 63.5 780.158 63.5 760V480C63.5 459.842 79.8416 443.5 100 443.5Z" stroke="#333333" stroke-width="7"/>
<path d="M120 423.5H360C380.158 423.5 396.5 439.842 396.5 460V780C396.5 800.158 380.158 816.5 360 816.5H120C99.8416 816.5 83.5 800.158 83.5 780V460C83.5 439.842 99.8416 423.5 120 423.5Z" stroke="#333333" stroke-width="7"/>
<path d="M80 463.5H400C420.158 463.5 436.5 479.842 436.5 500V740C436.5 760.158 420.158 776.5 400 776.5H80C59.8416 776.5 43.5 760.158 43.5 740V500C43.5 479.842 59.8416 463.5 80 463.5Z" stroke="#333333" stroke-width="7"/>
<rect x="3.5" y="383.5" width="473" height="473" stroke="#555555" stroke-width="7"/>
<path d="M0.625 380.625L479.375 859.375" stroke="#555555" stroke-width="7" stroke-miterlimit="10"/>
<path d="M479.375 380.625L0.625 859.375" stroke="#555555" stroke-width="7" stroke-miterlimit="10"/>
<path d="M320 380V860" stroke="#555555" stroke-width="7" stroke-miterlimit="10"/>
<path d="M160 380V860" stroke="#555555" stroke-width="7" stroke-miterlimit="10"/>
<path d="M480 700H0" stroke="#555555" stroke-width="7" stroke-miterlimit="10"/>
<path d="M480 540H0" stroke="#555555" stroke-width="7" stroke-miterlimit="10"/>
<path d="M0 620H480" stroke="#555555" stroke-width="7" stroke-miterlimit="10"/>
<path d="M240 380V860" stroke="#555555" stroke-width="7" stroke-miterlimit="10"/>
</g>
<path fill-rule="evenodd" clip-rule="evenodd" d="M1040 460C1040 437.909 1057.91 420 1080 420H1240C1262.09 420 1280 437.909 1280 460V780C1280 802.091 1262.09 820 1240 820H1080C1057.91 820 1040 802.091 1040 780V460ZM1060 450C1060 444.477 1064.48 440 1070 440H1250C1255.52 440 1260 444.477 1260 450V790C1260 795.523 1255.52 800 1250 800H1070C1064.48 800 1060 795.523 1060 790V450Z" fill="#999999"/>
<path d="M1193.69 665.192C1187.16 671.526 1180.02 670.526 1173.16 667.526C1165.89 664.459 1159.22 664.326 1151.56 667.526C1141.96 671.659 1136.89 670.459 1131.16 665.192C1098.62 631.659 1103.42 580.592 1140.36 578.726C1149.36 579.192 1155.62 583.659 1160.89 584.059C1168.76 582.459 1176.29 577.859 1184.69 578.459C1194.76 579.259 1202.36 583.259 1207.36 590.459C1186.56 602.926 1191.49 630.326 1210.56 637.992C1206.76 647.992 1201.82 657.926 1193.62 665.259L1193.69 665.192ZM1160.22 578.326C1159.22 563.459 1171.29 551.192 1185.16 549.992C1187.09 567.192 1169.56 579.992 1160.22 578.326Z" fill="#999999"/>
<path fill-rule="evenodd" clip-rule="evenodd" d="M1960 460C1960 437.909 1977.91 420 2000 420H2160C2182.09 420 2200 437.909 2200 460V780C2200 802.091 2182.09 820 2160 820H2000C1977.91 820 1960 802.091 1960 780V460ZM1980 450C1980 444.477 1984.48 440 1990 440H2170C2175.52 440 2180 444.477 2180 450V790C2180 795.523 2175.52 800 2170 800H1990C1984.48 800 1980 795.523 1980 790V450Z" fill="#999999"/>
<path d="M2117.33 583.2L2129.6 562C2130.67 559.933 2129.87 557.4 2127.87 556.333C2125.93 555.333 2123.53 555.933 2122.33 557.8L2109.8 579.4C2090.73 571.333 2069.27 571.333 2050.2 579.4L2037.67 557.8C2036.4 555.867 2033.8 555.267 2031.87 556.467C2030 557.667 2029.4 560.067 2030.4 562L2042.67 583.2C2022 595 2008.53 616.267 2006.67 640H2153.33C2151.47 616.267 2138 595 2117.33 583.2ZM2046.67 621.667C2042.07 621.667 2038.33 617.933 2038.33 613.333C2038.33 608.733 2042.07 605 2046.67 605C2051.27 605 2055 608.733 2055 613.333C2055 617.933 2051.27 621.667 2046.67 621.667ZM2113.33 621.667C2108.73 621.667 2105 617.933 2105 613.333C2105 608.733 2108.73 605 2113.33 605C2117.93 605 2121.67 608.733 2121.67 613.333C2121.67 617.933 2117.93 621.667 2113.33 621.667Z" fill="#999999"/>
<path fill-rule="evenodd" clip-rule="evenodd" d="M2880 420C2857.91 420 2840 437.909 2840 460V780C2840 802.091 2857.91 820 2880 820H3120C3142.09 820 3160 802.091 3160 780V460C3160 437.909 3142.09 420 3120 420H2880ZM2870 440C2864.48 440 2860 444.477 2860 450V790C2860 795.523 2864.48 800 2870 800H3130C3135.52 800 3140 795.523 3140 790V450C3140 444.477 3135.52 440 3130 440H2870Z" fill="#999999"/>
<path fill-rule="evenodd" clip-rule="evenodd" d="M3840 460C3840 437.909 3857.91 420 3880 420H3960C3982.09 420 4000 437.909 4000 460V493.414C4023.3 501.651 4040 523.876 4040 550V690C4040 716.124 4023.3 738.349 4000 746.586V780C4000 802.091 3982.09 820 3960 820H3880C3857.91 820 3840 802.091 3840 780V746.586C3816.7 738.349 3800 716.124 3800 690V550C3800 523.876 3816.7 501.651 3840 493.414V460ZM3870 440C3864.48 440 3860 444.477 3860 450V490H3980V450C3980 444.477 3975.52 440 3970 440H3870ZM3860 750H3980V790C3980 795.523 3975.52 800 3970 800H3870C3864.48 800 3860 795.523 3860 790V750ZM3860 510C3837.91 510 3820 527.909 3820 550V690C3820 712.091 3837.91 730 3860 730H3980C4002.09 730 4020 712.091 4020 690V550C4020 527.909 4002.09 510 3980 510H3860Z" fill="#999999"/>
<path fill-rule="evenodd" clip-rule="evenodd" d="M4800 420C4777.91 420 4760 437.909 4760 460V505.094C4723.73 530.393 4700 572.425 4700 620C4700 667.575 4723.73 709.607 4760 734.906V780C4760 802.091 4777.91 820 4800 820H4880C4902.09 820 4920 802.091 4920 780V734.906C4956.27 709.607 4980 667.575 4980 620C4980 572.425 4956.27 530.393 4920 505.094V460C4920 437.909 4902.09 420 4880 420H4800ZM4900 493.473V450C4900 444.477 4895.52 440 4890 440H4790C4784.48 440 4780 444.477 4780 450V493.473C4798.19 484.834 4818.53 480 4840 480C4861.47 480 4881.81 484.834 4900 493.473ZM4900 746.527C4881.81 755.166 4861.47 760 4840 760C4818.53 760 4798.19 755.166 4780 746.527V790C4780 795.523 4784.48 800 4790 800H4890C4895.52 800 4900 795.523 4900 790V746.527ZM4960 620C4960 686.274 4906.27 740 4840 740C4773.73 740 4720 686.274 4720 620C4720 553.726 4773.73 500 4840 500C4906.27 500 4960 553.726 4960 620Z" fill="#999999"/>
<path fill-rule="evenodd" clip-rule="evenodd" d="M5920 420H5900V480H5920L5920 560C5920 609.62 5897.41 653.965 5861.96 683.312C5873.4 664.935 5880 643.239 5880 620C5880 553.726 5826.28 500 5760 500C5660.59 500 5580 580.589 5580 680V760H5560V820H5620V760H5600V680C5600 630.38 5622.59 586.035 5658.04 556.688C5646.61 575.066 5640 596.761 5640 620C5640 686.274 5693.73 740 5760 740C5859.41 740 5940 659.411 5940 560L5940 480H5960V420H5940V440H5920V420ZM5760 720C5815.23 720 5860 675.229 5860 620C5860 564.772 5815.23 520 5760 520C5704.77 520 5660 564.772 5660 620C5660 675.229 5704.77 720 5760 720Z" fill="#999999"/>
<path d="M80 1370C57.9086 1370 40 1387.91 40 1410V1620C40 1642.09 57.9086 1660 80 1660H100V1600H70C64.4772 1600 60 1595.52 60 1590V1400C60 1394.48 64.4772 1390 70 1390H410C415.523 1390 420 1394.48 420 1400V1590C420 1595.52 415.523 1600 410 1600H380V1660H400C422.091 1660 440 1642.09 440 1620V1410C440 1387.91 422.091 1370 400 1370H80Z" fill="#999999"/>
<path fill-rule="evenodd" clip-rule="evenodd" d="M120 1590C120 1578.95 128.954 1570 140 1570H340C351.046 1570 360 1578.95 360 1590V1720H400V1730C400 1735.52 395.523 1740 390 1740H90C84.4772 1740 80 1735.52 80 1730V1720H120V1590ZM340 1590H140V1720H340V1590Z" fill="#999999"/>
<path fill-rule="evenodd" clip-rule="evenodd" d="M960 1710V1720C960 1731.05 968.954 1740 980 1740H1340C1351.05 1740 1360 1731.05 1360 1720V1710H1310V1550C1310 1533.43 1296.57 1520 1280 1520H1040C1023.43 1520 1010 1533.43 1010 1550V1710H960ZM1040 1540C1034.48 1540 1030 1544.48 1030 1550V1710H1290V1550C1290 1544.48 1285.52 1540 1280 1540H1040Z" fill="#999999"/>
<path fill-rule="evenodd" clip-rule="evenodd" d="M1920 1360C1897.91 1360 1880 1377.91 1880 1400V1620C1880 1642.09 1897.91 1660 1920 1660H2020C2020 1693.14 1993.14 1720 1960 1720V1740H2200V1720C2166.86 1720 2140 1693.14 2140 1660H2240C2262.09 1660 2280 1642.09 2280 1620V1400C2280 1377.91 2262.09 1360 2240 1360H1920ZM2012.92 1720C2029.52 1705.34 2040 1683.89 2040 1660H2120C2120 1683.89 2130.48 1705.34 2147.08 1720H2012.92ZM1910 1380C1904.48 1380 1900 1384.48 1900 1390V1590C1900 1595.52 1904.48 1600 1910 1600H2250C2255.52 1600 2260 1595.52 2260 1590V1390C2260 1384.48 2255.52 1380 2250 1380H1910Z" fill="#999999"/>
<path fill-rule="evenodd" clip-rule="evenodd" d="M2860 1350C2860 1344.48 2855.52 1340 2850 1340C2844.48 1340 2840 1344.48 2840 1350V1380C2817.91 1380 2800 1397.91 2800 1420V1660C2800 1682.09 2817.91 1700 2840 1700V1720H2810V1740H2890V1720H2860V1700H2980V1680H2830C2824.48 1680 2820 1675.52 2820 1670V1410C2820 1404.48 2824.48 1400 2830 1400H3090C3095.52 1400 3100 1404.48 3100 1410V1590H3120V1420C3120 1397.91 3102.09 1380 3080 1380L3080 1380V1350C3080 1344.48 3075.52 1340 3070 1340C3064.48 1340 3060 1344.48 3060 1350V1380H2860V1350ZM2993.69 1585.19C2987.16 1591.53 2980.02 1590.53 2973.16 1587.53C2965.89 1584.46 2959.22 1584.33 2951.56 1587.53C2941.96 1591.66 2936.89 1590.46 2931.16 1585.19C2898.62 1551.66 2903.42 1500.59 2940.36 1498.73C2945.54 1498.99 2949.82 1500.59 2953.52 1501.97C2956.25 1502.99 2958.66 1503.89 2960.89 1504.06C2963.74 1503.48 2966.54 1502.51 2969.35 1501.53C2974.32 1499.81 2979.33 1498.08 2984.69 1498.46C2994.76 1499.26 3002.36 1503.26 3007.36 1510.46C2986.56 1522.93 2991.49 1550.33 3010.56 1557.99C3006.76 1567.99 3001.82 1577.93 2993.62 1585.26L2993.69 1585.19ZM2960.22 1498.33C2959.22 1483.46 2971.29 1471.19 2985.16 1469.99C2987.09 1487.19 2969.56 1499.99 2960.22 1498.33Z" fill="#999999"/>
<path fill-rule="evenodd" clip-rule="evenodd" d="M3010 1610C3004.48 1610 3000 1614.48 3000 1620V1710C3000 1715.52 3004.48 1720 3010 1720H3026C3028.21 1720 3030 1721.79 3030 1724C3030 1732.84 3037.16 1740 3046 1740H3154C3162.84 1740 3170 1732.84 3170 1724C3170 1721.79 3171.79 1720 3174 1720H3190C3195.52 1720 3200 1715.52 3200 1710V1620C3200 1614.48 3195.52 1610 3190 1610H3010ZM3170 1700C3175.52 1700 3180 1695.52 3180 1690C3180 1684.48 3175.52 1680 3170 1680C3164.48 1680 3160 1684.48 3160 1690C3160 1695.52 3164.48 1700 3170 1700Z" fill="#999999"/>
<path fill-rule="evenodd" clip-rule="evenodd" d="M3740 1560C3740 1537.91 3757.91 1520 3780 1520H4060C4082.09 1520 4100 1537.91 4100 1560V1680C4100 1702.09 4082.09 1720 4060 1720L4051.72 1728.28C4044.22 1735.79 4034.04 1740 4023.43 1740H3816.57C3805.96 1740 3795.79 1735.79 3788.29 1728.28L3780 1720C3757.91 1720 3740 1702.09 3740 1680V1560ZM3760 1550C3760 1544.48 3764.48 1540 3770 1540H4070C4075.52 1540 4080 1544.48 4080 1550V1690C4080 1695.52 4075.52 1700 4070 1700H3770C3764.48 1700 3760 1695.52 3760 1690V1550ZM4020 1680C4031.05 1680 4040 1671.05 4040 1660C4040 1648.95 4031.05 1640 4020 1640C4008.96 1640 4000 1648.95 4000 1660C4000 1671.05 4008.96 1680 4020 1680Z" fill="#999999"/>
<path fill-rule="evenodd" clip-rule="evenodd" d="M4640 1620C4640 1597.91 4657.91 1580 4680 1580H5000C5022.09 1580 5040 1597.91 5040 1620V1700C5040 1722.09 5022.09 1740 5000 1740H4680C4657.91 1740 4640 1722.09 4640 1700V1620ZM4660 1610C4660 1604.48 4664.48 1600 4670 1600H5010C5015.52 1600 5020 1604.48 5020 1610V1710C5020 1715.52 5015.52 1720 5010 1720H4670C4664.48 1720 4660 1715.52 4660 1710V1610ZM4940 1700C4951.05 1700 4960 1691.05 4960 1680C4960 1668.95 4951.05 1660 4940 1660C4928.96 1660 4920 1668.95 4920 1680C4920 1691.05 4928.96 1700 4940 1700Z" fill="#999999"/>
<path fill-rule="evenodd" clip-rule="evenodd" d="M5860 1380H5660C5626.86 1380 5600 1406.86 5600 1440V1640C5600 1673.14 5626.86 1700 5660 1700H5860C5893.14 1700 5920 1673.14 5920 1640V1440C5920 1406.86 5893.14 1380 5860 1380ZM5660 1360C5615.82 1360 5580 1395.82 5580 1440V1640C5580 1684.18 5615.82 1720 5660 1720H5860C5904.18 1720 5940 1684.18 5940 1640V1440C5940 1395.82 5904.18 1360 5860 1360H5660Z" fill="#999999"/>
<path d="M5793.69 1585.19C5787.16 1591.53 5780.02 1590.53 5773.16 1587.53C5765.89 1584.46 5759.22 1584.33 5751.56 1587.53C5741.96 1591.66 5736.89 1590.46 5731.16 1585.19C5698.62 1551.66 5703.42 1500.59 5740.36 1498.73C5749.36 1499.19 5755.62 1503.66 5760.89 1504.06C5768.76 1502.46 5776.29 1497.86 5784.69 1498.46C5794.76 1499.26 5802.36 1503.26 5807.36 1510.46C5786.56 1522.93 5791.49 1550.33 5810.56 1557.99C5806.76 1567.99 5801.82 1577.93 5793.62 1585.26L5793.69 1585.19ZM5760.22 1498.33C5759.22 1483.46 5771.29 1471.19 5785.16 1469.99C5787.09 1487.19 5769.56 1499.99 5760.22 1498.33Z" fill="#999999"/>
<path fill-rule="evenodd" clip-rule="evenodd" d="M160 2260C137.909 2260 120 2277.91 120 2300V2620C120 2642.09 137.909 2660 160 2660H320C342.091 2660 360 2642.09 360 2620V2300C360 2277.91 342.091 2260 320 2260H160ZM150 2280C144.477 2280 140 2284.48 140 2290V2350C140 2355.52 144.477 2360 150 2360H210C215.523 2360 220 2355.52 220 2350V2290C220 2284.48 215.523 2280 210 2280H150Z" fill="#999999"/>
<path fill-rule="evenodd" clip-rule="evenodd" d="M1000 2340C977.909 2340 960 2357.91 960 2380V2550C960 2572.09 977.909 2590 1000 2590H1320C1342.09 2590 1360 2572.09 1360 2550V2380C1360 2357.91 1342.09 2340 1320 2340H1000ZM990 2360C984.477 2360 980 2364.48 980 2370V2560C980 2565.52 984.477 2570 990 2570H1330C1335.52 2570 1340 2565.52 1340 2560V2370C1340 2364.48 1335.52 2360 1330 2360H990Z" fill="#999999"/>
<rect x="1150" y="2580" width="20" height="70" fill="#999999" stroke="#999999" stroke-width="20"/>
<path d="M1250 2660L1070 2660L1070 2640L1250 2640L1250 2660Z" fill="#999999"/>
<path d="M2240 2440C2240 2351.63 2168.37 2280 2080 2280C1991.64 2280 1920 2351.63 1920 2440V2450H1900L1900 2440C1900 2340.59 1980.59 2260 2080 2260C2179.41 2260 2260 2340.59 2260 2440V2450H2240V2440Z" fill="#999999"/>
<path fill-rule="evenodd" clip-rule="evenodd" d="M1950 2460C1922.39 2460 1900 2482.39 1900 2510V2610C1900 2637.61 1922.39 2660 1950 2660C1977.62 2660 2000 2637.61 2000 2610V2510C2000 2482.39 1977.62 2460 1950 2460ZM1950 2480C1933.43 2480 1920 2493.43 1920 2510V2610C1920 2626.57 1933.43 2640 1950 2640C1966.57 2640 1980 2626.57 1980 2610V2510C1980 2493.43 1966.57 2480 1950 2480Z" fill="#999999"/>
<path fill-rule="evenodd" clip-rule="evenodd" d="M2210 2460C2182.39 2460 2160 2482.39 2160 2510V2610C2160 2637.61 2182.39 2660 2210 2660C2237.62 2660 2260 2637.61 2260 2610V2510C2260 2482.39 2237.62 2460 2210 2460ZM2210 2480C2193.43 2480 2180 2493.43 2180 2510V2610C2180 2626.57 2193.43 2640 2210 2640C2226.57 2640 2240 2626.57 2240 2610V2510C2240 2493.43 2226.57 2480 2210 2480Z" fill="#999999"/>
<path fill-rule="evenodd" clip-rule="evenodd" d="M3090 2350V2360H3160C3182.09 2360 3200 2377.91 3200 2400V2620C3200 2642.09 3182.09 2660 3160 2660H2840C2817.91 2660 2800 2642.09 2800 2620V2400C2800 2377.91 2817.91 2360 2840 2360H2910V2350C2910 2300.29 2950.29 2260 3000 2260C3049.71 2260 3090 2300.29 3090 2350ZM2830 2380C2824.48 2380 2820 2384.48 2820 2390V2630C2820 2635.52 2824.48 2640 2830 2640H3170C3175.52 2640 3180 2635.52 3180 2630V2390C3180 2384.48 3175.52 2380 3170 2380C3164.48 2380 2835.52 2380 2830 2380ZM3070 2350V2360H2930V2350C2930 2311.34 2961.34 2280 3000 2280C3038.66 2280 3070 2311.34 3070 2350Z" fill="#999999"/>
<path d="M3000 2470C3038.66 2470 3070 2438.66 3070 2400H3090C3090 2449.71 3049.71 2490 3000 2490C2950.29 2490 2910 2449.71 2910 2400H2930C2930 2438.66 2961.34 2470 3000 2470Z" fill="#999999"/>
<path fill-rule="evenodd" clip-rule="evenodd" d="M3930 2520H3964.63C3973.7 2520 3981.62 2526.09 3983.82 2534.88C3989.63 2558.06 4000 2602 4000 2620C4000 2640 3978.35 2660 3950 2660C3870 2660 3820 2560 3820 2460C3820 2360 3870 2260 3950 2260C3980 2260 4000 2280 4000 2300C4000 2314.52 3989.46 2360.65 3983.68 2384.85C3981.55 2393.78 3973.56 2400 3964.38 2400H3930C3930 2400 3920 2425 3920 2460C3920 2495 3930 2520 3930 2520ZM3915.58 2540H3964.49C3967.35 2551.46 3971.29 2567.8 3974.5 2583.41C3977.87 2599.81 3980 2613.35 3980 2620C3980 2625.78 3970.77 2640 3950 2640C3919.46 2640 3892.5 2621.12 3872.15 2587.21C3851.82 2553.32 3840 2507.01 3840 2460C3840 2412.99 3851.82 2366.68 3872.15 2332.79C3892.5 2298.88 3919.46 2280 3950 2280C3971.96 2280 3980 2293.83 3980 2300C3980 2304.81 3977.9 2317.79 3974.42 2334.78C3971.14 2350.75 3967.15 2367.99 3964.28 2380H3915.58C3915.58 2380 3900 2415 3900 2460C3900 2505 3915.58 2540 3915.58 2540Z" fill="#999999"/>
<path fill-rule="evenodd" clip-rule="evenodd" d="M4660 2311.72L4825.86 2477.57C4833.67 2485.38 4846.33 2485.38 4854.14 2477.57L5020 2311.72V2305.35C5027.22 2309.53 5033.01 2315.89 5036.47 2323.54L4900 2460L5036.47 2596.46C5033.01 2604.11 5027.22 2610.47 5020 2614.65V2608.28L4885.86 2474.14L4868.29 2491.72C4852.66 2507.34 4827.34 2507.34 4811.72 2491.72L4794.14 2474.14L4660 2608.28V2614.65C4652.79 2610.48 4646.99 2604.11 4643.54 2596.47L4780 2460L4643.54 2323.53C4646.99 2315.89 4652.78 2309.53 4660 2305.35V2311.72Z" fill="#999999"/>
<rect x="4650" y="2310" width="380" height="300" rx="30" stroke="#999999" stroke-width="20"/>
<path fill-rule="evenodd" clip-rule="evenodd" d="M5940 2600C5940 2622.09 5922.09 2640 5900 2640L5620 2640C5597.91 2640 5580 2622.09 5580 2600L5580 2320C5580 2297.91 5597.91 2280 5620 2280L5900 2280C5922.09 2280 5940 2297.91 5940 2320L5940 2600ZM5900 2620L5620 2620C5608.95 2620 5600 2611.05 5600 2600L5600 2320C5600 2308.95 5608.95 2300 5620 2300L5710 2300L5710 2360C5710 2371.05 5718.95 2380 5730 2380L5790 2380C5801.05 2380 5810 2371.05 5810 2360L5810 2300L5900 2300C5911.05 2300 5920 2308.95 5920 2320L5920 2600C5920 2611.05 5911.05 2620 5900 2620Z" fill="#999999"/>
<path d="M5760 2460H5880V2480H5760V2460Z" fill="#999999"/>
<path d="M5760 2500H5840V2520H5760V2500Z" fill="#999999"/>
<path d="M5760 2540H5880V2560H5760V2540Z" fill="#999999"/>
<mask id="path-41-inside-1_2_457" fill="white">
<path fill-rule="evenodd" clip-rule="evenodd" d="M59.5839 3381.25C47.1442 3363.32 40 3342.37 40 3320C40 3253.73 102.68 3200 180 3200C249.781 3200 307.638 3243.76 318.257 3301.01C386.951 3308.68 440 3359.03 440 3420C440 3442.37 432.856 3463.32 420.416 3481.25L432.929 3518.79L440 3540L417.864 3536.84L359.783 3528.54C341.653 3535.89 321.386 3540 300 3540C230.219 3540 172.362 3496.24 161.743 3438.99C147.065 3437.35 133.102 3433.76 120.218 3428.54L40 3440L59.5839 3381.25ZM403.984 3469.85L398.276 3478.07L401.443 3487.57L410.793 3515.62L362.611 3508.74L357.269 3507.98L352.269 3510.01C336.538 3516.38 318.823 3520 300 3520C230.722 3520 180 3472.45 180 3420C180 3367.55 230.722 3320 300 3320C369.278 3320 420 3367.55 420 3420C420 3437.99 414.281 3455.01 403.984 3469.85Z"/>
</mask>
<path fill-rule="evenodd" clip-rule="evenodd" d="M59.5839 3381.25C47.1442 3363.32 40 3342.37 40 3320C40 3253.73 102.68 3200 180 3200C249.781 3200 307.638 3243.76 318.257 3301.01C386.951 3308.68 440 3359.03 440 3420C440 3442.37 432.856 3463.32 420.416 3481.25L432.929 3518.79L440 3540L417.864 3536.84L359.783 3528.54C341.653 3535.89 321.386 3540 300 3540C230.219 3540 172.362 3496.24 161.743 3438.99C147.065 3437.35 133.102 3433.76 120.218 3428.54L40 3440L59.5839 3381.25ZM403.984 3469.85L398.276 3478.07L401.443 3487.57L410.793 3515.62L362.611 3508.74L357.269 3507.98L352.269 3510.01C336.538 3516.38 318.823 3520 300 3520C230.722 3520 180 3472.45 180 3420C180 3367.55 230.722 3320 300 3320C369.278 3320 420 3367.55 420 3420C420 3437.99 414.281 3455.01 403.984 3469.85Z" fill="#999999"/>
<path d="M59.5839 3381.25L78.5576 3387.57L81.7238 3378.07L76.0162 3369.85L59.5839 3381.25ZM318.257 3301.01L298.592 3304.66L301.297 3319.24L316.038 3320.89L318.257 3301.01ZM420.416 3481.25L403.984 3469.85L398.276 3478.07L401.443 3487.57L420.416 3481.25ZM432.929 3518.79L451.903 3512.46L451.903 3512.46L432.929 3518.79ZM440 3540L437.172 3559.8L469.207 3564.38L458.974 3533.68L440 3540ZM417.864 3536.84L415.036 3556.64L415.036 3556.64L417.864 3536.84ZM359.783 3528.54L362.611 3508.74L357.269 3507.98L352.269 3510.01L359.783 3528.54ZM161.743 3438.99L181.408 3435.34L178.703 3420.76L163.962 3419.11L161.743 3438.99ZM120.218 3428.54L127.731 3410.01L122.731 3407.98L117.389 3408.74L120.218 3428.54ZM40 3440L21.0264 3433.68L10.793 3464.38L42.8285 3459.8L40 3440ZM398.276 3478.07L381.844 3466.67L376.136 3474.9L379.303 3484.4L398.276 3478.07ZM403.984 3469.85L387.552 3458.45L387.552 3458.45L403.984 3469.85ZM401.443 3487.57L382.469 3493.9L382.469 3493.9L401.443 3487.57ZM410.793 3515.62L407.965 3535.42L440 3540L429.767 3509.3L410.793 3515.62ZM362.611 3508.74L365.439 3488.94L365.439 3488.94L362.611 3508.74ZM357.269 3507.98L360.098 3488.18L354.756 3487.42L349.756 3489.44L357.269 3507.98ZM352.269 3510.01L344.755 3491.47L344.755 3491.47L352.269 3510.01ZM20 3320C20 3346.76 28.5692 3371.63 43.1516 3392.65L76.0162 3369.85C65.7191 3355.01 60 3337.99 60 3320H20ZM180 3180C94.6379 3180 20 3239.9 20 3320H60C60 3267.55 110.722 3220 180 3220V3180ZM337.922 3297.36C325.193 3228.73 257.347 3180 180 3180V3220C242.215 3220 290.084 3258.79 298.592 3304.66L337.922 3297.36ZM316.038 3320.89C377.247 3327.72 420 3371.67 420 3420H460C460 3346.39 396.654 3289.64 320.476 3281.13L316.038 3320.89ZM420 3420C420 3437.99 414.281 3455.01 403.984 3469.85L436.848 3492.65C451.431 3471.63 460 3446.76 460 3420H420ZM401.443 3487.57L413.955 3525.11L451.903 3512.46L439.39 3474.92L401.443 3487.57ZM413.955 3525.11L421.026 3546.32L458.974 3533.68L451.903 3512.46L413.955 3525.11ZM442.828 3520.2L420.693 3517.04L415.036 3556.64L437.172 3559.8L442.828 3520.2ZM420.693 3517.04L362.611 3508.74L356.954 3548.34L415.036 3556.64L420.693 3517.04ZM352.269 3510.01C336.538 3516.38 318.823 3520 300 3520V3560C323.949 3560 346.768 3555.4 367.296 3547.08L352.269 3510.01ZM300 3520C237.785 3520 189.916 3481.21 181.408 3435.34L142.078 3442.64C154.807 3511.27 222.653 3560 300 3560V3520ZM112.704 3447.08C127.294 3452.99 143.039 3457.03 159.524 3458.87L163.962 3419.11C151.091 3417.68 138.91 3414.54 127.731 3410.01L112.704 3447.08ZM42.8285 3459.8L123.046 3448.34L117.389 3408.74L37.1716 3420.2L42.8285 3459.8ZM40.6102 3374.92L21.0264 3433.68L58.9737 3446.32L78.5576 3387.57L40.6102 3374.92ZM414.709 3489.48L420.416 3481.25L387.552 3458.45L381.844 3466.67L414.709 3489.48ZM420.416 3481.25L417.25 3471.75L379.303 3484.4L382.469 3493.9L420.416 3481.25ZM429.767 3509.3L420.416 3481.25L382.469 3493.9L391.819 3521.95L429.767 3509.3ZM359.783 3528.54L407.965 3535.42L413.621 3495.83L365.439 3488.94L359.783 3528.54ZM354.441 3527.78L359.783 3528.54L365.439 3488.94L360.098 3488.18L354.441 3527.78ZM359.782 3528.54L364.783 3526.51L349.756 3489.44L344.755 3491.47L359.782 3528.54ZM300 3540C321.386 3540 341.653 3535.89 359.783 3528.54L344.755 3491.47C331.422 3496.88 316.26 3500 300 3500V3540ZM160 3420C160 3486.13 222.514 3540 300 3540V3500C238.93 3500 200 3458.76 200 3420H160ZM300 3300C222.514 3300 160 3353.87 160 3420H200C200 3381.24 238.93 3340 300 3340V3300ZM440 3420C440 3353.87 377.486 3300 300 3300V3340C361.07 3340 400 3381.24 400 3420H440ZM420.416 3481.25C432.857 3463.32 440 3442.37 440 3420H400C400 3433.62 395.705 3446.7 387.552 3458.45L420.416 3481.25Z" fill="#999999" mask="url(#path-41-inside-1_2_457)"/>
<path fill-rule="evenodd" clip-rule="evenodd" d="M990 3240C990 3217.91 1007.91 3200 1030 3200H1220C1242.09 3200 1260 3217.91 1260 3240V3345.56L1240 3365.56V3270C1240 3264.48 1235.52 3260 1230 3260H1020C1014.48 3260 1010 3264.48 1010 3270V3530C1010 3535.52 1014.48 3540 1020 3540H1230C1235.52 3540 1240 3535.52 1240 3530V3477.62C1241.92 3476.42 1243.7 3475 1245.31 3473.39L1260 3458.7V3520C1260 3542.09 1242.09 3560 1220 3560H1030C1007.91 3560 990 3542.09 990 3520V3240ZM1260 3430.42L1240 3450.42L1231.17 3459.25C1230.07 3460.35 1228.73 3461.17 1227.26 3461.67L1202.42 3469.94C1199.51 3470.91 1196.31 3470.16 1194.14 3467.99C1191.98 3465.82 1191.22 3462.62 1192.19 3459.71L1200.47 3434.87C1200.96 3433.4 1201.78 3432.06 1202.88 3430.97L1240 3393.85L1260 3373.85L1307.28 3326.57L1321.4 3312.45L1321.42 3312.43L1335.56 3326.57L1349.71 3340.71L1349.68 3340.74L1335.56 3354.85L1260 3430.42ZM1040 3380H1210V3400H1040V3380ZM1210 3310H1040V3330H1210V3310ZM1040 3450H1170V3470H1040V3450ZM1335.54 3298.31L1335.56 3298.28L1349.68 3284.17L1349.71 3284.14C1357.52 3276.33 1370.18 3276.33 1377.99 3284.14C1385.8 3291.95 1385.8 3304.62 1377.99 3312.43L1377.97 3312.45L1363.85 3326.57L1363.82 3326.59L1349.68 3312.45L1335.54 3298.31Z" fill="#999999"/>
<path fill-rule="evenodd" clip-rule="evenodd" d="M2238.83 3399.46C2229.23 3478.65 2161.78 3540 2080 3540C1991.63 3540 1920 3468.37 1920 3380C1920 3325.01 1947.74 3276.49 1990 3247.69V3274.09C1990 3283.93 1995.49 3292.5 2003.58 3296.88C2007.24 3298.87 2011.45 3300 2015.91 3300C2021.79 3300 2027.5 3298 2032.1 3294.32L2035 3292L2037.5 3290L2040.87 3287.3C2046.78 3282.57 2054.12 3280 2061.69 3280L2080 3280C2088.28 3280 2095 3286.72 2095 3295C2095 3303.28 2088.28 3310 2080 3310L2044.52 3310H2035C2028.29 3310 2021.86 3311.2 2015.91 3313.4C2012.14 3314.8 2008.56 3316.6 2005.22 3318.75C1990.05 3328.54 1980 3345.6 1980 3365V3373.33C1980 3399.11 2000.89 3420 2026.67 3420C2039.55 3420 2050 3430.45 2050 3443.33V3480C2050 3502.09 2067.91 3520 2090 3520H2097.03C2111.25 3520 2124.41 3512.44 2131.58 3500.16L2184.64 3409.19C2188.15 3403.17 2190 3396.33 2190 3389.36V3375C2190 3361.19 2178.81 3350 2165 3350L2150 3350C2144.48 3350 2140 3345.52 2140 3340C2140 3334.48 2144.48 3330 2150 3330L2165 3330H2175C2194.33 3330 2210 3345.67 2210 3365C2210 3382.22 2222.44 3396.54 2238.83 3399.46ZM2240 3379.15C2234.17 3377.09 2230 3371.53 2230 3365C2230 3334.62 2205.38 3310 2175 3310H2150C2133.43 3310 2120 3323.43 2120 3340C2120 3356.57 2133.43 3370 2150 3370L2165 3370C2167.76 3370 2170 3372.24 2170 3375V3389.36C2170 3392.79 2169.09 3396.15 2167.36 3399.11L2114.3 3490.08C2110.72 3496.22 2104.14 3500 2097.03 3500H2090C2078.95 3500 2070 3491.05 2070 3480V3443.33C2070 3419.4 2050.6 3400 2026.67 3400C2011.94 3400 2000 3388.06 2000 3373.33V3365C2000 3345.67 2015.67 3330 2035 3330H2080C2099.33 3330 2115 3314.33 2115 3295C2115 3275.67 2099.33 3260 2080 3260H2061.69C2049.58 3260 2037.83 3264.12 2028.38 3271.68L2019.6 3278.71C2018.56 3279.54 2017.25 3280 2015.91 3280C2012.65 3280 2010 3277.35 2010 3274.09V3236.08C2031.14 3225.78 2054.9 3220 2080 3220C2168.08 3220 2239.54 3291.17 2240 3379.15ZM2259.97 3376.91C2259.99 3377.94 2260 3378.97 2260 3380C2260 3380.78 2260 3381.55 2259.99 3382.33C2259.91 3387.89 2259.59 3393.4 2259.03 3398.83C2249.61 3489.39 2173.05 3560 2080 3560C1980.59 3560 1900 3479.41 1900 3380C1900 3280.59 1980.59 3200 2080 3200C2178.38 3200 2258.33 3278.92 2259.97 3376.91Z" fill="#999999"/>
<path fill-rule="evenodd" clip-rule="evenodd" d="M3000 3540C3088.37 3540 3160 3468.37 3160 3380C3160 3291.63 3088.37 3220 3000 3220C2911.64 3220 2840 3291.63 2840 3380C2840 3468.37 2911.64 3540 3000 3540ZM3000 3560C3099.41 3560 3180 3479.41 3180 3380C3180 3280.59 3099.41 3200 3000 3200C2900.59 3200 2820 3280.59 2820 3380C2820 3479.41 2900.59 3560 3000 3560ZM3015 3455C3015 3463.28 3008.29 3470 3000 3470C2991.72 3470 2985 3463.28 2985 3455C2985 3446.72 2991.72 3440 3000 3440C3008.29 3440 3015 3446.72 3015 3455ZM2960 3340C2960 3334.24 2962.03 3324 2968.57 3315.45C2974.73 3307.4 2985.49 3300 3005 3300C3017.67 3300 3026.27 3304.16 3031.68 3309.57C3037.18 3315.07 3040 3322.47 3040 3330C3040 3339.13 3037.58 3343.39 3034.95 3346.15C3032.11 3349.13 3028.52 3351.08 3023.13 3354L3023.13 3354C3022.21 3354.51 3021.22 3355.04 3020.18 3355.61C3013.67 3359.19 3005.66 3364.02 2999.58 3372.84C2993.43 3381.76 2990 3393.6 2990 3410V3420H3010V3410C3010 3396.4 3012.82 3388.87 3016.05 3384.19C3019.34 3379.42 3023.83 3376.43 3029.82 3373.14C3030.57 3372.73 3031.36 3372.3 3032.2 3371.85L3032.2 3371.85L3032.2 3371.85C3037.44 3369.05 3044.21 3365.42 3049.43 3359.94C3056.17 3352.86 3060 3343.37 3060 3330C3060 3317.53 3055.32 3304.93 3045.82 3295.43C3036.23 3285.84 3022.33 3280 3005 3280C2979.51 3280 2962.77 3290.1 2952.68 3303.3C2942.97 3316 2940 3330.76 2940 3340H2960Z" fill="#999999"/>
<path fill-rule="evenodd" clip-rule="evenodd" d="M3920 3360C3956.73 3360 3990 3326.22 3990 3280C3990 3233.78 3956.73 3200 3920 3200C3883.27 3200 3850 3233.78 3850 3280C3850 3326.22 3883.27 3360 3920 3360ZM3920 3380C3969.71 3380 4010 3335.23 4010 3280C4010 3224.77 3969.71 3180 3920 3180C3870.29 3180 3830 3224.77 3830 3280C3830 3335.23 3870.29 3380 3920 3380Z" fill="#999999"/>
<path fill-rule="evenodd" clip-rule="evenodd" d="M4054.25 3538.69C4059.36 3534.86 4060 3532.14 4060 3530C4060 3503.31 4044.83 3478.76 4018.44 3460.07C3992.02 3441.36 3956.12 3430 3920 3430C3883.88 3430 3847.98 3441.36 3821.56 3460.07C3795.17 3478.76 3780 3503.31 3780 3530C3780 3532.14 3780.64 3534.86 3785.75 3538.69C3791.42 3542.94 3800.97 3547.13 3814.85 3550.6C3842.4 3557.49 3880.41 3560 3920 3560C3959.59 3560 3997.6 3557.49 4025.15 3550.6C4039.03 3547.13 4048.58 3542.94 4054.25 3538.69ZM3920 3580C4000 3580 4080 3570 4080 3530C4080 3460 4000 3410 3920 3410C3840 3410 3760 3460 3760 3530C3760 3570 3840 3580 3920 3580Z" fill="#999999"/>
<path fill-rule="evenodd" clip-rule="evenodd" d="M4840 3340C4860.61 3340 4880 3321.39 4880 3295C4880 3268.61 4860.61 3250 4840 3250C4819.39 3250 4800 3268.61 4800 3295C4800 3321.39 4819.39 3340 4840 3340ZM4840 3360C4873.14 3360 4900 3330.9 4900 3295C4900 3259.1 4873.14 3230 4840 3230C4806.86 3230 4780 3259.1 4780 3295C4780 3330.9 4806.86 3360 4840 3360Z" fill="#999999"/>
<path fill-rule="evenodd" clip-rule="evenodd" d="M4919.9 3462.38C4919.95 3461.89 4920 3461.12 4920 3460C4920 3433.83 4891.96 3400 4840 3400C4788.04 3400 4760 3433.83 4760 3460C4760 3461.12 4760.05 3461.89 4760.1 3462.38C4760.65 3462.7 4761.58 3463.16 4763.08 3463.7C4773.04 3467.32 4794.57 3470 4840 3470C4885.43 3470 4906.96 3467.32 4916.92 3463.7C4918.42 3463.16 4919.35 3462.7 4919.9 3462.38ZM4840 3490C4930 3490 4940 3480 4940 3460C4940 3420 4900 3380 4840 3380C4780 3380 4740 3420 4740 3460C4740 3480 4750 3490 4840 3490Z" fill="#999999"/>
<g clip-path="url(#clip1_2_457)">
<path fill-rule="evenodd" clip-rule="evenodd" d="M5760 3340C5780.62 3340 5800 3321.39 5800 3295C5800 3268.61 5780.62 3250 5760 3250C5739.39 3250 5720 3268.61 5720 3295C5720 3321.39 5739.39 3340 5760 3340ZM5760 3360C5793.14 3360 5820 3330.9 5820 3295C5820 3259.1 5793.14 3230 5760 3230C5726.86 3230 5700 3259.1 5700 3295C5700 3330.9 5726.86 3360 5760 3360Z" fill="#999999"/>
<path fill-rule="evenodd" clip-rule="evenodd" d="M5615 3350C5632.73 3350 5650 3333.77 5650 3310C5650 3286.24 5632.73 3270 5615 3270C5597.27 3270 5580 3286.24 5580 3310C5580 3333.77 5597.27 3350 5615 3350ZM5615 3370C5645.38 3370 5670 3343.14 5670 3310C5670 3276.86 5645.38 3250 5615 3250C5584.63 3250 5560 3276.86 5560 3310C5560 3343.14 5584.63 3370 5615 3370Z" fill="#999999"/>
<path fill-rule="evenodd" clip-rule="evenodd" d="M5905 3350C5922.73 3350 5940 3333.77 5940 3310C5940 3286.24 5922.73 3270 5905 3270C5887.27 3270 5870 3286.24 5870 3310C5870 3333.77 5887.27 3350 5905 3350ZM5905 3370C5935.38 3370 5960 3343.14 5960 3310C5960 3276.86 5935.38 3250 5905 3250C5874.63 3250 5850 3276.86 5850 3310C5850 3343.14 5874.63 3370 5905 3370Z" fill="#999999"/>
<path fill-rule="evenodd" clip-rule="evenodd" d="M5869.77 3489.24C5879.78 3489.75 5891.43 3490 5905 3490C5990.5 3490 6000 3480 6000 3460C6000 3420 5962 3380 5905 3380C5883.94 3380 5865.47 3385.46 5850.55 3394.37C5855.52 3399.15 5859.95 3404.32 5863.77 3409.8C5874.96 3403.77 5888.79 3400 5905 3400C5952.94 3400 5980 3432.93 5980 3460C5980 3461.31 5979.94 3462.17 5979.87 3462.69C5979.4 3462.97 5978.62 3463.36 5977.41 3463.82C5968.31 3467.31 5948.19 3470 5905 3470C5895.3 3470 5886.77 3469.86 5879.26 3469.61C5878.49 3474.1 5876.96 3478.98 5873.99 3483.73C5872.73 3485.74 5871.32 3487.57 5869.77 3489.24Z" fill="#999999"/>
<path fill-rule="evenodd" clip-rule="evenodd" d="M5669.45 3394.37C5654.53 3385.46 5636.06 3380 5615 3380C5558 3380 5520 3420 5520 3460C5520 3480 5529.5 3490 5615 3490C5628.57 3490 5640.23 3489.75 5650.23 3489.24C5648.68 3487.57 5647.27 3485.74 5646.01 3483.73C5643.04 3478.98 5641.51 3474.1 5640.74 3469.61C5633.24 3469.86 5624.7 3470 5615 3470C5571.81 3470 5551.7 3467.31 5542.59 3463.82C5541.38 3463.36 5540.6 3462.97 5540.13 3462.69C5540.07 3462.17 5540 3461.31 5540 3460C5540 3432.93 5567.06 3400 5615 3400C5631.21 3400 5645.04 3403.77 5656.24 3409.8C5660.05 3404.32 5664.48 3399.15 5669.45 3394.37Z" fill="#999999"/>
<path fill-rule="evenodd" clip-rule="evenodd" d="M5839.9 3462.38C5839.95 3461.89 5840 3461.12 5840 3460C5840 3433.83 5811.96 3400 5760 3400C5708.04 3400 5680 3433.83 5680 3460C5680 3461.12 5680.05 3461.89 5680.11 3462.38C5680.65 3462.7 5681.59 3463.16 5683.09 3463.7C5693.04 3467.32 5714.57 3470 5760 3470C5805.43 3470 5826.97 3467.32 5836.92 3463.7C5838.42 3463.16 5839.35 3462.7 5839.9 3462.38ZM5760 3490C5850 3490 5860 3480 5860 3460C5860 3420 5820 3380 5760 3380C5700 3380 5660 3420 5660 3460C5660 3480 5670 3490 5760 3490Z" fill="#999999"/>
</g>
<defs>
<clipPath id="clip0_2_457">
<rect width="480" height="480" fill="white" transform="translate(0 380)"/>
</clipPath>
<clipPath id="clip1_2_457">
<rect width="480" height="480" fill="white" transform="translate(5520 3140)"/>
</clipPath>
</defs>
</svg>
