<svg width="6001" height="4000" viewBox="0 0 6001 4000" fill="none" xmlns="http://www.w3.org/2000/svg">
<g clip-path="url(#clip0_304_4148)">
<rect width="6000" height="4000" transform="translate(0.666016)" fill="#D3CCC7"/>
<path d="M95.2056 2798.61H-2330.13C-2617.78 2798.61 -2850.96 3031.8 -2850.96 3319.44C-2850.96 3607.09 -2617.78 3840.28 -2330.13 3840.28H95.2056C382.854 3840.28 616.039 3607.09 616.039 3319.44C616.039 3031.8 382.854 2798.61 95.2056 2798.61Z" fill="#2D563C"/>
<path d="M-1679.39 3429.17L-1583.08 3216.5H-1553.01L-1456.39 3429.17H-1488.29L-1574.27 3233.5H-1562.12L-1648.1 3429.17H-1679.39ZM-1638.38 3376L-1630.18 3351.69H-1510.47L-1501.66 3376H-1638.38ZM-1354.14 3431C-1370.55 3431 -1385.23 3427.44 -1398.2 3420.36C-1410.96 3413.28 -1420.98 3403.56 -1428.28 3391.19C-1435.57 3378.83 -1439.21 3364.67 -1439.21 3348.67C-1439.21 3332.67 -1435.57 3318.47 -1428.28 3306.11C-1420.98 3293.78 -1410.96 3284.14 -1398.2 3277.25C-1385.23 3270.17 -1370.55 3266.61 -1354.14 3266.61C-1339.56 3266.61 -1326.6 3269.56 -1315.25 3275.44C-1303.71 3281.11 -1294.8 3289.61 -1288.52 3300.94L-1310.7 3315.22C-1315.96 3307.33 -1322.44 3301.56 -1330.14 3297.92C-1337.64 3294.06 -1345.74 3292.14 -1354.45 3292.14C-1364.98 3292.14 -1374.4 3294.47 -1382.7 3299.14C-1391.01 3303.78 -1397.59 3310.36 -1402.45 3318.89C-1407.31 3327.19 -1409.74 3337.11 -1409.74 3348.67C-1409.74 3360.19 -1407.31 3370.22 -1402.45 3378.72C-1397.59 3387.25 -1391.01 3393.83 -1382.7 3398.47C-1374.4 3403.14 -1364.98 3405.47 -1354.45 3405.47C-1345.74 3405.47 -1337.64 3403.64 -1330.14 3400C-1322.44 3396.14 -1315.96 3390.28 -1310.7 3382.39L-1288.52 3396.36C-1294.8 3407.5 -1303.71 3416.11 -1315.25 3422.17C-1326.6 3428.06 -1339.56 3431 -1354.14 3431ZM-1176.87 3431C-1193.28 3431 -1207.96 3427.44 -1220.93 3420.36C-1233.69 3413.28 -1243.71 3403.56 -1251 3391.19C-1258.3 3378.83 -1261.94 3364.67 -1261.94 3348.67C-1261.94 3332.67 -1258.3 3318.47 -1251 3306.11C-1243.71 3293.78 -1233.69 3284.14 -1220.93 3277.25C-1207.96 3270.17 -1193.28 3266.61 -1176.87 3266.61C-1162.29 3266.61 -1149.33 3269.56 -1137.98 3275.44C-1126.44 3281.11 -1117.53 3289.61 -1111.25 3300.94L-1133.43 3315.22C-1138.69 3307.33 -1145.17 3301.56 -1152.87 3297.92C-1160.36 3294.06 -1168.47 3292.14 -1177.18 3292.14C-1187.71 3292.14 -1197.13 3294.47 -1205.43 3299.14C-1213.74 3303.78 -1220.32 3310.36 -1225.18 3318.89C-1230.04 3327.19 -1232.47 3337.11 -1232.47 3348.67C-1232.47 3360.19 -1230.04 3370.22 -1225.18 3378.72C-1220.32 3387.25 -1213.74 3393.83 -1205.43 3398.47C-1197.13 3403.14 -1187.71 3405.47 -1177.18 3405.47C-1168.47 3405.47 -1160.36 3403.64 -1152.87 3400C-1145.17 3396.14 -1138.69 3390.28 -1133.43 3382.39L-1111.25 3396.36C-1117.53 3407.5 -1126.44 3416.11 -1137.98 3422.17C-1149.33 3428.06 -1162.29 3431 -1176.87 3431ZM-998.081 3431C-1015.3 3431 -1030.49 3427.44 -1043.65 3420.36C-1056.62 3413.28 -1066.74 3403.56 -1074.04 3391.19C-1081.13 3378.83 -1084.67 3364.67 -1084.67 3348.67C-1084.67 3332.67 -1081.23 3318.47 -1074.34 3306.11C-1067.25 3293.78 -1057.63 3284.14 -1045.48 3277.25C-1033.12 3270.17 -1019.25 3266.61 -1003.85 3266.61C-988.258 3266.61 -974.485 3270.06 -962.535 3276.94C-950.584 3283.83 -941.267 3293.56 -934.583 3306.11C-927.697 3318.47 -924.253 3332.94 -924.253 3349.56C-924.253 3350.78 -924.355 3352.19 -924.557 3353.83C-924.557 3355.44 -924.659 3356.97 -924.861 3358.39H-1061.88V3337.42H-940.052L-951.901 3344.69C-951.698 3334.39 -953.825 3325.17 -958.281 3317.06C-962.737 3308.94 -968.915 3302.67 -976.814 3298.22C-984.511 3293.56 -993.524 3291.22 -1003.85 3291.22C-1013.98 3291.22 -1022.99 3293.56 -1030.89 3298.22C-1038.79 3302.67 -1044.97 3309.06 -1049.43 3317.36C-1053.88 3325.47 -1056.11 3334.78 -1056.11 3345.31V3350.17C-1056.11 3360.92 -1053.68 3370.53 -1048.82 3379.03C-1043.76 3387.33 -1036.77 3393.83 -1027.86 3398.47C-1018.94 3403.14 -1008.72 3405.47 -997.17 3405.47C-987.65 3405.47 -979.042 3403.86 -971.345 3400.61C-963.446 3397.36 -956.559 3392.5 -950.685 3386.03L-934.583 3404.86C-941.875 3413.36 -950.989 3419.86 -961.927 3424.31C-972.662 3428.75 -984.713 3431 -998.081 3431ZM-831.496 3431C-844.864 3431 -857.624 3429.17 -869.777 3425.53C-881.727 3421.89 -891.146 3417.42 -898.032 3412.17L-885.88 3389.06C-878.993 3393.72 -870.486 3397.67 -860.359 3400.92C-850.231 3404.14 -839.902 3405.78 -829.369 3405.78C-815.799 3405.78 -806.076 3403.86 -800.202 3400C-794.126 3396.14 -791.088 3390.78 -791.088 3383.89C-791.088 3378.83 -792.911 3374.89 -796.557 3372.06C-800.202 3369.22 -805.063 3367.08 -811.14 3365.67C-817.014 3364.25 -823.597 3363.03 -830.888 3362.03C-838.18 3360.81 -845.472 3359.39 -852.763 3357.78C-860.055 3355.94 -866.739 3353.53 -872.815 3350.47C-878.892 3347.25 -883.753 3342.89 -887.398 3337.42C-891.044 3331.75 -892.867 3324.25 -892.867 3314.94C-892.867 3305.22 -890.133 3296.69 -884.664 3289.42C-879.195 3282.11 -871.499 3276.56 -861.574 3272.69C-851.446 3268.64 -839.496 3266.61 -825.723 3266.61C-815.191 3266.61 -804.557 3267.94 -793.822 3270.58C-782.885 3273 -773.972 3276.56 -767.086 3281.19L-779.542 3304.31C-786.834 3299.44 -794.43 3296.08 -802.329 3294.28C-810.228 3292.44 -818.128 3291.53 -826.027 3291.53C-838.787 3291.53 -848.307 3293.67 -854.586 3297.92C-860.865 3301.97 -864.005 3307.22 -864.005 3313.72C-864.005 3319.19 -862.182 3323.44 -858.536 3326.47C-854.687 3329.31 -849.826 3331.53 -843.952 3333.17C-837.876 3334.78 -831.192 3336.19 -823.9 3337.42C-816.609 3338.42 -809.317 3339.83 -802.025 3341.67C-794.734 3343.28 -788.151 3345.61 -782.278 3348.67C-776.2 3351.69 -771.339 3355.94 -767.695 3361.42C-763.845 3366.89 -761.922 3374.17 -761.922 3383.28C-761.922 3393 -764.756 3401.42 -770.428 3408.5C-776.1 3415.58 -784.1 3421.17 -794.43 3425.22C-804.76 3429.06 -817.115 3431 -831.496 3431ZM-673.214 3431C-686.581 3431 -699.342 3429.17 -711.495 3425.53C-723.445 3421.89 -732.864 3417.42 -739.75 3412.17L-727.597 3389.06C-720.711 3393.72 -712.203 3397.67 -702.075 3400.92C-691.947 3404.14 -681.62 3405.78 -671.086 3405.78C-657.517 3405.78 -647.795 3403.86 -641.92 3400C-635.845 3396.14 -632.806 3390.78 -632.806 3383.89C-632.806 3378.83 -634.628 3374.89 -638.275 3372.06C-641.92 3369.22 -646.781 3367.08 -652.859 3365.67C-658.731 3364.25 -665.314 3363.03 -672.606 3362.03C-679.897 3360.81 -687.189 3359.39 -694.481 3357.78C-701.772 3355.94 -708.456 3353.53 -714.534 3350.47C-720.609 3347.25 -725.47 3342.89 -729.117 3337.42C-732.761 3331.75 -734.583 3324.25 -734.583 3314.94C-734.583 3305.22 -731.85 3296.69 -726.381 3289.42C-720.914 3282.11 -713.217 3276.56 -703.292 3272.69C-693.164 3268.64 -681.214 3266.61 -667.442 3266.61C-656.909 3266.61 -646.275 3267.94 -635.539 3270.58C-624.603 3273 -615.689 3276.56 -608.803 3281.19L-621.261 3304.31C-628.553 3299.44 -636.147 3296.08 -644.047 3294.28C-651.945 3292.44 -659.845 3291.53 -667.745 3291.53C-680.506 3291.53 -690.025 3293.67 -696.303 3297.92C-702.583 3301.97 -705.722 3307.22 -705.722 3313.72C-705.722 3319.19 -703.9 3323.44 -700.253 3326.47C-696.406 3329.31 -691.545 3331.53 -685.67 3333.17C-679.595 3334.78 -672.909 3336.19 -665.617 3337.42C-658.325 3338.42 -651.033 3339.83 -643.742 3341.67C-636.45 3343.28 -629.867 3345.61 -623.995 3348.67C-617.917 3351.69 -613.056 3355.94 -609.411 3361.42C-605.564 3366.89 -603.639 3374.17 -603.639 3383.28C-603.639 3393 -606.475 3401.42 -612.145 3408.5C-617.817 3415.58 -625.817 3421.17 -636.147 3425.22C-646.478 3429.06 -658.834 3431 -673.214 3431ZM-492.145 3431C-508.347 3431 -522.728 3427.44 -535.286 3420.36C-547.845 3413.28 -557.77 3403.56 -565.061 3391.19C-572.353 3378.64 -575.997 3364.44 -575.997 3348.67C-575.997 3332.67 -572.353 3318.47 -565.061 3306.11C-557.77 3293.78 -547.845 3284.14 -535.286 3277.25C-522.728 3270.17 -508.347 3266.61 -492.145 3266.61C-476.142 3266.61 -461.864 3270.17 -449.306 3277.25C-436.545 3284.14 -426.62 3293.78 -419.531 3306.11C-412.239 3318.28 -408.595 3332.44 -408.595 3348.67C-408.595 3364.67 -412.239 3378.83 -419.531 3391.19C-426.62 3403.56 -436.545 3413.28 -449.306 3420.36C-461.864 3427.44 -476.142 3431 -492.145 3431ZM-492.145 3405.47C-481.814 3405.47 -472.597 3403.14 -464.497 3398.47C-456.192 3393.83 -449.711 3387.25 -445.053 3378.72C-440.395 3370.03 -438.064 3360 -438.064 3348.67C-438.064 3337.11 -440.395 3327.19 -445.053 3318.89C-449.711 3310.36 -456.192 3303.78 -464.497 3299.14C-472.597 3294.47 -481.814 3292.14 -492.145 3292.14C-502.472 3292.14 -511.689 3294.47 -519.792 3299.14C-527.895 3303.78 -534.375 3310.36 -539.236 3318.89C-544.097 3327.19 -546.528 3337.11 -546.528 3348.67C-546.528 3360 -544.097 3370.03 -539.236 3378.72C-534.375 3387.25 -527.895 3393.83 -519.792 3398.47C-511.689 3403.14 -502.472 3405.47 -492.145 3405.47ZM-362.181 3429.17V3268.14H-334.228V3311.89L-336.964 3300.94C-332.509 3289.81 -325.014 3281.31 -314.481 3275.44C-303.947 3269.56 -290.986 3266.61 -275.592 3266.61V3294.89C-276.808 3294.67 -278.022 3294.58 -279.239 3294.58C-280.25 3294.58 -281.264 3294.58 -282.275 3294.58C-297.872 3294.58 -310.228 3299.22 -319.342 3308.56C-328.456 3317.86 -333.014 3331.33 -333.014 3348.97V3429.17H-362.181ZM-233.567 3429.17V3268.14H-204.4V3429.17H-233.567ZM-218.984 3237.17C-224.656 3237.17 -229.414 3235.33 -233.264 3231.69C-236.908 3228.03 -238.734 3223.58 -238.734 3218.31C-238.734 3212.86 -236.908 3208.28 -233.264 3204.64C-229.414 3201 -224.656 3199.17 -218.984 3199.17C-213.314 3199.17 -208.656 3201 -205.009 3204.64C-201.161 3208.08 -199.236 3212.44 -199.236 3217.72C-199.236 3223.17 -201.058 3227.83 -204.706 3231.69C-208.35 3235.33 -213.111 3237.17 -218.984 3237.17ZM-70.9335 3431C-88.1501 3431 -103.342 3427.44 -116.506 3420.36C-129.47 3413.28 -139.597 3403.56 -146.889 3391.19C-153.978 3378.83 -157.522 3364.67 -157.522 3348.67C-157.522 3332.67 -154.078 3318.47 -147.192 3306.11C-140.103 3293.78 -130.483 3284.14 -118.331 3277.25C-105.975 3270.17 -92.1001 3266.61 -76.7057 3266.61C-61.1112 3266.61 -47.3362 3270.06 -35.3862 3276.94C-23.4362 3283.83 -14.1195 3293.56 -7.43616 3306.11C-0.550049 3318.47 2.89441 3332.94 2.89441 3349.56C2.89441 3350.78 2.7915 3352.19 2.59155 3353.83C2.59155 3355.44 2.48877 3356.97 2.28601 3358.39H-134.736V3337.42H-12.9056L-24.7529 3344.69C-24.55 3334.39 -26.6779 3325.17 -31.1334 3317.06C-35.589 3308.94 -41.7667 3302.67 -49.6667 3298.22C-57.364 3293.56 -66.3779 3291.22 -76.7057 3291.22C-86.8334 3291.22 -95.8473 3293.56 -103.747 3298.22C-111.645 3302.67 -117.822 3309.06 -122.281 3317.36C-126.736 3325.47 -128.964 3334.78 -128.964 3345.31V3350.17C-128.964 3360.92 -126.533 3370.53 -121.672 3379.03C-116.608 3387.33 -109.62 3393.83 -100.708 3398.47C-91.7972 3403.14 -81.5668 3405.47 -70.0223 3405.47C-60.5028 3405.47 -51.8945 3403.86 -44.1973 3400.61C-36.2974 3397.36 -29.4111 3392.5 -23.5389 3386.03L-7.43616 3404.86C-14.7279 3413.36 -23.8417 3419.86 -34.7806 3424.31C-45.5139 3428.75 -57.5668 3431 -70.9335 3431ZM95.6526 3431C82.2831 3431 69.522 3429.17 57.3693 3425.53C45.4193 3421.89 36.0026 3417.42 29.1165 3412.17L41.2692 3389.06C48.1553 3393.72 56.6609 3397.67 66.7887 3400.92C76.9165 3404.14 87.2471 3405.78 97.7776 3405.78C111.35 3405.78 121.072 3403.86 126.944 3400C133.022 3396.14 136.058 3390.78 136.058 3383.89C136.058 3378.83 134.236 3374.89 130.591 3372.06C126.944 3369.22 122.083 3367.08 116.008 3365.67C110.133 3364.25 103.55 3363.03 96.2582 3362.03C88.9664 3360.81 81.6748 3359.39 74.3832 3357.78C67.0914 3355.94 60.4081 3353.53 54.3331 3350.47C48.2554 3347.25 43.3942 3342.89 39.7498 3337.42C36.1025 3331.75 34.2803 3324.25 34.2803 3314.94C34.2803 3305.22 37.0137 3296.69 42.4832 3289.42C47.9525 3282.11 55.6498 3276.56 65.5747 3272.69C75.6997 3268.64 87.6498 3266.61 101.425 3266.61C111.955 3266.61 122.591 3267.94 133.325 3270.58C144.264 3273 153.175 3276.56 160.061 3281.19L147.605 3304.31C140.314 3299.44 132.716 3296.08 124.819 3294.28C116.919 3292.44 109.019 3291.53 101.119 3291.53C88.361 3291.53 78.8414 3293.67 72.5609 3297.92C66.2831 3301.97 63.1442 3307.22 63.1442 3313.72C63.1442 3319.19 64.9664 3323.44 68.611 3326.47C72.4609 3329.31 77.322 3331.53 83.1942 3333.17C89.272 3334.78 95.9553 3336.19 103.247 3337.42C110.539 3338.42 117.83 3339.83 125.122 3341.67C132.414 3343.28 138.997 3345.61 144.869 3348.67C150.947 3351.69 155.808 3355.94 159.453 3361.42C163.303 3366.89 165.225 3374.17 165.225 3383.28C165.225 3393 162.391 3401.42 156.719 3408.5C151.047 3415.58 143.047 3421.17 132.716 3425.22C122.389 3429.06 110.033 3431 95.6526 3431Z" fill="#F2F2F2"/>
<path d="M2981.68 2798.61H1386.89C1099.24 2798.61 866.053 3031.8 866.053 3319.44C866.053 3607.09 1099.24 3840.28 1386.89 3840.28H2981.68C3269.33 3840.28 3502.51 3607.09 3502.51 3319.44C3502.51 3031.8 3269.33 2798.61 2981.68 2798.61Z" fill="#2D563C"/>
<path fill-rule="evenodd" clip-rule="evenodd" d="M1415.82 3116.89C1415.82 3088.94 1438.49 3066.28 1466.46 3066.28H1567.73C1595.69 3066.28 1618.36 3088.94 1618.36 3116.89V3159.19C1647.87 3169.64 1669 3197.75 1669 3230.83V3408.06C1669 3441.14 1647.87 3469.28 1618.36 3479.69V3522C1618.36 3549.97 1595.69 3572.64 1567.73 3572.64H1466.46C1438.49 3572.64 1415.82 3549.97 1415.82 3522V3479.69C1386.32 3469.28 1365.18 3441.14 1365.18 3408.06V3230.83C1365.18 3197.75 1386.32 3169.64 1415.82 3159.19V3116.89ZM1453.8 3091.58C1446.81 3091.58 1441.14 3097.25 1441.14 3104.25V3154.89H1593.05V3104.25C1593.05 3097.25 1587.38 3091.58 1580.39 3091.58H1453.8ZM1441.14 3484.03H1593.05V3534.67C1593.05 3541.64 1587.38 3547.31 1580.39 3547.31H1453.8C1446.81 3547.31 1441.14 3541.64 1441.14 3534.67V3484.03ZM1441.14 3180.19C1413.17 3180.19 1390.5 3202.86 1390.5 3230.83V3408.06C1390.5 3436.03 1413.17 3458.69 1441.14 3458.69H1593.05C1621.01 3458.69 1643.68 3436.03 1643.68 3408.06V3230.83C1643.68 3202.86 1621.01 3180.19 1593.05 3180.19H1441.14Z" fill="#D3CCC7"/>
<path d="M2118.74 3429.17L2047.63 3216.5H2078.94L2144.24 3412.75H2128.47L2196.22 3216.5H2224.16L2290.38 3412.75H2275.22L2341.44 3216.5H2370.3L2299.22 3429.17H2267.3L2205.33 3247.17H2213.52L2151.24 3429.17H2118.74ZM2497.08 3429.17V3395.14L2495.55 3388.75V3330.72C2495.55 3318.36 2491.91 3308.86 2484.63 3302.17C2477.52 3295.28 2466.8 3291.83 2452.41 3291.83C2442.91 3291.83 2433.58 3293.47 2424.47 3296.69C2415.36 3299.75 2407.66 3303.89 2401.38 3309.17L2389.22 3287.28C2397.52 3280.61 2407.44 3275.53 2418.99 3272.08C2430.74 3268.44 2442.99 3266.61 2455.77 3266.61C2477.83 3266.61 2494.86 3272 2506.8 3282.72C2518.74 3293.47 2524.72 3309.86 2524.72 3331.94V3429.17H2497.08ZM2444.22 3431C2432.27 3431 2421.74 3428.97 2412.61 3424.92C2403.72 3420.86 2396.83 3415.31 2391.97 3408.19C2387.1 3400.92 2384.66 3392.72 2384.66 3383.58C2384.66 3374.89 2386.69 3366.97 2390.74 3359.89C2394.99 3352.81 2401.77 3347.14 2411.1 3342.89C2420.6 3338.64 2433.38 3336.5 2449.38 3336.5H2500.41V3357.47H2450.6C2436.02 3357.47 2426.19 3359.89 2421.13 3364.75C2416.05 3369.61 2413.52 3375.5 2413.52 3382.39C2413.52 3390.28 2416.66 3396.67 2422.94 3401.53C2429.22 3406.17 2437.94 3408.5 2449.08 3408.5C2460.02 3408.5 2469.52 3406.08 2477.63 3401.22C2485.94 3396.36 2491.91 3389.28 2495.55 3379.94L2501.33 3400C2497.49 3409.53 2490.69 3417.11 2480.97 3422.78C2471.24 3428.25 2458.99 3431 2444.22 3431ZM2640.08 3431C2623.88 3431 2611.3 3426.64 2602.41 3417.92C2593.49 3409.22 2589.02 3396.75 2589.02 3380.56V3232.89H2618.19V3379.33C2618.19 3388.06 2620.33 3394.72 2624.58 3399.39C2629.02 3404.06 2635.3 3406.39 2643.41 3406.39C2652.52 3406.39 2660.13 3403.86 2666.19 3398.78L2675.33 3419.75C2670.85 3423.58 2665.49 3426.44 2659.22 3428.25C2653.13 3430.08 2646.74 3431 2640.08 3431ZM2561.69 3292.14V3268.14H2664.38V3292.14H2561.69ZM2781.49 3431C2765.08 3431 2750.41 3427.44 2737.44 3420.36C2724.69 3413.28 2714.66 3403.56 2707.35 3391.19C2700.08 3378.83 2696.44 3364.67 2696.44 3348.67C2696.44 3332.67 2700.08 3318.47 2707.35 3306.11C2714.66 3293.78 2724.69 3284.14 2737.44 3277.25C2750.41 3270.17 2765.08 3266.61 2781.49 3266.61C2796.08 3266.61 2809.05 3269.56 2820.38 3275.44C2831.94 3281.11 2840.85 3289.61 2847.13 3300.94L2824.94 3315.22C2819.69 3307.33 2813.19 3301.56 2805.49 3297.92C2797.99 3294.06 2789.91 3292.14 2781.19 3292.14C2770.66 3292.14 2761.24 3294.47 2752.94 3299.14C2744.63 3303.78 2738.05 3310.36 2733.19 3318.89C2728.33 3327.19 2725.91 3337.11 2725.91 3348.67C2725.91 3360.19 2728.33 3370.22 2733.19 3378.72C2738.05 3387.25 2744.63 3393.83 2752.94 3398.47C2761.24 3403.14 2770.66 3405.47 2781.19 3405.47C2789.91 3405.47 2797.99 3403.64 2805.49 3400C2813.19 3396.14 2819.69 3390.28 2824.94 3382.39L2847.13 3396.36C2840.85 3407.5 2831.94 3416.11 2820.38 3422.17C2809.05 3428.06 2796.08 3431 2781.49 3431ZM2974.86 3266.61C2988.02 3266.61 2999.58 3269.17 3009.49 3274.22C3019.63 3279.28 3027.52 3286.97 3033.19 3297.31C3038.86 3307.64 3041.72 3320.69 3041.72 3336.5V3429.17H3012.55V3339.83C3012.55 3324.25 3008.69 3312.5 3000.99 3304.61C2993.49 3296.69 2982.85 3292.75 2969.08 3292.75C2958.77 3292.75 2949.74 3294.78 2942.05 3298.83C2934.35 3302.89 2928.38 3308.86 2924.13 3316.75C2920.08 3324.67 2918.05 3334.47 2918.05 3346.22V3429.17H2888.88V3203.72H2918.05V3311.58L2912.27 3300.06C2917.55 3289.5 2925.63 3281.31 2936.58 3275.44C2947.52 3269.56 2960.27 3266.61 2974.86 3266.61Z" fill="#F2F2F2"/>
<path d="M5786.54 2798.61H4286.19C3998.54 2798.61 3765.36 3031.8 3765.36 3319.44C3765.36 3607.09 3998.54 3840.28 4286.19 3840.28H5786.54C6074.19 3840.28 6307.37 3607.09 6307.37 3319.44C6307.37 3031.8 6074.19 2798.61 5786.54 2798.61Z" fill="#2D563C"/>
<path d="M4618.94 3294.14C4618.94 3182.28 4528.25 3091.58 4416.38 3091.58C4304.52 3091.58 4213.83 3182.28 4213.83 3294.14V3319.44H4188.52V3294.14C4188.52 3168.28 4290.55 3066.28 4416.38 3066.28C4542.25 3066.28 4644.25 3168.28 4644.25 3294.14V3319.44H4618.94V3294.14Z" fill="#D3CCC7"/>
<path fill-rule="evenodd" clip-rule="evenodd" d="M4251.83 3319.44C4216.86 3319.44 4188.52 3347.78 4188.52 3382.75V3509.33C4188.52 3544.31 4216.86 3572.64 4251.83 3572.64C4286.77 3572.64 4315.11 3544.31 4315.11 3509.33V3382.75C4315.11 3347.78 4286.77 3319.44 4251.83 3319.44ZM4251.83 3344.78C4230.86 3344.78 4213.83 3361.78 4213.83 3382.75V3509.33C4213.83 3530.31 4230.86 3547.31 4251.83 3547.31C4272.8 3547.31 4289.8 3530.31 4289.8 3509.33V3382.75C4289.8 3361.78 4272.8 3344.78 4251.83 3344.78Z" fill="#D3CCC7"/>
<path fill-rule="evenodd" clip-rule="evenodd" d="M4580.97 3319.44C4546 3319.44 4517.66 3347.78 4517.66 3382.75V3509.33C4517.66 3544.31 4546 3572.64 4580.97 3572.64C4615.91 3572.64 4644.25 3544.31 4644.25 3509.33V3382.75C4644.25 3347.78 4615.91 3319.44 4580.97 3319.44ZM4580.97 3344.78C4560 3344.78 4542.97 3361.78 4542.97 3382.75V3509.33C4542.97 3530.31 4560 3547.31 4580.97 3547.31C4601.94 3547.31 4618.94 3530.31 4618.94 3509.33V3382.75C4618.94 3361.78 4601.94 3344.78 4580.97 3344.78Z" fill="#D3CCC7"/>
<path d="M4936.91 3429.17L5033.25 3216.5H5063.3L5159.91 3429.17H5128.02L5042.05 3233.5H5054.19L4968.22 3429.17H4936.91ZM4977.94 3376L4986.13 3351.69H5105.86L5114.66 3376H4977.94ZM5258.25 3431C5244.5 3431 5232.33 3428.44 5221.8 3423.39C5211.47 3418.33 5203.36 3410.64 5197.5 3400.31C5191.83 3389.78 5189 3376.61 5189 3360.81V3268.14H5218.16V3357.47C5218.16 3373.28 5221.91 3385.11 5229.38 3393C5237.08 3400.92 5247.83 3404.86 5261.61 3404.86C5271.72 3404.86 5280.55 3402.83 5288.02 3398.78C5295.52 3394.53 5301.3 3388.44 5305.36 3380.56C5309.41 3372.44 5311.44 3362.72 5311.44 3351.39V3268.14H5340.61V3429.17H5312.94V3385.72L5317.5 3397.28C5312.25 3408 5304.33 3416.31 5293.8 3422.17C5283.27 3428.06 5271.41 3431 5258.25 3431ZM5468.75 3431C5453.13 3431 5439.16 3427.56 5426.8 3420.67C5414.66 3413.78 5405.02 3404.14 5397.94 3391.81C5390.86 3379.44 5387.3 3365.06 5387.3 3348.67C5387.3 3332.25 5390.86 3317.97 5397.94 3305.81C5405.02 3293.47 5414.66 3283.83 5426.8 3276.94C5439.16 3270.06 5453.13 3266.61 5468.75 3266.61C5482.3 3266.61 5494.55 3269.67 5505.5 3275.75C5516.44 3281.81 5525.13 3290.92 5531.63 3303.08C5538.3 3315.22 5541.66 3330.42 5541.66 3348.67C5541.66 3366.89 5538.41 3382.08 5531.94 3394.22C5525.63 3406.39 5517.05 3415.58 5506.11 3421.89C5495.16 3427.94 5482.72 3431 5468.75 3431ZM5471.16 3405.47C5481.3 3405.47 5490.41 3403.14 5498.5 3398.47C5506.8 3393.83 5513.3 3387.25 5517.94 3378.72C5522.8 3370.03 5525.25 3360 5525.25 3348.67C5525.25 3337.11 5522.8 3327.19 5517.94 3318.89C5513.3 3310.36 5506.8 3303.78 5498.5 3299.14C5490.41 3294.47 5481.3 3292.14 5471.16 3292.14C5460.83 3292.14 5451.61 3294.47 5443.52 3299.14C5435.41 3303.78 5428.94 3310.36 5424.08 3318.89C5419.22 3327.19 5416.77 3337.11 5416.77 3348.67C5416.77 3360 5419.22 3370.03 5424.08 3378.72C5428.94 3387.25 5435.41 3393.83 5443.52 3398.47C5451.61 3403.14 5460.83 3405.47 5471.16 3405.47ZM5526.16 3429.17V3385.72L5527.97 3348.36L5524.94 3310.97V3203.72H5554.11V3429.17H5526.16ZM5615.36 3429.17V3268.14H5644.52V3429.17H5615.36ZM5629.94 3237.17C5624.27 3237.17 5619.52 3235.33 5615.66 3231.69C5612.02 3228.03 5610.19 3223.58 5610.19 3218.31C5610.19 3212.86 5612.02 3208.28 5615.66 3204.64C5619.52 3201 5624.27 3199.17 5629.94 3199.17C5635.63 3199.17 5640.27 3201 5643.94 3204.64C5647.77 3208.08 5649.69 3212.44 5649.69 3217.72C5649.69 3223.17 5647.88 3227.83 5644.22 3231.69C5640.58 3235.33 5635.83 3237.17 5629.94 3237.17ZM5775.27 3431C5759.05 3431 5744.69 3427.44 5732.13 3420.36C5719.58 3413.28 5709.63 3403.56 5702.36 3391.19C5695.05 3378.64 5691.41 3364.44 5691.41 3348.67C5691.41 3332.67 5695.05 3318.47 5702.36 3306.11C5709.63 3293.78 5719.58 3284.14 5732.13 3277.25C5744.69 3270.17 5759.05 3266.61 5775.27 3266.61C5791.27 3266.61 5805.55 3270.17 5818.11 3277.25C5830.86 3284.14 5840.8 3293.78 5847.88 3306.11C5855.16 3318.28 5858.83 3332.44 5858.83 3348.67C5858.83 3364.67 5855.16 3378.83 5847.88 3391.19C5840.8 3403.56 5830.86 3413.28 5818.11 3420.36C5805.55 3427.44 5791.27 3431 5775.27 3431ZM5775.27 3405.47C5785.61 3405.47 5794.8 3403.14 5802.91 3398.47C5811.22 3393.83 5817.69 3387.25 5822.36 3378.72C5827.02 3370.03 5829.36 3360 5829.36 3348.67C5829.36 3337.11 5827.02 3327.19 5822.36 3318.89C5817.69 3310.36 5811.22 3303.78 5802.91 3299.14C5794.8 3294.47 5785.61 3292.14 5775.27 3292.14C5764.94 3292.14 5755.72 3294.47 5747.61 3299.14C5739.52 3303.78 5733.02 3310.36 5728.16 3318.89C5723.3 3327.19 5720.88 3337.11 5720.88 3348.67C5720.88 3360 5723.3 3370.03 5728.16 3378.72C5733.02 3387.25 5739.52 3393.83 5747.61 3398.47C5755.72 3403.14 5764.94 3405.47 5775.27 3405.47Z" fill="#F2F2F2"/>
<path d="M1570.23 1479.17H347.661C60.0064 1479.17 -173.184 1712.36 -173.184 2000.01V2000.01C-173.184 2287.67 60.0064 2520.86 347.661 2520.86H1570.23C1857.89 2520.86 2091.08 2287.67 2091.08 2000.01V2000.01C2091.08 1712.36 1857.89 1479.17 1570.23 1479.17Z" fill="#2D563C"/>
<path fill-rule="evenodd" clip-rule="evenodd" d="M300.629 1759.48C300.629 1752.49 294.963 1746.82 287.971 1746.82C280.979 1746.82 275.31 1752.49 275.31 1759.48V1797.46V1797.49C247.16 1798.59 224.674 1821.76 224.674 1850.17V2149.85C224.674 2178.96 248.277 2202.56 277.39 2202.56H452.549V2177.26H263.168C255.891 2177.26 249.99 2171.36 249.99 2164.07V1835.96C249.99 1828.69 255.891 1822.78 263.168 1822.78H591.282C598.56 1822.78 604.46 1828.69 604.46 1835.96V2063.31H629.782V1850.17C629.782 1821.76 607.296 1798.59 579.143 1797.49V1797.46V1759.48C579.143 1752.49 573.477 1746.82 566.485 1746.82C559.493 1746.82 553.827 1752.49 553.827 1759.48V1797.46H300.629V1759.48ZM528.257 2253.2H604.716C604.632 2253.21 604.549 2253.21 604.465 2253.21H528.507C528.424 2253.21 528.34 2253.21 528.257 2253.2ZM469.879 2057.22C461.61 2065.24 452.579 2063.98 443.885 2060.18C434.688 2056.3 426.246 2056.13 416.541 2060.18C404.388 2065.41 397.974 2063.89 390.716 2057.22C349.529 2014.77 355.604 1950.12 402.363 1947.76C408.927 1948.1 414.341 1950.12 419.029 1951.87C422.477 1953.16 425.529 1954.3 428.357 1954.51C431.957 1953.78 435.504 1952.55 439.065 1951.32C445.357 1949.14 451.699 1946.94 458.488 1947.42C471.229 1948.44 480.852 1953.5 487.182 1962.61C460.849 1978.4 467.096 2013.09 491.232 2022.79C486.421 2035.45 480.177 2048.02 469.796 2057.31L469.879 2057.22ZM427.513 1947.26C426.246 1928.43 441.524 1912.91 459.077 1911.39C461.524 1933.16 439.329 1949.36 427.513 1947.26ZM237.332 2227.89H275.31V2202.57H300.629V2227.89H338.61V2253.21H237.332V2227.89Z" fill="#D3CCC7"/>
<path fill-rule="evenodd" clip-rule="evenodd" d="M491.05 2088.62C483.772 2088.62 477.869 2094.53 477.869 2101.8V2214.7C477.869 2221.98 483.772 2227.88 491.05 2227.88H510.786C513.583 2227.88 515.85 2230.15 515.85 2232.94C515.85 2244.13 524.916 2253.2 536.105 2253.2H672.827C684.016 2253.2 693.083 2244.13 693.083 2232.94C693.083 2230.15 695.352 2227.88 698.147 2227.88H717.883C725.164 2227.88 731.064 2221.98 731.064 2214.7V2101.8C731.064 2094.53 725.164 2088.62 717.883 2088.62H491.05ZM693.089 2202.57C700.08 2202.57 705.747 2196.9 705.747 2189.91C705.747 2182.92 700.08 2177.25 693.089 2177.25C686.097 2177.25 680.428 2182.92 680.428 2189.91C680.428 2196.9 686.097 2202.57 693.089 2202.57Z" fill="#D3CCC7"/>
<path d="M1030.61 2109.73V1897.06H1055.53L1150.92 2057.78H1137.56L1231.74 1897.06H1256.65L1256.96 2109.73H1227.79L1227.49 1942.94H1234.47L1150.62 2083.91H1136.65L1052.18 1942.94H1059.78V2109.73H1030.61ZM1422.56 2109.73V2075.71L1421.04 2069.32V2011.29C1421.04 1998.94 1417.4 1989.42 1410.11 1982.74C1403.02 1975.85 1392.28 1972.41 1377.9 1972.41C1368.38 1972.41 1359.07 1974.03 1349.95 1977.27C1340.84 1980.31 1333.14 1984.46 1326.86 1989.73L1314.71 1967.85C1323.01 1961.17 1332.94 1956.1 1344.48 1952.66C1356.23 1949.01 1368.48 1947.19 1381.24 1947.19C1403.32 1947.19 1420.34 1952.56 1432.29 1963.29C1444.24 1974.03 1450.21 1990.43 1450.21 2012.51V2109.73H1422.56ZM1369.7 2111.56C1357.75 2111.56 1347.22 2109.53 1338.1 2105.48C1329.19 2101.43 1322.3 2095.86 1317.44 2088.77C1312.58 2081.48 1310.15 2073.28 1310.15 2064.16C1310.15 2055.45 1312.17 2047.55 1316.23 2040.46C1320.48 2033.37 1327.27 2027.7 1336.58 2023.45C1346.1 2019.19 1358.86 2017.07 1374.86 2017.07H1425.9V2038.03H1376.08C1361.5 2038.03 1351.67 2040.46 1346.61 2045.32C1341.54 2050.18 1339.01 2056.06 1339.01 2062.94C1339.01 2070.84 1342.15 2077.23 1348.43 2082.09C1354.71 2086.74 1363.42 2089.07 1374.56 2089.07C1385.5 2089.07 1395.02 2086.64 1403.12 2081.78C1411.42 2076.92 1417.4 2069.83 1421.04 2060.51L1426.82 2080.57C1422.97 2090.09 1416.18 2097.68 1406.46 2103.35C1396.74 2108.82 1384.49 2111.56 1369.7 2111.56ZM1580.44 2111.56C1564.04 2111.56 1549.35 2108.01 1536.39 2100.92C1523.63 2093.83 1513.6 2084.11 1506.31 2071.76C1499.02 2059.4 1495.37 2045.22 1495.37 2029.22C1495.37 2013.22 1499.02 1999.04 1506.31 1986.69C1513.6 1974.33 1523.63 1964.71 1536.39 1957.82C1549.35 1950.73 1564.04 1947.19 1580.44 1947.19C1595.03 1947.19 1607.99 1950.13 1619.33 1956C1630.88 1961.67 1639.79 1970.18 1646.07 1981.52L1623.89 1995.8C1618.62 1987.9 1612.14 1982.13 1604.45 1978.48C1596.95 1974.63 1588.85 1972.71 1580.14 1972.71C1569.61 1972.71 1560.19 1975.04 1551.89 1979.7C1543.58 1984.36 1537 1990.94 1532.14 1999.45C1527.28 2007.75 1524.85 2017.68 1524.85 2029.22C1524.85 2040.77 1527.28 2050.79 1532.14 2059.3C1537 2067.81 1543.58 2074.39 1551.89 2079.05C1560.19 2083.71 1569.61 2086.04 1580.14 2086.04C1588.85 2086.04 1596.95 2084.21 1604.45 2080.57C1612.14 2076.72 1618.62 2070.84 1623.89 2062.94L1646.07 2076.92C1639.79 2088.06 1630.88 2096.67 1619.33 2102.74C1607.99 2108.62 1595.03 2111.56 1580.44 2111.56Z" fill="#F2F2F2"/>
<path d="M4187.94 1479.17H2873.7C2586.05 1479.17 2352.86 1712.36 2352.86 2000.01V2000.01C2352.86 2287.67 2586.05 2520.86 2873.7 2520.86H4187.94C4475.6 2520.86 4708.79 2287.67 4708.79 2000.01V2000.01C4708.79 1712.36 4475.6 1479.17 4187.94 1479.17Z" fill="#2D563C"/>
<path fill-rule="evenodd" clip-rule="evenodd" d="M2801.36 1784.79C2773.39 1784.79 2750.72 1807.46 2750.72 1835.43V2101.28C2750.72 2129.25 2773.39 2151.92 2801.36 2151.92H2927.94C2927.94 2193.87 2893.94 2227.88 2852 2227.88V2253.2H3155.83V2227.88C3113.89 2227.88 3079.86 2193.87 3079.86 2151.92H3206.47C3234.44 2151.92 3257.11 2129.25 3257.11 2101.28V1835.43C3257.11 1807.46 3234.44 1784.79 3206.47 1784.79H2801.36ZM2919 2227.88C2940 2209.32 2953.28 2182.17 2953.28 2151.92H3054.55C3054.55 2182.17 3067.8 2209.32 3088.83 2227.88H2919ZM2788.69 1810.11C2781.69 1810.11 2776.03 1815.78 2776.03 1822.77V2063.31C2776.03 2070.3 2781.69 2075.96 2788.69 2075.96H3219.14C3226.11 2075.96 3231.78 2070.3 3231.78 2063.31V1822.77C3231.78 1815.78 3226.11 1810.11 3219.14 1810.11H2788.69Z" fill="#D3CCC7"/>
<path d="M3552.41 2109.73V1948.71H3581.58V2109.73H3552.41ZM3567 1917.72C3561.3 1917.72 3556.55 1915.9 3552.72 1912.25C3549.05 1908.61 3547.25 1904.15 3547.25 1898.88C3547.25 1893.41 3549.05 1888.86 3552.72 1885.21C3556.55 1881.56 3561.3 1879.74 3567 1879.74C3572.66 1879.74 3577.3 1881.56 3580.97 1885.21C3584.8 1888.65 3586.75 1893.01 3586.75 1898.28C3586.75 1903.74 3584.91 1908.4 3581.28 1912.25C3577.61 1915.9 3572.86 1917.72 3567 1917.72ZM3647.58 2109.73V1897.06H3672.5L3767.91 2057.78H3754.53L3848.72 1897.06H3873.64L3873.94 2109.73H3844.78L3844.47 1942.94H3851.44L3767.61 2083.91H3753.61L3669.16 1942.94H3676.75V2109.73H3647.58ZM4039.55 2109.73V2075.71L4038.03 2069.32V2011.29C4038.03 1998.94 4034.39 1989.42 4027.08 1982.74C4020 1975.85 4009.25 1972.41 3994.89 1972.41C3985.36 1972.41 3976.05 1974.03 3966.91 1977.27C3957.8 1980.31 3950.11 1984.46 3943.83 1989.73L3931.69 1967.85C3940 1961.17 3949.91 1956.1 3961.47 1952.66C3973.22 1949.01 3985.47 1947.19 3998.22 1947.19C4020.3 1947.19 4037.3 1952.56 4049.28 1963.29C4061.22 1974.03 4067.19 1990.43 4067.19 2012.51V2109.73H4039.55ZM3986.66 2111.56C3974.72 2111.56 3964.19 2109.53 3955.08 2105.48C3946.16 2101.43 3939.28 2095.86 3934.41 2088.77C3929.55 2081.48 3927.14 2073.28 3927.14 2064.16C3927.14 2055.45 3929.16 2047.55 3933.19 2040.46C3937.47 2033.37 3944.25 2027.7 3953.55 2023.45C3963.08 2019.19 3975.83 2017.07 3991.83 2017.07H4042.89V2038.03H3993.05C3978.47 2038.03 3968.64 2040.46 3963.58 2045.32C3958.53 2050.18 3956 2056.06 3956 2062.94C3956 2070.84 3959.14 2077.23 3965.41 2082.09C3971.69 2086.74 3980.39 2089.07 3991.53 2089.07C4002.47 2089.07 4012 2086.64 4020.11 2081.78C4028.39 2076.92 4034.39 2069.83 4038.03 2060.51L4043.8 2080.57C4039.94 2090.09 4033.16 2097.68 4023.44 2103.35C4013.72 2108.82 4001.47 2111.56 3986.66 2111.56ZM4197.41 2111.56C4181.03 2111.56 4166.33 2108.01 4153.36 2100.92C4140.61 2093.83 4130.58 2084.11 4123.3 2071.76C4116 2059.4 4112.36 2045.22 4112.36 2029.22C4112.36 2013.22 4116 1999.04 4123.3 1986.69C4130.58 1974.33 4140.61 1964.71 4153.36 1957.82C4166.33 1950.73 4181.03 1947.19 4197.41 1947.19C4212 1947.19 4224.97 1950.13 4236.3 1956C4247.86 1961.67 4256.78 1970.18 4263.05 1981.52L4240.86 1995.8C4235.61 1987.9 4229.11 1982.13 4221.41 1978.48C4213.94 1974.63 4205.83 1972.71 4197.11 1972.71C4186.58 1972.71 4177.16 1975.04 4168.86 1979.7C4160.55 1984.36 4153.97 1990.94 4149.11 1999.45C4144.25 2007.75 4141.83 2017.68 4141.83 2029.22C4141.83 2040.77 4144.25 2050.79 4149.11 2059.3C4153.97 2067.81 4160.55 2074.39 4168.86 2079.05C4177.16 2083.71 4186.58 2086.04 4197.11 2086.04C4205.83 2086.04 4213.94 2084.21 4221.41 2080.57C4229.11 2076.72 4235.61 2070.84 4240.86 2062.94L4263.05 2076.92C4256.78 2088.06 4247.86 2096.67 4236.3 2102.74C4224.97 2108.62 4212 2111.56 4197.41 2111.56Z" fill="#F2F2F2"/>
<path d="M7541.22 1479.17H5490.88C5203.24 1479.17 4970.05 1712.35 4970.05 2000C4970.05 2287.65 5203.24 2520.83 5490.88 2520.83H7541.22C7828.87 2520.83 8062.05 2287.65 8062.05 2000C8062.05 1712.35 7828.87 1479.17 7541.22 1479.17Z" fill="#2D563C"/>
<path fill-rule="evenodd" clip-rule="evenodd" d="M5367.91 2101.27V2112.89C5367.91 2127.45 5379.72 2139.25 5394.28 2139.25H5847.91C5862.47 2139.25 5874.28 2127.45 5874.28 2112.89V2101.27H5810.97V1900.28C5810.97 1878.45 5793.28 1860.75 5771.44 1860.75H5470.75C5448.91 1860.75 5431.19 1878.45 5431.19 1900.28V2101.27H5367.91ZM5469.69 1886.07C5462.41 1886.07 5456.53 1891.97 5456.53 1899.24V2101.27H5785.66V1899.24C5785.66 1891.97 5779.75 1886.07 5772.47 1886.07H5469.69Z" fill="#D3CCC7"/>
<path d="M1461.18 159.722H-383.6C-671.249 159.722 -904.434 392.907 -904.434 680.556C-904.434 968.204 -671.249 1201.39 -383.6 1201.39H1461.18C1748.83 1201.39 1982.01 968.204 1982.01 680.556C1982.01 392.907 1748.83 159.722 1461.18 159.722Z" fill="#2D563C"/>
<path d="M267.137 790.278L363.445 577.606H393.526L490.14 790.278H458.237L372.256 594.617H384.409L298.428 790.278H267.137ZM308.151 737.108L316.353 712.803H436.059L444.87 737.108H308.151ZM609.667 627.733C622.834 627.733 634.378 630.267 644.303 635.331C654.431 640.394 662.331 648.092 668.001 658.419C673.673 668.75 676.509 681.814 676.509 697.614V790.278H647.342V700.956C647.342 685.358 643.492 673.611 635.798 665.711C628.303 657.814 617.67 653.864 603.895 653.864C593.567 653.864 584.553 655.889 576.856 659.939C569.159 663.989 563.184 669.967 558.931 677.864C554.878 685.764 552.853 695.586 552.853 707.336V790.278H523.687V629.253H551.64V672.7L547.081 661.156C552.348 650.622 560.451 642.419 571.387 636.544C582.326 630.672 595.084 627.733 609.667 627.733ZM803.101 792.1C787.503 792.1 773.528 788.658 761.173 781.772C749.02 774.883 739.398 765.264 732.309 752.908C725.22 740.553 721.676 726.172 721.676 709.767C721.676 693.358 725.22 679.081 732.309 666.928C739.398 654.572 749.02 644.95 761.173 638.064C773.528 631.178 787.503 627.733 803.101 627.733C816.67 627.733 828.923 630.772 839.862 636.85C850.798 642.925 859.509 652.039 865.99 664.192C872.673 676.344 876.017 691.536 876.017 709.767C876.017 727.994 872.776 743.186 866.295 755.339C860.015 767.492 851.406 776.708 840.47 782.986C829.531 789.064 817.076 792.1 803.101 792.1ZM805.531 766.581C815.656 766.581 824.773 764.25 832.873 759.592C841.179 754.933 847.659 748.35 852.317 739.844C857.179 731.133 859.609 721.108 859.609 709.767C859.609 698.219 857.179 688.294 852.317 679.992C847.659 671.483 841.179 664.903 832.873 660.242C824.773 655.583 815.656 653.256 805.531 653.256C795.201 653.256 785.984 655.583 777.881 660.242C769.781 664.903 763.298 671.483 758.437 679.992C753.576 688.294 751.145 698.219 751.145 709.767C751.145 721.108 753.576 731.133 758.437 739.844C763.298 748.35 769.781 754.933 777.881 759.592C785.984 764.25 795.201 766.581 805.531 766.581ZM860.52 790.278V746.831L862.345 709.461L859.306 672.092V564.844H888.473V790.278H860.52ZM949.734 790.278V629.253H977.687V673.003L974.951 662.067C979.409 650.925 986.903 642.419 997.434 636.544C1007.97 630.672 1020.93 627.733 1036.32 627.733V655.989C1035.11 655.786 1033.89 655.686 1032.68 655.686C1031.66 655.686 1030.65 655.686 1029.64 655.686C1014.04 655.686 1001.69 660.344 992.573 669.661C983.459 678.978 978.901 692.447 978.901 710.069V790.278H949.734ZM1145.83 792.1C1129.63 792.1 1115.25 788.556 1102.69 781.467C1090.13 774.378 1080.21 764.656 1072.91 752.3C1065.62 739.742 1061.98 725.564 1061.98 709.767C1061.98 693.764 1065.62 679.586 1072.91 667.231C1080.21 654.875 1090.13 645.256 1102.69 638.369C1115.25 631.278 1129.63 627.733 1145.83 627.733C1161.83 627.733 1176.11 631.278 1188.67 638.369C1201.43 645.256 1211.36 654.875 1218.45 667.231C1225.74 679.383 1229.38 693.561 1229.38 709.767C1229.38 725.767 1225.74 739.944 1218.45 752.3C1211.36 764.656 1201.43 774.378 1188.67 781.467C1176.11 788.556 1161.83 792.1 1145.83 792.1ZM1145.83 766.581C1156.16 766.581 1165.38 764.25 1173.48 759.592C1181.78 754.933 1188.26 748.35 1192.92 739.844C1197.58 731.133 1199.91 721.108 1199.91 709.767C1199.91 698.219 1197.58 688.294 1192.92 679.992C1188.26 671.483 1181.78 664.903 1173.48 660.242C1165.38 655.583 1156.16 653.256 1145.83 653.256C1135.5 653.256 1126.29 655.583 1118.18 660.242C1110.08 664.903 1103.6 671.483 1098.74 679.992C1093.88 688.294 1091.45 698.219 1091.45 709.767C1091.45 721.108 1093.88 731.133 1098.74 739.844C1103.6 748.35 1110.08 754.933 1118.18 759.592C1126.29 764.25 1135.5 766.581 1145.83 766.581ZM1275.8 790.278V629.253H1304.96V790.278H1275.8ZM1290.38 598.264C1284.71 598.264 1279.95 596.442 1276.1 592.794C1272.45 589.15 1270.63 584.694 1270.63 579.428C1270.63 573.958 1272.45 569.4 1276.1 565.756C1279.95 562.108 1284.71 560.286 1290.38 560.286C1296.05 560.286 1300.71 562.108 1304.35 565.756C1308.2 569.197 1310.13 573.553 1310.13 578.819C1310.13 584.289 1308.3 588.947 1304.66 592.794C1301.01 596.442 1296.25 598.264 1290.38 598.264ZM1433.26 792.1C1417.67 792.1 1403.69 788.658 1391.34 781.772C1379.18 774.883 1369.56 765.264 1362.47 752.908C1355.38 740.553 1351.84 726.172 1351.84 709.767C1351.84 693.358 1355.38 679.081 1362.47 666.928C1369.56 654.572 1379.18 644.95 1391.34 638.064C1403.69 631.178 1417.67 627.733 1433.26 627.733C1446.83 627.733 1459.09 630.772 1470.03 636.85C1480.96 642.925 1489.67 652.039 1496.15 664.192C1502.84 676.344 1506.18 691.536 1506.18 709.767C1506.18 727.994 1502.94 743.186 1496.46 755.339C1490.18 767.492 1481.57 776.708 1470.63 782.986C1459.7 789.064 1447.24 792.1 1433.26 792.1ZM1435.7 766.581C1445.82 766.581 1454.94 764.25 1463.04 759.592C1471.34 754.933 1477.82 748.35 1482.48 739.844C1487.34 731.133 1489.77 721.108 1489.77 709.767C1489.77 698.219 1487.34 688.294 1482.48 679.992C1477.82 671.483 1471.34 664.903 1463.04 660.242C1454.94 655.583 1445.82 653.256 1435.7 653.256C1425.36 653.256 1416.15 655.583 1408.05 660.242C1399.95 664.903 1393.46 671.483 1388.6 679.992C1383.74 688.294 1381.31 698.219 1381.31 709.767C1381.31 721.108 1383.74 731.133 1388.6 739.844C1393.46 748.35 1399.95 754.933 1408.05 759.592C1416.15 764.25 1425.36 766.581 1435.7 766.581ZM1490.68 790.278V746.831L1492.51 709.461L1489.47 672.092V564.844H1518.64V790.278H1490.68Z" fill="#F2F2F2"/>
<path d="M4455.12 159.722H2763.11C2475.46 159.722 2242.27 392.907 2242.27 680.556C2242.27 968.204 2475.46 1201.39 2763.11 1201.39H4455.12C4742.77 1201.39 4975.95 968.204 4975.95 680.556C4975.95 392.907 4742.77 159.722 4455.12 159.722Z" fill="#2D563C"/>
<path fill-rule="evenodd" clip-rule="evenodd" d="M2741.41 478.008C2741.41 450.042 2764.08 427.372 2792.05 427.372H2994.58C3022.55 427.372 3045.22 450.042 3045.22 478.008V883.1C3045.22 911.067 3022.55 933.736 2994.58 933.736H2792.05C2764.08 933.736 2741.41 911.067 2741.41 883.1V478.008ZM2766.72 465.347C2766.72 458.356 2772.38 452.689 2779.38 452.689H3007.24C3014.24 452.689 3019.91 458.356 3019.91 465.347V895.758C3019.91 902.75 3014.24 908.419 3007.24 908.419H2779.38C2772.38 908.419 2766.72 902.75 2766.72 895.758V465.347Z" fill="#D3CCC7"/>
<path d="M2935.97 737.764C2927.69 745.781 2918.67 744.514 2909.97 740.717C2900.78 736.836 2892.33 736.667 2882.64 740.717C2870.47 745.95 2864.05 744.431 2856.8 737.764C2815.61 695.314 2821.69 630.667 2868.44 628.303C2879.86 628.894 2887.78 634.55 2894.44 635.056C2904.42 633.031 2913.94 627.206 2924.58 627.967C2937.33 628.981 2946.94 634.042 2953.28 643.158C2926.94 658.939 2933.19 693.625 2957.33 703.331C2952.5 715.989 2946.28 728.564 2935.89 737.847L2935.97 737.764ZM2893.61 627.797C2892.33 608.978 2907.61 593.45 2925.17 591.931C2927.61 613.703 2905.42 629.908 2893.61 627.797Z" fill="#D3CCC7"/>
<path d="M3441.8 790.278V629.253H3470.97V790.278H3441.8ZM3456.38 598.264C3450.69 598.264 3445.94 596.442 3442.08 592.794C3438.44 589.15 3436.63 584.694 3436.63 579.428C3436.63 573.958 3438.44 569.4 3442.08 565.756C3445.94 562.108 3450.69 560.286 3456.38 560.286C3462.05 560.286 3466.69 562.108 3470.36 565.756C3474.19 569.197 3476.11 573.553 3476.11 578.819C3476.11 584.289 3474.3 588.947 3470.66 592.794C3467 596.442 3462.25 598.264 3456.38 598.264ZM3536.97 790.278V577.606H3619.91C3638.55 577.606 3654.44 580.542 3667.61 586.414C3680.77 592.289 3690.91 600.794 3698 611.936C3705.08 623.075 3708.63 636.342 3708.63 651.736C3708.63 667.131 3705.08 680.397 3698 691.536C3690.91 702.475 3680.77 710.981 3667.61 717.058C3654.44 722.931 3638.55 725.869 3619.91 725.869H3553.69L3567.36 711.589V790.278H3536.97ZM3567.36 714.628L3553.69 699.436H3619C3638.44 699.436 3653.13 695.283 3663.05 686.981C3673.19 678.675 3678.25 666.928 3678.25 651.736C3678.25 636.544 3673.19 624.797 3663.05 616.494C3653.13 608.189 3638.44 604.036 3619 604.036H3553.69L3567.36 588.844V714.628ZM3844.05 627.733C3857.19 627.733 3868.75 630.267 3878.66 635.331C3888.8 640.394 3896.69 648.092 3902.38 658.419C3908.05 668.75 3910.88 681.814 3910.88 697.614V790.278H3881.72V700.956C3881.72 685.358 3877.86 673.611 3870.16 665.711C3862.66 657.814 3852.05 653.864 3838.27 653.864C3827.94 653.864 3818.91 655.889 3811.22 659.939C3803.52 663.989 3797.55 669.967 3793.3 677.864C3789.25 685.764 3787.22 695.586 3787.22 707.336V790.278H3758.05V564.844H3787.22V672.7L3781.44 661.156C3786.72 650.622 3794.83 642.419 3805.75 636.544C3816.69 630.672 3829.47 627.733 3844.05 627.733ZM4039.91 792.1C4023.69 792.1 4009.3 788.556 3996.75 781.467C3984.19 774.378 3974.27 764.656 3967 752.3C3959.69 739.742 3956.05 725.564 3956.05 709.767C3956.05 693.764 3959.69 679.586 3967 667.231C3974.27 654.875 3984.19 645.256 3996.75 638.369C4009.3 631.278 4023.69 627.733 4039.91 627.733C4055.91 627.733 4070.19 631.278 4082.75 638.369C4095.5 645.256 4105.41 654.875 4112.52 667.231C4119.8 679.383 4123.44 693.561 4123.44 709.767C4123.44 725.767 4119.8 739.944 4112.52 752.3C4105.41 764.656 4095.5 774.378 4082.75 781.467C4070.19 788.556 4055.91 792.1 4039.91 792.1ZM4039.91 766.581C4050.22 766.581 4059.44 764.25 4067.55 759.592C4075.86 754.933 4082.33 748.35 4087 739.844C4091.66 731.133 4093.97 721.108 4093.97 709.767C4093.97 698.219 4091.66 688.294 4087 679.992C4082.33 671.483 4075.86 664.903 4067.55 660.242C4059.44 655.583 4050.22 653.256 4039.91 653.256C4029.58 653.256 4020.36 655.583 4012.25 660.242C4004.16 664.903 3997.66 671.483 3992.8 679.992C3987.94 688.294 3985.52 698.219 3985.52 709.767C3985.52 721.108 3987.94 731.133 3992.8 739.844C3997.66 748.35 4004.16 754.933 4012.25 759.592C4020.36 764.25 4029.58 766.581 4039.91 766.581ZM4255.86 627.733C4269 627.733 4280.55 630.267 4290.47 635.331C4300.61 640.394 4308.5 648.092 4314.19 658.419C4319.86 668.75 4322.69 681.814 4322.69 697.614V790.278H4293.52V700.956C4293.52 685.358 4289.66 673.611 4281.97 665.711C4274.47 657.814 4263.86 653.864 4250.08 653.864C4239.75 653.864 4230.72 655.889 4223.02 659.939C4215.33 663.989 4209.36 669.967 4205.11 677.864C4201.05 685.764 4199.02 695.586 4199.02 707.336V790.278H4169.86V629.253H4197.8V672.7L4193.25 661.156C4198.52 650.622 4206.63 642.419 4217.55 636.544C4228.5 630.672 4241.27 627.733 4255.86 627.733ZM4454.44 792.1C4437.22 792.1 4422.02 788.556 4408.86 781.467C4395.91 774.378 4385.77 764.656 4378.5 752.3C4371.38 739.944 4367.86 725.767 4367.86 709.767C4367.86 693.764 4371.3 679.586 4378.19 667.231C4385.27 654.875 4394.88 645.256 4407.05 638.369C4419.41 631.278 4433.27 627.733 4448.66 627.733C4464.27 627.733 4478.02 631.178 4490 638.064C4501.94 644.95 4511.25 654.672 4517.94 667.231C4524.83 679.586 4528.27 694.069 4528.27 710.678C4528.27 711.892 4528.16 713.311 4527.97 714.931C4527.97 716.55 4527.86 718.069 4527.66 719.489H4390.63V698.525H4512.47L4500.61 705.817C4500.83 695.486 4498.69 686.269 4494.25 678.169C4489.77 670.067 4483.61 663.789 4475.72 659.331C4468.02 654.672 4459 652.344 4448.66 652.344C4438.55 652.344 4429.52 654.672 4421.63 659.331C4413.72 663.789 4407.55 670.167 4403.11 678.472C4398.63 686.575 4396.41 695.892 4396.41 706.422V711.283C4396.41 722.02 4398.83 731.642 4403.69 740.147C4408.77 748.453 4415.75 754.933 4424.66 759.592C4433.58 764.25 4443.8 766.581 4455.36 766.581C4464.86 766.581 4473.47 764.958 4481.16 761.719C4489.08 758.478 4495.97 753.617 4501.83 747.136L4517.94 765.972C4510.63 774.481 4501.52 780.961 4490.61 785.417C4479.86 789.872 4467.8 792.1 4454.44 792.1Z" fill="#F2F2F2"/>
<path d="M7030.46 159.722H5757.89C5470.24 159.722 5237.05 392.907 5237.05 680.556C5237.05 968.204 5470.24 1201.39 5757.89 1201.39H7030.46C7318.11 1201.39 7551.29 968.204 7551.29 680.556C7551.29 392.907 7318.11 159.722 7030.46 159.722Z" fill="#2D563C"/>
<path fill-rule="evenodd" clip-rule="evenodd" d="M5736.19 427.375C5708.22 427.375 5685.55 450.047 5685.55 478.014V883.106C5685.55 911.072 5708.22 933.742 5736.19 933.742H6040C6067.97 933.742 6090.63 911.072 6090.63 883.106V478.014C6090.63 450.047 6067.97 427.375 6040 427.375H5736.19ZM5723.52 452.694C5716.52 452.694 5710.86 458.361 5710.86 465.353V895.764C5710.86 902.756 5716.52 908.425 5723.52 908.425H6052.66C6059.66 908.425 6065.33 902.756 6065.33 895.764V465.353C6065.33 458.361 6059.66 452.694 6052.66 452.694H5723.52Z" fill="#D3CCC7"/>
</g>
<defs>
<clipPath id="clip0_304_4148">
<rect width="6000" height="4000" fill="white" transform="translate(0.666016)"/>
</clipPath>
</defs>
</svg>
