<svg width="6000" height="4000" viewBox="0 0 6000 4000" fill="none" xmlns="http://www.w3.org/2000/svg">
<g clip-path="url(#clip0_462_3646)">
<rect width="6000" height="4000" fill="#D3CCC7"/>
<path d="M94.5376 2798.61H-2330.8C-2618.44 2798.61 -2851.63 3031.8 -2851.63 3319.44C-2851.63 3607.09 -2618.44 3840.28 -2330.8 3840.28H94.5376C382.186 3840.28 615.371 3607.09 615.371 3319.44C615.371 3031.8 382.186 2798.61 94.5376 2798.61Z" fill="#2D563C"/>
<path d="M-1680.06 3429.17L-1583.75 3216.5H-1553.67L-1457.06 3429.17H-1488.96L-1574.94 3233.5H-1562.79L-1648.77 3429.17H-1680.06ZM-1639.05 3376L-1630.84 3351.69H-1511.14L-1502.33 3376H-1639.05ZM-1354.81 3431C-1371.22 3431 -1385.9 3427.44 -1398.87 3420.36C-1411.63 3413.28 -1421.65 3403.55 -1428.94 3391.19C-1436.23 3378.83 -1439.88 3364.67 -1439.88 3348.67C-1439.88 3332.67 -1436.23 3318.47 -1428.94 3306.11C-1421.65 3293.78 -1411.63 3284.14 -1398.87 3277.25C-1385.9 3270.17 -1371.22 3266.61 -1354.81 3266.61C-1340.23 3266.61 -1327.27 3269.56 -1315.92 3275.44C-1304.38 3281.11 -1295.47 3289.61 -1289.19 3300.94L-1311.37 3315.22C-1316.63 3307.33 -1323.11 3301.56 -1330.81 3297.92C-1338.3 3294.06 -1346.41 3292.14 -1355.12 3292.14C-1365.65 3292.14 -1375.07 3294.47 -1383.37 3299.14C-1391.67 3303.78 -1398.26 3310.36 -1403.12 3318.89C-1407.98 3327.19 -1410.41 3337.11 -1410.41 3348.67C-1410.41 3360.19 -1407.98 3370.22 -1403.12 3378.72C-1398.26 3387.25 -1391.67 3393.83 -1383.37 3398.47C-1375.07 3403.14 -1365.65 3405.47 -1355.12 3405.47C-1346.41 3405.47 -1338.3 3403.64 -1330.81 3400C-1323.11 3396.14 -1316.63 3390.28 -1311.37 3382.39L-1289.19 3396.36C-1295.47 3407.5 -1304.38 3416.11 -1315.92 3422.17C-1327.27 3428.05 -1340.23 3431 -1354.81 3431ZM-1177.54 3431C-1193.95 3431 -1208.63 3427.44 -1221.59 3420.36C-1234.35 3413.28 -1244.38 3403.55 -1251.67 3391.19C-1258.96 3378.83 -1262.61 3364.67 -1262.61 3348.67C-1262.61 3332.67 -1258.96 3318.47 -1251.67 3306.11C-1244.38 3293.78 -1234.35 3284.14 -1221.59 3277.25C-1208.63 3270.17 -1193.95 3266.61 -1177.54 3266.61C-1162.96 3266.61 -1149.99 3269.56 -1138.65 3275.44C-1127.11 3281.11 -1118.19 3289.61 -1111.91 3300.94L-1134.09 3315.22C-1139.36 3307.33 -1145.84 3301.56 -1153.54 3297.92C-1161.03 3294.06 -1169.13 3292.14 -1177.84 3292.14C-1188.38 3292.14 -1197.79 3294.47 -1206.1 3299.14C-1214.4 3303.78 -1220.99 3310.36 -1225.85 3318.89C-1230.71 3327.19 -1233.14 3337.11 -1233.14 3348.67C-1233.14 3360.19 -1230.71 3370.22 -1225.85 3378.72C-1220.99 3387.25 -1214.4 3393.83 -1206.1 3398.47C-1197.79 3403.14 -1188.38 3405.47 -1177.84 3405.47C-1169.13 3405.47 -1161.03 3403.64 -1153.54 3400C-1145.84 3396.14 -1139.36 3390.28 -1134.09 3382.39L-1111.91 3396.36C-1118.19 3407.5 -1127.11 3416.11 -1138.65 3422.17C-1149.99 3428.05 -1162.96 3431 -1177.54 3431ZM-998.749 3431C-1015.97 3431 -1031.16 3427.44 -1044.32 3420.36C-1057.29 3413.28 -1067.41 3403.55 -1074.7 3391.19C-1081.79 3378.83 -1085.34 3364.67 -1085.34 3348.67C-1085.34 3332.67 -1081.89 3318.47 -1075.01 3306.11C-1067.92 3293.78 -1058.3 3284.14 -1046.15 3277.25C-1033.79 3270.17 -1019.92 3266.61 -1004.52 3266.61C-988.926 3266.61 -975.153 3270.05 -963.203 3276.94C-951.252 3283.83 -941.935 3293.55 -935.251 3306.11C-928.365 3318.47 -924.921 3332.94 -924.921 3349.55C-924.921 3350.78 -925.023 3352.19 -925.225 3353.83C-925.225 3355.44 -925.326 3356.97 -925.529 3358.39H-1062.55V3337.42H-940.72L-952.569 3344.69C-952.366 3334.39 -954.493 3325.17 -958.949 3317.06C-963.405 3308.94 -969.583 3302.67 -977.482 3298.22C-985.179 3293.55 -994.192 3291.22 -1004.52 3291.22C-1014.65 3291.22 -1023.66 3293.55 -1031.56 3298.22C-1039.46 3302.67 -1045.64 3309.06 -1050.09 3317.36C-1054.55 3325.47 -1056.78 3334.78 -1056.78 3345.31V3350.17C-1056.78 3360.92 -1054.35 3370.53 -1049.49 3379.03C-1044.42 3387.33 -1037.44 3393.83 -1028.52 3398.47C-1019.61 3403.14 -1009.38 3405.47 -997.838 3405.47C-988.318 3405.47 -979.71 3403.86 -972.013 3400.61C-964.114 3397.36 -957.227 3392.5 -951.353 3386.03L-935.251 3404.86C-942.543 3413.36 -951.657 3419.86 -962.595 3424.31C-973.33 3428.75 -985.381 3431 -998.749 3431ZM-832.164 3431C-845.532 3431 -858.292 3429.17 -870.445 3425.53C-882.395 3421.89 -891.814 3417.42 -898.7 3412.17L-886.548 3389.06C-879.661 3393.72 -871.154 3397.67 -861.027 3400.92C-850.899 3404.14 -840.57 3405.78 -830.037 3405.78C-816.466 3405.78 -806.744 3403.86 -800.87 3400C-794.794 3396.14 -791.756 3390.78 -791.756 3383.89C-791.756 3378.83 -793.579 3374.89 -797.225 3372.05C-800.87 3369.22 -805.731 3367.08 -811.808 3365.67C-817.682 3364.25 -824.265 3363.03 -831.556 3362.03C-838.848 3360.8 -846.14 3359.39 -853.431 3357.78C-860.723 3355.94 -867.407 3353.53 -873.483 3350.47C-879.559 3347.25 -884.421 3342.89 -888.066 3337.42C-891.712 3331.75 -893.535 3324.25 -893.535 3314.94C-893.535 3305.22 -890.801 3296.69 -885.332 3289.42C-879.863 3282.11 -872.167 3276.56 -862.242 3272.69C-852.114 3268.64 -840.164 3266.61 -826.391 3266.61C-815.859 3266.61 -805.225 3267.94 -794.49 3270.58C-783.553 3273 -774.64 3276.55 -767.754 3281.19L-780.21 3304.31C-787.502 3299.44 -795.098 3296.08 -802.997 3294.28C-810.896 3292.44 -818.796 3291.53 -826.695 3291.53C-839.455 3291.53 -848.975 3293.67 -855.254 3297.92C-861.533 3301.97 -864.673 3307.22 -864.673 3313.72C-864.673 3319.19 -862.85 3323.44 -859.204 3326.47C-855.355 3329.31 -850.494 3331.53 -844.62 3333.17C-838.544 3334.78 -831.86 3336.19 -824.568 3337.42C-817.277 3338.42 -809.985 3339.83 -802.693 3341.67C-795.402 3343.28 -788.819 3345.61 -782.946 3348.67C-776.868 3351.69 -772.007 3355.94 -768.363 3361.42C-764.513 3366.89 -762.59 3374.17 -762.59 3383.28C-762.59 3393 -765.424 3401.42 -771.096 3408.5C-776.768 3415.58 -784.768 3421.17 -795.098 3425.22C-805.428 3429.05 -817.783 3431 -832.164 3431ZM-673.882 3431C-687.249 3431 -700.01 3429.17 -712.163 3425.53C-724.113 3421.89 -733.532 3417.42 -740.418 3412.17L-728.265 3389.06C-721.379 3393.72 -712.871 3397.67 -702.743 3400.92C-692.615 3404.14 -682.288 3405.78 -671.754 3405.78C-658.185 3405.78 -648.463 3403.86 -642.588 3400C-636.513 3396.14 -633.474 3390.78 -633.474 3383.89C-633.474 3378.83 -635.296 3374.89 -638.943 3372.05C-642.588 3369.22 -647.449 3367.08 -653.526 3365.67C-659.399 3364.25 -665.982 3363.03 -673.274 3362.03C-680.565 3360.8 -687.857 3359.39 -695.149 3357.78C-702.44 3355.94 -709.124 3353.53 -715.201 3350.47C-721.276 3347.25 -726.138 3342.89 -729.785 3337.42C-733.429 3331.75 -735.251 3324.25 -735.251 3314.94C-735.251 3305.22 -732.518 3296.69 -727.049 3289.42C-721.582 3282.11 -713.885 3276.56 -703.96 3272.69C-693.832 3268.64 -681.882 3266.61 -668.11 3266.61C-657.576 3266.61 -646.943 3267.94 -636.207 3270.58C-625.271 3273 -616.357 3276.55 -609.471 3281.19L-621.929 3304.31C-629.221 3299.44 -636.815 3296.08 -644.715 3294.28C-652.613 3292.44 -660.513 3291.53 -668.413 3291.53C-681.174 3291.53 -690.693 3293.67 -696.971 3297.92C-703.251 3301.97 -706.39 3307.22 -706.39 3313.72C-706.39 3319.19 -704.568 3323.44 -700.921 3326.47C-697.074 3329.31 -692.213 3331.53 -686.338 3333.17C-680.263 3334.78 -673.576 3336.19 -666.285 3337.42C-658.993 3338.42 -651.701 3339.83 -644.41 3341.67C-637.118 3343.28 -630.535 3345.61 -624.663 3348.67C-618.585 3351.69 -613.724 3355.94 -610.079 3361.42C-606.232 3366.89 -604.307 3374.17 -604.307 3383.28C-604.307 3393 -607.143 3401.42 -612.813 3408.5C-618.485 3415.58 -626.485 3421.17 -636.815 3425.22C-647.146 3429.05 -659.501 3431 -673.882 3431ZM-492.813 3431C-509.015 3431 -523.396 3427.44 -535.954 3420.36C-548.513 3413.28 -558.438 3403.55 -565.729 3391.19C-573.021 3378.64 -576.665 3364.44 -576.665 3348.67C-576.665 3332.67 -573.021 3318.47 -565.729 3306.11C-558.438 3293.78 -548.513 3284.14 -535.954 3277.25C-523.396 3270.17 -509.015 3266.61 -492.813 3266.61C-476.81 3266.61 -462.532 3270.17 -449.974 3277.25C-437.213 3284.14 -427.288 3293.78 -420.199 3306.11C-412.907 3318.28 -409.263 3332.44 -409.263 3348.67C-409.263 3364.67 -412.907 3378.83 -420.199 3391.19C-427.288 3403.55 -437.213 3413.28 -449.974 3420.36C-462.532 3427.44 -476.81 3431 -492.813 3431ZM-492.813 3405.47C-482.482 3405.47 -473.265 3403.14 -465.165 3398.47C-456.86 3393.83 -450.379 3387.25 -445.721 3378.72C-441.063 3370.03 -438.732 3360 -438.732 3348.67C-438.732 3337.11 -441.063 3327.19 -445.721 3318.89C-450.379 3310.36 -456.86 3303.78 -465.165 3299.14C-473.265 3294.47 -482.482 3292.14 -492.813 3292.14C-503.14 3292.14 -512.357 3294.47 -520.46 3299.14C-528.563 3303.78 -535.043 3310.36 -539.904 3318.89C-544.765 3327.19 -547.196 3337.11 -547.196 3348.67C-547.196 3360 -544.765 3370.03 -539.904 3378.72C-535.043 3387.25 -528.563 3393.83 -520.46 3398.47C-512.357 3403.14 -503.14 3405.47 -492.813 3405.47ZM-362.849 3429.17V3268.14H-334.896V3311.89L-337.632 3300.94C-333.176 3289.8 -325.682 3281.31 -315.149 3275.44C-304.615 3269.56 -291.654 3266.61 -276.26 3266.61V3294.89C-277.476 3294.67 -278.69 3294.58 -279.907 3294.58C-280.918 3294.58 -281.932 3294.58 -282.943 3294.58C-298.54 3294.58 -310.896 3299.22 -320.01 3308.55C-329.124 3317.86 -333.682 3331.33 -333.682 3348.97V3429.17H-362.849ZM-234.235 3429.17V3268.14H-205.068V3429.17H-234.235ZM-219.651 3237.17C-225.324 3237.17 -230.082 3235.33 -233.932 3231.69C-237.576 3228.03 -239.401 3223.58 -239.401 3218.3C-239.401 3212.86 -237.576 3208.28 -233.932 3204.64C-230.082 3201 -225.324 3199.17 -219.651 3199.17C-213.982 3199.17 -209.324 3201 -205.676 3204.64C-201.829 3208.08 -199.904 3212.44 -199.904 3217.72C-199.904 3223.17 -201.726 3227.83 -205.374 3231.69C-209.018 3235.33 -213.779 3237.17 -219.651 3237.17ZM-71.6014 3431C-88.8181 3431 -104.01 3427.44 -117.174 3420.36C-130.138 3413.28 -140.265 3403.55 -147.557 3391.19C-154.646 3378.83 -158.19 3364.67 -158.19 3348.67C-158.19 3332.67 -154.746 3318.47 -147.86 3306.11C-140.771 3293.78 -131.151 3284.14 -118.999 3277.25C-106.643 3270.17 -92.7681 3266.61 -77.3736 3266.61C-61.7792 3266.61 -48.0042 3270.05 -36.0542 3276.94C-24.1042 3283.83 -14.7875 3293.55 -8.10415 3306.11C-1.21804 3318.47 2.22639 3332.94 2.22639 3349.55C2.22639 3350.78 2.12359 3352.19 1.92359 3353.83C1.92359 3355.44 1.82085 3356.97 1.61807 3358.39H-135.404V3337.42H-13.5736L-25.4208 3344.69C-25.2181 3334.39 -27.3458 3325.17 -31.8014 3317.06C-36.2569 3308.94 -42.4347 3302.67 -50.3347 3298.22C-58.0319 3293.55 -67.0458 3291.22 -77.3736 3291.22C-87.5014 3291.22 -96.5152 3293.55 -104.415 3298.22C-112.312 3302.67 -118.49 3309.06 -122.949 3317.36C-127.404 3325.47 -129.632 3334.78 -129.632 3345.31V3350.17C-129.632 3360.92 -127.201 3370.53 -122.34 3379.03C-117.276 3387.33 -110.287 3393.83 -101.376 3398.47C-92.4653 3403.14 -82.2347 3405.47 -70.6903 3405.47C-61.1708 3405.47 -52.5625 3403.86 -44.8653 3400.61C-36.9653 3397.36 -30.0791 3392.5 -24.2069 3386.03L-8.10415 3404.86C-15.3958 3413.36 -24.5097 3419.86 -35.4486 3424.31C-46.1819 3428.75 -58.2347 3431 -71.6014 3431ZM94.9846 3431C81.6151 3431 68.8541 3429.17 56.7013 3425.53C44.7513 3421.89 35.3346 3417.42 28.4484 3412.17L40.6012 3389.06C47.4873 3393.72 55.9929 3397.67 66.1207 3400.92C76.2485 3404.14 86.5791 3405.78 97.1096 3405.78C110.682 3405.78 120.404 3403.86 126.276 3400C132.354 3396.14 135.39 3390.78 135.39 3383.89C135.39 3378.83 133.568 3374.89 129.923 3372.05C126.276 3369.22 121.415 3367.08 115.34 3365.67C109.465 3364.25 102.882 3363.03 95.5902 3362.03C88.2985 3360.8 81.0068 3359.39 73.7152 3357.78C66.4235 3355.94 59.7401 3353.53 53.6651 3350.47C47.5873 3347.25 42.7262 3342.89 39.0818 3337.42C35.4346 3331.75 33.6124 3324.25 33.6124 3314.94C33.6124 3305.22 36.3457 3296.69 41.8151 3289.42C47.2846 3282.11 54.9818 3276.56 64.9068 3272.69C75.0318 3268.64 86.9818 3266.61 100.757 3266.61C111.287 3266.61 121.923 3267.94 132.657 3270.58C143.596 3273 152.507 3276.55 159.393 3281.19L146.937 3304.31C139.646 3299.44 132.048 3296.08 124.151 3294.28C116.251 3292.44 108.351 3291.53 100.451 3291.53C87.6929 3291.53 78.1735 3293.67 71.8929 3297.92C65.6152 3301.97 62.4762 3307.22 62.4762 3313.72C62.4762 3319.19 64.2985 3323.44 67.9429 3326.47C71.7929 3329.31 76.6541 3331.53 82.5263 3333.17C88.6041 3334.78 95.2874 3336.19 102.579 3337.42C109.871 3338.42 117.162 3339.83 124.454 3341.67C131.746 3343.28 138.329 3345.61 144.201 3348.67C150.279 3351.69 155.14 3355.94 158.785 3361.42C162.635 3366.89 164.557 3374.17 164.557 3383.28C164.557 3393 161.723 3401.42 156.051 3408.5C150.379 3415.58 142.379 3421.17 132.049 3425.22C121.721 3429.05 109.365 3431 94.9846 3431Z" fill="#F2F2F2"/>
<path d="M2981.01 2798.61H1386.22C1098.57 2798.61 865.387 3031.8 865.387 3319.44C865.387 3607.09 1098.57 3840.28 1386.22 3840.28H2981.01C3268.66 3840.28 3501.84 3607.09 3501.84 3319.44C3501.84 3031.8 3268.66 2798.61 2981.01 2798.61Z" fill="#2D563C"/>
<path fill-rule="evenodd" clip-rule="evenodd" d="M1415.16 3116.89C1415.16 3088.94 1437.83 3066.28 1465.79 3066.28H1567.06C1595.03 3066.28 1617.7 3088.94 1617.7 3116.89V3159.19C1647.2 3169.64 1668.34 3197.75 1668.34 3230.83V3408.06C1668.34 3441.14 1647.2 3469.28 1617.7 3479.69V3522C1617.7 3549.97 1595.03 3572.64 1567.06 3572.64H1465.79C1437.83 3572.64 1415.16 3549.97 1415.16 3522V3479.69C1385.65 3469.28 1364.52 3441.14 1364.52 3408.06V3230.83C1364.52 3197.75 1385.65 3169.64 1415.16 3159.19V3116.89ZM1453.13 3091.58C1446.14 3091.58 1440.47 3097.25 1440.47 3104.25V3154.89H1592.38V3104.25C1592.38 3097.25 1586.71 3091.58 1579.72 3091.58H1453.13ZM1440.47 3484.03H1592.38V3534.67C1592.38 3541.64 1586.71 3547.31 1579.72 3547.31H1453.13C1446.14 3547.31 1440.47 3541.64 1440.47 3534.67V3484.03ZM1440.47 3180.19C1412.51 3180.19 1389.84 3202.86 1389.84 3230.83V3408.06C1389.84 3436.03 1412.51 3458.69 1440.47 3458.69H1592.38C1620.35 3458.69 1643.02 3436.03 1643.02 3408.06V3230.83C1643.02 3202.86 1620.35 3180.19 1592.38 3180.19H1440.47Z" fill="#D3CCC7"/>
<path d="M2118.08 3429.17L2046.96 3216.5H2078.27L2143.58 3412.75H2127.8L2195.55 3216.5H2223.49L2289.71 3412.75H2274.55L2340.77 3216.5H2369.63L2298.55 3429.17H2266.63L2204.66 3247.17H2212.85L2150.58 3429.17H2118.08ZM2496.41 3429.17V3395.14L2494.88 3388.75V3330.72C2494.88 3318.36 2491.24 3308.86 2483.96 3302.17C2476.85 3295.28 2466.13 3291.83 2451.74 3291.83C2442.24 3291.83 2432.91 3293.47 2423.8 3296.7C2414.69 3299.75 2406.99 3303.89 2400.71 3309.17L2388.55 3287.28C2396.85 3280.61 2406.77 3275.53 2418.33 3272.08C2430.08 3268.44 2442.33 3266.61 2455.1 3266.61C2477.16 3266.61 2494.19 3272 2506.13 3282.72C2518.08 3293.47 2524.05 3309.86 2524.05 3331.94V3429.17H2496.41ZM2443.55 3431C2431.6 3431 2421.08 3428.97 2411.94 3424.92C2403.05 3420.86 2396.16 3415.31 2391.3 3408.19C2386.44 3400.92 2383.99 3392.72 2383.99 3383.58C2383.99 3374.89 2386.02 3366.97 2390.08 3359.89C2394.33 3352.81 2401.1 3347.14 2410.44 3342.89C2419.94 3338.64 2432.71 3336.5 2448.71 3336.5H2499.74V3357.47H2449.94C2435.35 3357.47 2425.52 3359.89 2420.46 3364.75C2415.38 3369.61 2412.85 3375.5 2412.85 3382.39C2412.85 3390.28 2415.99 3396.67 2422.27 3401.53C2428.55 3406.17 2437.27 3408.5 2448.41 3408.5C2459.35 3408.5 2468.85 3406.08 2476.96 3401.22C2485.27 3396.36 2491.24 3389.28 2494.88 3379.95L2500.66 3400C2496.83 3409.53 2490.02 3417.11 2480.3 3422.78C2470.58 3428.25 2458.33 3431 2443.55 3431ZM2639.41 3431C2623.21 3431 2610.63 3426.64 2601.74 3417.92C2592.83 3409.22 2588.35 3396.75 2588.35 3380.56V3232.89H2617.52V3379.33C2617.52 3388.06 2619.66 3394.72 2623.91 3399.39C2628.35 3404.06 2634.63 3406.39 2642.74 3406.39C2651.85 3406.39 2659.46 3403.86 2665.52 3398.78L2674.66 3419.75C2670.19 3423.58 2664.83 3426.45 2658.55 3428.25C2652.46 3430.08 2646.08 3431 2639.41 3431ZM2561.02 3292.14V3268.14H2663.71V3292.14H2561.02ZM2780.83 3431C2764.41 3431 2749.74 3427.44 2736.77 3420.36C2724.02 3413.28 2713.99 3403.56 2706.69 3391.19C2699.41 3378.83 2695.77 3364.67 2695.77 3348.67C2695.77 3332.67 2699.41 3318.47 2706.69 3306.11C2713.99 3293.78 2724.02 3284.14 2736.77 3277.25C2749.74 3270.17 2764.41 3266.61 2780.83 3266.61C2795.41 3266.61 2808.38 3269.56 2819.71 3275.45C2831.27 3281.11 2840.19 3289.61 2846.46 3300.94L2824.27 3315.22C2819.02 3307.33 2812.52 3301.56 2804.83 3297.92C2797.33 3294.06 2789.24 3292.14 2780.52 3292.14C2769.99 3292.14 2760.58 3294.47 2752.27 3299.14C2743.96 3303.78 2737.38 3310.36 2732.52 3318.89C2727.66 3327.2 2725.24 3337.11 2725.24 3348.67C2725.24 3360.2 2727.66 3370.22 2732.52 3378.72C2737.38 3387.25 2743.96 3393.83 2752.27 3398.47C2760.58 3403.14 2769.99 3405.47 2780.52 3405.47C2789.24 3405.47 2797.33 3403.64 2804.83 3400C2812.52 3396.14 2819.02 3390.28 2824.27 3382.39L2846.46 3396.36C2840.19 3407.5 2831.27 3416.11 2819.71 3422.17C2808.38 3428.06 2795.41 3431 2780.83 3431ZM2974.19 3266.61C2987.35 3266.61 2998.91 3269.17 3008.83 3274.22C3018.96 3279.28 3026.85 3286.97 3032.52 3297.31C3038.19 3307.64 3041.05 3320.7 3041.05 3336.5V3429.17H3011.88V3339.83C3011.88 3324.25 3008.02 3312.5 3000.33 3304.61C2992.83 3296.7 2982.19 3292.75 2968.41 3292.75C2958.1 3292.75 2949.08 3294.78 2941.38 3298.83C2933.69 3302.89 2927.71 3308.86 2923.46 3316.75C2919.41 3324.67 2917.38 3334.47 2917.38 3346.22V3429.17H2888.21V3203.72H2917.38V3311.58L2911.6 3300.06C2916.88 3289.5 2924.96 3281.31 2935.91 3275.45C2946.85 3269.56 2959.6 3266.61 2974.19 3266.61Z" fill="#F2F2F2"/>
<path d="M5785.87 2798.61H4285.52C3997.88 2798.61 3764.69 3031.8 3764.69 3319.44C3764.69 3607.09 3997.88 3840.28 4285.52 3840.28H5785.87C6073.52 3840.28 6306.71 3607.09 6306.71 3319.44C6306.71 3031.8 6073.52 2798.61 5785.87 2798.61Z" fill="#2D563C"/>
<path d="M4618.28 3294.14C4618.28 3182.28 4527.58 3091.58 4415.72 3091.58C4303.86 3091.58 4213.16 3182.28 4213.16 3294.14V3319.44H4187.86V3294.14C4187.86 3168.28 4289.89 3066.28 4415.72 3066.28C4541.58 3066.28 4643.58 3168.28 4643.58 3294.14V3319.44H4618.28V3294.14Z" fill="#D3CCC7"/>
<path fill-rule="evenodd" clip-rule="evenodd" d="M4251.17 3319.44C4216.19 3319.44 4187.86 3347.78 4187.86 3382.75V3509.33C4187.86 3544.31 4216.19 3572.64 4251.17 3572.64C4286.11 3572.64 4314.44 3544.31 4314.44 3509.33V3382.75C4314.44 3347.78 4286.11 3319.44 4251.17 3319.44ZM4251.17 3344.78C4230.19 3344.78 4213.16 3361.78 4213.16 3382.75V3509.33C4213.16 3530.31 4230.19 3547.31 4251.17 3547.31C4272.14 3547.31 4289.14 3530.31 4289.14 3509.33V3382.75C4289.14 3361.78 4272.14 3344.78 4251.17 3344.78Z" fill="#D3CCC7"/>
<path fill-rule="evenodd" clip-rule="evenodd" d="M4580.3 3319.44C4545.33 3319.44 4517 3347.78 4517 3382.75V3509.33C4517 3544.31 4545.33 3572.64 4580.3 3572.64C4615.25 3572.64 4643.58 3544.31 4643.58 3509.33V3382.75C4643.58 3347.78 4615.25 3319.44 4580.3 3319.44ZM4580.3 3344.78C4559.33 3344.78 4542.3 3361.78 4542.3 3382.75V3509.33C4542.3 3530.31 4559.33 3547.31 4580.3 3547.31C4601.27 3547.31 4618.27 3530.31 4618.27 3509.33V3382.75C4618.27 3361.78 4601.27 3344.78 4580.3 3344.78Z" fill="#D3CCC7"/>
<path d="M4936.25 3429.17L5032.58 3216.5H5062.63L5159.25 3429.17H5127.36L5041.39 3233.5H5053.52L4967.55 3429.17H4936.25ZM4977.27 3376L4985.47 3351.69H5105.19L5114 3376H4977.27ZM5257.58 3431C5243.83 3431 5231.66 3428.44 5221.14 3423.39C5210.8 3418.33 5202.69 3410.64 5196.83 3400.3C5191.16 3389.78 5188.33 3376.61 5188.33 3360.81V3268.14H5217.5V3357.47C5217.5 3373.28 5221.25 3385.11 5228.72 3393C5236.41 3400.92 5247.16 3404.86 5260.94 3404.86C5271.05 3404.86 5279.88 3402.83 5287.36 3398.78C5294.86 3394.53 5300.63 3388.44 5304.69 3380.56C5308.75 3372.44 5310.77 3362.72 5310.77 3351.39V3268.14H5339.94V3429.17H5312.27V3385.72L5316.83 3397.28C5311.58 3408 5303.66 3416.3 5293.13 3422.17C5282.61 3428.05 5270.75 3431 5257.58 3431ZM5468.08 3431C5452.47 3431 5438.5 3427.55 5426.14 3420.67C5414 3413.78 5404.36 3404.14 5397.27 3391.81C5390.19 3379.44 5386.63 3365.06 5386.63 3348.67C5386.63 3332.25 5390.19 3317.97 5397.27 3305.8C5404.36 3293.47 5414 3283.83 5426.14 3276.94C5438.5 3270.05 5452.47 3266.61 5468.08 3266.61C5481.63 3266.61 5493.88 3269.67 5504.83 3275.75C5515.77 3281.81 5524.47 3290.92 5530.97 3303.08C5537.64 3315.22 5541 3330.42 5541 3348.67C5541 3366.89 5537.75 3382.08 5531.27 3394.22C5524.97 3406.39 5516.38 3415.58 5505.44 3421.89C5494.5 3427.94 5482.05 3431 5468.08 3431ZM5470.5 3405.47C5480.64 3405.47 5489.75 3403.14 5497.83 3398.47C5506.13 3393.83 5512.63 3387.25 5517.27 3378.72C5522.13 3370.03 5524.58 3360 5524.58 3348.67C5524.58 3337.11 5522.13 3327.19 5517.27 3318.89C5512.63 3310.36 5506.13 3303.78 5497.83 3299.14C5489.75 3294.47 5480.64 3292.14 5470.5 3292.14C5460.16 3292.14 5450.94 3294.47 5442.86 3299.14C5434.75 3303.78 5428.27 3310.36 5423.41 3318.89C5418.55 3327.19 5416.11 3337.11 5416.11 3348.67C5416.11 3360 5418.55 3370.03 5423.41 3378.72C5428.27 3387.25 5434.75 3393.83 5442.86 3398.47C5450.94 3403.14 5460.16 3405.47 5470.5 3405.47ZM5525.5 3429.17V3385.72L5527.3 3348.36L5524.27 3310.97V3203.72H5553.44V3429.17H5525.5ZM5614.69 3429.17V3268.14H5643.86V3429.17H5614.69ZM5629.27 3237.17C5623.61 3237.17 5618.86 3235.33 5615 3231.69C5611.36 3228.03 5609.52 3223.58 5609.52 3218.3C5609.52 3212.86 5611.36 3208.28 5615 3204.64C5618.86 3201 5623.61 3199.17 5629.27 3199.17C5634.97 3199.17 5639.61 3201 5643.27 3204.64C5647.11 3208.08 5649.02 3212.44 5649.02 3217.72C5649.02 3223.17 5647.22 3227.83 5643.55 3231.69C5639.91 3235.33 5635.16 3237.17 5629.27 3237.17ZM5774.61 3431C5758.39 3431 5744.02 3427.44 5731.47 3420.36C5718.91 3413.28 5708.97 3403.55 5701.69 3391.19C5694.39 3378.64 5690.75 3364.44 5690.75 3348.67C5690.75 3332.67 5694.39 3318.47 5701.69 3306.11C5708.97 3293.78 5718.91 3284.14 5731.47 3277.25C5744.02 3270.17 5758.39 3266.61 5774.61 3266.61C5790.61 3266.61 5804.88 3270.17 5817.44 3277.25C5830.19 3284.14 5840.13 3293.78 5847.22 3306.11C5854.5 3318.28 5858.16 3332.44 5858.16 3348.67C5858.16 3364.67 5854.5 3378.83 5847.22 3391.19C5840.13 3403.55 5830.19 3413.28 5817.44 3420.36C5804.88 3427.44 5790.61 3431 5774.61 3431ZM5774.61 3405.47C5784.94 3405.47 5794.14 3403.14 5802.25 3398.47C5810.55 3393.83 5817.02 3387.25 5821.69 3378.72C5826.36 3370.03 5828.69 3360 5828.69 3348.67C5828.69 3337.11 5826.36 3327.19 5821.69 3318.89C5817.02 3310.36 5810.55 3303.78 5802.25 3299.14C5794.14 3294.47 5784.94 3292.14 5774.61 3292.14C5764.27 3292.14 5755.05 3294.47 5746.94 3299.14C5738.86 3303.78 5732.36 3310.36 5727.5 3318.89C5722.64 3327.19 5720.22 3337.11 5720.22 3348.67C5720.22 3360 5722.64 3370.03 5727.5 3378.72C5732.36 3387.25 5738.86 3393.83 5746.94 3398.47C5755.05 3403.14 5764.27 3405.47 5774.61 3405.47Z" fill="#F2F2F2"/>
<path d="M1569.57 1479.17H346.993C59.3384 1479.17 -173.852 1712.36 -173.852 2000.01V2000.01C-173.852 2287.67 59.3384 2520.86 346.993 2520.86H1569.57C1857.22 2520.86 2090.41 2287.67 2090.41 2000.01V2000.01C2090.41 1712.36 1857.22 1479.17 1569.57 1479.17Z" fill="#2D563C"/>
<path fill-rule="evenodd" clip-rule="evenodd" d="M299.963 1759.48C299.963 1752.49 294.297 1746.82 287.305 1746.82C280.313 1746.82 274.644 1752.49 274.644 1759.48V1797.46V1797.49C246.494 1798.59 224.008 1821.76 224.008 1850.17V2149.85C224.008 2178.96 247.611 2202.56 276.724 2202.56H451.883V2177.26H262.502C255.224 2177.26 249.324 2171.36 249.324 2164.07V1835.96C249.324 1828.69 255.224 1822.78 262.502 1822.78H590.616C597.894 1822.78 603.794 1828.69 603.794 1835.96V2063.31H629.116V1850.17C629.116 1821.76 606.63 1798.59 578.477 1797.49V1797.46V1759.48C578.477 1752.49 572.811 1746.82 565.819 1746.82C558.827 1746.82 553.161 1752.49 553.161 1759.48V1797.46H299.963V1759.48ZM527.591 2253.2H604.05C603.966 2253.21 603.883 2253.21 603.799 2253.21H527.841C527.758 2253.21 527.674 2253.21 527.591 2253.2ZM469.213 2057.22C460.944 2065.24 451.913 2063.98 443.219 2060.18C434.022 2056.3 425.58 2056.13 415.875 2060.18C403.722 2065.41 397.308 2063.89 390.05 2057.22C348.863 2014.77 354.938 1950.12 401.697 1947.76C408.261 1948.1 413.675 1950.12 418.363 1951.87C421.811 1953.16 424.863 1954.3 427.691 1954.51C431.291 1953.78 434.838 1952.55 438.399 1951.32C444.691 1949.14 451.033 1946.94 457.822 1947.42C470.563 1948.44 480.186 1953.5 486.516 1962.61C460.183 1978.4 466.43 2013.09 490.566 2022.79C485.755 2035.45 479.511 2048.02 469.13 2057.31L469.213 2057.22ZM426.847 1947.26C425.58 1928.43 440.858 1912.91 458.411 1911.39C460.858 1933.16 438.663 1949.36 426.847 1947.26ZM236.666 2227.89H274.644V2202.57H299.963V2227.89H337.944V2253.21H236.666V2227.89Z" fill="#D3CCC7"/>
<path fill-rule="evenodd" clip-rule="evenodd" d="M490.384 2088.62C483.106 2088.62 477.203 2094.52 477.203 2101.8V2214.7C477.203 2221.98 483.106 2227.88 490.384 2227.88H510.12C512.917 2227.88 515.184 2230.15 515.184 2232.94C515.184 2244.13 524.25 2253.2 535.439 2253.2H672.161C683.35 2253.2 692.417 2244.13 692.417 2232.94C692.417 2230.15 694.686 2227.88 697.481 2227.88H717.217C724.498 2227.88 730.398 2221.98 730.398 2214.7V2101.8C730.398 2094.52 724.498 2088.62 717.217 2088.62H490.384ZM692.423 2202.57C699.414 2202.57 705.081 2196.9 705.081 2189.91C705.081 2182.92 699.414 2177.25 692.423 2177.25C685.431 2177.25 679.762 2182.92 679.762 2189.91C679.762 2196.9 685.431 2202.57 692.423 2202.57Z" fill="#D3CCC7"/>
<path d="M1029.95 2109.73V1897.06H1054.86L1150.26 2057.78H1136.89L1231.08 1897.06H1255.99L1256.29 2109.73H1227.13L1226.82 1942.94H1233.81L1149.96 2083.91H1135.98L1051.52 1942.94H1059.12V2109.73H1029.95ZM1421.9 2109.73V2075.71L1420.38 2069.33V2011.29C1420.38 1998.94 1416.74 1989.42 1409.44 1982.74C1402.35 1975.85 1391.62 1972.41 1377.24 1972.41C1367.72 1972.41 1358.4 1974.03 1349.29 1977.27C1340.17 1980.31 1332.47 1984.46 1326.2 1989.73L1314.04 1967.85C1322.35 1961.17 1332.27 1956.1 1343.82 1952.66C1355.57 1949.01 1367.82 1947.19 1380.58 1947.19C1402.66 1947.19 1419.67 1952.56 1431.62 1963.29C1443.57 1974.03 1449.55 1990.43 1449.55 2012.51V2109.73H1421.9ZM1369.04 2111.56C1357.09 2111.56 1346.55 2109.53 1337.44 2105.48C1328.52 2101.43 1321.64 2095.86 1316.78 2088.77C1311.92 2081.48 1309.49 2073.28 1309.49 2064.16C1309.49 2055.45 1311.51 2047.55 1315.56 2040.46C1319.82 2033.37 1326.6 2027.7 1335.92 2023.45C1345.44 2019.19 1358.2 2017.07 1374.2 2017.07H1425.24V2038.03H1375.42C1360.83 2038.03 1351.01 2040.46 1345.94 2045.32C1340.88 2050.18 1338.35 2056.06 1338.35 2062.94C1338.35 2070.84 1341.49 2077.23 1347.77 2082.09C1354.05 2086.74 1362.75 2089.07 1373.9 2089.07C1384.83 2089.07 1394.35 2086.64 1402.45 2081.78C1410.76 2076.92 1416.74 2069.83 1420.38 2060.51L1426.15 2080.57C1422.3 2090.09 1415.52 2097.68 1405.8 2103.35C1396.07 2108.82 1383.82 2111.56 1369.04 2111.56ZM1579.78 2111.56C1563.37 2111.56 1548.69 2108.01 1535.73 2100.92C1522.97 2093.83 1512.94 2084.11 1505.65 2071.76C1498.36 2059.4 1494.71 2045.22 1494.71 2029.22C1494.71 2013.22 1498.36 1999.04 1505.65 1986.69C1512.94 1974.33 1522.97 1964.71 1535.73 1957.82C1548.69 1950.73 1563.37 1947.19 1579.78 1947.19C1594.36 1947.19 1607.33 1950.13 1618.67 1956C1630.22 1961.67 1639.13 1970.18 1645.4 1981.52L1623.23 1995.8C1617.96 1987.9 1611.48 1982.13 1603.78 1978.48C1596.29 1974.63 1588.19 1972.71 1579.48 1972.71C1568.94 1972.71 1559.53 1975.04 1551.22 1979.7C1542.92 1984.36 1536.34 1990.94 1531.47 1999.45C1526.61 2007.75 1524.18 2017.68 1524.18 2029.22C1524.18 2040.77 1526.61 2050.79 1531.47 2059.3C1536.34 2067.81 1542.92 2074.39 1551.22 2079.05C1559.53 2083.71 1568.94 2086.04 1579.48 2086.04C1588.19 2086.04 1596.29 2084.21 1603.78 2080.57C1611.48 2076.72 1617.96 2070.84 1623.23 2062.94L1645.4 2076.92C1639.13 2088.06 1630.22 2096.67 1618.67 2102.74C1607.33 2108.62 1594.36 2111.56 1579.78 2111.56Z" fill="#F2F2F2"/>
<path d="M4187.27 1479.17H2873.04C2585.38 1479.17 2352.19 1712.36 2352.19 2000.01V2000.01C2352.19 2287.67 2585.38 2520.86 2873.04 2520.86H4187.27C4474.93 2520.86 4708.12 2287.67 4708.12 2000.01V2000.01C4708.12 1712.36 4474.93 1479.17 4187.27 1479.17Z" fill="#2D563C"/>
<path fill-rule="evenodd" clip-rule="evenodd" d="M2800.69 1784.79C2772.72 1784.79 2750.05 1807.46 2750.05 1835.43V2101.28C2750.05 2129.25 2772.72 2151.92 2800.69 2151.92H2927.28C2927.28 2193.87 2893.28 2227.88 2851.33 2227.88V2253.2H3155.17V2227.88C3113.22 2227.88 3079.19 2193.87 3079.19 2151.92H3205.8C3233.78 2151.92 3256.44 2129.25 3256.44 2101.28V1835.43C3256.44 1807.46 3233.78 1784.79 3205.8 1784.79H2800.69ZM2918.33 2227.88C2939.33 2209.32 2952.61 2182.17 2952.61 2151.92H3053.89C3053.89 2182.17 3067.14 2209.32 3088.17 2227.88H2918.33ZM2788.03 1810.11C2781.03 1810.11 2775.36 1815.78 2775.36 1822.77V2063.31C2775.36 2070.3 2781.03 2075.96 2788.03 2075.96H3218.47C3225.44 2075.96 3231.11 2070.3 3231.11 2063.31V1822.77C3231.11 1815.78 3225.44 1810.11 3218.47 1810.11H2788.03Z" fill="#D3CCC7"/>
<path d="M3551.75 2109.73V1948.71H3580.92V2109.73H3551.75ZM3566.33 1917.72C3560.64 1917.72 3555.89 1915.9 3552.05 1912.25C3548.39 1908.61 3546.58 1904.15 3546.58 1898.88C3546.58 1893.41 3548.39 1888.86 3552.05 1885.21C3555.89 1881.56 3560.64 1879.74 3566.33 1879.74C3572 1879.74 3576.64 1881.56 3580.3 1885.21C3584.14 1888.65 3586.08 1893.01 3586.08 1898.27C3586.08 1903.74 3584.25 1908.4 3580.61 1912.25C3576.94 1915.9 3572.19 1917.72 3566.33 1917.72ZM3646.92 2109.73V1897.06H3671.83L3767.25 2057.78H3753.86L3848.05 1897.06H3872.97L3873.28 2109.73H3844.11L3843.8 1942.94H3850.78L3766.94 2083.91H3752.94L3668.5 1942.94H3676.08V2109.73H3646.92ZM4038.89 2109.73V2075.71L4037.36 2069.32V2011.29C4037.36 1998.94 4033.72 1989.42 4026.42 1982.74C4019.33 1975.85 4008.58 1972.41 3994.22 1972.41C3984.69 1972.41 3975.39 1974.03 3966.25 1977.27C3957.14 1980.31 3949.44 1984.46 3943.17 1989.72L3931.03 1967.85C3939.33 1961.17 3949.25 1956.1 3960.8 1952.66C3972.55 1949.01 3984.8 1947.19 3997.55 1947.19C4019.64 1947.19 4036.64 1952.56 4048.61 1963.29C4060.55 1974.03 4066.53 1990.43 4066.53 2012.51V2109.73H4038.89ZM3986 2111.56C3974.05 2111.56 3963.53 2109.53 3954.42 2105.48C3945.5 2101.43 3938.61 2095.86 3933.75 2088.77C3928.89 2081.48 3926.47 2073.27 3926.47 2064.16C3926.47 2055.45 3928.5 2047.55 3932.53 2040.46C3936.8 2033.37 3943.58 2027.7 3952.89 2023.45C3962.42 2019.19 3975.17 2017.07 3991.17 2017.07H4042.22V2038.03H3992.39C3977.8 2038.03 3967.97 2040.46 3962.92 2045.32C3957.86 2050.18 3955.33 2056.06 3955.33 2062.94C3955.33 2070.84 3958.47 2077.22 3964.75 2082.09C3971.03 2086.74 3979.72 2089.07 3990.86 2089.07C4001.8 2089.07 4011.33 2086.64 4019.44 2081.78C4027.72 2076.92 4033.72 2069.83 4037.36 2060.51L4043.14 2080.57C4039.28 2090.09 4032.5 2097.68 4022.78 2103.35C4013.05 2108.82 4000.8 2111.56 3986 2111.56ZM4196.75 2111.56C4180.36 2111.56 4165.67 2108.01 4152.69 2100.92C4139.94 2093.83 4129.92 2084.11 4122.64 2071.76C4115.33 2059.4 4111.69 2045.22 4111.69 2029.22C4111.69 2013.22 4115.33 1999.04 4122.64 1986.69C4129.92 1974.33 4139.94 1964.71 4152.69 1957.82C4165.67 1950.73 4180.36 1947.19 4196.75 1947.19C4211.33 1947.19 4224.3 1950.13 4235.64 1956C4247.19 1961.67 4256.11 1970.18 4262.39 1981.52L4240.19 1995.8C4234.94 1987.9 4228.44 1982.13 4220.75 1978.48C4213.28 1974.63 4205.17 1972.71 4196.44 1972.71C4185.92 1972.71 4176.5 1975.04 4168.19 1979.7C4159.89 1984.36 4153.3 1990.94 4148.44 1999.45C4143.58 2007.75 4141.17 2017.67 4141.17 2029.22C4141.17 2040.77 4143.58 2050.79 4148.44 2059.3C4153.3 2067.81 4159.89 2074.39 4168.19 2079.05C4176.5 2083.71 4185.92 2086.04 4196.44 2086.04C4205.17 2086.04 4213.28 2084.21 4220.75 2080.57C4228.44 2076.72 4234.94 2070.84 4240.19 2062.94L4262.39 2076.92C4256.11 2088.06 4247.19 2096.67 4235.64 2102.74C4224.3 2108.62 4211.33 2111.56 4196.75 2111.56Z" fill="#F2F2F2"/>
<path d="M7540.55 1479.17H5490.22C5202.57 1479.17 4969.38 1712.35 4969.38 2000C4969.38 2287.65 5202.57 2520.83 5490.22 2520.83H7540.55C7828.2 2520.83 8061.38 2287.65 8061.38 2000C8061.38 1712.35 7828.2 1479.17 7540.55 1479.17Z" fill="#2D563C"/>
<path fill-rule="evenodd" clip-rule="evenodd" d="M5367.25 2101.27V2112.89C5367.25 2127.45 5379.05 2139.25 5393.61 2139.25H5847.25C5861.8 2139.25 5873.61 2127.45 5873.61 2112.89V2101.27H5810.3V1900.28C5810.3 1878.45 5792.61 1860.75 5770.77 1860.75H5470.08C5448.25 1860.75 5430.52 1878.45 5430.52 1900.28V2101.27H5367.25ZM5469.02 1886.07C5461.75 1886.07 5455.86 1891.97 5455.86 1899.24V2101.27H5785V1899.24C5785 1891.97 5779.08 1886.07 5771.8 1886.07H5469.02Z" fill="#D3CCC7"/>
<path d="M1460.51 159.723H-384.268C-671.917 159.723 -905.102 392.908 -905.102 680.556C-905.102 968.204 -671.917 1201.39 -384.268 1201.39H1460.51C1748.16 1201.39 1981.34 968.204 1981.34 680.556C1981.34 392.908 1748.16 159.723 1460.51 159.723Z" fill="#2D563C"/>
<path d="M266.473 790.278L362.781 577.606H392.862L489.475 790.278H457.573L371.592 594.617H383.745L297.764 790.278H266.473ZM307.487 737.108L315.689 712.803H435.395L444.206 737.108H307.487ZM609.003 627.733C622.17 627.733 633.714 630.267 643.639 635.331C653.767 640.394 661.667 648.092 667.337 658.419C673.009 668.75 675.845 681.814 675.845 697.614V790.278H646.678V700.956C646.678 685.358 642.828 673.611 635.134 665.711C627.639 657.814 617.006 653.864 603.231 653.864C592.903 653.864 583.889 655.889 576.192 659.939C568.495 663.989 562.52 669.967 558.267 677.864C554.214 685.764 552.189 695.586 552.189 707.336V790.278H523.023V629.253H550.976V672.7L546.417 661.156C551.684 650.622 559.787 642.419 570.723 636.544C581.662 630.672 594.42 627.733 609.003 627.733ZM802.437 792.1C786.839 792.1 772.864 788.658 760.509 781.772C748.356 774.883 738.734 765.264 731.645 752.908C724.556 740.553 721.012 726.172 721.012 709.767C721.012 693.358 724.556 679.081 731.645 666.928C738.734 654.572 748.356 644.95 760.509 638.064C772.864 631.178 786.839 627.733 802.437 627.733C816.006 627.733 828.259 630.772 839.198 636.85C850.134 642.925 858.845 652.039 865.326 664.192C872.009 676.344 875.353 691.536 875.353 709.767C875.353 727.994 872.112 743.186 865.631 755.339C859.351 767.492 850.742 776.708 839.806 782.986C828.867 789.064 816.412 792.1 802.437 792.1ZM804.867 766.581C814.992 766.581 824.109 764.25 832.209 759.592C840.514 754.933 846.995 748.35 851.653 739.844C856.514 731.133 858.945 721.108 858.945 709.767C858.945 698.219 856.514 688.294 851.653 679.992C846.995 671.483 840.514 664.903 832.209 660.242C824.109 655.583 814.992 653.256 804.867 653.256C794.537 653.256 785.32 655.583 777.217 660.242C769.117 664.903 762.634 671.483 757.773 679.992C752.912 688.294 750.481 698.219 750.481 709.767C750.481 721.108 752.912 731.133 757.773 739.844C762.634 748.35 769.117 754.933 777.217 759.592C785.32 764.25 794.537 766.581 804.867 766.581ZM859.856 790.278V746.831L861.681 709.461L858.642 672.092V564.844H887.809V790.278H859.856ZM949.07 790.278V629.253H977.023V673.003L974.287 662.067C978.745 650.925 986.239 642.419 996.77 636.544C1007.3 630.672 1020.27 627.733 1035.66 627.733V655.989C1034.44 655.786 1033.23 655.686 1032.01 655.686C1031 655.686 1029.99 655.686 1028.98 655.686C1013.38 655.686 1001.02 660.344 991.909 669.661C982.795 678.978 978.237 692.447 978.237 710.069V790.278H949.07ZM1145.17 792.1C1128.96 792.1 1114.58 788.556 1102.03 781.467C1089.47 774.378 1079.54 764.656 1072.25 752.3C1064.96 739.742 1061.31 725.564 1061.31 709.767C1061.31 693.764 1064.96 679.586 1072.25 667.231C1079.54 654.875 1089.47 645.256 1102.03 638.369C1114.58 631.278 1128.96 627.733 1145.17 627.733C1161.17 627.733 1175.45 631.278 1188.01 638.369C1200.77 645.256 1210.69 654.875 1217.78 667.231C1225.07 679.383 1228.72 693.561 1228.72 709.767C1228.72 725.767 1225.07 739.944 1217.78 752.3C1210.69 764.656 1200.77 774.378 1188.01 781.467C1175.45 788.556 1161.17 792.1 1145.17 792.1ZM1145.17 766.581C1155.5 766.581 1164.71 764.25 1172.81 759.592C1181.12 754.933 1187.6 748.35 1192.26 739.844C1196.92 731.133 1199.25 721.108 1199.25 709.767C1199.25 698.219 1196.92 688.294 1192.26 679.992C1187.6 671.483 1181.12 664.903 1172.81 660.242C1164.71 655.583 1155.5 653.256 1145.17 653.256C1134.84 653.256 1125.62 655.583 1117.52 660.242C1109.42 664.903 1102.94 671.483 1098.08 679.992C1093.21 688.294 1090.78 698.219 1090.78 709.767C1090.78 721.108 1093.21 731.133 1098.08 739.844C1102.94 748.35 1109.42 754.933 1117.52 759.592C1125.62 764.25 1134.84 766.581 1145.17 766.581ZM1275.13 790.278V629.253H1304.3V790.278H1275.13ZM1289.71 598.264C1284.04 598.264 1279.28 596.442 1275.43 592.794C1271.79 589.15 1269.97 584.694 1269.97 579.428C1269.97 573.958 1271.79 569.4 1275.43 565.756C1279.28 562.108 1284.04 560.286 1289.71 560.286C1295.39 560.286 1300.04 562.108 1303.69 565.756C1307.54 569.197 1309.46 573.553 1309.46 578.819C1309.46 584.289 1307.64 588.947 1303.99 592.794C1300.35 596.442 1295.59 598.264 1289.71 598.264ZM1432.6 792.1C1417 792.1 1403.03 788.658 1390.67 781.772C1378.52 774.883 1368.9 765.264 1361.81 752.908C1354.72 740.553 1351.18 726.172 1351.18 709.767C1351.18 693.358 1354.72 679.081 1361.81 666.928C1368.9 654.572 1378.52 644.95 1390.67 638.064C1403.03 631.178 1417 627.733 1432.6 627.733C1446.17 627.733 1458.42 630.772 1469.36 636.85C1480.3 642.925 1489.01 652.039 1495.49 664.192C1502.17 676.344 1505.52 691.536 1505.52 709.767C1505.52 727.994 1502.28 743.186 1495.8 755.339C1489.51 767.492 1480.91 776.708 1469.97 782.986C1459.03 789.064 1446.58 792.1 1432.6 792.1ZM1435.03 766.581C1445.16 766.581 1454.27 764.25 1462.37 759.592C1470.68 754.933 1477.16 748.35 1481.82 739.844C1486.68 731.133 1489.11 721.108 1489.11 709.767C1489.11 698.219 1486.68 688.294 1481.82 679.992C1477.16 671.483 1470.68 664.903 1462.37 660.242C1454.27 655.583 1445.16 653.256 1435.03 653.256C1424.7 653.256 1415.48 655.583 1407.38 660.242C1399.28 664.903 1392.8 671.483 1387.94 679.992C1383.08 688.294 1380.65 698.219 1380.65 709.767C1380.65 721.108 1383.08 731.133 1387.94 739.844C1392.8 748.35 1399.28 754.933 1407.38 759.592C1415.48 764.25 1424.7 766.581 1435.03 766.581ZM1490.02 790.278V746.831L1491.85 709.461L1488.81 672.092V564.844H1517.97V790.278H1490.02Z" fill="#F2F2F2"/>
<path d="M4454.45 159.723H2762.44C2474.79 159.723 2241.61 392.908 2241.61 680.556C2241.61 968.204 2474.79 1201.39 2762.44 1201.39H4454.45C4742.1 1201.39 4975.29 968.204 4975.29 680.556C4975.29 392.908 4742.1 159.723 4454.45 159.723Z" fill="#2D563C"/>
<path fill-rule="evenodd" clip-rule="evenodd" d="M2740.74 478.008C2740.74 450.041 2763.41 427.372 2791.38 427.372H2993.91C3021.88 427.372 3044.55 450.041 3044.55 478.008V883.1C3044.55 911.066 3021.88 933.736 2993.91 933.736H2791.38C2763.41 933.736 2740.74 911.066 2740.74 883.1V478.008ZM2766.05 465.347C2766.05 458.355 2771.71 452.689 2778.71 452.689H3006.58C3013.58 452.689 3019.24 458.355 3019.24 465.347V895.758C3019.24 902.75 3013.58 908.419 3006.58 908.419H2778.71C2771.71 908.419 2766.05 902.75 2766.05 895.758V465.347Z" fill="#D3CCC7"/>
<path d="M2935.3 737.764C2927.03 745.781 2918 744.514 2909.3 740.717C2900.11 736.836 2891.67 736.667 2881.97 740.717C2869.8 745.95 2863.39 744.431 2856.14 737.764C2814.94 695.314 2821.03 630.667 2867.78 628.303C2879.19 628.895 2887.11 634.55 2893.78 635.056C2903.75 633.031 2913.28 627.206 2923.92 627.967C2936.67 628.981 2946.28 634.042 2952.61 643.158C2926.28 658.939 2932.53 693.625 2956.67 703.331C2951.83 715.989 2945.61 728.564 2935.22 737.847L2935.3 737.764ZM2892.94 627.797C2891.67 608.978 2906.94 593.45 2924.5 591.931C2926.94 613.703 2904.75 629.908 2892.94 627.797Z" fill="#D3CCC7"/>
<path d="M3441.14 790.278V629.253H3470.3V790.278H3441.14ZM3455.72 598.264C3450.02 598.264 3445.27 596.442 3441.41 592.794C3437.77 589.15 3435.97 584.694 3435.97 579.428C3435.97 573.958 3437.77 569.4 3441.41 565.756C3445.27 562.108 3450.02 560.286 3455.72 560.286C3461.39 560.286 3466.02 562.108 3469.69 565.756C3473.52 569.197 3475.44 573.553 3475.44 578.819C3475.44 584.289 3473.64 588.947 3470 592.794C3466.33 596.442 3461.58 598.264 3455.72 598.264ZM3536.3 790.278V577.606H3619.25C3637.89 577.606 3653.77 580.542 3666.94 586.414C3680.11 592.289 3690.25 600.794 3697.33 611.936C3704.41 623.075 3707.97 636.342 3707.97 651.736C3707.97 667.131 3704.41 680.397 3697.33 691.536C3690.25 702.475 3680.11 710.981 3666.94 717.058C3653.77 722.931 3637.89 725.869 3619.25 725.869H3553.02L3566.69 711.589V790.278H3536.3ZM3566.69 714.628L3553.02 699.436H3618.33C3637.77 699.436 3652.47 695.283 3662.39 686.981C3672.52 678.675 3677.58 666.928 3677.58 651.736C3677.58 636.544 3672.52 624.797 3662.39 616.494C3652.47 608.189 3637.77 604.036 3618.33 604.036H3553.02L3566.69 588.844V714.628ZM3843.39 627.733C3856.52 627.733 3868.08 630.267 3878 635.331C3888.14 640.394 3896.02 648.092 3901.72 658.419C3907.39 668.75 3910.22 681.814 3910.22 697.614V790.278H3881.05V700.956C3881.05 685.358 3877.19 673.611 3869.5 665.711C3862 657.814 3851.39 653.864 3837.61 653.864C3827.27 653.864 3818.25 655.889 3810.55 659.939C3802.86 663.989 3796.89 669.967 3792.64 677.864C3788.58 685.764 3786.55 695.586 3786.55 707.336V790.278H3757.39V564.844H3786.55V672.7L3780.77 661.156C3786.05 650.622 3794.16 642.419 3805.08 636.544C3816.02 630.672 3828.8 627.733 3843.39 627.733ZM4039.25 792.1C4023.02 792.1 4008.64 788.556 3996.08 781.467C3983.52 774.378 3973.61 764.656 3966.33 752.3C3959.02 739.742 3955.39 725.564 3955.39 709.767C3955.39 693.764 3959.02 679.586 3966.33 667.231C3973.61 654.875 3983.52 645.256 3996.08 638.369C4008.64 631.278 4023.02 627.733 4039.25 627.733C4055.25 627.733 4069.52 631.278 4082.08 638.369C4094.83 645.256 4104.75 654.875 4111.86 667.231C4119.14 679.383 4122.77 693.561 4122.77 709.767C4122.77 725.767 4119.14 739.944 4111.86 752.3C4104.75 764.656 4094.83 774.378 4082.08 781.467C4069.52 788.556 4055.25 792.1 4039.25 792.1ZM4039.25 766.581C4049.55 766.581 4058.77 764.25 4066.89 759.592C4075.19 754.933 4081.66 748.35 4086.33 739.844C4091 731.133 4093.3 721.108 4093.3 709.767C4093.3 698.219 4091 688.294 4086.33 679.992C4081.66 671.483 4075.19 664.903 4066.89 660.242C4058.77 655.583 4049.55 653.256 4039.25 653.256C4028.91 653.256 4019.69 655.583 4011.58 660.242C4003.5 664.903 3997 671.483 3992.14 679.992C3987.27 688.294 3984.86 698.219 3984.86 709.767C3984.86 721.108 3987.27 731.133 3992.14 739.844C3997 748.35 4003.5 754.933 4011.58 759.592C4019.69 764.25 4028.91 766.581 4039.25 766.581ZM4255.19 627.733C4268.33 627.733 4279.89 630.267 4289.8 635.331C4299.94 640.394 4307.83 648.092 4313.52 658.419C4319.19 668.75 4322.02 681.814 4322.02 697.614V790.278H4292.86V700.956C4292.86 685.358 4289 673.611 4281.3 665.711C4273.8 657.814 4263.19 653.864 4249.41 653.864C4239.08 653.864 4230.05 655.889 4222.36 659.939C4214.66 663.989 4208.69 669.967 4204.44 677.864C4200.39 685.764 4198.36 695.586 4198.36 707.336V790.278H4169.19V629.253H4197.14V672.7L4192.58 661.156C4197.86 650.622 4205.97 642.419 4216.89 636.544C4227.83 630.672 4240.61 627.733 4255.19 627.733ZM4453.77 792.1C4436.55 792.1 4421.36 788.556 4408.19 781.467C4395.25 774.378 4385.11 764.656 4377.83 752.3C4370.72 739.944 4367.19 725.767 4367.19 709.767C4367.19 693.764 4370.64 679.586 4377.52 667.231C4384.61 654.875 4394.22 645.256 4406.39 638.369C4418.75 631.278 4432.61 627.733 4448 627.733C4463.61 627.733 4477.36 631.178 4489.33 638.064C4501.27 644.95 4510.58 654.672 4517.27 667.231C4524.16 679.586 4527.61 694.069 4527.61 710.678C4527.61 711.892 4527.5 713.311 4527.3 714.931C4527.3 716.55 4527.19 718.069 4527 719.489H4389.97V698.525H4511.8L4499.94 705.817C4500.16 695.486 4498.02 686.269 4493.58 678.169C4489.11 670.067 4482.94 663.789 4475.05 659.331C4467.36 654.672 4458.33 652.344 4448 652.344C4437.89 652.344 4428.86 654.672 4420.97 659.331C4413.05 663.789 4406.89 670.167 4402.44 678.472C4397.97 686.575 4395.75 695.892 4395.75 706.422V711.283C4395.75 722.019 4398.16 731.642 4403.02 740.147C4408.11 748.453 4415.08 754.933 4424 759.592C4432.91 764.25 4443.14 766.581 4454.69 766.581C4464.19 766.581 4472.8 764.958 4480.5 761.719C4488.41 758.478 4495.3 753.617 4501.16 747.136L4517.27 765.972C4509.97 774.481 4500.86 780.961 4489.94 785.417C4479.19 789.872 4467.14 792.1 4453.77 792.1Z" fill="#F2F2F2"/>
<path d="M7029.79 159.723H5757.22C5469.57 159.723 5236.39 392.908 5236.39 680.556C5236.39 968.204 5469.57 1201.39 5757.22 1201.39H7029.79C7317.44 1201.39 7550.62 968.204 7550.62 680.556C7550.62 392.908 7317.44 159.723 7029.79 159.723Z" fill="#2D563C"/>
<path fill-rule="evenodd" clip-rule="evenodd" d="M5735.52 427.375C5707.55 427.375 5684.88 450.047 5684.88 478.014V883.106C5684.88 911.072 5707.55 933.742 5735.52 933.742H6039.33C6067.3 933.742 6089.97 911.072 6089.97 883.106V478.014C6089.97 450.047 6067.3 427.375 6039.33 427.375H5735.52ZM5722.85 452.694C5715.85 452.694 5710.19 458.361 5710.19 465.353V895.764C5710.19 902.756 5715.85 908.425 5722.85 908.425H6051.99C6058.99 908.425 6064.66 902.756 6064.66 895.764V465.353C6064.66 458.361 6058.99 452.694 6051.99 452.694H5722.85Z" fill="#D3CCC7"/>
</g>
<defs>
<clipPath id="clip0_462_3646">
<rect width="6000" height="4000" fill="white"/>
</clipPath>
</defs>
</svg>
