<svg width="4000" height="4000" viewBox="0 0 4000 4000" fill="none" xmlns="http://www.w3.org/2000/svg">
<rect width="4000" height="4000" fill="black"/>
<path d="M288.5 1683.5L921.5 2316.5" stroke="#333333" stroke-width="7" stroke-miterlimit="10"/>
<path d="M921.5 1683.5L288.5 2316.5" stroke="#333333" stroke-width="7" stroke-miterlimit="10"/>
<path d="M157 2000H1053" stroke="#333333" stroke-width="7" stroke-miterlimit="10"/>
<path d="M605 1552L605 2448" stroke="#333333" stroke-width="7" stroke-miterlimit="10"/>
<path d="M923 2000C923 2175.63 780.627 2318 605 2318C429.373 2318 287 2175.63 287 2000C287 1824.37 429.373 1682 605 1682C780.627 1682 923 1824.37 923 2000Z" fill="url(#paint0_linear_125_3793)" stroke="#333333" stroke-width="7"/>
<path d="M340 2000C340 2146.28 459.25 2265 605 2265C751.28 2265 870 2146.28 870 2000C870 1926.86 840.32 1860.61 792.62 1812.38L770.89 1834.11C813.29 1876.51 839.26 1935.34 839.26 2000C839.26 2129.32 734.32 2234.26 605 2234.26C475.68 2234.26 374.45 2129.32 374.45 2000C374.45 1925.27 414.2 1872.27 423.74 1872.27C430.63 1872.27 439.64 1889.23 452.36 1913.08C500.59 1828.28 545.64 1762.56 573.2 1735C508.54 1741.89 435.4 1761.5 376.04 1787.47C388.76 1806.02 398.83 1820.33 398.83 1828.28C398.83 1841 340 1890.82 340 2000Z" fill="#F2F2F2"/>
<g clip-path="url(#clip0_125_3793)">
<path d="M1535 1735C1388.72 1735 1270 1854.25 1270 2000H1300.74C1300.74 1870.68 1405.68 1769.45 1535 1769.45C1609.73 1769.45 1662.73 1809.2 1662.73 1818.74C1662.73 1825.63 1645.77 1834.64 1621.92 1847.36C1706.72 1895.59 1772.44 1940.64 1800 1968.2C1793.11 1903.54 1773.5 1830.4 1747.53 1771.04C1728.98 1783.76 1714.67 1793.83 1706.72 1793.83C1694 1793.83 1644.18 1735 1535 1735ZM1535 2265C1681.28 2265 1800 2145.75 1800 2000H1769.26C1769.26 2129.32 1664.32 2230.55 1535 2230.55C1460.27 2230.55 1407.27 2190.8 1407.27 2181.26C1407.27 2174.37 1424.23 2165.36 1448.08 2152.64C1363.28 2104.41 1297.56 2059.36 1270 2031.8C1276.89 2096.46 1296.5 2169.6 1322.47 2228.96C1341.02 2216.24 1355.33 2206.17 1363.28 2206.17C1376 2206.17 1425.82 2265 1535 2265Z" fill="#F2F2F2"/>
</g>
<g clip-path="url(#clip1_125_3793)">
<path d="M2730 2000C2730 1853.72 2610.75 1735 2465 1735C2318.72 1735 2200 1853.72 2200 2000C2200 2073.14 2229.68 2139.39 2277.38 2187.62L2299.11 2165.89C2256.71 2123.49 2230.74 2064.66 2230.74 2000C2230.74 1870.68 2335.68 1765.74 2465 1765.74C2594.32 1765.74 2695.55 1870.68 2695.55 2000C2695.55 2074.73 2655.8 2127.73 2646.26 2127.73C2639.37 2127.73 2630.36 2110.77 2617.64 2086.92C2569.41 2171.72 2524.36 2237.44 2496.8 2265C2561.46 2258.11 2634.6 2238.5 2693.96 2212.53C2681.24 2193.98 2671.17 2179.67 2671.17 2171.72C2671.17 2159 2730 2109.18 2730 2000Z" fill="#F2F2F2"/>
</g>
<g clip-path="url(#clip2_125_3793)">
<path d="M3629.26 2000C3629.26 2129.32 3524.32 2234.26 3395 2234.26C3265.68 2234.26 3164.45 2129.32 3164.45 2000C3164.45 1925.27 3204.2 1872.27 3213.74 1872.27C3220.63 1872.27 3229.64 1889.23 3242.36 1913.08C3310.73 1793.3 3346.77 1763.62 3405.6 1763.62C3519.02 1763.62 3629.26 1865.91 3629.26 2000ZM3366.38 2159.53C3384.4 2164.3 3411.96 2158.47 3423.09 2142.57C3434.75 2126.14 3442.7 2028.09 3521.14 1865.38C3524.32 1859.02 3522.73 1845.24 3500.47 1835.17C3428.39 1960.25 3401.89 2064.66 3391.82 2106.53C3373.27 2069.43 3337.23 2019.61 3332.99 1981.98C3307.02 1985.16 3292.71 1995.23 3292.71 2009.01C3292.71 2038.69 3351.01 2109.71 3366.38 2159.53ZM3660 2000.53C3660 1853.72 3541.28 1735 3395 1735C3313.91 1735 3225.4 1761.5 3166.04 1787.47C3178.76 1806.02 3188.83 1820.33 3188.83 1828.28C3188.83 1841 3130 1890.82 3130 2000C3130 2146.28 3249.25 2265 3395 2265C3541.28 2265 3660 2146.28 3660 2000.53Z" fill="#F2F2F2"/>
</g>
<defs>
<linearGradient id="paint0_linear_125_3793" x1="605" y1="1682" x2="605" y2="2318" gradientUnits="userSpaceOnUse">
<stop stop-opacity="0"/>
<stop offset="1" stop-color="#555555"/>
</linearGradient>
<clipPath id="clip0_125_3793">
<rect width="530" height="530" fill="white" transform="translate(1270 1735)"/>
</clipPath>
<clipPath id="clip1_125_3793">
<rect width="530" height="530" fill="white" transform="translate(2200 1735)"/>
</clipPath>
<clipPath id="clip2_125_3793">
<rect width="530" height="530" fill="white" transform="translate(3130 1735)"/>
</clipPath>
</defs>
</svg>
