<svg xmlns="http://www.w3.org/2000/svg" viewBox="0 0 1920 1080"><defs><style>.a{fill:#dadada;}</style></defs><rect width="1920" height="1080"/><path class="a" d="M924.34,620.09s-67.23,42.09-164.7,42.09c-118.78,0-166.39-66.07-166.39-137.14s57.41-144,170.65-144,143.23,89.2,136,147.3H620.28v-30.6H846.69s2.91-78-87.54-78c-74.15,0-113.82,56.13-113.82,103.54,0,37.68,24,97.56,124,97.56,84,0,140.54-36.63,159.83-48.51Z"/><path class="a" d="M1703.06,623s-63.68,39.17-161.16,39.17c-118.8,0-166.42-66.07-166.42-137.14s57.41-144,170.68-144,143.25,89.2,136,147.3H1402.51v-30.6H1629s2.91-78-87.56-78c-74.16,0-113.83,56.13-113.83,103.54,0,37.68,24,97.56,124,97.56,84,0,153.71-40.68,196.19-87.07Z"/><path class="a" d="M1311.59,623s-63.61,39.17-161,39.17c-118.67,0-166.23-66.07-166.23-137.14s57.35-144,170.49-144,143.09,89.2,135.86,147.3H1011.37v-30.6h226.2s2.9-78-87.46-78c-74.09,0-113.71,56.13-113.71,103.54,0,37.68,24,97.56,123.91,97.56a275.66,275.66,0,0,0,176.53-63Z"/><path class="a" d="M533.52,620s-67.83,42.17-165.18,42.17c-118.64,0-166.2-66.07-166.2-137.14s57.34-144,170.46-144,143.06,89.2,135.83,147.3H229.14v-30.6H455.29s2.9-78-87.44-78c-74.07,0-113.69,56.13-113.69,103.54,0,37.68,24,97.56,123.88,97.56,83.93,0,138.16-33.59,155.48-44.64Z"/></svg>