<svg width="1920" height="1080" viewBox="0 0 1920 1080" fill="none" xmlns="http://www.w3.org/2000/svg">
<rect width="1920" height="1080" fill="#DADADA" shape-rendering="crispEdges"/>
<path d="M442.741 286.553C441.121 282.233 440.221 277.734 439.861 268.913C430.681 281.873 413.761 288.353 398.461 288.353C377.402 288.353 363.361 278.633 363.361 264.234C363.361 248.754 374.88 236.695 406.561 236.695C417.638 236.622 428.707 237.344 439.68 238.855V231.835C439.68 218.875 428.7 215.276 417.001 215.276C405.481 215.276 390.182 217.436 375.601 226.076L381.181 209.337C393.396 204.835 406.323 202.579 419.34 202.677C437.699 202.677 456.24 208.437 456.24 232.556V246.956C456.24 269.995 456.6 278.276 459.66 286.556L442.741 286.553ZM439.681 248.395C431.761 247.674 420.781 247.135 410.522 247.135C389.643 247.135 380.822 252.714 380.822 262.435C380.822 270.535 388.382 275.214 401.161 275.214C412.322 275.213 437.881 270.353 439.681 248.395Z" fill="black"/>
<path d="M586.378 243.534C586.378 268.014 566.038 288.353 535.078 288.353C523.378 288.353 511.859 284.753 504.119 279.353V286.553H487.562V158.758H504.121V223.196C512.401 209.157 525.9 202.676 541.199 202.676C568.558 202.676 586.378 218.875 586.378 243.534ZM568.919 244.795C568.919 226.436 555.599 215.276 538.859 215.276C520.14 215.276 504.121 229.316 504.121 257.934V266.574C508.261 269.634 517.8 275.213 534.721 275.213C558.3 275.213 568.919 259.374 568.919 244.795Z" fill="black"/>
<path d="M705.716 278.274C698.156 282.053 682.5 288.353 660 288.353C623.821 288.353 608.162 268.194 608.162 246.595C608.162 224.996 628.681 202.676 661.262 202.676C677.281 202.676 689.881 206.456 695.28 208.796L698.34 225.896C686.719 218.887 673.393 215.213 659.822 215.276C635.522 215.276 625.622 231.656 625.622 246.055C625.622 257.574 632.462 275.213 662.881 275.213C687.54 275.213 704.099 265.134 710.039 260.813L705.716 278.274Z" fill="black"/>
<path d="M810.115 158.758H826.674V286.553H810.115V266.934C802.195 281.513 788.515 288.353 773.036 288.353C746.217 288.353 727.318 272.153 727.318 247.494C727.318 222.835 748.197 202.676 779.156 202.676C790.496 202.676 802.015 206.096 810.115 211.316V158.758ZM810.115 233.095V224.276C806.155 221.035 797.155 215.276 779.515 215.276C755.936 215.276 744.777 231.656 744.777 246.235C744.777 264.594 759.177 275.213 775.377 275.213C794.099 275.213 810.115 263.514 810.115 233.095V233.095Z" fill="black"/>
<path d="M957.354 259.373L953.034 277.373C942.415 282.413 928.015 288.353 905.516 288.353C869.338 288.353 853.678 268.194 853.678 246.595C853.678 224.996 874.198 202.676 906.778 202.676C943.857 202.676 950.697 232.196 948.537 248.754H871.318C872.218 260.094 880.318 275.213 908.396 275.213C933.055 275.212 951.414 264.052 957.354 259.373ZM872.038 238.314H930.9C930.9 230.394 925.681 215.275 905.341 215.275C885.357 215.275 875.1 226.435 872.038 238.314V238.314Z" fill="black"/>
<path d="M1005.96 204.477H1053.66V216.353H1005.96V286.553H989.4V216.353H962.037V204.477H989.4V202.677C989.4 168.839 1011.36 156.959 1036.74 156.959C1045.89 156.899 1054.97 158.484 1063.56 161.639L1066.26 179.998C1061.22 176.218 1047.72 169.559 1035.66 169.559C1021.08 169.559 1005.96 174.059 1005.96 200.877L1005.96 204.477Z" fill="black"/>
<path d="M1167.95 305.272C1167.95 322.911 1146.53 330.652 1117.01 330.652C1085.15 330.652 1068.6 322.192 1068.6 307.252C1068.6 296.633 1080.11 291.593 1088.21 289.252C1078.49 286.192 1071.66 281.332 1071.66 273.052C1071.66 264.232 1080.83 260.452 1090.73 258.832C1080.11 253.972 1074.35 245.513 1074.35 233.813C1074.35 216.713 1090.91 202.674 1113.41 202.674H1158.77L1162.37 214.554L1143.65 212.214C1149.95 217.974 1153.37 225.894 1153.37 235.253C1153.37 251.813 1137.71 263.153 1115.21 263.153C1115.21 263.153 1086.59 263.153 1086.59 271.613C1086.59 282.773 1167.95 271.614 1167.95 305.272ZM1151.39 306.712C1151.39 295.733 1123.13 296.093 1100.27 291.952C1092.53 294.832 1085.15 299.152 1085.15 304.912C1085.15 316.791 1103.33 319.852 1118.99 319.852C1130.87 319.853 1151.39 317.512 1151.39 306.712ZM1089.65 232.912C1089.65 244.252 1098.47 252.712 1116.11 252.712C1129.97 252.712 1138.07 244.612 1138.07 233.453C1138.07 223.553 1129.61 213.474 1112.33 213.474C1096.67 213.476 1089.65 222.835 1089.65 232.915V232.912Z" fill="black"/>
<path d="M1282.43 286.553H1265.15C1262.81 280.253 1261.55 273.413 1261.55 253.434C1261.55 233.276 1260.83 215.816 1236.71 215.816C1210.25 215.996 1200.53 239.755 1200.53 264.774V286.553H1183.97V158.758H1200.53V226.976C1207.19 212.396 1219.25 202.676 1239.23 202.676C1270.73 202.676 1278.11 220.676 1278.11 246.954C1278.11 269.993 1279.37 278.274 1282.43 286.553Z" fill="black"/>
<path d="M1308.17 176.752C1308.17 171.352 1313.03 166.852 1319.33 166.852C1325.63 166.852 1330.49 171.352 1330.49 176.752C1330.49 182.152 1325.63 186.652 1319.33 186.652C1313.03 186.652 1308.17 182.152 1308.17 176.752ZM1311.05 204.472V286.552H1327.61V204.476L1311.05 204.472Z" fill="black"/>
<path d="M1316.99 322.91L1313.93 304.371C1324.91 313.911 1334.81 317.511 1343.27 317.511C1357.67 317.511 1364.15 309.231 1364.15 287.272V204.472H1380.71V288.352C1380.71 318.591 1370.27 330.652 1346.15 330.652C1335.92 330.638 1325.88 327.971 1316.99 322.91V322.91ZM1360.91 176.752C1360.91 171.352 1365.77 166.852 1372.07 166.852C1378.37 166.852 1383.23 171.352 1383.23 176.752C1383.23 182.152 1378.37 186.652 1372.07 186.652C1365.77 186.652 1360.91 182.152 1360.91 176.752Z" fill="black"/>
<path d="M1455.95 235.253C1483.85 243.353 1501.3 279.891 1516.78 286.553H1491.94C1480.24 280.253 1464.4 245.153 1430.74 241.735V286.553H1414.18V158.758H1430.74V237.595L1479.52 204.477H1504.36L1455.95 235.253Z" fill="black"/>
<path d="M1549.91 158.758V286.553H1533.35V158.758H1549.91Z" fill="black"/>
<path d="M509.518 486.532H492.239C489.899 480.232 488.639 473.393 488.639 453.413C488.639 433.255 487.019 415.795 466.86 415.795C444.001 415.976 434.281 436.134 434.281 461.152V486.532H417.722V453.594C417.722 433.435 416.102 415.794 395.942 415.794C373.083 415.975 363.364 439.734 363.364 464.752V486.532H346.801V404.452H363.361V426.231C369.661 412.012 380.82 402.652 398.461 402.652C418.621 402.652 428.34 412.192 432.3 427.671C437.88 412.371 449.039 402.652 469.378 402.652C496.917 402.652 505.197 420.652 505.197 446.93C505.201 469.973 506.458 478.252 509.518 486.532Z" fill="black"/>
<path d="M635.517 486.532H618.238C615.898 480.232 614.638 473.393 614.638 453.413C614.638 433.255 613.918 415.795 589.799 415.795C563.34 415.795 553.62 439.735 553.62 464.753V486.532H537.061V404.452H553.62V426.952C560.28 412.372 572.339 402.652 592.32 402.652C623.82 402.652 631.198 420.652 631.198 446.93C631.2 469.973 632.457 478.252 635.517 486.532Z" fill="black"/>
<path d="M758.1 444.235C758.1 467.093 738.481 488.335 704.463 488.335C678 488.332 656.4 472.852 656.4 446.574C656.4 423.174 679.8 402.656 709.318 402.656C738.476 402.652 758.1 421.736 758.1 444.235ZM740.641 445.674C740.641 427.495 726.241 415.255 707.882 415.255C687.723 415.255 673.864 429.114 673.864 446.034C673.864 461.873 686.103 475.193 707.342 475.193C729.117 475.193 740.636 462.234 740.636 445.674H740.641Z" fill="black"/>
<path d="M883.736 443.514C883.736 467.993 863.397 488.332 832.436 488.332C820.736 488.332 809.217 484.732 801.477 479.332V528.832H784.92V404.452H801.479V423.171C809.759 409.132 823.258 402.652 838.558 402.652C865.917 402.652 883.736 418.852 883.736 443.514ZM866.277 444.775C866.277 426.415 852.957 415.255 836.218 415.255C817.498 415.255 801.479 429.295 801.479 457.913V466.552C805.619 469.613 815.159 475.192 832.079 475.192C855.657 475.193 866.277 459.352 866.277 444.775V444.775Z" fill="black"/>
<path d="M988.315 404.452H1004.87V528.83H988.315V466.913C980.395 481.492 966.715 488.332 951.236 488.332C924.417 488.332 905.518 472.132 905.518 447.474C905.518 422.816 926.401 402.652 957.356 402.652C968.696 402.652 980.215 406.071 988.315 411.291V404.452ZM988.315 433.07V424.252C984.355 421.012 975.355 415.252 957.715 415.252C934.136 415.252 922.977 431.632 922.977 446.211C922.977 464.57 937.377 475.19 953.577 475.19C972.295 475.193 988.315 463.493 988.315 433.074V433.07Z" fill="black"/>
<path d="M1104.95 423.535C1099.01 419.215 1093.07 415.976 1083.89 415.976C1065.35 415.976 1053.84 437.935 1053.84 464.753V486.532H1037.28V404.452H1053.84V426.052C1059.77 412.193 1069.49 402.652 1084.07 402.652C1090.24 402.795 1096.33 404.014 1102.07 406.252L1104.95 423.535Z" fill="black"/>
<path d="M1196.93 408.776L1199.99 425.876C1188.7 418.336 1175.4 414.383 1161.83 414.536C1148.87 414.536 1139.33 418.136 1139.33 424.256C1139.33 430.196 1147.61 432.535 1169.75 437.035C1193.51 441.895 1208.63 447.475 1208.63 464.754C1208.63 484.014 1184.87 488.333 1168.85 488.333C1147.79 488.333 1133.57 483.833 1122.59 479.873L1119.53 462.055C1130.87 470.514 1151.93 475.734 1166.51 475.734C1181.27 475.734 1190.45 472.854 1190.45 464.754C1190.45 457.554 1180.01 455.034 1165.25 451.795C1138.79 446.035 1122.77 441.356 1122.77 424.256C1122.77 411.296 1137.89 402.656 1160.21 402.656C1177.49 402.652 1191.53 406.615 1196.93 408.776Z" fill="black"/>
<path d="M1235.27 486.532V406.252C1235.27 370.613 1260.29 356.934 1285.67 356.934C1318.61 356.934 1336.43 375.473 1338.59 404.991C1330.91 403.269 1323.06 402.484 1315.19 402.652C1304.03 402.652 1291.79 405.352 1291.79 414.531C1291.79 433.251 1343.45 431.631 1343.45 464.39C1343.45 478.609 1328.69 488.328 1306.73 488.328C1292.15 488.328 1282.43 486.168 1274.15 483.109L1271.09 467.089C1280.45 472.849 1291.25 475.369 1304.39 475.369C1313.75 475.369 1324.73 472.849 1324.73 464.39C1324.73 443.69 1274.69 443.51 1274.69 414.711C1274.69 396.352 1298.45 390.952 1318.43 392.572C1316.27 380.152 1303.13 369.533 1283.33 369.533C1268.75 369.533 1251.83 375.833 1251.83 404.452V486.532H1235.27Z" fill="black"/>
<path d="M1461.89 460.793L1457.57 478.253C1445.54 484.676 1432.15 488.132 1418.51 488.332C1394.39 488.332 1383.95 477.893 1383.95 454.854V416.335H1358.21V404.452H1383.95V383.397L1400.51 370.797V404.452H1448.21V416.331H1400.51V453.77C1400.51 468.529 1406.99 475.189 1421.39 475.189C1435.25 475.193 1453.79 467.633 1461.89 460.793Z" fill="black"/>
<path d="M1555.67 404.451H1572.22V486.531H1555.67V467.273C1547.57 481.673 1534.07 488.331 1518.59 488.331C1491.23 488.331 1478.81 472.131 1478.81 447.473V404.451H1495.37V446.209C1495.37 464.568 1504.19 475.368 1520.93 475.368C1539.65 475.368 1555.67 463.488 1555.67 433.068V404.451Z" fill="black"/>
<path d="M755.58 604.436C755.22 608.936 747.661 639.175 721.202 686.513H705.542C693.842 654.474 676.923 622.075 661.984 604.436H683.223C690.243 616.676 703.562 639.355 715.442 670.493C728.042 647.454 736.501 622.255 739.021 604.436H755.58Z" fill="black"/>
<path d="M920.275 604.436C919.915 608.936 913.255 639.175 884.096 686.513H868.977C863.678 665.635 857.004 645.131 848.999 625.135C843.78 640.074 835.32 661.674 824.16 686.513H809.039C799.499 658.613 785.639 623.875 769.621 604.436H790.321C797.341 617.936 808.321 638.994 818.58 668.514C829.199 646.195 838.019 621.176 839.28 604.436H854.399C860.519 616.676 869.339 639.536 879.238 670.674C892.918 646.735 902.277 619.374 903.717 604.436H920.275Z" fill="black"/>
<path d="M999.477 642.414C1015.86 660.054 1033.5 678.414 1046.1 686.514H1021.8C1014.24 680.214 1002.9 666.895 989.576 652.495L955.919 686.513H938.459L981.3 643.675C966.72 628.015 950.7 612.716 936.121 604.436H960.96C968.16 609.296 979.14 620.636 991.379 633.595L1020.54 604.436H1037.1L999.477 642.414Z" fill="black"/>
<path d="M1147.79 604.436C1147.07 612.536 1127.99 657.174 1113.41 686.513C1095.96 721.251 1087.86 730.613 1069.14 730.613C1061.93 730.606 1054.84 728.878 1048.44 725.573L1044.48 707.573C1052.76 714.592 1059.06 717.473 1069.14 717.473C1084.07 717.473 1092.35 697.854 1097.75 686.514C1086.05 654.475 1069.14 622.076 1054.2 604.437H1075.44C1087.43 624.723 1097.84 645.905 1106.57 667.794C1117.37 644.936 1128.35 620.277 1131.23 604.437L1147.79 604.436Z" fill="black"/>
<path d="M1182.72 673.912H1248.95L1242.65 686.512H1150.14L1219.62 616.312H1165.8L1172.82 604.432H1250.04L1182.72 673.912Z" fill="black"/>
<path d="M463.084 802.615V886.492H448.684V815.215L463.084 802.615Z" fill="black"/>
<path d="M581.7 873.893L575.4 886.493H481.623C517.623 863.815 551.1 845.093 551.1 829.615C551.1 818.636 539.041 815.215 527.341 815.215C516.902 815.215 505.922 818.276 492.423 826.195L498.182 809.276C508.144 805.013 518.847 802.749 529.682 802.615C548.041 802.615 567.301 810.896 567.301 827.815C567.301 843.655 552.901 854.094 523.201 873.893H581.7Z" fill="black"/>
<path d="M675.12 874.612C675.12 901.971 640.92 918.712 589.803 919.79L580.803 907.19C628.681 908.99 658.919 893.51 658.919 874.251C658.919 857.692 629.581 855.892 606.182 863.991V851.751C614.821 849.411 648.12 840.772 648.12 829.611C648.12 818.632 636.06 815.211 624.361 815.211C613.921 815.211 602.942 818.272 589.442 826.191L595.202 809.272C605.164 805.008 615.867 802.745 626.702 802.611C645.061 802.611 664.32 810.892 664.32 827.811C664.32 836.99 656.401 844.011 646.32 849.411C663.06 851.213 675.12 859.492 675.12 874.612Z" fill="black"/>
<path d="M820.917 863.092L814.617 875.692H787.438V916.192H773.938V875.692H691.322L772.139 804.414H787.439V863.092H820.917ZM724.261 863.092H773.939V817.014L724.261 863.092Z" fill="black"/>
<path d="M855.299 845.094C888.778 837.534 924.236 841.674 924.236 872.813C924.236 901.072 886.436 918.713 835.32 919.791L826.32 907.191C874.198 908.991 908.037 892.251 908.037 872.452C908.037 850.492 866.279 851.572 837.837 863.992L852.237 804.414H913.799L920.818 816.294H861.599L855.299 845.094Z" fill="black"/>
<path d="M1038.72 849.773C1038.72 873.712 1018.56 888.291 991.738 888.291C966.538 888.291 945.838 871.191 945.838 841.133C945.838 795.776 989.038 769.496 1033.67 769.496L1039.07 783.356C1003.62 779.756 971.397 795.236 963.298 825.474C970.498 819.354 980.937 813.414 997.316 813.414C1024.14 813.414 1038.72 831.234 1038.72 849.773ZM1023.24 849.773C1023.24 836.633 1013.52 826.014 995.517 826.014C979.858 826.014 968.699 832.854 961.317 838.793V841.133C961.317 860.572 974.276 875.152 993.536 875.152C1012.98 875.151 1023.06 864.532 1023.24 849.773V849.773Z" fill="black"/>
<path d="M1140.95 804.415L1060.32 916.192H1044.12L1117.73 816.292H1048.43L1055.45 804.412L1140.95 804.415Z" fill="black"/>
<path d="M1248.23 855.351C1248.23 878.029 1225.37 888.289 1198.19 888.289C1174.79 888.289 1153.38 879.829 1153.38 857.151C1153.38 841.312 1166.16 832.672 1180.73 826.372C1169.03 820.792 1160.03 813.233 1160.03 800.813C1160.03 781.373 1179.47 769.494 1201.07 769.494C1224.65 769.494 1239.59 782.994 1239.59 798.113C1239.59 811.252 1230.41 818.813 1218.71 824.392C1234.37 830.334 1248.23 838.613 1248.23 855.351ZM1232.57 855.351C1232.57 844.011 1214.93 839.151 1197.11 832.851C1181.81 838.251 1168.31 843.651 1168.31 855.351C1168.31 869.03 1182.17 875.87 1199.99 875.87C1216.91 875.872 1232.57 869.032 1232.57 855.351ZM1201.43 818.451C1214.39 813.591 1225.01 808.732 1225.01 799.912C1225.01 789.832 1218.35 780.652 1199.99 780.652C1183.97 780.652 1175.33 789.473 1175.33 799.012C1175.33 808.914 1187.21 813.775 1201.43 818.451Z" fill="black"/>
<path d="M1358.39 848.874C1358.39 888.832 1325.27 916.374 1275.95 919.791L1266.95 907.732C1308.89 907.732 1333.01 890.992 1340.39 865.614C1332.83 873.173 1321.49 879.292 1305.83 879.292C1282.43 879.292 1265.15 864.354 1265.15 843.655C1265.15 818.816 1286.03 802.615 1313.21 802.615C1341.11 802.615 1358.39 824.395 1358.39 848.874ZM1342.91 847.434V847.074C1342.91 830.874 1331.57 815.215 1311.41 815.215C1294.31 815.215 1280.63 825.835 1280.63 841.855C1280.63 856.614 1293.05 866.155 1307.63 866.155C1326.53 866.152 1338.41 855.714 1342.91 847.434Z" fill="black"/>
<path d="M1481.33 844.914C1481.33 867.773 1463.15 888.292 1429.13 888.292C1406.27 888.292 1382.51 874.613 1382.51 846.534C1382.51 823.134 1405.01 802.615 1433.63 802.615C1461.89 802.615 1481.33 820.615 1481.33 844.914ZM1465.13 845.634C1465.13 827.454 1449.65 815.215 1432.19 815.215C1412.93 815.215 1398.71 829.074 1398.71 845.994C1398.71 861.833 1412.57 875.153 1432.01 875.153C1451.99 875.152 1465.13 862.194 1465.13 845.634Z" fill="black"/>
</svg>
