<svg width="1920" height="1080" viewBox="0 0 1920 1080" fill="none" xmlns="http://www.w3.org/2000/svg">
<rect width="1920" height="1080" fill="#DADADA" shape-rendering="crispEdges"/>
<path d="M392.138 286.553C387.638 273.953 382.598 260.814 377.198 247.674H310.061C303.94 259.734 297.102 272.694 289.722 286.553H272.082C302.861 232.553 325.72 183.417 335.619 158.758H353.079C373.238 198.536 397 248.034 411.4 286.553H392.138ZM371.618 233.995C362.799 213.115 353.438 192.777 344.618 175.495C337.599 191.515 328.418 210.954 317.079 233.995H371.618Z" fill="black"/>
<path d="M554.854 247.853C554.854 269.453 539.375 286.553 503.377 286.553H438.039V158.758H496.177C528.035 158.758 544.595 169.738 544.595 190.616C544.595 202.136 538.476 211.316 528.216 215.456C544.955 218.696 554.854 229.675 554.854 247.853ZM455.5 172.797V211.676H488.979C517.237 211.676 527.137 206.276 527.137 190.616C527.137 178.377 516.337 172.797 492.578 172.797H455.5ZM499.777 272.514C524.977 272.514 536.856 264.054 536.856 247.855C536.856 231.656 523.177 225.355 499.777 225.355H455.5V272.513L499.777 272.514Z" fill="black"/>
<path d="M712.532 274.131C702.093 279.352 684.813 288.351 652.774 288.351C606.874 288.351 580.598 262.792 580.598 224.451C580.598 185.033 610.298 156.951 657.635 156.951C671.92 156.968 686.099 159.402 699.572 164.151L702.992 183.051C690.033 175.672 675.273 171.712 655.834 171.712C621.456 171.712 598.597 191.331 598.597 221.75C598.597 254.508 622.716 273.228 654.574 273.228C691.653 273.228 710.552 257.928 715.952 253.788L712.532 274.131Z" fill="black"/>
<path d="M869.491 221.215C869.491 256.315 845.731 286.552 789.754 286.552H743.676V158.757H793.355C846.452 158.217 869.491 187.376 869.491 221.215ZM786.154 272.515C832.054 272.515 851.491 251.276 851.491 222.115C851.491 193.137 836.372 172.797 789.754 172.797H761.136V272.514L786.154 272.515Z" fill="black"/>
<path d="M920.792 271.793H1015.65L1009.17 286.553H903.332V158.758H1000.17L1006.83 173.158H920.792V212.758H991.528V227.158H920.792V271.793Z" fill="black"/>
<path d="M1059.75 173.153V218.153H1128.87V232.553H1059.75V286.553H1042.29V158.758H1142.55L1148.85 173.158L1059.75 173.153Z" fill="black"/>
<path d="M1276.65 227.151H1293.21V274.131C1282.77 279.352 1265.49 288.351 1233.45 288.351C1187.55 288.351 1161.27 262.792 1161.27 224.451C1161.27 185.033 1190.97 156.951 1238.31 156.951C1252.59 156.968 1266.77 159.402 1280.25 164.151L1283.67 183.051C1270.71 175.672 1255.95 171.712 1236.51 171.712C1202.13 171.712 1179.27 191.331 1179.27 221.75C1179.27 254.508 1203.39 273.228 1235.25 273.228C1253.07 273.228 1266.75 269.808 1276.65 265.668L1276.65 227.151Z" fill="black"/>
<path d="M1439.9 158.758H1457.36V286.553H1439.9V227.875H1349.73V286.553H1332.27V158.758H1349.73V213.836H1439.9V158.758Z" fill="black"/>
<path d="M1516.23 158.758V286.553H1498.77V158.758H1516.23Z" fill="black"/>
<path d="M1540.89 261.353C1552.87 269.185 1566.89 273.317 1581.2 273.233C1605.68 273.233 1609.64 263.873 1609.64 230.933V158.758H1627.1V242.275C1627.1 271.614 1617.56 288.353 1584.98 288.353C1565.36 288.353 1552.76 283.673 1544.66 280.253L1540.89 261.353Z" fill="black"/>
<path d="M223.3 419.575C270.458 433.255 283.418 471.053 312.576 486.532H284.138C261.278 471.232 250.479 442.254 198.638 427.132V486.532H181.178V358.738H198.638V421.196L271.9 358.738H293.859L223.3 419.575Z" fill="black"/>
<path d="M351.819 471.773H440.919L434.44 486.532H334.359V358.738H351.819V471.773Z" fill="black"/>
<path d="M621.993 486.532C620.013 466.013 613.713 429.475 605.073 389.517C594.634 417.776 578.255 453.052 559.901 486.532H541.177C529.657 454.132 512.917 415.795 496.718 383.757C492.398 412.736 485.559 450.714 477.818 486.532H461.26C471.52 439.015 480.339 387.897 483.219 358.738H503.378C517.237 386.277 535.057 424.075 552.878 469.073C572.855 430.552 590.494 388.252 598.234 358.738H615.693C624.153 396.716 634.053 445.138 639.452 486.532H621.993Z" fill="black"/>
<path d="M780.751 358.738H798.21V486.532H780.751C760.412 457.913 719.014 421.732 690.575 384.832V486.532H673.115V358.738H690.575C712.894 394.556 754.652 430.738 780.751 461.873V358.738Z" fill="black"/>
<path d="M981.987 421.015C981.987 461.333 951.749 488.332 904.587 488.332C860.487 488.332 832.41 462.774 832.41 424.432C832.41 385.014 861.028 356.932 909.447 356.932C953.729 357.117 981.987 382.677 981.987 421.015ZM963.987 422.815C963.987 391.676 941.128 371.698 907.649 371.698C873.271 371.698 850.412 391.317 850.412 421.736C850.412 454.493 874.531 473.213 906.39 473.213C940.59 473.213 963.988 453.234 963.988 422.815H963.987Z" fill="black"/>
<path d="M1123.65 395.277C1123.65 418.855 1106.01 431.277 1072.17 431.277H1033.29V486.532H1015.83V358.738H1073.97C1107.99 358.738 1123.65 370.257 1123.65 395.277ZM1068.57 417.236C1095.03 417.236 1105.65 410.936 1105.65 395.277C1105.65 379.257 1095.57 372.777 1070.37 372.777H1033.29V417.236H1068.57Z" fill="black"/>
<path d="M1262.07 491.752C1273.05 491.752 1283.13 490.313 1292.85 486.532L1286.01 506.332C1254.33 506.332 1229.49 506.153 1202.67 487.253C1167.39 482.213 1145.43 458.275 1145.43 424.436C1145.43 385.018 1174.05 356.936 1222.47 356.936C1266.75 357.115 1295 382.675 1295 421.013C1295 456.831 1271.25 482.03 1232.73 487.25C1240.47 490.132 1250.55 491.752 1262.07 491.752ZM1219.41 473.213C1253.61 473.213 1277.01 453.234 1277.01 422.813C1277.01 391.674 1254.15 371.696 1220.67 371.696C1186.29 371.696 1163.43 391.315 1163.43 421.734C1163.43 454.493 1187.55 473.213 1219.41 473.213V473.213Z" fill="black"/>
<path d="M1466.54 486.532H1438.1C1415.78 471.053 1399.04 431.275 1349.54 431.275H1346.66V486.532H1329.2V358.738H1387.34C1421.36 358.738 1437.02 370.257 1437.02 395.277C1437.02 415.977 1420.64 427.135 1394.36 428.215C1424.24 435.595 1439.9 473.752 1466.54 486.532ZM1346.67 417.232H1381.95C1408.4 417.232 1419.02 410.932 1419.02 395.273C1419.02 379.253 1408.94 372.773 1383.75 372.773H1346.67V417.232Z" fill="black"/>
<path d="M1586.06 364.138L1589.48 382.317C1575.98 375.297 1557.08 370.977 1536.57 370.977C1513.35 370.977 1504.35 379.077 1504.35 387.536C1504.35 396.896 1517.49 403.556 1541.97 411.295C1574.19 421.555 1598.67 431.815 1598.67 456.114C1598.67 482.573 1568.79 488.332 1544.31 488.332C1523.44 488.329 1502.77 484.232 1483.47 476.273L1479.69 456.114C1495.17 466.553 1517.13 473.573 1541.97 473.573C1566.45 473.573 1580.67 469.614 1580.67 456.114C1580.67 445.854 1569.69 440.094 1537.47 429.295C1508.67 419.575 1486.89 411.835 1486.89 387.536C1486.89 369.717 1506.33 356.936 1538.19 356.936C1554.42 356.964 1570.55 359.391 1586.06 364.138Z" fill="black"/>
<path d="M1631.26 486.532V358.732H1681.48C1728.1 358.732 1745.38 375.471 1747.72 407.87C1737.5 405.534 1727.05 404.386 1716.58 404.45C1702.54 404.45 1689.94 406.79 1689.94 416.87C1689.94 432.529 1752.94 429.47 1752.94 462.228C1752.94 480.047 1735.48 488.328 1711.72 488.328C1691.74 488.328 1681.3 485.448 1673.02 483.288L1669.96 466.729C1682.26 472.603 1695.75 475.559 1709.38 475.368C1723.78 475.368 1734.94 471.768 1734.94 463.309C1734.94 443.87 1672.48 447.47 1672.48 418.131C1672.48 398.512 1697.14 392.752 1712.98 392.752C1717.43 392.635 1721.89 392.875 1726.3 393.472C1722.7 378.712 1705.42 372.593 1679.32 372.593H1648.72V486.532H1631.26Z" fill="black"/>
<path d="M497.977 573.117H433.9V686.517H416.439V573.117H351.639L358.839 558.717H491.316L497.977 573.117Z" fill="black"/>
<path d="M649.355 625.494C649.355 664.373 629.555 688.312 586.178 688.312C546.759 688.312 523 669.412 523 629.094V558.717H540.46V627.294C540.46 655.913 555.579 673.194 587.978 673.194C615.156 673.194 632.796 658.615 632.796 627.294V558.717H649.355V625.494Z" fill="black"/>
<path d="M806.314 558.717C799.475 588.056 777.514 639.174 751.414 686.517H733.058C718.298 644.939 695.079 593.817 675.1 558.717H695.259C709.118 586.076 726.938 623.874 744.577 668.693C764.736 630.174 782.195 588.056 789.755 558.717H806.314Z" fill="black"/>
<path d="M1060.65 558.717C1052.55 593.276 1032.75 644.394 1011.15 686.517H992.789C980.73 652.498 962.911 612 945.812 579.061C936.092 611.64 919.532 652.138 901.894 686.517H883.534C868.954 644.939 845.734 593.817 825.576 558.717H845.735C859.415 585.896 877.055 623.334 894.693 667.617C910.893 633.238 926.193 591.84 934.832 558.717H954.991C968.671 585.896 986.31 623.155 1003.95 667.617C1020.15 633.238 1035.27 591.84 1044.09 558.717H1060.65Z" fill="black"/>
<path d="M1162.53 618.835C1187.91 647.993 1214.73 678.052 1227.87 686.512H1200.69C1191.15 678.052 1172.25 655.373 1151.37 631.254L1101.52 686.512H1081.54L1141.84 620.095C1119.34 594.176 1095.94 568.795 1080.46 558.717H1107.82C1116.1 565.377 1133.56 585.536 1152.99 607.855L1197.81 558.717H1216.89L1162.53 618.835Z" fill="black"/>
<path d="M1405.17 558.717C1352.43 583.017 1331.37 621.175 1331.37 643.317V686.517H1312.65V643.317C1312.65 621.898 1281.33 580.86 1235.79 558.717H1268.55C1291.23 571.496 1314.27 598.675 1322.37 617.574C1330.47 596.156 1351.53 572.757 1376.55 558.717H1405.17Z" fill="black"/>
<path d="M1447.11 671.753H1542.33L1535.85 686.513H1410.75L1511.55 573.113H1427.13L1434.33 558.713H1543.59L1447.11 671.753Z" fill="black"/>
<path d="M308.618 871.733L302.138 886.492H214.482L220.961 871.733H255.88V780.833L218.621 806.212L224.201 786.593L270.279 756.893V871.733H308.618ZM434.384 871.733L427.9 886.492H317.028C371.028 842.392 408.285 814.675 408.285 791.092C408.285 774.712 392.445 770.933 378.946 770.933C366.706 770.933 353.746 774.353 340.246 782.272L346.185 763.553C351.585 761.213 365.445 756.893 381.285 756.893C403.244 756.893 424.485 768.953 424.485 789.293C424.485 812.512 405.226 830.693 357.528 871.73L434.384 871.733ZM453.073 858.233C464.232 866.873 483.491 873.533 506.173 873.533C529.393 873.533 545.773 866.333 545.773 848.874C545.773 832.315 531.193 824.935 507.794 824.935C503.155 824.961 498.523 825.322 493.935 826.015V811.615C502.935 809.815 536.593 803.695 536.593 786.596C536.593 773.457 520.754 770.937 507.254 770.937C495.015 770.937 482.054 774.357 468.554 782.276L474.494 763.557C479.894 761.217 493.753 756.897 509.594 756.897C531.553 756.897 552.253 766.257 552.253 785.336C552.253 798.116 538.573 810.715 522.734 814.315C543.793 814.495 561.972 829.254 561.972 848.873C561.972 873.892 539.833 888.292 504.195 888.292C485.655 888.292 465.316 881.812 456.856 878.032L453.073 858.233ZM706.148 841.133L700.028 855.892H670.869V886.492H657.369V855.892H576.733L670.869 755.092V841.129L706.148 841.133ZM608.948 841.133H657.37V787.852L608.948 841.133ZM830.038 845.273C830.038 871.912 809.699 888.291 772.261 888.291C753.722 888.291 733.382 881.811 724.923 878.031L721.143 858.412C732.302 867.052 751.562 873.531 774.243 873.531C801.062 873.531 813.843 863.992 813.843 845.273C813.843 825.473 796.384 816.294 774.243 816.294C755.704 816.294 738.243 822.774 729.065 826.913L745.624 758.696H815.1L821.58 773.096H755.706L747.786 807.296C756.739 804.355 766.083 802.777 775.505 802.616C806.283 802.615 830.042 817.375 830.042 845.274L830.038 845.273Z" fill="black"/>
<path d="M1027.14 811.615V825.295H1001.76C1001.94 867.773 980.345 888.295 939.847 888.295C909.788 888.295 889.629 875.516 889.629 848.877C889.629 829.258 906.729 818.998 919.508 816.118C909.067 811.439 899.708 800.999 899.708 788.218C899.708 769.139 916.808 756.9 944.166 756.9C960.006 756.9 973.866 762.3 978.905 764.1L982.325 783C970.373 775.414 956.522 771.358 942.366 771.3C925.266 771.3 917.166 778.68 917.166 788.219C917.166 802.439 936.966 811.619 958.744 811.619L1027.14 811.615ZM985.744 825.295H952.626C929.226 825.295 907.626 832.315 907.626 848.874C907.626 864.533 920.405 873.174 941.645 873.174C967.384 873.174 985.745 859.674 985.745 832.495L985.744 825.295Z" fill="black"/>
<path d="M1189.68 842.214C1189.68 872.273 1167.9 888.472 1136.41 888.292C1105.27 888.292 1081.69 865.073 1081.69 832.854C1081.69 786.776 1111.03 756.896 1152.6 756.896C1163.06 756.86 1173.36 759.329 1182.66 764.096L1186.08 782.456C1173.66 774.356 1164.84 770.937 1151.52 770.937C1126.69 770.937 1104.91 784.437 1099.32 815.937C1109.94 808.917 1126.32 802.617 1140.72 802.617C1170.06 802.615 1189.68 820.075 1189.68 842.214ZM1173.48 844.013C1173.3 826.193 1159.62 816.294 1138.92 816.294C1124.88 816.294 1108.32 822.414 1097.89 830.513V832.854C1097.89 857.693 1114.99 873.531 1140 873.531C1158.9 873.531 1173.48 862.551 1173.48 844.013ZM1323.57 758.697L1221.87 886.497H1202.97L1294.77 773.096H1214.49L1221.69 758.697H1323.57ZM1423.25 855.533C1423.25 880.733 1396.07 888.292 1368.71 888.292C1344.41 888.292 1319.04 879.472 1319.04 855.713C1319.04 838.794 1335.24 828.713 1352.87 820.255C1339.19 813.595 1328.21 804.955 1328.21 791.276C1328.21 770.576 1346.39 756.896 1371.59 756.896C1396.97 756.896 1413.17 772.016 1413.17 787.135C1413.17 801.894 1401.47 810.536 1387.25 817.555C1405.97 824.752 1423.25 834.474 1423.25 855.533ZM1407.05 854.633C1407.05 841.133 1386.71 834.474 1366.73 826.374C1349.99 833.214 1335.23 840.233 1335.23 853.552C1335.23 868.672 1353.95 873.892 1370.51 873.892C1387.43 873.892 1407.05 869.393 1407.05 854.633H1407.05ZM1371.95 811.974C1386.89 805.314 1399.13 798.835 1399.13 789.474C1399.13 779.394 1388.87 768.956 1370.51 768.956C1354.49 768.956 1342.25 777.955 1342.25 788.755C1342.26 800.451 1355.93 806.034 1371.95 811.974H1371.95ZM1560.95 813.414C1560.95 864.172 1534.85 888.292 1496.33 888.292C1477.97 888.292 1459.08 881.631 1452.6 878.031L1448.82 858.232C1460.34 868.672 1480.85 873.531 1495.79 873.531C1520.45 873.531 1541.69 862.193 1545.29 825.294C1536.29 837.534 1520.27 845.814 1502.09 845.814C1475.27 845.814 1454.04 827.634 1454.04 803.155C1454.04 779.216 1474.19 756.896 1508.39 756.896C1539.89 756.896 1560.95 784.795 1560.95 813.414H1560.95ZM1545.47 806.575C1542.95 785.696 1528.55 770.937 1504.79 770.937C1482.65 770.937 1470.23 785.515 1470.23 801.354C1470.23 820.254 1483.01 832.133 1503.89 832.133C1522.61 832.133 1542.41 821.152 1545.47 806.575H1545.47ZM1702.2 821.695C1702.2 861.295 1678.44 888.294 1641.36 888.294C1608.42 888.294 1585.2 860.576 1585.2 821.695C1585.2 784.256 1611.66 756.895 1646.76 756.895C1678.8 756.897 1702.2 785.336 1702.2 821.695H1702.2ZM1601.4 821.695C1601.4 852.653 1617.96 873.531 1644.06 873.531C1670.33 873.531 1685.99 852.653 1685.99 821.695C1685.99 792.536 1669.61 770.937 1644.06 770.937C1618.5 770.937 1601.4 792.536 1601.4 821.695H1601.4Z" fill="black"/>
</svg>
