<svg width="1920" height="1080" viewBox="0 0 1920 1080" fill="none" xmlns="http://www.w3.org/2000/svg">
<path d="M1920 0H0V1080H1920V0Z" fill="black" shape-rendering="crispEdges"/>
<path d="M454.404 146.551C451.904 139.551 449.104 132.251 446.104 124.951H408.799C405.399 131.651 401.599 138.851 397.499 146.551H387.699C404.799 116.551 417.499 89.2508 422.999 75.5508H432.699C443.899 97.6508 457.099 125.151 465.099 146.551H454.404ZM442.999 117.351C438.099 105.751 432.899 94.4508 427.999 84.8508C424.099 93.7508 418.999 104.551 412.699 117.351H442.999Z" fill="#DADADA"/>
<path d="M545.8 125.051C545.8 137.051 537.2 146.551 517.2 146.551H480.9V75.5508H513.2C530.9 75.5508 540.1 81.6508 540.1 93.2508C540.199 96.2101 539.376 99.127 537.746 101.599C536.116 104.071 533.759 105.976 531 107.051C540.3 108.851 545.8 114.951 545.8 125.051ZM490.6 83.3508V104.951H509.2C524.9 104.951 530.4 101.951 530.4 93.2508C530.4 86.4508 524.4 83.3508 511.2 83.3508H490.6ZM515.2 138.751C529.2 138.751 535.8 134.051 535.8 125.051C535.8 116.051 528.2 112.551 515.2 112.551H490.6V138.751H515.2Z" fill="#DADADA"/>
<path d="M634.4 139.651C628.6 142.551 619 147.551 601.2 147.551C575.7 147.551 561.1 133.351 561.1 112.051C561.1 90.1508 577.6 74.5508 603.9 74.5508C611.836 74.5602 619.714 75.9127 627.2 78.5508L629.1 89.0508C621.9 84.9508 613.7 82.7508 602.9 82.7508C583.8 82.7508 571.1 93.6508 571.1 110.551C571.1 128.751 584.5 139.151 602.2 139.151C622.8 139.151 633.3 130.651 636.3 128.351L634.4 139.651Z" fill="#DADADA"/>
<path d="M722.599 110.251C722.599 129.751 709.399 146.551 678.299 146.551H652.699V75.551H680.299C709.799 75.251 722.599 91.451 722.599 110.251ZM676.299 138.751C701.799 138.751 712.599 126.951 712.599 110.751C712.599 94.651 704.199 83.351 678.299 83.351H662.399V138.751H676.299Z" fill="#DADADA"/>
<path d="M752.1 138.351H804.8L801.2 146.551H742.4V75.5508H796.2L799.9 83.5508H752.1V105.551H791.4V113.551H752.1V138.351Z" fill="#DADADA"/>
<path d="M830.3 83.5508V108.551H868.7V116.551H830.3V146.551H820.6V75.5508H876.3L879.8 83.5508H830.3Z" fill="#DADADA"/>
<path d="M951.799 113.551H960.999V139.651C955.199 142.551 945.599 147.551 927.799 147.551C902.299 147.551 887.699 133.351 887.699 112.051C887.699 90.1508 904.199 74.5508 930.499 74.5508C938.436 74.5603 946.314 75.9127 953.799 78.5508L955.699 89.0508C948.499 84.9508 940.299 82.7508 929.499 82.7508C910.399 82.7508 897.699 93.6508 897.699 110.551C897.699 128.751 911.099 139.151 928.799 139.151C936.669 139.29 944.487 137.862 951.799 134.951V113.551Z" fill="#DADADA"/>
<path d="M1043.5 75.5508H1053.2V146.551H1043.5V113.951H993.399V146.551H983.699V75.5508H993.399V106.151H1043.5V75.5508Z" fill="#DADADA"/>
<path d="M1086.89 75.5508V146.551H1077.19V75.5508H1086.89Z" fill="#DADADA"/>
<path d="M1101.59 132.551C1108.25 136.902 1116.04 139.198 1123.99 139.151C1137.59 139.151 1139.79 133.951 1139.79 115.651V75.5508H1149.49V121.951C1149.49 138.251 1144.19 147.551 1126.09 147.551C1118.39 147.658 1110.75 146.124 1103.69 143.051L1101.59 132.551Z" fill="#DADADA"/>
<path d="M1196.69 109.351C1222.89 116.951 1230.09 137.951 1246.29 146.551H1230.49C1217.79 138.051 1211.79 121.951 1182.99 113.551V146.551H1173.29V75.5508H1182.99V110.251L1223.7 75.5508H1235.9L1196.69 109.351Z" fill="#DADADA"/>
<path d="M1269.09 138.351H1318.59L1315 146.551H1259.4V75.5508H1269.1L1269.09 138.351Z" fill="#DADADA"/>
<path d="M1420.2 146.551C1419.1 135.151 1415.6 114.851 1410.8 92.6508C1405 108.351 1395.9 127.951 1385.7 146.551H1375.3C1368.21 127.045 1359.96 107.978 1350.6 89.4508C1348.2 105.551 1344.4 126.651 1340.1 146.551H1330.9C1336.6 120.151 1341.5 91.7508 1343.1 75.5508H1354.3C1362 90.8508 1371.9 111.851 1381.8 136.851C1392.9 115.451 1402.7 91.9508 1407 75.5508H1416.7C1421.4 96.6508 1426.9 123.551 1429.9 146.551H1420.2Z" fill="#DADADA"/>
<path d="M1509.29 75.5508H1518.99V146.551H1509.29C1497.99 130.651 1474.99 110.551 1459.19 90.0508V146.551H1449.49V75.5508H1459.19C1471.59 95.4508 1494.79 115.551 1509.29 132.851V75.5508Z" fill="#DADADA"/>
<path d="M455.907 230.151C455.907 252.551 439.107 267.551 412.907 267.551C388.407 267.551 372.807 253.351 372.807 232.051C372.807 210.151 388.707 194.551 415.607 194.551C440.207 194.651 455.907 208.851 455.907 230.151ZM445.907 231.151C445.907 213.851 433.207 202.751 414.607 202.751C395.507 202.751 382.807 213.651 382.807 230.551C382.807 248.751 396.207 259.151 413.907 259.151C432.906 259.151 445.907 248.051 445.907 231.151ZM508.055 195.551H475.755V266.551H485.455V235.851H507.055C525.855 235.851 535.655 228.951 535.655 215.851C535.657 201.951 526.956 195.551 508.055 195.551ZM485.455 228.051V203.351H506.055C520.055 203.351 525.655 206.951 525.655 215.851C525.655 224.551 519.755 228.051 505.055 228.051H485.455ZM597.276 266.951C618.676 264.051 631.876 250.051 631.876 230.151C631.876 208.851 616.176 194.651 591.576 194.551C564.676 194.551 548.776 210.151 548.776 232.051C548.776 250.851 560.976 264.151 580.576 266.951C595.476 277.451 609.276 277.551 626.876 277.551L630.676 266.551C625.21 268.587 619.408 269.571 613.576 269.451C608.038 269.569 602.522 268.723 597.275 266.951H597.276ZM558.776 230.551C558.776 213.651 571.476 202.751 590.576 202.751C609.176 202.751 621.876 213.851 621.876 231.151C621.876 248.051 608.876 259.151 589.876 259.151C572.174 259.151 558.773 248.751 558.773 230.551H558.776ZM688.158 234.151C702.758 233.551 711.858 227.351 711.858 215.851C711.858 201.951 703.158 195.551 684.258 195.551H651.958V266.551H661.658V235.851H663.258C690.758 235.851 700.058 257.951 712.458 266.551H728.258C713.457 259.451 704.756 238.251 688.155 234.151H688.158ZM661.658 203.351H682.258C696.258 203.351 701.858 206.951 701.858 215.851C701.858 224.551 695.958 228.051 681.258 228.051H661.658V203.351ZM769.064 194.551C751.364 194.551 740.564 201.651 740.564 211.551C740.564 225.051 752.664 229.351 768.664 234.751C786.564 240.751 792.664 243.951 792.664 249.651C792.664 257.151 784.764 259.351 771.164 259.351C757.364 259.351 745.164 255.451 736.564 249.651L738.664 260.851C749.384 265.273 760.867 267.549 772.464 267.551C786.064 267.551 802.664 264.351 802.664 249.651C802.664 236.151 789.064 230.451 771.164 224.751C757.564 220.451 750.264 216.751 750.264 211.551C750.264 206.851 755.264 202.351 768.164 202.351C779.564 202.351 790.064 204.751 797.564 208.651L795.664 198.551C787.043 195.914 778.079 194.566 769.064 194.551ZM831.264 266.551V203.251H848.264C862.764 203.251 872.364 206.651 874.364 214.851C871.912 214.519 869.437 214.385 866.964 214.451C858.164 214.451 844.464 217.651 844.464 228.551C844.464 244.851 879.164 242.851 879.164 253.651C879.164 258.351 872.964 260.351 864.964 260.351C857.392 260.457 849.897 258.814 843.064 255.551L844.764 264.751C851.754 266.735 858.998 267.678 866.264 267.551C879.464 267.551 889.164 262.951 889.164 253.051C889.164 234.851 854.164 236.551 854.164 227.851C854.164 222.251 861.164 220.951 868.964 220.951C874.784 220.915 880.59 221.553 886.264 222.851C884.964 204.851 875.364 195.551 849.464 195.551H821.564V266.551H831.264ZM974.764 195.551H901.163L897.163 203.551H933.163V266.551H942.863V203.551H978.463L974.764 195.551ZM1063.64 232.651C1063.64 254.251 1052.64 267.551 1028.54 267.551C1006.64 267.551 993.444 257.051 993.444 234.651V195.551H1003.14V233.651C1003.14 249.551 1011.54 259.151 1029.54 259.151C1044.64 259.151 1054.44 251.051 1054.44 233.651V195.551H1063.64V232.651ZM1142.68 195.551C1138.48 211.851 1128.78 235.251 1117.58 256.651C1107.78 231.751 1097.88 210.751 1090.18 195.551H1078.98C1090.08 215.051 1102.98 243.451 1111.18 266.551H1121.38C1135.88 240.251 1148.08 211.851 1151.88 195.551H1142.68ZM1285.03 195.551C1279.3 216.306 1271.84 236.543 1262.73 256.051C1252.93 231.351 1243.13 210.651 1235.53 195.551H1224.33C1219.53 213.951 1211.03 236.951 1202.03 256.051C1192.23 231.451 1182.43 210.651 1174.83 195.551H1163.63C1174.83 215.051 1187.73 243.451 1195.83 266.551H1206.03C1215.83 247.451 1225.03 224.951 1230.43 206.851C1240.4 226.168 1249.12 246.11 1256.53 266.551H1266.73C1278.73 243.151 1289.73 214.751 1294.23 195.551H1285.03ZM1381.98 195.551H1371.38L1346.48 222.851C1335.68 210.451 1325.98 199.251 1321.38 195.551H1306.18C1314.78 201.151 1327.78 215.251 1340.28 229.651L1306.78 266.551H1317.88L1345.58 235.851C1357.18 249.251 1367.68 261.851 1372.98 266.551H1388.08C1380.78 261.851 1365.88 245.151 1351.78 228.951L1381.98 195.551ZM1471.7 195.551C1457.8 203.351 1446.1 216.351 1441.6 228.251C1437.1 217.751 1424.3 202.651 1411.7 195.551H1393.5C1418.8 207.851 1436.2 230.651 1436.2 242.551V266.551H1446.6V242.551C1446.6 230.251 1458.3 209.051 1487.6 195.551H1471.7ZM1565.57 195.551H1504.87L1500.87 203.551H1547.77L1491.77 266.551H1561.28L1564.88 258.351H1511.98L1565.57 195.551Z" fill="#DADADA"/>
<path d="M592.106 378.351L588.506 386.551H539.801L543.401 378.351H562.801V327.851L542.101 341.951L545.201 331.051L570.801 314.551V378.351H592.106ZM662.976 378.351L659.376 386.551H597.776C627.776 362.051 648.476 346.651 648.476 333.551C648.476 324.451 639.676 322.351 632.176 322.351C625.376 322.351 618.176 324.251 610.676 328.651L613.976 318.251C620.19 315.819 626.803 314.564 633.476 314.551C645.676 314.551 657.476 321.251 657.476 332.551C657.476 345.451 646.776 355.551 620.276 378.351H662.976ZM674.353 370.851C680.553 375.651 691.253 379.351 703.853 379.351C716.753 379.351 725.853 375.351 725.853 365.651C725.853 356.451 717.753 352.351 704.753 352.351C702.175 352.365 699.602 352.566 697.053 352.951V344.951C702.053 343.951 720.753 340.551 720.753 331.051C720.753 323.751 711.953 322.351 704.453 322.351C697.653 322.351 690.453 324.251 682.953 328.651L686.253 318.251C692.467 315.819 699.08 314.564 705.753 314.551C717.953 314.551 729.453 319.751 729.453 330.351C729.453 337.451 721.853 344.451 713.053 346.451C724.753 346.551 734.853 354.751 734.853 365.651C734.853 379.551 722.553 387.551 702.753 387.551C692.453 387.551 681.153 383.951 676.453 381.851L674.353 370.851ZM815.953 361.351L812.553 369.551H796.353V386.551H788.853V369.551H744.053L796.353 313.551V361.351H815.953ZM761.953 361.351H788.853V331.751L761.953 361.351ZM885.801 363.651C885.801 378.451 874.501 387.551 853.701 387.551C843.401 387.551 832.101 383.951 827.401 381.851L825.301 370.951C831.501 375.751 842.201 379.351 854.801 379.351C869.701 379.351 876.801 374.051 876.801 363.651C876.801 352.651 867.101 347.551 854.801 347.551C844.501 347.551 834.801 351.151 829.701 353.451L838.901 315.551H877.501L881.101 323.551H844.501L840.101 342.551C845.075 340.917 850.266 340.04 855.501 339.951C872.601 339.951 885.801 348.151 885.801 363.651Z" fill="#DADADA"/>
<path d="M997.3 344.951V352.551H983.2C983.3 376.151 971.3 387.551 948.8 387.551C932.1 387.551 920.9 380.451 920.9 365.651C920.9 354.751 930.4 349.051 937.5 347.451C931.7 344.851 926.5 339.051 926.5 331.951C926.5 321.351 936 314.551 951.2 314.551C960 314.551 967.7 317.551 970.5 318.551L972.4 329.051C965.76 324.836 958.065 322.583 950.2 322.551C940.7 322.551 936.2 326.651 936.2 331.951C936.2 339.851 947.2 344.951 959.3 344.951H997.3ZM974.3 352.551H955.9C942.9 352.551 930.9 356.451 930.9 365.651C930.9 374.351 938 379.151 949.8 379.151C964.1 379.151 974.3 371.651 974.3 356.551V352.551Z" fill="#DADADA"/>
<path d="M1089.6 361.951C1089.6 378.651 1077.5 387.651 1060 387.551C1042.7 387.551 1029.6 374.651 1029.6 356.751C1029.6 331.151 1045.9 314.551 1069 314.551C1074.81 314.531 1080.53 315.902 1085.7 318.551L1087.6 328.751C1080.7 324.251 1075.8 322.351 1068.4 322.351C1054.6 322.351 1042.5 329.851 1039.4 347.351C1045.3 343.451 1054.4 339.951 1062.4 339.951C1078.7 339.951 1089.6 349.651 1089.6 361.951ZM1080.6 362.951C1080.5 353.051 1072.9 347.551 1061.4 347.551C1053.17 347.805 1045.22 350.561 1038.6 355.451V356.751C1038.6 370.551 1048.1 379.351 1062 379.351C1072.49 379.351 1080.6 373.251 1080.6 362.951ZM1164.98 315.551L1108.48 386.551H1097.98L1148.98 323.551H1104.38L1108.38 315.551H1164.98ZM1221.36 369.351C1221.36 383.351 1206.26 387.551 1191.06 387.551C1177.56 387.551 1163.46 382.651 1163.46 369.451C1163.46 360.051 1172.46 354.451 1182.26 349.751C1174.66 346.051 1168.56 341.251 1168.56 333.651C1168.56 322.151 1178.66 314.551 1192.66 314.551C1206.76 314.551 1215.76 322.951 1215.76 331.351C1215.76 339.551 1209.26 344.351 1201.36 348.251C1211.75 352.251 1221.36 357.651 1221.36 369.351ZM1212.36 368.851C1212.36 361.351 1201.06 357.651 1189.96 353.151C1180.66 356.951 1172.46 360.851 1172.46 368.251C1172.46 376.651 1182.86 379.551 1192.06 379.551C1201.45 379.551 1212.35 377.051 1212.35 368.851H1212.36ZM1192.86 345.151C1201.16 341.451 1207.96 337.851 1207.96 332.651C1207.96 327.051 1202.26 321.251 1192.06 321.251C1183.16 321.251 1176.36 326.251 1176.36 332.251C1176.35 338.751 1183.95 341.851 1192.85 345.151H1192.86ZM1298.86 345.951C1298.86 374.151 1284.36 387.551 1262.96 387.551C1252.76 387.551 1242.26 383.851 1238.66 381.851L1236.56 370.851C1242.96 376.651 1254.36 379.351 1262.66 379.351C1276.36 379.351 1288.16 373.051 1290.16 352.551C1285.16 359.351 1276.26 363.951 1266.16 363.951C1251.26 363.951 1239.46 353.851 1239.46 340.251C1239.46 326.951 1250.66 314.551 1269.66 314.551C1287.15 314.551 1298.86 330.051 1298.86 345.951ZM1290.26 342.151C1288.86 330.551 1280.86 322.351 1267.66 322.351C1255.36 322.351 1248.46 330.451 1248.46 339.251C1248.46 349.751 1255.56 356.351 1267.16 356.351C1277.55 356.351 1288.55 350.251 1290.25 342.151H1290.26ZM1378.34 350.551C1378.34 372.551 1365.14 387.551 1344.54 387.551C1326.24 387.551 1313.34 372.151 1313.34 350.551C1313.34 329.751 1328.04 314.551 1347.54 314.551C1365.33 314.551 1378.34 330.351 1378.34 350.551ZM1322.34 350.551C1322.34 367.751 1331.54 379.351 1346.04 379.351C1360.64 379.351 1369.34 367.751 1369.34 350.551C1369.34 334.351 1360.24 322.351 1346.04 322.351C1331.84 322.351 1322.33 334.351 1322.33 350.551H1322.34Z" fill="#DADADA"/>
<path d="M381.299 566.551C380.399 564.151 379.899 561.651 379.699 556.751C374.599 563.951 365.199 567.551 356.699 567.551C344.999 567.551 337.199 562.151 337.199 554.151C337.199 545.551 343.599 538.851 361.199 538.851C367.353 538.81 373.502 539.212 379.599 540.051V536.151C379.599 528.951 373.499 526.951 366.999 526.951C358.934 526.859 350.992 528.931 343.999 532.951L347.099 523.651C353.885 521.149 361.067 519.896 368.299 519.951C378.499 519.951 388.799 523.151 388.799 536.551V544.551C388.799 557.351 388.999 561.951 390.699 566.551H381.299ZM379.599 545.351C375.199 544.951 369.099 544.651 363.399 544.651C351.799 544.651 346.899 547.751 346.899 553.151C346.899 557.651 351.099 560.251 358.199 560.251C364.399 560.251 378.599 557.551 379.599 545.351Z" fill="#DADADA"/>
<path d="M462.099 542.651C462.099 556.251 450.799 567.551 433.599 567.551C427.5 567.602 421.52 565.864 416.399 562.551V566.551H407.199V495.551H416.399V531.351C420.999 523.551 428.499 519.951 436.999 519.951C452.199 519.951 462.099 528.951 462.099 542.651ZM452.399 543.351C452.399 533.151 444.999 526.951 435.699 526.951C425.299 526.951 416.399 534.751 416.399 550.651V555.451C418.699 557.151 423.999 560.251 433.399 560.251C446.499 560.251 452.399 551.451 452.399 543.351Z" fill="#DADADA"/>
<path d="M529.399 561.951C521.481 565.761 512.785 567.678 503.999 567.551C483.899 567.551 475.199 556.351 475.199 544.351C475.199 532.351 486.599 519.951 504.699 519.951C511.158 519.874 517.572 521.028 523.599 523.351L525.299 532.851C518.843 528.957 511.439 526.916 503.899 526.951C490.399 526.951 484.899 536.051 484.899 544.051C484.899 550.451 488.699 560.251 505.599 560.251C514.951 560.37 524.108 557.573 531.799 552.251L529.399 561.951Z" fill="#DADADA"/>
<path d="M588.4 495.551H597.6V566.551H588.4V555.651C584 563.751 576.4 567.551 567.8 567.551C552.9 567.551 542.4 558.551 542.4 544.851C542.4 531.151 554 519.951 571.2 519.951C577.266 519.94 583.217 521.6 588.4 524.751V495.551ZM588.4 536.851V531.951C586.2 530.151 581.2 526.951 571.4 526.951C558.3 526.951 552.1 536.051 552.1 544.151C552.1 554.351 560.1 560.251 569.1 560.251C579.5 560.251 588.4 553.751 588.4 536.851Z" fill="#DADADA"/>
<path d="M671.2 551.451L668.8 561.451C660.613 565.562 651.56 567.654 642.4 567.551C622.3 567.551 613.6 556.351 613.6 544.351C613.6 532.351 625 519.951 643.1 519.951C663.7 519.951 667.5 536.351 666.3 545.551H623.4C623.9 551.851 628.4 560.251 644 560.251C653.766 560.249 663.283 557.17 671.2 551.451ZM623.8 539.751H656.5C656.5 535.351 653.6 526.951 642.3 526.951C631.2 526.951 625.5 533.151 623.8 539.751Z" fill="#DADADA"/>
<path d="M699.201 520.952H725.701V527.552H699.201V566.552H690.001V527.552H674.801V520.952H690.001V519.952C690.001 501.152 702.201 494.552 716.301 494.552C721.383 494.518 726.43 495.399 731.201 497.152L732.701 507.352C729.901 505.252 722.401 501.552 715.701 501.552C707.601 501.552 699.201 504.052 699.201 518.952V520.952Z" fill="#DADADA"/>
<path d="M790.1 576.951C790.1 586.751 778.2 591.051 761.8 591.051C744.1 591.051 734.9 586.351 734.9 578.051C734.9 572.151 741.3 569.351 745.8 568.051C740.4 566.351 736.6 563.651 736.6 559.051C736.6 554.151 741.7 552.051 747.2 551.151C741.3 548.451 738.1 543.751 738.1 537.251C738.1 527.751 747.3 519.951 759.8 519.951H785L787 526.551L776.6 525.251C778.36 526.877 779.752 528.86 780.684 531.068C781.615 533.275 782.064 535.656 782 538.051C782 547.251 773.3 553.551 760.8 553.551C760.8 553.551 744.9 553.551 744.9 558.251C744.9 564.451 790.1 558.251 790.1 576.951ZM780.9 577.751C780.9 571.651 765.2 571.851 752.5 569.551C748.2 571.151 744.1 573.551 744.1 576.751C744.1 583.351 754.2 585.051 762.9 585.051C769.5 585.051 780.9 583.751 780.9 577.751ZM746.6 536.751C746.6 543.051 751.5 547.751 761.3 547.751C769 547.751 773.5 543.251 773.5 537.051C773.5 531.551 768.8 525.951 759.2 525.951C750.5 525.951 746.6 531.151 746.6 536.751Z" fill="#DADADA"/>
<path d="M854.6 566.551H845C843.7 563.051 843 559.251 843 548.151C843 536.951 842.6 527.251 829.2 527.251C814.5 527.351 809.1 540.551 809.1 554.451V566.551H799.9V495.551H809.1V533.451C812.8 525.351 819.5 519.951 830.6 519.951C848.1 519.951 852.2 529.951 852.2 544.551C852.2 557.351 852.9 561.951 854.6 566.551Z" fill="#DADADA"/>
<path d="M869.801 505.551C869.801 502.551 872.501 500.051 876.001 500.051C879.501 500.051 882.201 502.551 882.201 505.551C882.201 508.551 879.501 511.051 876.001 511.051C872.501 511.051 869.801 508.551 869.801 505.551ZM871.401 520.951V566.551H880.601V520.951H871.401Z" fill="#DADADA"/>
<path d="M875.692 586.751L873.992 576.451C880.092 581.751 885.592 583.751 890.292 583.751C898.292 583.751 901.892 579.151 901.892 566.951V520.951H911.092V567.551C911.092 584.351 905.292 591.051 891.892 591.051C886.211 591.044 880.629 589.562 875.692 586.751ZM900.093 505.551C900.093 502.551 902.793 500.051 906.293 500.051C909.793 500.051 912.493 502.551 912.493 505.551C912.493 508.551 909.793 511.051 906.293 511.051C902.793 511.051 900.093 508.551 900.093 505.551Z" fill="#DADADA"/>
<path d="M953.794 538.051C969.294 542.551 978.994 562.851 987.594 566.551H973.8C967.3 563.051 958.5 543.551 939.8 541.651V566.551H930.6V495.551H939.8V539.351L966.9 520.951H980.7L953.794 538.051Z" fill="#DADADA"/>
<path d="M1006.99 495.551V566.551H997.793V495.551H1006.99Z" fill="#DADADA"/>
<path d="M1116.2 566.551H1106.6C1105.3 563.051 1104.6 559.251 1104.6 548.151C1104.6 536.951 1103.7 527.251 1092.5 527.251C1079.8 527.351 1074.4 538.551 1074.4 552.451V566.551H1065.2V548.251C1065.2 537.051 1064.3 527.251 1053.1 527.251C1040.4 527.351 1035 540.551 1035 554.451V566.551H1025.8V520.951H1035V533.051C1038.5 525.151 1044.7 519.951 1054.5 519.951C1065.7 519.951 1071.1 525.251 1073.3 533.851C1076.4 525.351 1082.6 519.951 1093.9 519.951C1109.2 519.951 1113.8 529.951 1113.8 544.551C1113.8 557.351 1114.5 561.951 1116.2 566.551Z" fill="#DADADA"/>
<path d="M1187.19 566.551H1177.59C1176.29 563.051 1175.59 559.251 1175.59 548.151C1175.59 536.951 1175.19 527.251 1161.79 527.251C1147.09 527.251 1141.69 540.551 1141.69 554.451V566.551H1132.49V520.951H1141.69V533.451C1145.39 525.351 1152.09 519.951 1163.19 519.951C1180.69 519.951 1184.79 529.951 1184.79 544.551C1184.79 557.351 1185.49 561.951 1187.19 566.551Z" fill="#DADADA"/>
<path d="M1256.19 543.051C1256.19 555.751 1245.29 567.551 1226.39 567.551C1211.69 567.551 1199.69 558.951 1199.69 544.351C1199.69 531.351 1212.69 519.951 1229.09 519.951C1245.29 519.951 1256.19 530.551 1256.19 543.051ZM1246.49 543.851C1246.49 533.751 1238.49 526.951 1228.29 526.951C1217.09 526.951 1209.39 534.651 1209.39 544.051C1209.39 552.851 1216.19 560.251 1227.99 560.251C1240.09 560.251 1246.49 553.051 1246.49 543.851Z" fill="#DADADA"/>
<path d="M1326.89 542.651C1326.89 556.251 1315.59 567.551 1298.39 567.551C1292.29 567.603 1286.31 565.864 1281.19 562.551V590.051H1271.99V520.951H1281.19V531.351C1285.79 523.551 1293.29 519.951 1301.79 519.951C1316.99 519.951 1326.89 528.951 1326.89 542.651ZM1317.19 543.351C1317.19 533.151 1309.79 526.951 1300.49 526.951C1290.09 526.951 1281.19 534.751 1281.19 550.651V555.451C1283.49 557.151 1288.79 560.251 1298.19 560.251C1311.29 560.251 1317.19 551.451 1317.19 543.351Z" fill="#DADADA"/>
<path d="M1385.99 520.951H1395.19V590.051H1385.99V555.651C1381.59 563.751 1373.99 567.551 1365.39 567.551C1350.49 567.551 1339.99 558.551 1339.99 544.851C1339.99 531.151 1351.59 519.951 1368.79 519.951C1374.86 519.94 1380.81 521.601 1385.99 524.751V520.951ZM1385.99 536.851V531.951C1383.79 530.151 1378.79 526.951 1368.99 526.951C1355.89 526.951 1349.69 536.051 1349.69 544.151C1349.69 554.351 1357.69 560.251 1366.69 560.251C1377.09 560.251 1385.99 553.751 1385.99 536.851Z" fill="#DADADA"/>
<path d="M1451.69 531.551C1448.39 529.151 1445.09 527.351 1439.99 527.351C1429.69 527.351 1423.29 539.551 1423.29 554.451V566.551H1414.09V520.951H1423.29V532.951C1426.59 525.251 1431.99 519.951 1440.09 519.951C1443.51 520.031 1446.9 520.708 1450.09 521.951L1451.69 531.551Z" fill="#DADADA"/>
<path d="M1503.79 523.351L1505.49 532.851C1499.22 528.662 1491.83 526.466 1484.29 526.551C1477.09 526.551 1471.79 528.551 1471.79 531.951C1471.79 535.251 1476.39 536.551 1488.69 539.051C1501.89 541.751 1510.29 544.851 1510.29 554.451C1510.29 565.151 1497.09 567.551 1488.19 567.551C1479.4 567.592 1470.69 565.998 1462.49 562.851L1460.79 552.951C1467.09 557.651 1478.79 560.551 1486.89 560.551C1495.09 560.551 1500.19 558.951 1500.19 554.451C1500.19 550.451 1494.39 549.051 1486.19 547.251C1471.49 544.051 1462.59 541.451 1462.59 531.951C1462.59 524.751 1470.99 519.951 1483.39 519.951C1490.33 519.896 1497.23 521.047 1503.79 523.351Z" fill="#DADADA"/>
<path d="M1526.08 566.551V521.951C1526.08 502.151 1539.98 494.551 1554.08 494.551C1572.38 494.551 1582.28 504.851 1583.48 521.251C1579.22 520.294 1574.85 519.858 1570.48 519.951C1564.28 519.951 1557.48 521.451 1557.48 526.551C1557.48 536.951 1586.18 536.051 1586.18 554.251C1586.18 562.151 1577.98 567.551 1565.78 567.551C1557.68 567.551 1552.28 566.351 1547.68 564.651L1545.98 555.751C1551.18 558.951 1557.18 560.351 1564.48 560.351C1569.68 560.351 1575.78 558.951 1575.78 554.251C1575.78 542.751 1547.98 542.651 1547.98 526.651C1547.98 516.451 1561.18 513.451 1572.28 514.351C1571.08 507.451 1563.78 501.551 1552.78 501.551C1544.68 501.551 1535.28 505.051 1535.28 520.951V566.551H1526.08Z" fill="#DADADA"/>
<path d="M468.1 672.252L465.7 681.952C459.016 685.521 451.576 687.441 444 687.552C430.6 687.552 424.8 681.752 424.8 668.952V647.552H410.5V640.952H424.8V629.252L434 622.252V640.952H460.5V647.552H434V668.352C434 676.552 437.6 680.252 445.6 680.252C453.3 680.252 463.6 676.052 468.1 672.252Z" fill="#DADADA"/>
<path d="M521.2 640.951H530.4V686.551H521.2V675.851C516.7 683.851 509.2 687.551 500.6 687.551C485.4 687.551 478.5 678.551 478.5 664.851V640.951H487.7V664.151C487.7 674.351 492.6 680.351 501.9 680.351C512.3 680.351 521.2 673.751 521.2 656.851V640.951Z" fill="#DADADA"/>
<path d="M594 640.951C593.8 643.451 589.6 660.251 574.9 686.551H566.2C559.7 668.751 550.3 650.751 542 640.951H553.8C560.773 652.668 566.76 664.943 571.7 677.651C578.7 664.851 583.4 650.851 584.8 640.951H594Z" fill="#DADADA"/>
<path d="M686.501 640.951C686.301 643.451 682.601 660.251 666.401 686.551H658.001C655.056 674.952 651.348 663.561 646.901 652.451C644.001 660.751 639.301 672.751 633.101 686.551H624.701C619.401 671.051 611.701 651.751 602.801 640.951H614.301C620.442 652.396 625.691 664.298 630.001 676.551C635.901 664.151 640.801 650.251 641.501 640.951H649.901C653.301 647.751 658.201 660.451 663.701 677.751C671.301 664.451 676.501 649.251 677.301 640.951H686.501Z" fill="#DADADA"/>
<path d="M731.501 662.051C740.601 671.851 750.401 682.051 757.401 686.551H743.901C739.701 683.051 733.401 675.651 726.001 667.651L707.301 686.551H697.601L721.401 662.751C713.301 654.051 704.401 645.551 696.301 640.951H710.101C714.101 643.651 720.201 649.951 727.001 657.151L743.201 640.951H752.401L731.501 662.051Z" fill="#DADADA"/>
<path d="M814.9 640.951C814.5 645.451 803.9 670.251 795.8 686.551C786.1 705.851 781.6 711.051 771.2 711.051C767.198 711.048 763.255 710.088 759.7 708.251L757.5 698.251C762.1 702.151 765.6 703.751 771.2 703.751C779.5 703.751 784.1 692.851 787.1 686.551C780.6 668.751 771.2 650.751 762.9 640.951H774.7C781.363 652.222 787.147 663.99 792 676.151C798 663.451 804.1 649.751 805.7 640.951H814.9Z" fill="#DADADA"/>
<path d="M835.401 679.551H872.201L868.701 686.551H817.301L855.901 647.551H826.001L829.901 640.951H872.801L835.401 679.551Z" fill="#DADADA"/>
<path d="M925.994 639.951V686.551H917.994V646.951L925.994 639.951Z" fill="#DADADA"/>
<path d="M992.901 679.551L989.401 686.551H937.301C957.301 673.951 975.901 663.551 975.901 654.951C975.901 648.851 969.201 646.951 962.701 646.951C956.901 646.951 950.801 648.651 943.301 653.051L946.501 643.651C952.035 641.282 957.981 640.025 964.001 639.951C974.201 639.951 984.901 644.551 984.901 653.951C984.901 662.751 976.901 668.551 960.401 679.551H992.901Z" fill="#DADADA"/>
<path d="M1045.7 679.951C1045.7 695.151 1026.7 704.451 998.301 705.051L993.301 698.051C1019.9 699.051 1036.7 690.451 1036.7 679.751C1036.7 670.551 1020.4 669.551 1007.4 674.051V667.251C1012.2 665.951 1030.7 661.151 1030.7 654.951C1030.7 648.851 1024 646.951 1017.5 646.951C1011.7 646.951 1005.6 648.651 998.101 653.051L1001.3 643.651C1006.84 641.282 1012.78 640.025 1018.8 639.951C1029 639.951 1039.7 644.551 1039.7 653.951C1039.7 659.051 1035.3 662.951 1029.7 665.951C1039 666.951 1045.7 671.551 1045.7 679.951Z" fill="#DADADA"/>
<path d="M1127.7 673.551L1124.2 680.551H1109.1V703.051H1101.6V680.551H1055.7L1100.6 640.951H1109.1V673.551H1127.7ZM1074 673.551H1101.6V647.951L1074 673.551Z" fill="#DADADA"/>
<path d="M1147.79 663.551C1166.39 659.351 1186.09 661.651 1186.09 678.951C1186.09 694.651 1165.09 704.451 1136.69 705.051L1131.69 698.051C1158.29 699.051 1177.09 689.751 1177.09 678.751C1177.09 666.551 1153.89 667.151 1138.09 674.051L1146.09 640.951H1180.29L1184.19 647.551H1151.29L1147.79 663.551Z" fill="#DADADA"/>
<path d="M1250.59 666.151C1250.59 679.451 1239.39 687.551 1224.49 687.551C1210.49 687.551 1198.99 678.051 1198.99 661.351C1198.99 636.151 1222.99 621.551 1247.79 621.551L1250.79 629.251C1231.09 627.251 1213.19 635.851 1208.69 652.651C1212.69 649.251 1218.49 645.951 1227.59 645.951C1242.49 645.951 1250.59 655.851 1250.59 666.151ZM1241.99 666.151C1241.99 658.851 1236.59 652.951 1226.59 652.951C1219.62 653.013 1212.9 655.526 1207.59 660.051V661.351C1207.59 672.151 1214.79 680.251 1225.49 680.251C1236.29 680.251 1241.89 674.351 1241.99 666.151Z" fill="#DADADA"/>
<path d="M1308.39 640.951L1263.59 703.051H1254.59L1295.49 647.551H1256.99L1260.89 640.951H1308.39Z" fill="#DADADA"/>
<path d="M1368.99 669.251C1368.99 681.851 1356.29 687.551 1341.19 687.551C1328.19 687.551 1316.29 682.851 1316.29 670.251C1316.29 661.451 1323.39 656.651 1331.49 653.151C1324.99 650.051 1319.99 645.851 1319.99 638.951C1319.99 628.151 1330.79 621.551 1342.79 621.551C1355.89 621.551 1364.19 629.051 1364.19 637.451C1364.19 644.751 1359.09 648.951 1352.59 652.051C1361.29 655.351 1368.99 659.951 1368.99 669.251ZM1360.29 669.251C1360.29 662.951 1350.49 660.251 1340.59 656.751C1332.09 659.751 1324.59 662.751 1324.59 669.251C1324.59 676.851 1332.29 680.651 1342.19 680.651C1351.59 680.651 1360.29 676.851 1360.29 669.251ZM1342.99 648.751C1350.19 646.051 1356.09 643.351 1356.09 638.451C1356.09 632.851 1352.39 627.751 1342.19 627.751C1333.29 627.751 1328.49 632.651 1328.49 637.951C1328.49 643.451 1335.09 646.151 1342.99 648.751Z" fill="#DADADA"/>
<path d="M1431.19 665.651C1431.19 687.851 1412.79 703.151 1385.39 705.051L1380.39 698.351C1403.69 698.351 1417.09 689.051 1421.19 674.951C1418.67 677.444 1415.66 679.402 1412.36 680.708C1409.07 682.013 1405.54 682.64 1401.99 682.551C1388.99 682.551 1379.39 674.251 1379.39 662.751C1379.39 648.951 1390.99 639.951 1406.09 639.951C1421.59 639.951 1431.19 652.051 1431.19 665.651ZM1422.59 664.851V664.651C1422.59 655.651 1416.29 646.951 1405.09 646.951C1395.59 646.951 1387.99 652.851 1387.99 661.751C1387.99 669.951 1394.89 675.251 1402.99 675.251C1413.49 675.251 1420.09 669.451 1422.59 664.851Z" fill="#DADADA"/>
<path d="M1500.49 663.451C1500.49 676.151 1490.39 687.551 1471.49 687.551C1458.79 687.551 1445.59 679.951 1445.59 664.351C1445.59 651.351 1458.09 639.951 1473.99 639.951C1489.69 639.951 1500.49 649.951 1500.49 663.451ZM1491.49 663.851C1491.49 653.751 1482.89 646.951 1473.19 646.951C1462.49 646.951 1454.59 654.651 1454.59 664.051C1454.59 672.851 1462.29 680.251 1473.09 680.251C1484.19 680.251 1491.49 673.051 1491.49 663.851Z" fill="#DADADA"/>
<path d="M599.6 827.551L578.4 843.751L599.6 859.551H588.6L568.4 843.751L588.6 827.551H599.6Z" fill="#DADADA"/>
<path d="M678.8 866.551C676.3 859.551 673.5 852.251 670.5 844.951H633.2C629.8 851.651 626 858.851 621.9 866.551H612.1C629.2 836.551 641.9 809.251 647.4 795.551H657.1C668.3 817.651 681.5 845.151 689.5 866.551H678.8ZM625.4 798.051C625.4 795.151 628.2 792.551 631.5 792.551C635.1 792.551 637.9 795.151 637.9 798.051C637.9 800.951 635.1 803.551 631.5 803.551C628.2 803.551 625.4 800.951 625.4 798.051ZM667.4 837.351C662.5 825.751 657.3 814.451 652.4 804.851C648.5 813.751 643.4 824.551 637.1 837.351H667.4ZM667.9 798.051C667.9 795.151 670.6 792.551 674 792.551C677.6 792.551 680.4 795.151 680.4 798.051C680.4 800.951 677.6 803.551 674 803.551C670.7 803.551 667.9 800.951 667.9 798.051Z" fill="#DADADA"/>
<path d="M745.401 866.551C744.501 864.151 744.001 861.651 743.801 856.751C738.701 863.951 729.301 867.551 720.801 867.551C709.101 867.551 701.301 862.151 701.301 854.151C701.301 845.551 707.701 838.851 725.301 838.851C731.455 838.811 737.604 839.212 743.701 840.051V836.151C743.701 828.951 737.601 826.951 731.101 826.951C723.036 826.86 715.093 828.932 708.101 832.951L711.201 823.651C717.987 821.15 725.169 819.896 732.401 819.951C742.601 819.951 752.901 823.151 752.901 836.551V844.551C752.901 857.351 753.101 861.951 754.801 866.551H745.401ZM710.401 806.451C710.401 803.751 712.901 801.451 716.001 801.451C719.201 801.451 721.701 803.751 721.701 806.451C721.701 809.151 719.201 811.451 716.001 811.451C712.901 811.451 710.401 809.151 710.401 806.451ZM743.701 845.351C739.301 844.951 733.201 844.651 727.501 844.651C715.901 844.651 711.001 847.751 711.001 853.151C711.001 857.651 715.201 860.251 722.301 860.251C728.501 860.251 742.701 857.551 743.701 845.351ZM733.501 806.451C733.501 803.751 736.001 801.451 739.101 801.451C742.301 801.451 744.801 803.751 744.801 806.451C744.801 809.151 742.301 811.451 739.101 811.451C736.001 811.451 733.501 809.151 733.501 806.451Z" fill="#DADADA"/>
<path d="M791.424 798.051C791.424 795.151 794.224 792.551 797.524 792.551C801.124 792.551 803.924 795.151 803.924 798.051C803.924 800.951 801.124 803.551 797.524 803.551C794.224 803.551 791.424 800.951 791.424 798.051ZM838.924 794.551C812.024 794.551 796.124 810.151 796.124 832.051C796.124 853.351 811.724 867.551 836.224 867.551C862.424 867.551 879.224 852.551 879.224 830.151C879.229 808.851 863.528 794.651 838.927 794.551H838.924ZM837.224 859.151C819.524 859.151 806.124 848.751 806.124 830.551C806.124 813.651 818.824 802.751 837.924 802.751C856.524 802.751 869.224 813.851 869.224 831.151C869.229 848.051 856.228 859.151 837.227 859.151H837.224ZM871.124 798.051C871.124 795.151 873.924 792.551 877.224 792.551C880.824 792.551 883.624 795.151 883.624 798.051C883.624 801.051 880.824 803.551 877.224 803.551C873.929 803.551 871.129 800.951 871.129 798.051H871.124Z" fill="#DADADA"/>
<path d="M952.326 843.451C952.326 856.151 941.426 867.551 922.526 867.551C907.826 867.551 896.426 858.951 896.426 844.351C896.426 831.351 908.826 820.051 925.226 820.051C941.426 820.051 952.326 830.951 952.326 843.451ZM942.626 843.851C942.626 833.751 934.626 827.051 924.426 827.051C913.226 827.051 906.126 834.651 906.126 844.051C906.126 852.851 912.326 860.251 924.126 860.251C936.225 860.251 942.626 853.051 942.626 843.851ZM912.126 811.451C915.326 811.451 917.826 809.151 917.826 806.451C917.826 803.751 915.326 801.451 912.126 801.451C909.026 801.451 906.526 803.751 906.526 806.451C906.526 809.151 909.024 811.451 912.124 811.451H912.126ZM935.226 811.451C938.426 811.451 940.926 809.151 940.926 806.451C940.926 803.751 938.426 801.451 935.226 801.451C932.126 801.451 929.626 803.751 929.626 806.451C929.626 809.151 932.125 811.451 935.225 811.451H935.226Z" fill="#DADADA"/>
<path d="M1063.05 832.651C1063.05 854.251 1052.05 867.551 1027.95 867.551C1006.05 867.551 992.848 857.051 992.848 834.651V795.551H1002.55V833.651C1002.55 849.551 1010.95 859.151 1028.95 859.151C1044.05 859.151 1053.85 851.051 1053.85 833.651V795.551H1063.05V832.651ZM1016.15 803.551C1019.75 803.551 1022.55 800.951 1022.55 798.051C1022.55 795.151 1019.75 792.551 1016.15 792.551C1012.85 792.551 1010.05 795.151 1010.05 798.051C1010.05 800.951 1012.84 803.551 1016.15 803.551ZM1039.25 803.551C1042.85 803.551 1045.65 800.951 1045.65 798.051C1045.65 795.151 1042.85 792.551 1039.25 792.551C1035.95 792.551 1033.15 795.151 1033.15 798.051C1033.15 800.951 1035.95 803.551 1039.25 803.551Z" fill="#DADADA"/>
<path d="M1127.45 820.951H1136.65V866.551H1127.45V855.851C1122.95 863.851 1115.45 867.551 1106.85 867.551C1091.65 867.551 1084.75 858.551 1084.75 844.851V820.951H1093.95V844.151C1093.95 854.351 1098.85 860.351 1108.15 860.351C1118.55 860.351 1127.45 853.751 1127.45 836.851V820.951ZM1092.85 806.451C1092.85 803.751 1095.35 801.451 1098.45 801.451C1101.65 801.451 1104.15 803.751 1104.15 806.451C1104.15 809.151 1101.65 811.451 1098.45 811.451C1095.34 811.451 1092.84 809.151 1092.84 806.451H1092.85ZM1115.95 806.451C1115.95 803.751 1118.45 801.451 1121.55 801.451C1124.75 801.451 1127.25 803.751 1127.25 806.451C1127.25 809.151 1124.75 811.451 1121.55 811.451C1118.45 811.451 1115.95 809.151 1115.95 806.451Z" fill="#DADADA"/>
<path d="M1189.92 858.35H1242.62L1239.02 866.55H1180.22V795.55H1234.02L1237.72 803.55H1189.92V825.55H1229.22V833.55H1189.92V858.35ZM1223.52 773.15L1207.22 789.55H1198.22L1211.52 773.15H1223.52Z" fill="#DADADA"/>
<path d="M1312.23 851.451L1309.83 861.451C1301.64 865.562 1292.59 867.653 1283.43 867.551C1263.33 867.551 1254.63 856.351 1254.63 844.351C1254.63 832.351 1266.03 819.951 1284.13 819.951C1304.73 819.951 1308.53 836.351 1307.33 845.551H1264.43C1264.93 851.851 1269.43 860.251 1285.03 860.251C1294.79 860.249 1304.31 857.17 1312.23 851.451ZM1264.83 839.751H1297.53C1297.53 835.351 1294.63 826.951 1283.33 826.951C1272.22 826.951 1266.52 833.151 1264.82 839.751H1264.83ZM1297.23 795.551L1283.93 810.951H1274.93L1286.23 795.551H1297.23Z" fill="#DADADA"/>
<path d="M1357.92 843.751L1337.72 859.551H1326.72L1347.92 843.751L1326.72 827.551H1337.72L1357.92 843.751Z" fill="#DADADA"/>
<path d="M507.9 915.551C494.6 928.951 486.8 947.451 486.8 963.751C486.8 980.151 494.6 998.651 507.9 1012.05H500.1C485.8 997.551 478.4 980.351 478.4 963.751C478.4 947.151 485.8 929.951 500.1 915.551H507.9Z" fill="#DADADA"/>
<path d="M512.801 980.85C512.801 977.25 516.101 974.15 520.301 974.15C524.601 974.15 528.001 977.25 528.001 980.85C528.001 984.45 524.601 987.55 520.301 987.55C516.101 987.55 512.801 984.45 512.801 980.85Z" fill="#DADADA"/>
<path d="M559.8 982.052C559.8 987.552 554.5 994.352 548.9 1001.95H542.9C545.4 997.852 548.7 992.652 550.6 987.352C549.067 987.125 547.66 986.373 546.621 985.224C545.581 984.075 544.973 982.6 544.9 981.052C544.9 977.552 548.1 974.552 552.2 974.552C553.2 974.515 554.196 974.683 555.129 975.045C556.061 975.408 556.909 975.957 557.621 976.66C558.333 977.362 558.894 978.203 559.268 979.13C559.643 980.058 559.824 981.052 559.8 982.052Z" fill="#DADADA"/>
<path d="M576.801 955.052C576.801 951.452 580.101 948.352 584.301 948.352C588.601 948.352 592.001 951.452 592.001 955.052C592.001 958.652 588.601 961.752 584.301 961.752C580.101 961.752 576.801 958.652 576.801 955.052ZM576.801 980.852C576.801 977.252 580.101 974.152 584.301 974.152C588.601 974.152 592.001 977.252 592.001 980.852C592.001 984.452 588.601 987.552 584.301 987.552C580.101 987.552 576.801 984.452 576.801 980.852Z" fill="#DADADA"/>
<path d="M624.099 982.052C624.099 987.552 618.799 994.352 613.199 1001.95H607.199C609.699 997.852 612.999 992.652 614.899 987.352C613.366 987.125 611.959 986.373 610.919 985.224C609.88 984.074 609.272 982.6 609.199 981.052C609.199 977.552 612.399 974.552 616.499 974.552C617.499 974.514 618.495 974.682 619.428 975.045C620.36 975.407 621.208 975.957 621.92 976.659C622.632 977.362 623.193 978.203 623.567 979.13C623.942 980.057 624.123 981.052 624.099 982.052ZM609.199 955.052C609.199 951.452 612.499 948.352 616.699 948.352C620.999 948.352 624.399 951.452 624.399 955.052C624.399 958.652 620.999 961.752 616.699 961.752C612.499 961.752 609.199 958.652 609.199 955.052Z" fill="#DADADA"/>
<path d="M651.8 922.052C651.8 927.552 646.5 934.352 640.9 941.952H634.9C637.4 937.852 640.7 932.652 642.6 927.352C641.067 927.125 639.661 926.373 638.621 925.224C637.581 924.075 636.973 922.6 636.9 921.052C636.9 917.552 640.1 914.552 644.2 914.552C645.2 914.515 646.197 914.682 647.129 915.045C648.061 915.407 648.909 915.957 649.621 916.659C650.333 917.362 650.894 918.203 651.269 919.13C651.643 920.058 651.824 921.052 651.8 922.052Z" fill="#DADADA"/>
<path d="M670.6 982.051C670.6 979.051 673.3 976.551 676.8 976.551C680.3 976.551 683 979.051 683 982.051C683 985.051 680.3 987.551 676.8 987.551C673.3 987.551 670.6 985.051 670.6 982.051ZM672.3 915.551V965.151H681.5V915.551H672.3Z" fill="#DADADA"/>
<path d="M745.5 928.751C745.5 943.751 723.4 943.051 723.4 965.151H714.2C714.2 942.151 735.8 938.951 735.8 929.951C735.8 923.351 727.8 921.551 721.1 921.551C713.347 921.724 705.769 923.894 699.1 927.851L702.2 918.551C708.632 915.996 715.479 914.64 722.4 914.551C733.4 914.551 745.5 917.951 745.5 928.751ZM712.6 982.051C712.6 979.051 715.3 976.551 718.8 976.551C722.3 976.551 725 979.051 725 982.051C725 985.051 722.3 987.551 718.8 987.551C715.3 987.551 712.594 985.051 712.594 982.051H712.6Z" fill="#DADADA"/>
<path d="M782.2 915.551H790.2L758.4 986.551H750.4L782.2 915.551Z" fill="#DADADA"/>
<path d="M843.9 960.151V966.951H822.5V986.551H815.3V966.951H793.9V960.151H815.3V940.951H822.5V960.151H843.9Z" fill="#DADADA"/>
<path d="M861.092 966.051V959.051H902.092V966.051H861.092Z" fill="#DADADA"/>
<path d="M920.092 966.051V959.051H990.092V966.051H920.092Z" fill="#DADADA"/>
<path d="M1008.19 965.852V959.252H1108.2V965.852H1008.19Z" fill="#DADADA"/>
<path d="M1120.59 915.551C1134.89 929.951 1142.29 947.151 1142.29 963.751C1142.29 980.351 1134.89 997.551 1120.59 1012.05H1112.79C1126.09 998.651 1133.89 980.151 1133.89 963.751C1133.89 947.451 1126.09 928.951 1112.79 915.551H1120.59Z" fill="#DADADA"/>
<path d="M1251.71 940.951H1260.91V968.151C1260.91 976.351 1263.21 980.151 1268.21 980.151C1275.91 980.151 1280.11 974.651 1280.11 963.751C1280.11 940.551 1260.21 921.951 1234.31 921.951C1208.31 921.951 1187.41 940.551 1187.41 963.751C1187.41 988.051 1206.31 1005.65 1233.31 1005.65C1250.91 1005.65 1259.61 1001.15 1266.31 996.251L1263.91 1006.25C1260.71 1008.05 1251.21 1013.05 1232.31 1013.05C1201.71 1013.05 1179.01 992.051 1179.01 963.751C1179.01 936.551 1204.81 914.551 1234.31 914.551C1264.81 914.551 1288.51 936.551 1288.51 963.751C1288.51 978.651 1279.81 987.551 1266.21 987.551C1258.61 987.551 1252.71 983.251 1251.81 975.451C1247.41 983.751 1239.81 987.551 1231.11 987.551C1216.21 987.551 1205.71 978.551 1205.71 964.851C1205.71 951.151 1217.31 939.951 1234.51 939.951C1240.57 939.94 1246.52 941.6 1251.71 944.751V940.951ZM1251.71 956.851V951.951C1249.51 950.151 1244.51 946.951 1234.71 946.951C1221.61 946.951 1215.41 956.051 1215.41 964.151C1215.41 974.351 1223.41 980.251 1232.41 980.251C1242.81 980.251 1251.71 973.751 1251.71 956.851Z" fill="#DADADA"/>
<path d="M1304.4 963.751C1304.4 936.551 1330.2 914.551 1359.7 914.551C1390.2 914.551 1414.9 936.551 1414.9 963.751C1414.9 991.051 1390.2 1013.05 1359.7 1013.05C1329.1 1013.05 1304.4 991.051 1304.4 963.751ZM1406.51 963.751C1406.51 940.551 1385.61 921.951 1359.71 921.951C1333.71 921.951 1312.81 940.551 1312.81 963.751C1312.81 987.051 1333.71 1005.65 1359.71 1005.65C1385.61 1005.65 1406.51 987.051 1406.51 963.751ZM1330.2 964.351C1330.2 951.351 1341.6 939.951 1359.7 939.951C1366.16 939.874 1372.58 941.028 1378.6 943.351L1380.3 952.851C1373.85 948.957 1366.44 946.916 1358.9 946.951C1345 947.051 1339.9 956.051 1339.9 964.051C1339.9 970.451 1343.7 980.251 1360.6 980.251C1369.95 980.369 1379.11 977.573 1386.8 972.251L1384.4 981.951C1376.5 985.806 1367.8 987.758 1359 987.651C1338.9 987.651 1330.2 976.351 1330.2 964.351Z" fill="#DADADA"/>
<path d="M1468.8 925.451L1451.8 933.451L1468.7 941.451L1462.8 946.251L1450.2 936.851L1451.8 952.351H1444.8L1446.4 936.851L1433.8 946.251L1427.9 941.451L1444.8 933.451L1427.8 925.451L1433.8 920.751L1446.5 930.251L1444.8 914.551H1451.8L1450.1 930.251L1462.8 920.751L1468.8 925.451Z" fill="#DADADA"/>
</svg>
