<svg width="2880" height="2880" viewBox="0 0 2880 2880" fill="none" xmlns="http://www.w3.org/2000/svg">
<rect width="2880" height="2880" fill="#111827"/>
<rect x="316" y="928" width="1024" height="1024" rx="228" fill="#BFDEFF"/>
<path d="M628 985C678 985 723 1170 783 1170H478C478 1170 563 985 628 985Z" fill="white"/>
<path d="M1028 985C978 985 933 1170 873 1170H1178C1178 1170 1093 985 1028 985Z" fill="white"/>
<path d="M1240 1440C1240 1685.77 1055.54 1885 828 1885C600.46 1885 416 1685.77 416 1440C416 1242.56 609.847 1170 828 1170C1046.15 1170 1240 1242.56 1240 1440Z" fill="url(#paint0_linear_413_24896)"/>
<path d="M1240 1440C1240 1685.77 1055.54 1885 828 1885C600.46 1885 416 1685.77 416 1440C416 1242.56 609.847 1170 828 1170C1046.15 1170 1240 1242.56 1240 1440Z" fill="url(#paint1_radial_413_24896)"/>
<path fill-rule="evenodd" clip-rule="evenodd" d="M828 1877C1050.55 1877 1232 1681.94 1232 1440C1232 1344.52 1185.42 1279.51 1111.87 1237.92C1037.83 1196.06 936.401 1178 828 1178C719.599 1178 618.168 1196.06 544.13 1237.92C470.579 1279.51 424 1344.52 424 1440C424 1681.94 605.447 1877 828 1877ZM828 1885C1055.54 1885 1240 1685.77 1240 1440C1240 1242.56 1046.15 1170 828 1170C609.847 1170 416 1242.56 416 1440C416 1685.77 600.46 1885 828 1885Z" fill="url(#paint2_linear_413_24896)"/>
<path d="M606 1675C494 1675 416 1568 416 1440C416 1330 450 1119 626 995C689 1069 744 1170 784 1170H872C912 1170 967 1069 1030 995C1206 1119 1240 1330 1240 1440C1240 1568 1162 1675 1050 1675C938 1675 916 1642 828 1642C740 1642 718 1675 606 1675Z" fill="url(#paint3_radial_413_24896)"/>
<path fill-rule="evenodd" clip-rule="evenodd" d="M424 1440C424 1565.51 500.125 1667 606 1667C661.027 1667 693.774 1658.93 723.911 1650.78C725.764 1650.28 727.61 1649.77 729.452 1649.27C757.899 1641.53 785.563 1634 828 1634C870.437 1634 898.102 1641.53 926.548 1649.27C928.39 1649.77 930.236 1650.28 932.089 1650.78C962.227 1658.93 994.973 1667 1050 1667C1155.87 1667 1232 1565.51 1232 1440C1232 1332.23 1198.99 1128.11 1031.36 1005.82C1013.06 1027.82 995.638 1051.65 978.909 1074.53C968.592 1088.65 958.539 1102.4 948.708 1115.14C935.338 1132.46 922.387 1147.87 910.065 1159C898.028 1169.87 885.153 1178 872 1178H784C770.847 1178 757.972 1169.87 745.935 1159C733.613 1147.87 720.662 1132.46 707.292 1115.14C697.461 1102.4 687.408 1088.65 677.091 1074.53C660.362 1051.65 642.939 1027.82 624.644 1005.82C457.012 1128.11 424 1332.23 424 1440ZM626 995C450 1119 416 1330 416 1440C416 1568 494 1675 606 1675C665.372 1675 699.453 1665.73 731.482 1657.01C759.872 1649.29 786.65 1642 828 1642C869.35 1642 896.128 1649.29 924.518 1657.01C956.547 1665.73 990.628 1675 1050 1675C1162 1675 1240 1568 1240 1440C1240 1330 1206 1119 1030 995C1009.82 1018.71 990.455 1045.19 972.144 1070.23C933.299 1123.35 899.185 1170 872 1170H784C756.815 1170 722.701 1123.35 683.856 1070.23C665.545 1045.19 646.183 1018.71 626 995Z" fill="url(#paint4_radial_413_24896)"/>
<g style="mix-blend-mode:multiply" opacity="0.5">
<path d="M1050 1273C1182 1273 1220 1382 1220 1440C1220 1496.94 1197 1505 969 1505L911 1505V1440C911 1335.5 953 1273 1050 1273Z" fill="url(#paint5_linear_413_24896)" fill-opacity="0.5"/>
</g>
<path opacity="0.5" fill-rule="evenodd" clip-rule="evenodd" d="M1178.11 1339.56C1202.9 1372.45 1212 1412.44 1212 1440C1212 1454.01 1210.5 1463.13 1206.14 1469.8C1201.96 1476.22 1194.14 1481.8 1177.94 1486.12C1161.68 1490.46 1138.14 1493.22 1104.02 1494.86C1070.01 1496.5 1025.99 1497 969 1497L919 1497V1440C919 1388.62 929.36 1348.95 950.407 1322.27C971.176 1295.93 1003.35 1281 1050 1281C1113.45 1281 1153.6 1307.04 1178.11 1339.56ZM1220 1440C1220 1382 1182 1273 1050 1273C953 1273 911 1335.5 911 1440V1505L969 1505C1197 1505 1220 1496.94 1220 1440Z" fill="url(#paint6_linear_413_24896)"/>
<g style="mix-blend-mode:multiply" opacity="0.5">
<path d="M606 1273C474 1273 436 1382 436 1440C436 1496.94 459 1505 687 1505L745 1505V1440C745 1335.5 703 1273 606 1273Z" fill="url(#paint7_linear_413_24896)" fill-opacity="0.5"/>
</g>
<path opacity="0.5" fill-rule="evenodd" clip-rule="evenodd" d="M477.889 1339.56C453.103 1372.45 444 1412.44 444 1440C444 1454.01 445.498 1463.13 449.856 1469.8C454.045 1476.22 461.859 1481.8 478.061 1486.12C494.322 1490.46 517.863 1493.22 551.978 1494.86C585.989 1496.5 630.01 1497 687 1497L737 1497V1440C737 1388.62 726.64 1348.95 705.593 1322.27C684.824 1295.93 652.655 1281 606 1281C542.552 1281 502.402 1307.04 477.889 1339.56ZM436 1440C436 1382 474 1273 606 1273C703 1273 745 1335.5 745 1440V1505L687 1505C459 1505 436 1496.94 436 1440Z" fill="url(#paint8_linear_413_24896)"/>
<path d="M745 1505C745 1404 684.544 1390 558 1390C558 1427.71 622.243 1505 687 1505H745Z" fill="url(#paint9_linear_413_24896)"/>
<path fill-rule="evenodd" clip-rule="evenodd" d="M566 1390.02C563.363 1390.01 560.697 1390 558 1390C558 1392.5 558.283 1395.18 558.831 1398C566.533 1437.63 626.542 1505 687 1505H745C745 1502.27 744.956 1499.6 744.867 1497C741.754 1405.31 683.749 1390.62 566 1390.02ZM567.013 1398.03C568.454 1404.31 571.441 1411.78 576.028 1419.97C582.667 1431.81 592.254 1444.42 603.859 1455.97C627.295 1479.29 657.628 1497 687 1497H736.863C736.136 1476.4 732.545 1460.43 726.4 1447.96C719.569 1434.09 709.342 1424.06 695.256 1416.72C667.72 1402.36 625.837 1398.38 567.013 1398.03Z" fill="url(#paint10_linear_413_24896)"/>
<path d="M911 1505C911 1404 971.456 1390 1098 1390C1098 1427.71 1033.76 1505 969 1505H911Z" fill="url(#paint11_linear_413_24896)"/>
<path fill-rule="evenodd" clip-rule="evenodd" d="M1090 1390.02C1092.64 1390.01 1095.3 1390 1098 1390C1098 1392.5 1097.72 1395.18 1097.17 1398C1089.47 1437.63 1029.46 1505 969 1505H911C911 1502.27 911.044 1499.6 911.133 1497C914.246 1405.31 972.251 1390.62 1090 1390.02ZM1088.99 1398.03C1087.55 1404.31 1084.56 1411.78 1079.97 1419.97C1073.33 1431.81 1063.75 1444.42 1052.14 1455.97C1028.71 1479.29 998.372 1497 969 1497H919.137C919.864 1476.4 923.455 1460.43 929.6 1447.96C936.431 1434.09 946.658 1424.06 960.744 1416.72C988.28 1402.36 1030.16 1398.38 1088.99 1398.03Z" fill="url(#paint12_linear_413_24896)"/>
<path d="M828 1787C852 1787 918 1742 918 1701.02C918 1676 871 1665 828 1665C785 1665 738 1676 738 1701.02C738 1742 804 1787 828 1787Z" fill="url(#paint13_linear_413_24896)"/>
<path fill-rule="evenodd" clip-rule="evenodd" d="M900.628 1727.35C906.694 1718.12 910 1709.16 910 1701.02C910 1697.59 908.488 1694.24 904.646 1690.8C900.669 1687.23 894.554 1683.95 886.528 1681.19C870.519 1675.7 848.971 1673 828 1673C807.029 1673 785.481 1675.7 769.472 1681.19C761.446 1683.95 755.331 1687.23 751.354 1690.8C747.512 1694.24 746 1697.59 746 1701.02C746 1709.16 749.306 1718.12 755.372 1727.35C761.401 1736.52 769.818 1745.42 779.144 1753.25C788.456 1761.07 798.449 1767.63 807.437 1772.2C816.713 1776.91 823.947 1779 828 1779C832.053 1779 839.287 1776.91 848.563 1772.2C857.551 1767.63 867.544 1761.07 876.856 1753.25C886.182 1745.42 894.599 1736.52 900.628 1727.35ZM918 1701.02C918 1742 852 1787 828 1787C804 1787 738 1742 738 1701.02C738 1676 785 1665 828 1665C871 1665 918 1676 918 1701.02Z" fill="url(#paint14_linear_413_24896)"/>
<g style="mix-blend-mode:multiply">
<path d="M1175 1232C1112.5 1189 1057 1170 993 1170C974.749 1170 968.082 1161.42 968 1147C968 1127 1006.1 1028 1036 1028C1078 1028 1153.5 1169.5 1175 1232Z" fill="url(#paint15_linear_413_24896)" fill-opacity="0.3"/>
</g>
<path fill-rule="evenodd" clip-rule="evenodd" d="M1163.73 1224.46C1167.47 1226.89 1171.22 1229.4 1175 1232C1173.63 1228.02 1172.05 1223.73 1170.26 1219.17C1144.03 1152.07 1075.33 1028 1036 1028C1006.1 1028 968 1127 968 1147C968.082 1161.42 974.749 1170 993 1170C1053.13 1170 1105.76 1186.77 1163.73 1224.46ZM1158.62 1211.75C1146.21 1182.13 1127.09 1144.12 1106.39 1110.78C1093.11 1089.4 1079.38 1070.25 1066.57 1056.55C1060.16 1049.7 1054.18 1044.42 1048.78 1040.91C1043.31 1037.34 1039.07 1036 1036 1036C1034.49 1036 1032.21 1036.64 1029.1 1038.84C1026.01 1041.01 1022.59 1044.35 1018.97 1048.82C1011.74 1057.74 1004.48 1070.14 997.979 1083.5C991.506 1096.8 985.94 1110.73 982.008 1122.5C980.042 1128.39 978.509 1133.66 977.478 1138C976.414 1142.47 976.004 1145.45 976 1146.98C976.039 1153.09 977.473 1156.38 979.336 1158.24C981.205 1160.11 984.981 1162 993 1162C1051.61 1162 1103.21 1177.55 1158.62 1211.75Z" fill="url(#paint16_linear_413_24896)"/>
<g style="mix-blend-mode:multiply">
<path d="M481 1232C543.5 1189 599 1170 663 1170C681.251 1170 687.918 1161.42 688 1147C688 1127 649.904 1028 620 1028C578 1028 502.5 1169.5 481 1232Z" fill="url(#paint17_linear_413_24896)" fill-opacity="0.3"/>
</g>
<path fill-rule="evenodd" clip-rule="evenodd" d="M492.266 1224.46C488.534 1226.89 484.78 1229.4 481 1232C482.367 1228.02 483.953 1223.73 485.735 1219.17C511.968 1152.07 580.671 1028 620 1028C649.904 1028 688 1127 688 1147C687.918 1161.42 681.251 1170 663 1170C602.87 1170 550.244 1186.77 492.266 1224.46ZM497.375 1211.75C509.787 1182.13 528.911 1144.12 549.609 1110.78C562.886 1089.4 576.617 1070.25 589.429 1056.55C595.838 1049.7 601.823 1044.42 607.218 1040.91C612.694 1037.34 616.927 1036 620 1036C621.515 1036 623.786 1036.64 626.905 1038.84C629.994 1041.01 633.408 1044.35 637.026 1048.82C644.261 1057.74 651.517 1070.14 658.021 1083.5C664.494 1096.8 670.06 1110.73 673.992 1122.5C675.958 1128.39 677.491 1133.66 678.522 1138C679.586 1142.47 679.996 1145.45 680 1146.98C679.961 1153.09 678.527 1156.38 676.664 1158.24C674.795 1160.11 671.019 1162 663 1162C604.391 1162 552.787 1177.55 497.375 1211.75Z" fill="url(#paint18_linear_413_24896)"/>
<rect width="1024" height="1024" rx="228" transform="matrix(-1 0 0 1 2564 928)" fill="#FFE4BF"/>
<path d="M2252 985C2202 985 2157 1170 2097 1170H2402C2402 1170 2317 985 2252 985Z" fill="#111827"/>
<path d="M1852 985C1902 985 1947 1170 2007 1170H1702C1702 1170 1787 985 1852 985Z" fill="#111827"/>
<path d="M1640 1440C1640 1685.77 1824.46 1885 2052 1885C2279.54 1885 2464 1685.77 2464 1440C2464 1242.56 2270.15 1170 2052 1170C1833.85 1170 1640 1242.56 1640 1440Z" fill="url(#paint19_linear_413_24896)"/>
<path d="M1640 1440C1640 1685.77 1824.46 1885 2052 1885C2279.54 1885 2464 1685.77 2464 1440C2464 1242.56 2270.15 1170 2052 1170C1833.85 1170 1640 1242.56 1640 1440Z" fill="url(#paint20_radial_413_24896)"/>
<path d="M2274 1675C2386 1675 2464 1568 2464 1440C2464 1330 2430 1119 2254 995C2191 1069 2136 1170 2096 1170H2008C1968 1170 1913 1069 1850 995C1674 1119 1640 1330 1640 1440C1640 1568 1718 1675 1830 1675C1942 1675 1964 1642 2052 1642C2140 1642 2162 1675 2274 1675Z" fill="url(#paint21_radial_413_24896)"/>
<g style="mix-blend-mode:multiply" opacity="0.5">
<path d="M1830 1273C1698 1273 1660 1382 1660 1440C1660 1496.94 1683 1505 1911 1505L1969 1505V1440C1969 1335.5 1927 1273 1830 1273Z" fill="url(#paint22_linear_413_24896)" fill-opacity="0.5"/>
</g>
<g style="mix-blend-mode:multiply" opacity="0.5">
<path d="M2274 1273C2406 1273 2444 1382 2444 1440C2444 1496.94 2421 1505 2193 1505L2135 1505V1440C2135 1335.5 2177 1273 2274 1273Z" fill="url(#paint23_linear_413_24896)" fill-opacity="0.5"/>
</g>
<path d="M2135 1505C2135 1404 2195.46 1390 2322 1390C2322 1427.71 2257.76 1505 2193 1505H2135Z" fill="#111827"/>
<path d="M1969 1505C1969 1404 1908.54 1390 1782 1390C1782 1427.71 1846.24 1505 1911 1505H1969Z" fill="#111827"/>
<path d="M2052 1787C2028 1787 1962 1742 1962 1701.02C1962 1676 2009 1665 2052 1665C2095 1665 2142 1676 2142 1701.02C2142 1742 2076 1787 2052 1787Z" fill="#111827"/>
<g style="mix-blend-mode:multiply">
<path d="M1705 1232C1767.5 1189 1823 1170 1887 1170C1905.25 1170 1911.92 1161.42 1912 1147C1912 1127 1873.9 1028 1844 1028C1802 1028 1726.5 1169.5 1705 1232Z" fill="url(#paint24_linear_413_24896)" fill-opacity="0.3"/>
</g>
<g style="mix-blend-mode:multiply">
<path d="M2399 1232C2336.5 1189 2281 1170 2217 1170C2198.75 1170 2192.08 1161.42 2192 1147C2192 1127 2230.1 1028 2260 1028C2302 1028 2377.5 1169.5 2399 1232Z" fill="url(#paint25_linear_413_24896)" fill-opacity="0.3"/>
</g>
<path d="M700.268 2078H689.184L689.257 2072.28H700.268C704.059 2072.28 707.219 2071.49 709.747 2069.91C712.275 2068.3 714.171 2066.07 715.435 2063.2C716.723 2060.3 717.367 2056.93 717.367 2053.06V2049.82C717.367 2046.78 717.003 2044.08 716.274 2041.72C715.544 2039.34 714.475 2037.33 713.065 2035.71C711.655 2034.05 709.93 2032.8 707.888 2031.95C705.87 2031.1 703.549 2030.67 700.924 2030.67H688.965V2024.91H700.924C704.4 2024.91 707.572 2025.5 710.44 2026.66C713.308 2027.81 715.775 2029.47 717.841 2031.66C719.932 2033.82 721.536 2036.45 722.654 2039.53C723.772 2042.6 724.331 2046.05 724.331 2049.89V2053.06C724.331 2056.9 723.772 2060.37 722.654 2063.45C721.536 2066.52 719.92 2069.13 717.805 2071.29C715.714 2073.45 713.187 2075.12 710.221 2076.29C707.28 2077.43 703.962 2078 700.268 2078ZM692.939 2024.91V2078H685.902V2024.91H692.939ZM751.748 2078.73C749.001 2078.73 746.51 2078.27 744.273 2077.34C742.061 2076.4 740.153 2075.07 738.549 2073.37C736.969 2071.67 735.754 2069.65 734.903 2067.32C734.052 2064.98 733.627 2062.43 733.627 2059.66V2058.13C733.627 2054.92 734.101 2052.06 735.049 2049.56C735.997 2047.03 737.285 2044.89 738.914 2043.14C740.542 2041.39 742.39 2040.07 744.456 2039.17C746.522 2038.27 748.661 2037.82 750.873 2037.82C753.692 2037.82 756.123 2038.31 758.165 2039.28C760.231 2040.25 761.92 2041.61 763.233 2043.36C764.545 2045.09 765.517 2047.13 766.149 2049.49C766.781 2051.82 767.097 2054.37 767.097 2057.14V2060.17H737.638V2054.67H760.352V2054.16C760.255 2052.41 759.89 2050.7 759.258 2049.05C758.651 2047.4 757.678 2046.04 756.342 2044.97C755.005 2043.9 753.182 2043.36 750.873 2043.36C749.341 2043.36 747.931 2043.69 746.643 2044.35C745.355 2044.98 744.249 2045.93 743.325 2047.19C742.402 2048.46 741.685 2050 741.174 2051.82C740.664 2053.64 740.409 2055.75 740.409 2058.13V2059.66C740.409 2061.53 740.664 2063.29 741.174 2064.95C741.709 2066.58 742.475 2068.01 743.471 2069.25C744.492 2070.49 745.72 2071.46 747.154 2072.17C748.612 2072.87 750.265 2073.22 752.112 2073.22C754.494 2073.22 756.512 2072.74 758.165 2071.77C759.817 2070.79 761.264 2069.49 762.503 2067.86L766.587 2071.11C765.736 2072.4 764.654 2073.62 763.342 2074.79C762.029 2075.96 760.413 2076.91 758.493 2077.64C756.597 2078.36 754.348 2078.73 751.748 2078.73ZM787.951 2071.91L798.743 2038.55H805.634L791.451 2078H786.93L787.951 2071.91ZM778.945 2038.55L790.066 2072.09L790.831 2078H786.31L772.018 2038.55H778.945ZM842.2 2024.91V2078H835.164V2024.91H842.2ZM871.258 2073.19C872.862 2073.19 874.344 2072.86 875.706 2072.2C877.067 2071.55 878.185 2070.65 879.06 2069.5C879.935 2068.34 880.433 2067.01 880.555 2065.53H886.972C886.85 2067.86 886.06 2070.04 884.602 2072.06C883.168 2074.05 881.284 2075.67 878.951 2076.91C876.617 2078.12 874.053 2078.73 871.258 2078.73C868.292 2078.73 865.703 2078.21 863.492 2077.16C861.304 2076.12 859.481 2074.68 858.023 2072.86C856.588 2071.04 855.507 2068.95 854.778 2066.59C854.073 2064.21 853.72 2061.69 853.72 2059.04V2057.51C853.72 2054.86 854.073 2052.36 854.778 2050C855.507 2047.62 856.588 2045.51 858.023 2043.69C859.481 2041.87 861.304 2040.43 863.492 2039.39C865.703 2038.34 868.292 2037.82 871.258 2037.82C874.344 2037.82 877.043 2038.45 879.352 2039.72C881.661 2040.96 883.472 2042.66 884.784 2044.82C886.121 2046.96 886.85 2049.39 886.972 2052.11H880.555C880.433 2050.48 879.971 2049.01 879.169 2047.7C878.392 2046.39 877.322 2045.34 875.961 2044.57C874.624 2043.76 873.056 2043.36 871.258 2043.36C869.191 2043.36 867.454 2043.78 866.044 2044.6C864.658 2045.4 863.552 2046.5 862.726 2047.88C861.924 2049.25 861.34 2050.76 860.976 2052.44C860.636 2054.09 860.465 2055.78 860.465 2057.51V2059.04C860.465 2060.77 860.636 2062.47 860.976 2064.15C861.316 2065.82 861.887 2067.34 862.689 2068.7C863.516 2070.06 864.622 2071.16 866.007 2071.98C867.417 2072.79 869.167 2073.19 871.258 2073.19ZM894.262 2058.71V2057.87C894.262 2055.03 894.676 2052.39 895.502 2049.96C896.328 2047.51 897.519 2045.38 899.075 2043.58C900.631 2041.76 902.514 2040.35 904.726 2039.35C906.938 2038.33 909.418 2037.82 912.164 2037.82C914.935 2037.82 917.427 2038.33 919.638 2039.35C921.875 2040.35 923.771 2041.76 925.326 2043.58C926.906 2045.38 928.109 2047.51 928.936 2049.96C929.762 2052.39 930.175 2055.03 930.175 2057.87V2058.71C930.175 2061.56 929.762 2064.19 928.936 2066.62C928.109 2069.06 926.906 2071.18 925.326 2073C923.771 2074.8 921.887 2076.21 919.675 2077.23C917.487 2078.23 915.008 2078.73 912.237 2078.73C909.466 2078.73 906.975 2078.23 904.763 2077.23C902.551 2076.21 900.655 2074.8 899.075 2073C897.519 2071.18 896.328 2069.06 895.502 2066.62C894.676 2064.19 894.262 2061.56 894.262 2058.71ZM901.007 2057.87V2058.71C901.007 2060.68 901.238 2062.54 901.7 2064.29C902.162 2066.02 902.855 2067.55 903.778 2068.89C904.726 2070.22 905.905 2071.28 907.315 2072.06C908.725 2072.81 910.365 2073.19 912.237 2073.19C914.084 2073.19 915.701 2072.81 917.086 2072.06C918.496 2071.28 919.663 2070.22 920.586 2068.89C921.51 2067.55 922.203 2066.02 922.665 2064.29C923.151 2062.54 923.394 2060.68 923.394 2058.71V2057.87C923.394 2055.93 923.151 2054.09 922.665 2052.37C922.203 2050.62 921.498 2049.08 920.55 2047.74C919.626 2046.38 918.46 2045.31 917.05 2044.53C915.664 2043.75 914.036 2043.36 912.164 2043.36C910.317 2043.36 908.688 2043.75 907.279 2044.53C905.893 2045.31 904.726 2046.38 903.778 2047.74C902.855 2049.08 902.162 2050.62 901.7 2052.37C901.238 2054.09 901.007 2055.93 901.007 2057.87ZM946.873 2046.97V2078H940.127V2038.55H946.508L946.873 2046.97ZM945.268 2056.78L942.461 2056.67C942.485 2053.97 942.886 2051.48 943.664 2049.2C944.442 2046.89 945.536 2044.88 946.946 2043.18C948.355 2041.48 950.032 2040.17 951.977 2039.24C953.946 2038.3 956.121 2037.82 958.503 2037.82C960.448 2037.82 962.198 2038.09 963.754 2038.62C965.309 2039.13 966.634 2039.96 967.728 2041.1C968.846 2042.24 969.697 2043.73 970.28 2045.55C970.863 2047.35 971.155 2049.55 971.155 2052.15V2078H964.373V2052.08C964.373 2050.01 964.07 2048.36 963.462 2047.12C962.854 2045.85 961.967 2044.94 960.8 2044.38C959.634 2043.8 958.199 2043.51 956.498 2043.51C954.821 2043.51 953.29 2043.86 951.904 2044.57C950.543 2045.27 949.364 2046.24 948.367 2047.48C947.395 2048.72 946.63 2050.14 946.07 2051.75C945.536 2053.33 945.268 2055.01 945.268 2056.78Z" fill="#6B7280"/>
<path d="M1925.4 2029.62L1907.82 2078H1900.64L1920.88 2024.91H1925.51L1925.4 2029.62ZM1940.13 2078L1922.52 2029.62L1922.41 2024.91H1927.04L1947.35 2078H1940.13ZM1939.22 2058.35V2064.11H1909.39V2058.35H1939.22ZM1961.67 2046.13V2093.17H1954.89V2038.55H1961.09L1961.67 2046.13ZM1988.25 2057.95V2058.71C1988.25 2061.58 1987.91 2064.24 1987.23 2066.7C1986.55 2069.13 1985.56 2071.24 1984.24 2073.04C1982.95 2074.84 1981.36 2076.24 1979.47 2077.23C1977.57 2078.23 1975.4 2078.73 1972.94 2078.73C1970.44 2078.73 1968.22 2078.32 1966.3 2077.49C1964.38 2076.66 1962.76 2075.46 1961.42 2073.88C1960.08 2072.3 1959.01 2070.4 1958.21 2068.19C1957.43 2065.98 1956.9 2063.49 1956.61 2060.72V2056.63C1956.9 2053.72 1957.44 2051.1 1958.25 2048.8C1959.05 2046.49 1960.11 2044.52 1961.42 2042.89C1962.76 2041.24 1964.37 2039.98 1966.27 2039.13C1968.16 2038.26 1970.35 2037.82 1972.83 2037.82C1975.31 2037.82 1977.51 2038.31 1979.43 2039.28C1981.35 2040.23 1982.97 2041.59 1984.28 2043.36C1985.59 2045.14 1986.58 2047.26 1987.23 2049.74C1987.91 2052.2 1988.25 2054.93 1988.25 2057.95ZM1981.47 2058.71V2057.95C1981.47 2055.98 1981.27 2054.13 1980.85 2052.41C1980.44 2050.66 1979.79 2049.12 1978.92 2047.81C1978.07 2046.47 1976.98 2045.43 1975.64 2044.68C1974.3 2043.9 1972.71 2043.51 1970.86 2043.51C1969.16 2043.51 1967.68 2043.8 1966.41 2044.38C1965.17 2044.97 1964.12 2045.76 1963.24 2046.75C1962.37 2047.73 1961.65 2048.84 1961.09 2050.11C1960.56 2051.35 1960.15 2052.64 1959.89 2053.97V2063.42C1960.37 2065.12 1961.05 2066.72 1961.93 2068.23C1962.8 2069.71 1963.97 2070.91 1965.43 2071.84C1966.89 2072.74 1968.72 2073.19 1970.93 2073.19C1972.76 2073.19 1974.33 2072.81 1975.64 2072.06C1976.98 2071.28 1978.07 2070.22 1978.92 2068.89C1979.79 2067.55 1980.44 2066.02 1980.85 2064.29C1981.27 2062.54 1981.47 2060.68 1981.47 2058.71ZM2005.1 2046.13V2093.17H1998.31V2038.55H2004.51L2005.1 2046.13ZM2031.68 2057.95V2058.71C2031.68 2061.58 2031.34 2064.24 2030.65 2066.7C2029.97 2069.13 2028.98 2071.24 2027.67 2073.04C2026.38 2074.84 2024.78 2076.24 2022.89 2077.23C2020.99 2078.23 2018.82 2078.73 2016.36 2078.73C2013.86 2078.73 2011.65 2078.32 2009.73 2077.49C2007.81 2076.66 2006.18 2075.46 2004.84 2073.88C2003.5 2072.3 2002.43 2070.4 2001.63 2068.19C2000.85 2065.98 2000.32 2063.49 2000.03 2060.72V2056.63C2000.32 2053.72 2000.87 2051.1 2001.67 2048.8C2002.47 2046.49 2003.53 2044.52 2004.84 2042.89C2006.18 2041.24 2007.79 2039.98 2009.69 2039.13C2011.59 2038.26 2013.77 2037.82 2016.25 2037.82C2018.73 2037.82 2020.93 2038.31 2022.85 2039.28C2024.77 2040.23 2026.39 2041.59 2027.7 2043.36C2029.01 2045.14 2030 2047.26 2030.65 2049.74C2031.34 2052.2 2031.68 2054.93 2031.68 2057.95ZM2024.89 2058.71V2057.95C2024.89 2055.98 2024.69 2054.13 2024.27 2052.41C2023.86 2050.66 2023.22 2049.12 2022.34 2047.81C2021.49 2046.47 2020.4 2045.43 2019.06 2044.68C2017.72 2043.9 2016.13 2043.51 2014.28 2043.51C2012.58 2043.51 2011.1 2043.8 2009.84 2044.38C2008.6 2044.97 2007.54 2045.76 2006.66 2046.75C2005.79 2047.73 2005.07 2048.84 2004.51 2050.11C2003.98 2051.35 2003.58 2052.64 2003.31 2053.97V2063.42C2003.8 2065.12 2004.48 2066.72 2005.35 2068.23C2006.23 2069.71 2007.39 2070.91 2008.85 2071.84C2010.31 2072.74 2012.15 2073.19 2014.36 2073.19C2016.18 2073.19 2017.75 2072.81 2019.06 2072.06C2020.4 2071.28 2021.49 2070.22 2022.34 2068.89C2023.22 2067.55 2023.86 2066.02 2024.27 2064.29C2024.69 2062.54 2024.89 2060.68 2024.89 2058.71ZM2070.36 2024.91V2078H2063.32V2024.91H2070.36ZM2099.41 2073.19C2101.02 2073.19 2102.5 2072.86 2103.86 2072.2C2105.22 2071.55 2106.34 2070.65 2107.22 2069.5C2108.09 2068.34 2108.59 2067.01 2108.71 2065.53H2115.13C2115.01 2067.86 2114.22 2070.04 2112.76 2072.06C2111.32 2074.05 2109.44 2075.67 2107.11 2076.91C2104.77 2078.12 2102.21 2078.73 2099.41 2078.73C2096.45 2078.73 2093.86 2078.21 2091.65 2077.16C2089.46 2076.12 2087.64 2074.68 2086.18 2072.86C2084.74 2071.04 2083.66 2068.95 2082.93 2066.59C2082.23 2064.21 2081.88 2061.69 2081.88 2059.04V2057.51C2081.88 2054.86 2082.23 2052.36 2082.93 2050C2083.66 2047.62 2084.74 2045.51 2086.18 2043.69C2087.64 2041.87 2089.46 2040.43 2091.65 2039.39C2093.86 2038.34 2096.45 2037.82 2099.41 2037.82C2102.5 2037.82 2105.2 2038.45 2107.51 2039.72C2109.82 2040.96 2111.63 2042.66 2112.94 2044.82C2114.28 2046.96 2115.01 2049.39 2115.13 2052.11H2108.71C2108.59 2050.48 2108.13 2049.01 2107.33 2047.7C2106.55 2046.39 2105.48 2045.34 2104.12 2044.57C2102.78 2043.76 2101.21 2043.36 2099.41 2043.36C2097.35 2043.36 2095.61 2043.78 2094.2 2044.6C2092.81 2045.4 2091.71 2046.5 2090.88 2047.88C2090.08 2049.25 2089.5 2050.76 2089.13 2052.44C2088.79 2054.09 2088.62 2055.78 2088.62 2057.51V2059.04C2088.62 2060.77 2088.79 2062.47 2089.13 2064.15C2089.47 2065.82 2090.04 2067.34 2090.85 2068.7C2091.67 2070.06 2092.78 2071.16 2094.16 2071.98C2095.57 2072.79 2097.32 2073.19 2099.41 2073.19ZM2122.42 2058.71V2057.87C2122.42 2055.03 2122.83 2052.39 2123.66 2049.96C2124.48 2047.51 2125.68 2045.38 2127.23 2043.58C2128.79 2041.76 2130.67 2040.35 2132.88 2039.35C2135.09 2038.33 2137.57 2037.82 2140.32 2037.82C2143.09 2037.82 2145.58 2038.33 2147.79 2039.35C2150.03 2040.35 2151.93 2041.76 2153.48 2043.58C2155.06 2045.38 2156.27 2047.51 2157.09 2049.96C2157.92 2052.39 2158.33 2055.03 2158.33 2057.87V2058.71C2158.33 2061.56 2157.92 2064.19 2157.09 2066.62C2156.27 2069.06 2155.06 2071.18 2153.48 2073C2151.93 2074.8 2150.04 2076.21 2147.83 2077.23C2145.64 2078.23 2143.16 2078.73 2140.39 2078.73C2137.62 2078.73 2135.13 2078.23 2132.92 2077.23C2130.71 2076.21 2128.81 2074.8 2127.23 2073C2125.68 2071.18 2124.48 2069.06 2123.66 2066.62C2122.83 2064.19 2122.42 2061.56 2122.42 2058.71ZM2129.16 2057.87V2058.71C2129.16 2060.68 2129.39 2062.54 2129.86 2064.29C2130.32 2066.02 2131.01 2067.55 2131.93 2068.89C2132.88 2070.22 2134.06 2071.28 2135.47 2072.06C2136.88 2072.81 2138.52 2073.19 2140.39 2073.19C2142.24 2073.19 2143.86 2072.81 2145.24 2072.06C2146.65 2071.28 2147.82 2070.22 2148.74 2068.89C2149.67 2067.55 2150.36 2066.02 2150.82 2064.29C2151.31 2062.54 2151.55 2060.68 2151.55 2058.71V2057.87C2151.55 2055.93 2151.31 2054.09 2150.82 2052.37C2150.36 2050.62 2149.65 2049.08 2148.71 2047.74C2147.78 2046.38 2146.62 2045.31 2145.21 2044.53C2143.82 2043.75 2142.19 2043.36 2140.32 2043.36C2138.47 2043.36 2136.84 2043.75 2135.43 2044.53C2134.05 2045.31 2132.88 2046.38 2131.93 2047.74C2131.01 2049.08 2130.32 2050.62 2129.86 2052.37C2129.39 2054.09 2129.16 2055.93 2129.16 2057.87ZM2175.03 2046.97V2078H2168.28V2038.55H2174.66L2175.03 2046.97ZM2173.42 2056.78L2170.62 2056.67C2170.64 2053.97 2171.04 2051.48 2171.82 2049.2C2172.6 2046.89 2173.69 2044.88 2175.1 2043.18C2176.51 2041.48 2178.19 2040.17 2180.13 2039.24C2182.1 2038.3 2184.28 2037.82 2186.66 2037.82C2188.6 2037.82 2190.35 2038.09 2191.91 2038.62C2193.47 2039.13 2194.79 2039.96 2195.88 2041.1C2197 2042.24 2197.85 2043.73 2198.44 2045.55C2199.02 2047.35 2199.31 2049.55 2199.31 2052.15V2078H2192.53V2052.08C2192.53 2050.01 2192.23 2048.36 2191.62 2047.12C2191.01 2045.85 2190.12 2044.94 2188.96 2044.38C2187.79 2043.8 2186.36 2043.51 2184.65 2043.51C2182.98 2043.51 2181.45 2043.86 2180.06 2044.57C2178.7 2045.27 2177.52 2046.24 2176.52 2047.48C2175.55 2048.72 2174.79 2050.14 2174.23 2051.75C2173.69 2053.33 2173.42 2055.01 2173.42 2056.78Z" fill="#6B7280"/>
<defs>
<linearGradient id="paint0_linear_413_24896" x1="828" y1="1630" x2="828" y2="1952" gradientUnits="userSpaceOnUse">
<stop stop-color="white"/>
<stop offset="1" stop-color="#BFDEFF"/>
</linearGradient>
<radialGradient id="paint1_radial_413_24896" cx="0" cy="0" r="1" gradientUnits="userSpaceOnUse" gradientTransform="translate(828 1630) rotate(180) scale(412 702)">
<stop offset="0.218443" stop-color="#007BFF"/>
<stop offset="1" stop-color="white" stop-opacity="0"/>
</radialGradient>
<linearGradient id="paint2_linear_413_24896" x1="828" y1="1170" x2="828" y2="1885" gradientUnits="userSpaceOnUse">
<stop stop-color="white"/>
<stop offset="1" stop-color="white" stop-opacity="0"/>
</linearGradient>
<radialGradient id="paint3_radial_413_24896" cx="0" cy="0" r="1" gradientUnits="userSpaceOnUse" gradientTransform="translate(828 1505) rotate(-90) scale(477 392.004)">
<stop stop-color="#0F6DCD"/>
<stop offset="0.25" stop-color="#0A84FF"/>
<stop offset="1" stop-color="white"/>
</radialGradient>
<radialGradient id="paint4_radial_413_24896" cx="0" cy="0" r="1" gradientUnits="userSpaceOnUse" gradientTransform="translate(828 1634) rotate(90) scale(251 304.153)">
<stop stop-color="white"/>
<stop offset="1" stop-color="white" stop-opacity="0"/>
</radialGradient>
<linearGradient id="paint5_linear_413_24896" x1="1104.45" y1="1273" x2="1104.45" y2="1505" gradientUnits="userSpaceOnUse">
<stop stop-color="#15569B"/>
<stop offset="1" stop-color="white" stop-opacity="0"/>
</linearGradient>
<linearGradient id="paint6_linear_413_24896" x1="1065.5" y1="1273" x2="1065.5" y2="1505" gradientUnits="userSpaceOnUse">
<stop stop-color="white"/>
<stop offset="1" stop-color="white" stop-opacity="0"/>
</linearGradient>
<linearGradient id="paint7_linear_413_24896" x1="551.546" y1="1273" x2="551.546" y2="1505" gradientUnits="userSpaceOnUse">
<stop stop-color="#15569B"/>
<stop offset="1" stop-color="white" stop-opacity="0"/>
</linearGradient>
<linearGradient id="paint8_linear_413_24896" x1="590.5" y1="1273" x2="590.5" y2="1505" gradientUnits="userSpaceOnUse">
<stop stop-color="white"/>
<stop offset="1" stop-color="white" stop-opacity="0"/>
</linearGradient>
<linearGradient id="paint9_linear_413_24896" x1="651.5" y1="1390" x2="651.5" y2="1505" gradientUnits="userSpaceOnUse">
<stop stop-color="white" stop-opacity="0.8"/>
<stop offset="1" stop-color="white" stop-opacity="0"/>
</linearGradient>
<linearGradient id="paint10_linear_413_24896" x1="651.5" y1="1390" x2="651.5" y2="1505" gradientUnits="userSpaceOnUse">
<stop stop-color="white"/>
<stop offset="1" stop-color="white" stop-opacity="0.5"/>
</linearGradient>
<linearGradient id="paint11_linear_413_24896" x1="1004.5" y1="1390" x2="1004.5" y2="1505" gradientUnits="userSpaceOnUse">
<stop stop-color="white" stop-opacity="0.8"/>
<stop offset="1" stop-color="white" stop-opacity="0"/>
</linearGradient>
<linearGradient id="paint12_linear_413_24896" x1="1004.5" y1="1390" x2="1004.5" y2="1505" gradientUnits="userSpaceOnUse">
<stop stop-color="white"/>
<stop offset="1" stop-color="white" stop-opacity="0.5"/>
</linearGradient>
<linearGradient id="paint13_linear_413_24896" x1="828" y1="1665" x2="828" y2="1787" gradientUnits="userSpaceOnUse">
<stop stop-color="white" stop-opacity="0.8"/>
<stop offset="1" stop-color="white" stop-opacity="0"/>
</linearGradient>
<linearGradient id="paint14_linear_413_24896" x1="828" y1="1665" x2="828" y2="1787" gradientUnits="userSpaceOnUse">
<stop stop-color="white"/>
<stop offset="1" stop-color="white" stop-opacity="0.5"/>
</linearGradient>
<linearGradient id="paint15_linear_413_24896" x1="1044.5" y1="1028" x2="1044.5" y2="1250" gradientUnits="userSpaceOnUse">
<stop stop-color="#15569B"/>
<stop offset="1" stop-color="white" stop-opacity="0"/>
</linearGradient>
<linearGradient id="paint16_linear_413_24896" x1="1071.5" y1="1028" x2="1071.5" y2="1232" gradientUnits="userSpaceOnUse">
<stop stop-color="white"/>
<stop offset="0.5" stop-color="white" stop-opacity="0"/>
</linearGradient>
<linearGradient id="paint17_linear_413_24896" x1="611.5" y1="1028" x2="611.5" y2="1250" gradientUnits="userSpaceOnUse">
<stop stop-color="#15569B"/>
<stop offset="1" stop-color="white" stop-opacity="0"/>
</linearGradient>
<linearGradient id="paint18_linear_413_24896" x1="584.5" y1="1028" x2="584.5" y2="1232" gradientUnits="userSpaceOnUse">
<stop stop-color="white"/>
<stop offset="0.5" stop-color="white" stop-opacity="0"/>
</linearGradient>
<linearGradient id="paint19_linear_413_24896" x1="2052" y1="1630" x2="2052" y2="1952" gradientUnits="userSpaceOnUse">
<stop stop-color="white"/>
<stop offset="1" stop-color="#FF9F75"/>
</linearGradient>
<radialGradient id="paint20_radial_413_24896" cx="0" cy="0" r="1" gradientUnits="userSpaceOnUse" gradientTransform="translate(2052 1630) scale(412 702)">
<stop offset="0.218443" stop-color="#FF9F75" stop-opacity="0"/>
<stop offset="1" stop-color="#FF9F75"/>
</radialGradient>
<radialGradient id="paint21_radial_413_24896" cx="0" cy="0" r="1" gradientUnits="userSpaceOnUse" gradientTransform="translate(2052 1505) rotate(-90) scale(477 392.004)">
<stop stop-color="#FF9F75"/>
<stop offset="1" stop-color="#FF4E00"/>
</radialGradient>
<linearGradient id="paint22_linear_413_24896" x1="1775.55" y1="1273" x2="1775.55" y2="1505" gradientUnits="userSpaceOnUse">
<stop stop-color="#712200"/>
<stop offset="1" stop-color="#FF4E00" stop-opacity="0"/>
</linearGradient>
<linearGradient id="paint23_linear_413_24896" x1="2328.45" y1="1273" x2="2328.45" y2="1505" gradientUnits="userSpaceOnUse">
<stop stop-color="#712200"/>
<stop offset="1" stop-color="#FF4E00" stop-opacity="0"/>
</linearGradient>
<linearGradient id="paint24_linear_413_24896" x1="1835.5" y1="1028" x2="1835.5" y2="1250" gradientUnits="userSpaceOnUse">
<stop stop-color="#381100"/>
<stop offset="1" stop-color="#FF4E00" stop-opacity="0"/>
</linearGradient>
<linearGradient id="paint25_linear_413_24896" x1="2268.5" y1="1028" x2="2268.5" y2="1250" gradientUnits="userSpaceOnUse">
<stop stop-color="#381100"/>
<stop offset="1" stop-color="#FF4E00" stop-opacity="0"/>
</linearGradient>
</defs>
</svg>
