<svg width="1440" height="1440" viewBox="0 0 1440 1440" fill="none" xmlns="http://www.w3.org/2000/svg">
<rect width="1440" height="1440" fill="#1F2937"/>
<rect width="512" height="512" rx="115" transform="matrix(-1 0 0 1 660 464)" fill="#BFDEFF"/>
<path d="M504 492.5C479 492.5 456.5 585 426.5 585H579C579 585 536.5 492.5 504 492.5Z" fill="white"/>
<path d="M304 492.5C329 492.5 351.5 585 381.5 585H229C229 585 271.5 492.5 304 492.5Z" fill="white"/>
<path d="M200 720C200 841.928 291.477 940.5 404 940.5C516.523 940.5 608 841.928 608 720C608 671.451 584.24 638.322 546.919 617.221C509.477 596.05 458.369 587 404 587C349.631 587 298.523 596.05 261.081 617.221C223.76 638.322 200 671.451 200 720Z" fill="url(#paint0_linear_302_1132)"/>
<path d="M200 720C200 841.928 291.477 940.5 404 940.5C516.523 940.5 608 841.928 608 720C608 671.451 584.24 638.322 546.919 617.221C509.477 596.05 458.369 587 404 587C349.631 587 298.523 596.05 261.081 617.221C223.76 638.322 200 671.451 200 720Z" fill="url(#paint1_radial_302_1132)"/>
<path d="M200 720C200 841.928 291.477 940.5 404 940.5C516.523 940.5 608 841.928 608 720C608 671.451 584.24 638.322 546.919 617.221C509.477 596.05 458.369 587 404 587C349.631 587 298.523 596.05 261.081 617.221C223.76 638.322 200 671.451 200 720Z" stroke="url(#paint2_linear_302_1132)" stroke-width="4"/>
<path d="M515 835.5C569.469 835.5 608 783.377 608 720C608 665.554 591.245 561.771 505.34 500.195C495.717 511.635 486.525 524.207 477.763 536.19C472.617 543.229 467.62 550.064 462.771 556.347C456.1 564.991 449.714 572.578 443.692 578.016C437.741 583.389 431.788 587 426 587H382C376.212 587 370.259 583.389 364.308 578.016C358.286 572.578 351.9 564.991 345.229 556.347C340.38 550.064 335.383 543.229 330.237 536.19C321.475 524.207 312.283 511.635 302.66 500.195C216.755 561.771 200 665.554 200 720C200 783.377 238.531 835.5 293 835.5C320.757 835.5 337.318 831.42 352.478 827.319C353.4 827.07 354.318 826.82 355.234 826.571C369.443 822.704 383.053 819 404 819C424.947 819 438.557 822.704 452.766 826.571C453.682 826.82 454.6 827.07 455.522 827.319C470.682 831.42 487.243 835.5 515 835.5Z" fill="url(#paint3_radial_302_1132)" stroke="url(#paint4_radial_302_1132)" stroke-width="4"/>
<path opacity="0.5" d="M210 720C210 705.859 214.651 685.426 227.347 668.579C239.975 651.822 260.638 638.5 293 638.5C316.789 638.5 333.519 646.139 344.367 659.895C355.285 673.738 360.5 694.091 360.5 720V750.5L333.5 750.5C305.003 750.5 282.95 750.248 265.893 749.428C248.81 748.606 236.862 747.219 228.515 744.993C220.183 742.772 215.73 739.791 213.253 735.995C210.734 732.135 210 727.06 210 720Z" fill="url(#paint5_linear_302_1132)" fill-opacity="0.5" stroke="url(#paint6_linear_302_1132)" stroke-width="4"/>
<path opacity="0.5" d="M598 720C598 705.859 593.349 685.426 580.653 668.579C568.025 651.822 547.362 638.5 515 638.5C491.211 638.5 474.481 646.139 463.633 659.895C452.715 673.738 447.5 694.091 447.5 720V750.5L474.5 750.5C502.997 750.5 525.05 750.248 542.107 749.428C559.19 748.606 571.138 747.219 579.485 744.993C587.817 742.772 592.27 739.791 594.747 735.995C597.266 732.135 598 727.06 598 720Z" fill="url(#paint7_linear_302_1132)" fill-opacity="0.5" stroke="url(#paint8_linear_302_1132)" stroke-width="4"/>
<path d="M536.876 697.003C506.262 697.083 484.075 698.961 469.448 706.586C462.059 710.437 456.625 715.75 453.006 723.095C449.563 730.083 447.708 739.024 447.516 750.5H474.5C489.938 750.5 505.583 741.242 517.481 729.403C523.402 723.511 528.312 717.059 531.731 710.961C534.655 705.745 536.412 700.922 536.876 697.003Z" fill="url(#paint9_linear_302_1132)" stroke="url(#paint10_linear_302_1132)" stroke-width="4"/>
<path d="M271.124 697.003C301.738 697.083 323.925 698.961 338.552 706.586C345.941 710.437 351.375 715.75 354.994 723.095C358.437 730.083 360.292 739.024 360.484 750.5H333.5C318.062 750.5 302.417 741.242 290.519 729.403C284.598 723.511 279.688 717.059 276.269 710.961C273.345 705.745 271.588 700.922 271.124 697.003Z" fill="url(#paint11_linear_302_1132)" stroke="url(#paint12_linear_302_1132)" stroke-width="4"/>
<path d="M361 850.512C361 855.106 362.858 859.972 366.015 864.774C369.163 869.561 373.517 874.153 378.286 878.157C383.051 882.158 388.175 885.525 392.812 887.881C397.522 890.274 401.487 891.5 404 891.5C406.513 891.5 410.478 890.274 415.188 887.881C419.825 885.525 424.949 882.158 429.714 878.157C434.483 874.153 438.837 869.561 441.985 864.774C445.142 859.972 447 855.106 447 850.512C447 848.09 445.888 845.907 443.658 843.909C441.394 841.88 438.06 840.129 433.913 838.706C425.63 835.862 414.618 834.5 404 834.5C393.382 834.5 382.37 835.862 374.087 838.706C369.94 840.129 366.606 841.88 364.342 843.909C362.112 845.907 361 848.09 361 850.512Z" fill="url(#paint13_linear_302_1132)" stroke="url(#paint14_linear_302_1132)" stroke-width="4"/>
<path d="M263.105 554.336C251.307 573.341 240.516 595.374 234.499 610.908C263.969 591.641 290.795 583 321.5 583C325.786 583 328.287 581.99 329.744 580.537C331.199 579.086 331.98 576.826 332 573.495C331.999 572.487 331.748 570.808 331.207 568.535C330.674 566.297 329.89 563.601 328.893 560.618C326.9 554.651 324.085 547.607 320.809 540.875C317.525 534.128 313.82 527.78 310.067 523.15C308.19 520.835 306.351 519.012 304.603 517.782C302.848 516.547 301.313 516 300 516C297.919 516 295.418 516.887 292.517 518.777C289.637 520.653 286.521 523.416 283.254 526.909C276.721 533.894 269.776 543.591 263.105 554.336Z" fill="url(#paint15_linear_302_1132)" fill-opacity="0.3" stroke="url(#paint16_linear_302_1132)" stroke-width="4"/>
<path d="M544.895 554.336C556.693 573.341 567.484 595.374 573.501 610.908C544.031 591.641 517.205 583 486.5 583C482.214 583 479.713 581.99 478.256 580.537C476.801 579.086 476.02 576.826 476 573.495C476.001 572.487 476.252 570.808 476.793 568.535C477.326 566.297 478.11 563.601 479.107 560.618C481.1 554.651 483.915 547.607 487.191 540.875C490.475 534.128 494.18 527.78 497.933 523.15C499.81 520.835 501.649 519.012 503.397 517.782C505.152 516.547 506.687 516 508 516C510.081 516 512.582 516.887 515.483 518.777C518.363 520.653 521.479 523.416 524.746 526.909C531.279 533.894 538.224 543.591 544.895 554.336Z" fill="url(#paint17_linear_302_1132)" fill-opacity="0.3" stroke="url(#paint18_linear_302_1132)" stroke-width="4"/>
<path d="M318.53 1056H311.405L311.452 1052.32H318.53C320.967 1052.32 322.999 1051.81 324.624 1050.8C326.249 1049.77 327.467 1048.33 328.28 1046.48C329.108 1044.62 329.522 1042.45 329.522 1039.97V1037.88C329.522 1035.93 329.288 1034.2 328.819 1032.68C328.35 1031.15 327.663 1029.86 326.757 1028.81C325.85 1027.75 324.741 1026.95 323.428 1026.4C322.132 1025.85 320.639 1025.58 318.952 1025.58H311.264V1021.87H318.952C321.186 1021.87 323.225 1022.25 325.069 1023C326.913 1023.73 328.499 1024.8 329.827 1026.21C331.171 1027.6 332.202 1029.29 332.921 1031.27C333.639 1033.24 333.999 1035.46 333.999 1037.93V1039.97C333.999 1042.44 333.639 1044.66 332.921 1046.65C332.202 1048.62 331.163 1050.3 329.803 1051.69C328.46 1053.08 326.835 1054.15 324.928 1054.9C323.038 1055.63 320.905 1056 318.53 1056ZM313.819 1021.87V1056H309.296V1021.87H313.819ZM352.583 1056.47C350.817 1056.47 349.216 1056.17 347.778 1055.58C346.356 1054.97 345.13 1054.12 344.098 1053.02C343.083 1051.93 342.302 1050.63 341.755 1049.13C341.208 1047.63 340.934 1045.99 340.934 1044.21V1043.23C340.934 1041.16 341.239 1039.33 341.848 1037.72C342.458 1036.09 343.286 1034.72 344.333 1033.59C345.38 1032.47 346.567 1031.62 347.895 1031.04C349.223 1030.46 350.598 1030.17 352.02 1030.17C353.833 1030.17 355.395 1030.48 356.708 1031.11C358.036 1031.73 359.122 1032.61 359.966 1033.73C360.809 1034.84 361.434 1036.16 361.841 1037.67C362.247 1039.17 362.45 1040.81 362.45 1042.59V1044.54H343.512V1041H358.114V1040.67C358.052 1039.55 357.817 1038.45 357.411 1037.39C357.02 1036.33 356.395 1035.45 355.536 1034.77C354.677 1034.08 353.505 1033.73 352.02 1033.73C351.036 1033.73 350.13 1033.95 349.302 1034.37C348.473 1034.77 347.762 1035.38 347.169 1036.2C346.575 1037.01 346.114 1038 345.786 1039.17C345.458 1040.34 345.294 1041.7 345.294 1043.23V1044.21C345.294 1045.41 345.458 1046.55 345.786 1047.61C346.13 1048.66 346.622 1049.58 347.262 1050.37C347.919 1051.17 348.708 1051.8 349.63 1052.25C350.567 1052.7 351.63 1052.93 352.817 1052.93C354.348 1052.93 355.645 1052.62 356.708 1051.99C357.77 1051.37 358.7 1050.53 359.497 1049.48L362.122 1051.57C361.575 1052.4 360.88 1053.19 360.036 1053.94C359.192 1054.69 358.153 1055.3 356.919 1055.77C355.7 1056.23 354.255 1056.47 352.583 1056.47ZM376.815 1052.09L383.753 1030.64H388.183L379.065 1056H376.159L376.815 1052.09ZM371.026 1030.64L378.175 1052.2L378.667 1056H375.761L366.573 1030.64H371.026ZM413.608 1021.87V1056H409.085V1021.87H413.608ZM433.247 1052.91C434.278 1052.91 435.232 1052.7 436.107 1052.27C436.982 1051.85 437.7 1051.27 438.263 1050.54C438.825 1049.79 439.146 1048.94 439.224 1047.98H443.349C443.271 1049.48 442.763 1050.88 441.825 1052.18C440.903 1053.46 439.693 1054.5 438.193 1055.3C436.693 1056.08 435.044 1056.47 433.247 1056.47C431.341 1056.47 429.677 1056.13 428.255 1055.46C426.849 1054.79 425.677 1053.87 424.739 1052.7C423.818 1051.52 423.122 1050.18 422.653 1048.66C422.2 1047.13 421.974 1045.52 421.974 1043.81V1042.83C421.974 1041.12 422.2 1039.52 422.653 1038C423.122 1036.47 423.818 1035.12 424.739 1033.95C425.677 1032.77 426.849 1031.85 428.255 1031.18C429.677 1030.51 431.341 1030.17 433.247 1030.17C435.232 1030.17 436.966 1030.58 438.45 1031.39C439.935 1032.19 441.099 1033.28 441.943 1034.67C442.802 1036.05 443.271 1037.61 443.349 1039.36H439.224C439.146 1038.31 438.849 1037.37 438.333 1036.52C437.833 1035.68 437.146 1035.01 436.271 1034.51C435.411 1033.99 434.403 1033.73 433.247 1033.73C431.919 1033.73 430.802 1034 429.896 1034.53C429.005 1035.05 428.294 1035.75 427.763 1036.64C427.247 1037.52 426.872 1038.49 426.638 1039.57C426.419 1040.63 426.31 1041.72 426.31 1042.83V1043.81C426.31 1044.92 426.419 1046.02 426.638 1047.09C426.857 1048.17 427.224 1049.15 427.739 1050.02C428.271 1050.9 428.982 1051.6 429.872 1052.13C430.778 1052.65 431.903 1052.91 433.247 1052.91ZM448.995 1043.6V1043.06C448.995 1041.23 449.261 1039.54 449.792 1037.98C450.323 1036.4 451.089 1035.03 452.089 1033.87C453.089 1032.7 454.3 1031.8 455.722 1031.16C457.144 1030.5 458.738 1030.17 460.503 1030.17C462.284 1030.17 463.886 1030.5 465.308 1031.16C466.745 1031.8 467.964 1032.7 468.964 1033.87C469.98 1035.03 470.753 1036.4 471.284 1037.98C471.816 1039.54 472.081 1041.23 472.081 1043.06V1043.6C472.081 1045.43 471.816 1047.12 471.284 1048.69C470.753 1050.25 469.98 1051.62 468.964 1052.79C467.964 1053.95 466.753 1054.85 465.331 1055.51C463.925 1056.15 462.331 1056.47 460.55 1056.47C458.769 1056.47 457.167 1056.15 455.745 1055.51C454.323 1054.85 453.105 1053.95 452.089 1052.79C451.089 1051.62 450.323 1050.25 449.792 1048.69C449.261 1047.12 448.995 1045.43 448.995 1043.6ZM453.331 1043.06V1043.6C453.331 1044.87 453.48 1046.06 453.777 1047.19C454.073 1048.3 454.519 1049.28 455.113 1050.14C455.722 1051 456.48 1051.68 457.386 1052.18C458.292 1052.66 459.347 1052.91 460.55 1052.91C461.738 1052.91 462.777 1052.66 463.667 1052.18C464.573 1051.68 465.323 1051 465.917 1050.14C466.511 1049.28 466.956 1048.3 467.253 1047.19C467.566 1046.06 467.722 1044.87 467.722 1043.6V1043.06C467.722 1041.81 467.566 1040.63 467.253 1039.52C466.956 1038.4 466.503 1037.41 465.894 1036.55C465.3 1035.67 464.55 1034.98 463.644 1034.48C462.753 1033.98 461.706 1033.73 460.503 1033.73C459.316 1033.73 458.269 1033.98 457.363 1034.48C456.472 1034.98 455.722 1035.67 455.113 1036.55C454.519 1037.41 454.073 1038.4 453.777 1039.52C453.48 1040.63 453.331 1041.81 453.331 1043.06ZM483.775 1036.05V1056H479.439V1030.64H483.54L483.775 1036.05ZM482.743 1042.36L480.939 1042.29C480.954 1040.55 481.212 1038.95 481.712 1037.48C482.212 1036 482.915 1034.71 483.822 1033.62C484.728 1032.52 485.806 1031.68 487.056 1031.09C488.322 1030.48 489.72 1030.17 491.251 1030.17C492.501 1030.17 493.626 1030.34 494.626 1030.69C495.626 1031.02 496.478 1031.55 497.181 1032.28C497.9 1033.02 498.447 1033.97 498.822 1035.14C499.197 1036.3 499.384 1037.71 499.384 1039.38V1056H495.025V1039.34C495.025 1038.01 494.829 1036.95 494.439 1036.15C494.048 1035.34 493.478 1034.75 492.728 1034.39C491.978 1034.02 491.056 1033.83 489.962 1033.83C488.884 1033.83 487.9 1034.05 487.009 1034.51C486.134 1034.96 485.376 1035.59 484.736 1036.38C484.111 1037.18 483.618 1038.09 483.259 1039.12C482.915 1040.14 482.743 1041.22 482.743 1042.36Z" fill="#6B7280"/>
<path d="M951.257 1024.9L939.96 1056H935.342L948.35 1021.87H951.327L951.257 1024.9ZM960.725 1056L949.405 1024.9L949.335 1021.87H952.311L965.366 1056H960.725ZM960.139 1043.37V1047.07H940.967V1043.37H960.139ZM975.536 1035.52V1065.75H971.177V1030.64H975.161L975.536 1035.52ZM992.622 1043.11V1043.6C992.622 1045.45 992.403 1047.16 991.966 1048.73C991.528 1050.3 990.887 1051.66 990.044 1052.81C989.216 1053.97 988.192 1054.87 986.973 1055.51C985.755 1056.15 984.356 1056.47 982.778 1056.47C981.169 1056.47 979.747 1056.2 978.512 1055.67C977.278 1055.14 976.231 1054.37 975.372 1053.35C974.512 1052.34 973.825 1051.12 973.309 1049.7C972.809 1048.27 972.466 1046.67 972.278 1044.89V1042.27C972.466 1040.39 972.817 1038.71 973.333 1037.23C973.848 1035.74 974.528 1034.48 975.372 1033.43C976.231 1032.37 977.27 1031.56 978.489 1031.02C979.708 1030.45 981.114 1030.17 982.708 1030.17C984.302 1030.17 985.716 1030.48 986.95 1031.11C988.184 1031.72 989.223 1032.59 990.067 1033.73C990.911 1034.87 991.544 1036.24 991.966 1037.84C992.403 1039.41 992.622 1041.17 992.622 1043.11ZM988.262 1043.6V1043.11C988.262 1041.84 988.13 1040.66 987.864 1039.55C987.598 1038.42 987.184 1037.44 986.622 1036.59C986.075 1035.73 985.372 1035.06 984.512 1034.58C983.653 1034.08 982.63 1033.83 981.442 1033.83C980.348 1033.83 979.395 1034.02 978.583 1034.39C977.786 1034.77 977.106 1035.27 976.544 1035.91C975.981 1036.54 975.52 1037.26 975.161 1038.07C974.817 1038.87 974.559 1039.7 974.387 1040.55V1046.62C974.7 1047.72 975.137 1048.75 975.7 1049.72C976.262 1050.67 977.012 1051.45 977.95 1052.04C978.887 1052.62 980.067 1052.91 981.489 1052.91C982.661 1052.91 983.669 1052.66 984.512 1052.18C985.372 1051.68 986.075 1051 986.622 1050.14C987.184 1049.28 987.598 1048.3 987.864 1047.19C988.13 1046.06 988.262 1044.87 988.262 1043.6ZM1004.41 1035.52V1065.75H1000.05V1030.64H1004.03L1004.41 1035.52ZM1021.5 1043.11V1043.6C1021.5 1045.45 1021.28 1047.16 1020.84 1048.73C1020.4 1050.3 1019.76 1051.66 1018.92 1052.81C1018.09 1053.97 1017.07 1054.87 1015.85 1055.51C1014.63 1056.15 1013.23 1056.47 1011.65 1056.47C1010.04 1056.47 1008.62 1056.2 1007.39 1055.67C1006.15 1055.14 1005.1 1054.37 1004.24 1053.35C1003.39 1052.34 1002.7 1051.12 1002.18 1049.7C1001.68 1048.27 1001.34 1046.67 1001.15 1044.89V1042.27C1001.34 1040.39 1001.69 1038.71 1002.21 1037.23C1002.72 1035.74 1003.4 1034.48 1004.24 1033.43C1005.1 1032.37 1006.14 1031.56 1007.36 1031.02C1008.58 1030.45 1009.99 1030.17 1011.58 1030.17C1013.17 1030.17 1014.59 1030.48 1015.82 1031.11C1017.06 1031.72 1018.1 1032.59 1018.94 1033.73C1019.78 1034.87 1020.42 1036.24 1020.84 1037.84C1021.28 1039.41 1021.5 1041.17 1021.5 1043.11ZM1017.14 1043.6V1043.11C1017.14 1041.84 1017 1040.66 1016.74 1039.55C1016.47 1038.42 1016.06 1037.44 1015.5 1036.59C1014.95 1035.73 1014.25 1035.06 1013.39 1034.58C1012.53 1034.08 1011.5 1033.83 1010.32 1033.83C1009.22 1033.83 1008.27 1034.02 1007.46 1034.39C1006.66 1034.77 1005.98 1035.27 1005.42 1035.91C1004.85 1036.54 1004.39 1037.26 1004.03 1038.07C1003.69 1038.87 1003.43 1039.7 1003.26 1040.55V1046.62C1003.57 1047.72 1004.01 1048.75 1004.57 1049.72C1005.14 1050.67 1005.89 1051.45 1006.82 1052.04C1007.76 1052.62 1008.94 1052.91 1010.36 1052.91C1011.53 1052.91 1012.54 1052.66 1013.39 1052.18C1014.25 1051.68 1014.95 1051 1015.5 1050.14C1016.06 1049.28 1016.47 1048.3 1016.74 1047.19C1017 1046.06 1017.14 1044.87 1017.14 1043.6ZM1048.28 1021.87V1056H1043.76V1021.87H1048.28ZM1067.92 1052.91C1068.95 1052.91 1069.9 1052.7 1070.78 1052.27C1071.65 1051.85 1072.37 1051.27 1072.93 1050.54C1073.5 1049.79 1073.82 1048.94 1073.9 1047.98H1078.02C1077.94 1049.48 1077.43 1050.88 1076.5 1052.18C1075.58 1053.46 1074.36 1054.5 1072.86 1055.3C1071.36 1056.08 1069.72 1056.47 1067.92 1056.47C1066.01 1056.47 1064.35 1056.13 1062.93 1055.46C1061.52 1054.79 1060.35 1053.87 1059.41 1052.7C1058.49 1051.52 1057.79 1050.18 1057.33 1048.66C1056.87 1047.13 1056.65 1045.52 1056.65 1043.81V1042.83C1056.65 1041.12 1056.87 1039.52 1057.33 1038C1057.79 1036.47 1058.49 1035.12 1059.41 1033.95C1060.35 1032.77 1061.52 1031.85 1062.93 1031.18C1064.35 1030.51 1066.01 1030.17 1067.92 1030.17C1069.9 1030.17 1071.64 1030.58 1073.12 1031.39C1074.61 1032.19 1075.77 1033.28 1076.61 1034.67C1077.47 1036.05 1077.94 1037.61 1078.02 1039.36H1073.9C1073.82 1038.31 1073.52 1037.37 1073.01 1036.52C1072.51 1035.68 1071.82 1035.01 1070.94 1034.51C1070.08 1033.99 1069.08 1033.73 1067.92 1033.73C1066.59 1033.73 1065.47 1034 1064.57 1034.53C1063.68 1035.05 1062.97 1035.75 1062.43 1036.64C1061.92 1037.52 1061.54 1038.49 1061.31 1039.57C1061.09 1040.63 1060.98 1041.72 1060.98 1042.83V1043.81C1060.98 1044.92 1061.09 1046.02 1061.31 1047.09C1061.53 1048.17 1061.9 1049.15 1062.41 1050.02C1062.94 1050.9 1063.65 1051.6 1064.54 1052.13C1065.45 1052.65 1066.58 1052.91 1067.92 1052.91ZM1083.67 1043.6V1043.06C1083.67 1041.23 1083.93 1039.54 1084.46 1037.98C1085 1036.4 1085.76 1035.03 1086.76 1033.87C1087.76 1032.7 1088.97 1031.8 1090.39 1031.16C1091.82 1030.5 1093.41 1030.17 1095.18 1030.17C1096.96 1030.17 1098.56 1030.5 1099.98 1031.16C1101.42 1031.8 1102.64 1032.7 1103.64 1033.87C1104.65 1035.03 1105.43 1036.4 1105.96 1037.98C1106.49 1039.54 1106.75 1041.23 1106.75 1043.06V1043.6C1106.75 1045.43 1106.49 1047.12 1105.96 1048.69C1105.43 1050.25 1104.65 1051.62 1103.64 1052.79C1102.64 1053.95 1101.43 1054.85 1100 1055.51C1098.6 1056.15 1097 1056.47 1095.22 1056.47C1093.44 1056.47 1091.84 1056.15 1090.42 1055.51C1089 1054.85 1087.78 1053.95 1086.76 1052.79C1085.76 1051.62 1085 1050.25 1084.46 1048.69C1083.93 1047.12 1083.67 1045.43 1083.67 1043.6ZM1088 1043.06V1043.6C1088 1044.87 1088.15 1046.06 1088.45 1047.19C1088.75 1048.3 1089.19 1049.28 1089.78 1050.14C1090.39 1051 1091.15 1051.68 1092.06 1052.18C1092.96 1052.66 1094.02 1052.91 1095.22 1052.91C1096.41 1052.91 1097.45 1052.66 1098.34 1052.18C1099.25 1051.68 1100 1051 1100.59 1050.14C1101.18 1049.28 1101.63 1048.3 1101.93 1047.19C1102.24 1046.06 1102.39 1044.87 1102.39 1043.6V1043.06C1102.39 1041.81 1102.24 1040.63 1101.93 1039.52C1101.63 1038.4 1101.18 1037.41 1100.57 1036.55C1099.97 1035.67 1099.22 1034.98 1098.32 1034.48C1097.43 1033.98 1096.38 1033.73 1095.18 1033.73C1093.99 1033.73 1092.94 1033.98 1092.03 1034.48C1091.14 1034.98 1090.39 1035.67 1089.78 1036.55C1089.19 1037.41 1088.75 1038.4 1088.45 1039.52C1088.15 1040.63 1088 1041.81 1088 1043.06ZM1118.45 1036.05V1056H1114.11V1030.64H1118.21L1118.45 1036.05ZM1117.42 1042.36L1115.61 1042.29C1115.63 1040.55 1115.88 1038.95 1116.38 1037.48C1116.88 1036 1117.59 1034.71 1118.49 1033.62C1119.4 1032.52 1120.48 1031.68 1121.73 1031.09C1122.99 1030.48 1124.39 1030.17 1125.92 1030.17C1127.17 1030.17 1128.3 1030.34 1129.3 1030.69C1130.3 1031.02 1131.15 1031.55 1131.85 1032.28C1132.57 1033.02 1133.12 1033.97 1133.49 1035.14C1133.87 1036.3 1134.06 1037.71 1134.06 1039.38V1056H1129.7V1039.34C1129.7 1038.01 1129.5 1036.95 1129.11 1036.15C1128.72 1035.34 1128.15 1034.75 1127.4 1034.39C1126.65 1034.02 1125.73 1033.83 1124.63 1033.83C1123.56 1033.83 1122.57 1034.05 1121.68 1034.51C1120.81 1034.96 1120.05 1035.59 1119.41 1036.38C1118.78 1037.18 1118.29 1038.09 1117.93 1039.12C1117.59 1040.14 1117.42 1041.22 1117.42 1042.36Z" fill="#6B7280"/>
<rect width="512" height="512" rx="115" transform="matrix(-1 0 0 1 1292 464)" fill="#FFE4BF"/>
<g style="mix-blend-mode:multiply">
<path d="M1136 492.5C1111 492.5 1088.5 585 1058.5 585H1211C1211 585 1168.5 492.5 1136 492.5Z" fill="#111827"/>
</g>
<g style="mix-blend-mode:multiply">
<path d="M936 492.5C961 492.5 983.5 585 1013.5 585H861C861 585 903.5 492.5 936 492.5Z" fill="#111827"/>
</g>
<path d="M830 720C830 842.885 922.23 942.5 1036 942.5C1149.77 942.5 1242 842.885 1242 720C1242 621.279 1145.08 585 1036 585C926.924 585 830 621.279 830 720Z" fill="url(#paint19_linear_302_1132)"/>
<path d="M830 720C830 842.885 922.23 942.5 1036 942.5C1149.77 942.5 1242 842.885 1242 720C1242 621.279 1145.08 585 1036 585C926.924 585 830 621.279 830 720Z" fill="url(#paint20_radial_302_1132)"/>
<path d="M1147 837.5C1203 837.5 1242 784 1242 720C1242 665 1225 559.5 1137 497.5C1105.5 534.5 1078 585 1058 585H1014C994 585 966.5 534.5 935 497.5C847 559.5 830 665 830 720C830 784 869 837.5 925 837.5C981 837.5 992 821 1036 821C1080 821 1091 837.5 1147 837.5Z" fill="url(#paint21_radial_302_1132)"/>
<g style="mix-blend-mode:multiply" opacity="0.5">
<path d="M925 636.5C859 636.5 840 691 840 720C840 748.469 851.5 752.5 965.5 752.5L994.5 752.5V720C994.5 667.75 973.5 636.5 925 636.5Z" fill="url(#paint22_linear_302_1132)" fill-opacity="0.5"/>
</g>
<g style="mix-blend-mode:multiply" opacity="0.5">
<path d="M1147 636.5C1213 636.5 1232 691 1232 720C1232 748.469 1220.5 752.5 1106.5 752.5L1077.5 752.5V720C1077.5 667.75 1098.5 636.5 1147 636.5Z" fill="url(#paint23_linear_302_1132)" fill-opacity="0.5"/>
</g>
<path d="M1077.5 752.5C1077.5 702 1107.73 695 1171 695C1171 713.854 1138.88 752.5 1106.5 752.5H1077.5Z" fill="#111827"/>
<path d="M994.5 752.5C994.5 702 964.272 695 901 695C901 713.854 933.121 752.5 965.5 752.5H994.5Z" fill="#111827"/>
<path d="M1036 893.5C1024 893.5 991 871 991 850.512C991 838 1014.5 832.5 1036 832.5C1057.5 832.5 1081 838 1081 850.512C1081 871 1048 893.5 1036 893.5Z" fill="#111827"/>
<g style="mix-blend-mode:multiply">
<path d="M862.5 616C893.75 594.5 921.5 585 953.5 585C962.625 585 965.959 580.708 966 573.5C966 563.5 946.952 514 932 514C911 514 873.25 584.75 862.5 616Z" fill="url(#paint24_linear_302_1132)" fill-opacity="0.3"/>
</g>
<g style="mix-blend-mode:multiply">
<path d="M1209.5 616C1178.25 594.5 1150.5 585 1118.5 585C1109.37 585 1106.04 580.708 1106 573.5C1106 563.5 1125.05 514 1140 514C1161 514 1198.75 584.75 1209.5 616Z" fill="url(#paint25_linear_302_1132)" fill-opacity="0.3"/>
</g>
<defs>
<linearGradient id="paint0_linear_302_1132" x1="404" y1="815" x2="404" y2="976" gradientUnits="userSpaceOnUse">
<stop stop-color="white"/>
<stop offset="1" stop-color="#BFDEFF"/>
</linearGradient>
<radialGradient id="paint1_radial_302_1132" cx="0" cy="0" r="1" gradientUnits="userSpaceOnUse" gradientTransform="translate(404 815) scale(206 351)">
<stop offset="0.218443" stop-color="#007BFF"/>
<stop offset="1" stop-color="white" stop-opacity="0"/>
</radialGradient>
<linearGradient id="paint2_linear_302_1132" x1="404" y1="585" x2="404" y2="942.5" gradientUnits="userSpaceOnUse">
<stop stop-color="white"/>
<stop offset="1" stop-color="white" stop-opacity="0"/>
</linearGradient>
<radialGradient id="paint3_radial_302_1132" cx="0" cy="0" r="1" gradientUnits="userSpaceOnUse" gradientTransform="translate(404 752.5) rotate(-90) scale(238.5 196.002)">
<stop stop-color="#0F6DCD"/>
<stop offset="0.25" stop-color="#0A84FF"/>
<stop offset="1" stop-color="white"/>
</radialGradient>
<radialGradient id="paint4_radial_302_1132" cx="0" cy="0" r="1" gradientUnits="userSpaceOnUse" gradientTransform="translate(404 817) rotate(90) scale(125.5 152.076)">
<stop stop-color="white"/>
<stop offset="1" stop-color="white" stop-opacity="0"/>
</radialGradient>
<linearGradient id="paint5_linear_302_1132" x1="265.773" y1="636.5" x2="265.773" y2="752.5" gradientUnits="userSpaceOnUse">
<stop stop-color="#15569B"/>
<stop offset="1" stop-color="white" stop-opacity="0"/>
</linearGradient>
<linearGradient id="paint6_linear_302_1132" x1="285.25" y1="636.5" x2="285.25" y2="752.5" gradientUnits="userSpaceOnUse">
<stop stop-color="white"/>
<stop offset="1" stop-color="white" stop-opacity="0"/>
</linearGradient>
<linearGradient id="paint7_linear_302_1132" x1="542.227" y1="636.5" x2="542.227" y2="752.5" gradientUnits="userSpaceOnUse">
<stop stop-color="#15569B"/>
<stop offset="1" stop-color="white" stop-opacity="0"/>
</linearGradient>
<linearGradient id="paint8_linear_302_1132" x1="522.75" y1="636.5" x2="522.75" y2="752.5" gradientUnits="userSpaceOnUse">
<stop stop-color="white"/>
<stop offset="1" stop-color="white" stop-opacity="0"/>
</linearGradient>
<linearGradient id="paint9_linear_302_1132" x1="492.25" y1="695" x2="492.25" y2="752.5" gradientUnits="userSpaceOnUse">
<stop stop-color="white" stop-opacity="0.8"/>
<stop offset="1" stop-color="white" stop-opacity="0"/>
</linearGradient>
<linearGradient id="paint10_linear_302_1132" x1="492.25" y1="695" x2="492.25" y2="752.5" gradientUnits="userSpaceOnUse">
<stop stop-color="white"/>
<stop offset="1" stop-color="white" stop-opacity="0.5"/>
</linearGradient>
<linearGradient id="paint11_linear_302_1132" x1="315.75" y1="695" x2="315.75" y2="752.5" gradientUnits="userSpaceOnUse">
<stop stop-color="white" stop-opacity="0.8"/>
<stop offset="1" stop-color="white" stop-opacity="0"/>
</linearGradient>
<linearGradient id="paint12_linear_302_1132" x1="315.75" y1="695" x2="315.75" y2="752.5" gradientUnits="userSpaceOnUse">
<stop stop-color="white"/>
<stop offset="1" stop-color="white" stop-opacity="0.5"/>
</linearGradient>
<linearGradient id="paint13_linear_302_1132" x1="404" y1="832.5" x2="404" y2="893.5" gradientUnits="userSpaceOnUse">
<stop stop-color="white" stop-opacity="0.8"/>
<stop offset="1" stop-color="white" stop-opacity="0"/>
</linearGradient>
<linearGradient id="paint14_linear_302_1132" x1="404" y1="832.5" x2="404" y2="893.5" gradientUnits="userSpaceOnUse">
<stop stop-color="white"/>
<stop offset="1" stop-color="white" stop-opacity="0.5"/>
</linearGradient>
<linearGradient id="paint15_linear_302_1132" x1="295.75" y1="514" x2="295.75" y2="625" gradientUnits="userSpaceOnUse">
<stop stop-color="#15569B"/>
<stop offset="1" stop-color="white" stop-opacity="0"/>
</linearGradient>
<linearGradient id="paint16_linear_302_1132" x1="282.25" y1="514" x2="282.25" y2="616" gradientUnits="userSpaceOnUse">
<stop stop-color="white"/>
<stop offset="0.5" stop-color="white" stop-opacity="0"/>
</linearGradient>
<linearGradient id="paint17_linear_302_1132" x1="512.25" y1="514" x2="512.25" y2="625" gradientUnits="userSpaceOnUse">
<stop stop-color="#15569B"/>
<stop offset="1" stop-color="white" stop-opacity="0"/>
</linearGradient>
<linearGradient id="paint18_linear_302_1132" x1="525.75" y1="514" x2="525.75" y2="616" gradientUnits="userSpaceOnUse">
<stop stop-color="white"/>
<stop offset="0.5" stop-color="white" stop-opacity="0"/>
</linearGradient>
<linearGradient id="paint19_linear_302_1132" x1="1036" y1="815" x2="1036" y2="976" gradientUnits="userSpaceOnUse">
<stop stop-color="white"/>
<stop offset="1" stop-color="#FF9F75"/>
</linearGradient>
<radialGradient id="paint20_radial_302_1132" cx="0" cy="0" r="1" gradientUnits="userSpaceOnUse" gradientTransform="translate(1036 815) scale(206 351)">
<stop offset="0.218443" stop-color="#FF9F75" stop-opacity="0"/>
<stop offset="1" stop-color="#FF9F75"/>
</radialGradient>
<radialGradient id="paint21_radial_302_1132" cx="0" cy="0" r="1" gradientUnits="userSpaceOnUse" gradientTransform="translate(1036 752.5) rotate(-90) scale(238.5 196.002)">
<stop stop-color="#FF9F75"/>
<stop offset="1" stop-color="#FF4E00"/>
</radialGradient>
<linearGradient id="paint22_linear_302_1132" x1="897.773" y1="636.5" x2="897.773" y2="752.5" gradientUnits="userSpaceOnUse">
<stop stop-color="#712200"/>
<stop offset="1" stop-color="#FF4E00" stop-opacity="0"/>
</linearGradient>
<linearGradient id="paint23_linear_302_1132" x1="1174.23" y1="636.5" x2="1174.23" y2="752.5" gradientUnits="userSpaceOnUse">
<stop stop-color="#712200"/>
<stop offset="1" stop-color="#FF4E00" stop-opacity="0"/>
</linearGradient>
<linearGradient id="paint24_linear_302_1132" x1="927.75" y1="514" x2="927.75" y2="625" gradientUnits="userSpaceOnUse">
<stop stop-color="#381100"/>
<stop offset="1" stop-color="#FF4E00" stop-opacity="0"/>
</linearGradient>
<linearGradient id="paint25_linear_302_1132" x1="1144.25" y1="514" x2="1144.25" y2="625" gradientUnits="userSpaceOnUse">
<stop stop-color="#381100"/>
<stop offset="1" stop-color="#FF4E00" stop-opacity="0"/>
</linearGradient>
</defs>
</svg>
