<svg width="6000" height="4000" viewBox="0 0 6000 4000" fill="none" xmlns="http://www.w3.org/2000/svg">
<rect width="6000" height="4000" transform="translate(0 -0.000244141)" fill="#677677"/>
<path d="M1770 1762V2236H1860V1998C1860 1880 1916 1846 1969 1846C1998 1846 2015 1855 2027 1863L2079 1774C2057 1762 2032 1750 1994 1750C1935 1750 1885 1785 1862 1835H1860V1762H1770Z" fill="#ECECEC"/>
<path d="M2190.01 2032C2190.01 2115 2267.01 2170 2350.01 2170C2405.01 2170 2445.01 2142 2480.01 2099L2548.01 2151C2498.01 2216 2429.01 2248 2338.01 2248C2188.01 2248 2094.01 2140 2094.01 1999C2094.01 1857 2197.01 1750 2339.01 1750C2506.01 1750 2570.01 1878 2570.01 2000V2032H2190.01ZM2474.01 1960C2472.01 1881 2428.01 1822 2337.01 1822C2248.01 1822 2190.01 1897 2190.01 1960H2474.01Z" fill="#ECECEC"/>
<path d="M2746.01 2032C2746.01 2115 2823.01 2170 2906.01 2170C2961.01 2170 3001.01 2142 3036.01 2099L3104.01 2151C3054.01 2216 2985.01 2248 2894.01 2248C2744.01 2248 2650.01 2140 2650.01 1999C2650.01 1857 2753.01 1750 2895.01 1750C3062.01 1750 3126.01 1878 3126.01 2000V2032H2746.01ZM3030.01 1960C3028.01 1881 2984.01 1822 2893.01 1822C2804.01 1822 2746.01 1897 2746.01 1960H3030.01Z" fill="#ECECEC"/>
<path d="M3709.01 2232C3709.01 2375 3605.01 2476 3450.01 2476C3360.01 2476 3285.01 2453 3218.01 2391L3279.01 2315C3326.01 2365 3379.01 2392 3448.01 2392C3582.01 2392 3619.01 2308 3619.01 2228V2158H3616.01C3582.01 2215 3517.01 2242 3452.01 2242C3313.01 2242 3210.01 2137 3211.01 1999C3211.01 1859 3305.01 1750 3452.01 1750C3516.01 1750 3582.01 1779 3617.01 1830H3619.01V1762H3709.01V2232ZM3307.01 1999C3307.01 2095 3367.01 2158 3463.01 2158C3559.01 2158 3619.01 2095 3619.01 1999C3619.01 1903 3559.01 1834 3463.01 1834C3367.01 1834 3307.01 1903 3307.01 1999Z" fill="#ECECEC"/>
<path d="M4074 1750C4215 1750 4326 1861 4326 1999C4326 2137 4215 2248 4074 2248C3933 2248 3822 2137 3822 1999C3822 1861 3933 1750 4074 1750ZM4074 2164C4170 2164 4230 2095 4230 1999C4230 1903 4170 1834 4074 1834C3978 1834 3918 1903 3918 1999C3918 2095 3978 2164 4074 2164Z" fill="#ECECEC"/>
</svg>
