<svg width="6000" height="4000" viewBox="0 0 6000 4000" fill="none" xmlns="http://www.w3.org/2000/svg">
<rect width="6000" height="4000" transform="translate(0 -0.000244141)" fill="#ECECEC"/>
<path d="M1770 1763V2237H1860V1999C1860 1881 1916 1847 1969 1847C1998 1847 2015 1856 2027 1864L2079 1775C2057 1763 2032 1751 1994 1751C1935 1751 1885 1786 1862 1836H1860V1763H1770Z" fill="#677677"/>
<path d="M2190.01 2033C2190.01 2116 2267.01 2171 2350.01 2171C2405.01 2171 2445.01 2143 2480.01 2100L2548.01 2152C2498.01 2217 2429.01 2249 2338.01 2249C2188.01 2249 2094.01 2141 2094.01 2000C2094.01 1858 2197.01 1751 2339.01 1751C2506.01 1751 2570.01 1879 2570.01 2001V2033H2190.01ZM2474.01 1961C2472.01 1882 2428.01 1823 2337.01 1823C2248.01 1823 2190.01 1898 2190.01 1961H2474.01Z" fill="#677677"/>
<path d="M2746.01 2033C2746.01 2116 2823.01 2171 2906.01 2171C2961.01 2171 3001.01 2143 3036.01 2100L3104.01 2152C3054.01 2217 2985.01 2249 2894.01 2249C2744.01 2249 2650.01 2141 2650.01 2000C2650.01 1858 2753.01 1751 2895.01 1751C3062.01 1751 3126.01 1879 3126.01 2001V2033H2746.01ZM3030.01 1961C3028.01 1882 2984.01 1823 2893.01 1823C2804.01 1823 2746.01 1898 2746.01 1961H3030.01Z" fill="#677677"/>
<path d="M3709.01 2233C3709.01 2376 3605.01 2477 3450.01 2477C3360.01 2477 3285.01 2454 3218.01 2392L3279.01 2316C3326.01 2366 3379.01 2393 3448.01 2393C3582.01 2393 3619.01 2309 3619.01 2229V2159H3616.01C3582.01 2216 3517.01 2243 3452.01 2243C3313.01 2243 3210.01 2138 3211.01 2000C3211.01 1860 3305.01 1751 3452.01 1751C3516.01 1751 3582.01 1780 3617.01 1831H3619.01V1763H3709.01V2233ZM3307.01 2000C3307.01 2096 3367.01 2159 3463.01 2159C3559.01 2159 3619.01 2096 3619.01 2000C3619.01 1904 3559.01 1835 3463.01 1835C3367.01 1835 3307.01 1904 3307.01 2000Z" fill="#677677"/>
<path d="M4074 1751C4215 1751 4326 1862 4326 2000C4326 2138 4215 2249 4074 2249C3933 2249 3822 2138 3822 2000C3822 1862 3933 1751 4074 1751ZM4074 2165C4170 2165 4230 2096 4230 2000C4230 1904 4170 1835 4074 1835C3978 1835 3918 1904 3918 2000C3918 2096 3978 2165 4074 2165Z" fill="#677677"/>
</svg>
