<svg width="6000" height="4000" viewBox="0 0 6000 4000" fill="none" xmlns="http://www.w3.org/2000/svg">
<rect width="6000" height="4000" fill="#ECECEC"/>
<path d="M500 1836C500 1555.97 500 1415.96 554.497 1309C602.433 1214.92 678.924 1138.43 773.005 1090.5C879.961 1036 1019.97 1036 1300 1036H4700C4980.03 1036 5120.04 1036 5227 1090.5C5321.08 1138.43 5397.57 1214.92 5445.5 1309C5500 1415.96 5500 1555.97 5500 1836V4000H500V1836Z" fill="url(#paint0_linear_125_263)"/>
<g filter="url(#filter0_d_125_263)">
<circle cx="4777" cy="1999" r="249" fill="#818D8E"/>
<circle cx="4777" cy="1999" r="239" stroke="url(#paint1_linear_125_263)" stroke-width="20"/>
</g>
<g filter="url(#filter1_d_125_263)">
<rect x="3168" y="1750" width="1123" height="498" rx="249" fill="url(#paint2_linear_125_263)"/>
<rect x="3178" y="1760" width="1103" height="478" rx="239" stroke="white" stroke-width="20"/>
</g>
<rect x="4646" y="1916" width="261" height="20" fill="#FAFAFA"/>
<rect x="4646" y="1989" width="261" height="20" fill="#FAFAFA"/>
<rect x="4646" y="2062" width="261" height="20" fill="#FAFAFA"/>
<path d="M3415.5 2079.64C3403.04 2079.64 3392.4 2077.29 3383.6 2072.6C3374.8 2067.76 3367.32 2061.16 3361.16 2052.8L3374.8 2041.36C3380.23 2048.55 3386.24 2054.05 3392.84 2057.86C3399.44 2061.53 3407.22 2063.36 3416.16 2063.36C3427.16 2063.36 3435.52 2060.72 3441.24 2055.44C3447.11 2050.16 3450.04 2043.12 3450.04 2034.32C3450.04 2026.99 3447.84 2021.34 3443.44 2017.38C3439.04 2013.42 3431.78 2010.27 3421.66 2007.92L3409.12 2005.06C3395.04 2001.83 3384.26 1996.99 3376.78 1990.54C3369.45 1983.94 3365.78 1974.7 3365.78 1962.82C3365.78 1956.07 3367.03 1950.06 3369.52 1944.78C3372.02 1939.5 3375.46 1935.1 3379.86 1931.58C3384.41 1928.06 3389.76 1925.42 3395.92 1923.66C3402.23 1921.75 3409.12 1920.8 3416.6 1920.8C3428.19 1920.8 3438.09 1922.93 3446.3 1927.18C3454.66 1931.43 3461.7 1937.67 3467.42 1945.88L3453.56 1956C3449.31 1950.13 3444.18 1945.51 3438.16 1942.14C3432.15 1938.77 3424.67 1937.08 3415.72 1937.08C3405.9 1937.08 3398.12 1939.21 3392.4 1943.46C3386.83 1947.57 3384.04 1953.8 3384.04 1962.16C3384.04 1969.49 3386.39 1975.07 3391.08 1978.88C3395.92 1982.55 3403.18 1985.48 3412.86 1987.68L3425.4 1990.54C3440.51 1993.91 3451.44 1999.05 3458.18 2005.94C3464.93 2012.83 3468.3 2022 3468.3 2033.44C3468.3 2040.48 3467.06 2046.86 3464.56 2052.58C3462.22 2058.3 3458.77 2063.14 3454.22 2067.1C3449.68 2071.06 3444.1 2074.14 3437.5 2076.34C3431.05 2078.54 3423.72 2079.64 3415.5 2079.64ZM3511.66 1936.86C3507.84 1936.86 3505.06 1935.98 3503.3 1934.22C3501.68 1932.31 3500.88 1929.89 3500.88 1926.96V1924.1C3500.88 1921.17 3501.68 1918.82 3503.3 1917.06C3505.06 1915.15 3507.84 1914.2 3511.66 1914.2C3515.47 1914.2 3518.18 1915.15 3519.8 1917.06C3521.56 1918.82 3522.44 1921.17 3522.44 1924.1V1926.96C3522.44 1929.89 3521.56 1932.31 3519.8 1934.22C3518.18 1935.98 3515.47 1936.86 3511.66 1936.86ZM3502.86 1963.48H3520.46V2077H3502.86V1963.48ZM3657.96 2089.54C3657.96 2101.27 3653.34 2109.85 3644.1 2115.28C3635 2120.85 3621.29 2123.64 3602.96 2123.64C3585.21 2123.64 3572.45 2121.22 3564.68 2116.38C3556.9 2111.54 3553.02 2104.65 3553.02 2095.7C3553.02 2089.54 3554.63 2084.7 3557.86 2081.18C3561.08 2077.81 3565.48 2075.31 3571.06 2073.7V2071.28C3564.31 2068.05 3560.94 2062.77 3560.94 2055.44C3560.94 2049.72 3562.77 2045.39 3566.44 2042.46C3570.1 2039.38 3574.8 2037.11 3580.52 2035.64V2034.76C3573.77 2031.53 3568.49 2026.91 3564.68 2020.9C3561.01 2014.89 3559.18 2007.92 3559.18 2000C3559.18 1994.28 3560.2 1989 3562.26 1984.16C3564.31 1979.32 3567.17 1975.21 3570.84 1971.84C3574.65 1968.32 3579.12 1965.61 3584.26 1963.7C3589.54 1961.79 3595.4 1960.84 3601.86 1960.84C3609.92 1960.84 3617.11 1962.31 3623.42 1965.24V1963.26C3623.42 1958.86 3624.44 1955.27 3626.5 1952.48C3628.55 1949.55 3631.92 1948.08 3636.62 1948.08H3653.56V1963.48H3632V1970.74C3636.1 1974.26 3639.26 1978.51 3641.46 1983.5C3643.8 1988.34 3644.98 1993.84 3644.98 2000C3644.98 2005.72 3643.95 2011 3641.9 2015.84C3639.84 2020.68 3636.91 2024.86 3633.1 2028.38C3629.43 2031.75 3624.96 2034.39 3619.68 2036.3C3614.4 2038.21 3608.53 2039.16 3602.08 2039.16C3598.41 2039.16 3594.74 2038.79 3591.08 2038.06C3587.26 2039.09 3583.82 2040.63 3580.74 2042.68C3577.66 2044.59 3576.12 2047.3 3576.12 2050.82C3576.12 2054.19 3577.73 2056.47 3580.96 2057.64C3584.18 2058.81 3588.36 2059.4 3593.5 2059.4H3617.7C3631.78 2059.4 3641.97 2062.11 3648.28 2067.54C3654.73 2072.82 3657.96 2080.15 3657.96 2089.54ZM3641.46 2090.86C3641.46 2086.31 3639.7 2082.65 3636.18 2079.86C3632.8 2077.22 3626.72 2075.9 3617.92 2075.9H3580.08C3573.04 2079.13 3569.52 2084.26 3569.52 2091.3C3569.52 2096.29 3571.35 2100.54 3575.02 2104.06C3578.83 2107.58 3585.21 2109.34 3594.16 2109.34H3610.44C3620.26 2109.34 3627.89 2107.8 3633.32 2104.72C3638.74 2101.64 3641.46 2097.02 3641.46 2090.86ZM3602.08 2025.08C3609.56 2025.08 3615.5 2023.32 3619.9 2019.8C3624.3 2016.13 3626.5 2010.56 3626.5 2003.08V1996.92C3626.5 1989.44 3624.3 1983.94 3619.9 1980.42C3615.5 1976.75 3609.56 1974.92 3602.08 1974.92C3594.6 1974.92 3588.66 1976.75 3584.26 1980.42C3579.86 1983.94 3577.66 1989.44 3577.66 1996.92V2003.08C3577.66 2010.56 3579.86 2016.13 3584.26 2019.8C3588.66 2023.32 3594.6 2025.08 3602.08 2025.08ZM3682.89 2077V1963.48H3700.49V1981.96H3701.37C3704.15 1975.51 3708.04 1970.37 3713.03 1966.56C3718.16 1962.75 3724.98 1960.84 3733.49 1960.84C3745.22 1960.84 3754.46 1964.65 3761.21 1972.28C3768.1 1979.76 3771.55 1990.39 3771.55 2004.18V2077H3753.95V2007.26C3753.95 1986.87 3745.37 1976.68 3728.21 1976.68C3724.69 1976.68 3721.24 1977.12 3717.87 1978C3714.64 1978.88 3711.71 1980.2 3709.07 1981.96C3706.43 1983.72 3704.3 1985.99 3702.69 1988.78C3701.22 1991.42 3700.49 1994.57 3700.49 1998.24V2077H3682.89ZM3938.68 2058.52H3937.8C3936.63 2061.16 3935.16 2063.8 3933.4 2066.44C3931.79 2068.93 3929.73 2071.21 3927.24 2073.26C3924.75 2075.17 3921.74 2076.71 3918.22 2077.88C3914.7 2079.05 3910.59 2079.64 3905.9 2079.64C3894.17 2079.64 3884.85 2075.9 3877.96 2068.42C3871.07 2060.79 3867.62 2050.09 3867.62 2036.3V1963.48H3885.22V2033.22C3885.22 2053.61 3893.87 2063.8 3911.18 2063.8C3914.7 2063.8 3918.07 2063.36 3921.3 2062.48C3924.67 2061.6 3927.61 2060.28 3930.1 2058.52C3932.74 2056.76 3934.79 2054.56 3936.26 2051.92C3937.87 2049.13 3938.68 2045.83 3938.68 2042.02V1963.48H3956.28V2077H3938.68V2058.52ZM3998.16 1963.48H4015.76V1981.96H4016.64C4019.57 1974.77 4023.82 1969.49 4029.4 1966.12C4035.12 1962.6 4041.94 1960.84 4049.86 1960.84C4056.9 1960.84 4063.28 1962.23 4069 1965.02C4074.72 1967.81 4079.56 1971.77 4083.52 1976.9C4087.62 1982.03 4090.7 1988.27 4092.76 1995.6C4094.96 2002.93 4096.06 2011.15 4096.06 2020.24C4096.06 2029.33 4094.96 2037.55 4092.76 2044.88C4090.7 2052.21 4087.62 2058.45 4083.52 2063.58C4079.56 2068.71 4074.72 2072.67 4069 2075.46C4063.28 2078.25 4056.9 2079.64 4049.86 2079.64C4034.46 2079.64 4023.38 2072.6 4016.64 2058.52H4015.76V2121H3998.16V1963.48ZM4045.02 2063.8C4054.99 2063.8 4062.84 2060.72 4068.56 2054.56C4074.28 2048.25 4077.14 2040.04 4077.14 2029.92V2010.56C4077.14 2000.44 4074.28 1992.3 4068.56 1986.14C4062.84 1979.83 4054.99 1976.68 4045.02 1976.68C4041.06 1976.68 4037.24 1977.27 4033.58 1978.44C4030.06 1979.47 4026.98 1980.93 4024.34 1982.84C4021.7 1984.75 4019.57 1987.09 4017.96 1989.88C4016.49 1992.52 4015.76 1995.38 4015.76 1998.46V2040.7C4015.76 2044.37 4016.49 2047.67 4017.96 2050.6C4019.57 2053.39 4021.7 2055.81 4024.34 2057.86C4026.98 2059.77 4030.06 2061.23 4033.58 2062.26C4037.24 2063.29 4041.06 2063.8 4045.02 2063.8Z" fill="#454F4F"/>
<path d="M1101.26 3690.04C1075.5 3690.04 1053.66 3685.7 1035.74 3677.02C1017.82 3668.06 1002.56 3656.58 989.96 3642.58L1031.96 3600.16C1051.84 3622.56 1076.34 3633.76 1105.46 3633.76C1121.14 3633.76 1132.76 3630.54 1140.32 3624.1C1147.88 3617.66 1151.66 3609.12 1151.66 3598.48C1151.66 3590.36 1149.42 3583.64 1144.94 3578.32C1140.46 3572.72 1131.36 3568.94 1117.64 3566.98L1088.66 3563.2C1057.58 3559.28 1034.76 3549.9 1020.2 3535.06C1005.92 3520.22 998.78 3500.48 998.78 3475.84C998.78 3462.68 1001.3 3450.64 1006.34 3439.72C1011.38 3428.8 1018.52 3419.42 1027.76 3411.58C1037.28 3403.74 1048.76 3397.72 1062.2 3393.52C1075.92 3389.04 1091.46 3386.8 1108.82 3386.8C1130.94 3386.8 1150.4 3390.3 1167.2 3397.3C1184 3404.3 1198.42 3414.52 1210.46 3427.96L1168.04 3470.8C1161.04 3462.68 1152.5 3456.1 1142.42 3451.06C1132.62 3445.74 1120.16 3443.08 1105.04 3443.08C1090.76 3443.08 1080.12 3445.6 1073.12 3450.64C1066.12 3455.68 1062.62 3462.68 1062.62 3471.64C1062.62 3481.72 1065.28 3489 1070.6 3493.48C1076.2 3497.96 1085.16 3501.18 1097.48 3503.14L1126.46 3507.76C1156.7 3512.52 1179.1 3521.9 1193.66 3535.9C1208.22 3549.62 1215.5 3569.22 1215.5 3594.7C1215.5 3608.7 1212.98 3621.58 1207.94 3633.34C1202.9 3645.1 1195.48 3655.18 1185.68 3663.58C1176.16 3671.98 1164.26 3678.56 1149.98 3683.32C1135.7 3687.8 1119.46 3690.04 1101.26 3690.04ZM1354.95 3690.04C1338.15 3690.04 1323.17 3687.38 1310.01 3682.06C1296.85 3676.46 1285.65 3668.76 1276.41 3658.96C1267.45 3648.88 1260.59 3636.7 1255.83 3622.42C1251.35 3608.14 1249.11 3592.18 1249.11 3574.54C1249.11 3557.18 1251.35 3541.5 1255.83 3527.5C1260.31 3513.22 1266.89 3501.04 1275.57 3490.96C1284.53 3480.88 1295.45 3473.18 1308.33 3467.86C1321.21 3462.26 1335.91 3459.46 1352.43 3459.46C1370.63 3459.46 1386.17 3462.54 1399.05 3468.7C1412.21 3474.86 1422.85 3483.12 1430.97 3493.48C1439.37 3503.84 1445.39 3515.88 1449.03 3529.6C1452.95 3543.04 1454.91 3557.18 1454.91 3572.02V3590.5H1313.37V3593.86C1313.37 3608.42 1317.29 3620.04 1325.13 3628.72C1332.97 3637.12 1345.29 3641.32 1362.09 3641.32C1374.97 3641.32 1385.47 3638.8 1393.59 3633.76C1401.71 3628.44 1409.27 3622.14 1416.27 3614.86L1447.35 3653.5C1437.55 3664.98 1424.67 3673.94 1408.71 3680.38C1393.03 3686.82 1375.11 3690.04 1354.95 3690.04ZM1353.69 3505.24C1341.09 3505.24 1331.15 3509.44 1323.87 3517.84C1316.87 3525.96 1313.37 3536.88 1313.37 3550.6V3553.96H1390.65V3550.18C1390.65 3536.74 1387.57 3525.96 1381.41 3517.84C1375.53 3509.44 1366.29 3505.24 1353.69 3505.24ZM1659.67 3685C1648.47 3685 1639.09 3681.5 1631.53 3674.5C1624.25 3667.5 1619.63 3658.12 1617.67 3646.36H1615.15C1611.79 3660.64 1604.37 3671.56 1592.89 3679.12C1581.41 3686.4 1567.27 3690.04 1550.47 3690.04C1528.35 3690.04 1511.41 3684.16 1499.65 3672.4C1487.89 3660.64 1482.01 3645.1 1482.01 3625.78C1482.01 3602.54 1490.41 3585.32 1507.21 3574.12C1524.29 3562.64 1547.39 3556.9 1576.51 3556.9H1611.37V3543.04C1611.37 3532.4 1608.57 3524 1602.97 3517.84C1597.37 3511.4 1587.99 3508.18 1574.83 3508.18C1562.51 3508.18 1552.71 3510.84 1545.43 3516.16C1538.15 3521.48 1532.13 3527.5 1527.37 3534.22L1490.41 3501.46C1499.37 3488.3 1510.57 3478.08 1524.01 3470.8C1537.73 3463.24 1556.21 3459.46 1579.45 3459.46C1610.81 3459.46 1634.33 3466.32 1650.01 3480.04C1665.69 3493.76 1673.53 3513.78 1673.53 3540.1V3636.7H1694.11V3685H1659.67ZM1573.57 3646.78C1583.93 3646.78 1592.75 3644.54 1600.03 3640.06C1607.59 3635.58 1611.37 3628.3 1611.37 3618.22V3592.18H1581.13C1556.77 3592.18 1544.59 3600.44 1544.59 3616.96V3623.26C1544.59 3631.38 1547.11 3637.4 1552.15 3641.32C1557.19 3644.96 1564.33 3646.78 1573.57 3646.78ZM1733.73 3685V3464.5H1795.89V3512.38H1797.99C1799.11 3506.22 1801.07 3500.34 1803.87 3494.74C1806.67 3488.86 1810.31 3483.68 1814.79 3479.2C1819.55 3474.72 1825.15 3471.22 1831.59 3468.7C1838.03 3465.9 1845.59 3464.5 1854.27 3464.5H1865.19V3522.46H1849.65C1831.45 3522.46 1817.87 3524.84 1808.91 3529.6C1800.23 3534.36 1795.89 3543.18 1795.89 3556.06V3685H1733.73ZM1988.42 3690.04C1971.9 3690.04 1957.2 3687.38 1944.32 3682.06C1931.44 3676.46 1920.66 3668.76 1911.98 3658.96C1903.3 3648.88 1896.72 3636.7 1892.24 3622.42C1887.76 3608.14 1885.52 3592.18 1885.52 3574.54C1885.52 3556.9 1887.76 3541.08 1892.24 3527.08C1896.72 3512.8 1903.3 3500.62 1911.98 3490.54C1920.66 3480.46 1931.44 3472.76 1944.32 3467.44C1957.2 3462.12 1971.9 3459.46 1988.42 3459.46C2010.82 3459.46 2029.44 3464.5 2044.28 3474.58C2059.4 3484.66 2070.18 3498.8 2076.62 3517L2026.22 3538.84C2024.26 3530.44 2020.2 3523.3 2014.04 3517.42C2007.88 3511.54 1999.34 3508.6 1988.42 3508.6C1975.82 3508.6 1966.3 3512.8 1959.86 3521.2C1953.42 3529.32 1950.2 3540.38 1950.2 3554.38V3595.54C1950.2 3609.54 1953.42 3620.6 1959.86 3628.72C1966.3 3636.84 1975.82 3640.9 1988.42 3640.9C1999.62 3640.9 2008.44 3637.96 2014.88 3632.08C2021.6 3625.92 2026.5 3617.94 2029.58 3608.14L2077.88 3629.14C2070.6 3650.14 2059.26 3665.54 2043.86 3675.34C2028.74 3685.14 2010.26 3690.04 1988.42 3690.04ZM2114.26 3374.2H2176.42V3501.88H2178.94C2182.86 3490.4 2189.72 3480.46 2199.52 3472.06C2209.32 3463.66 2222.9 3459.46 2240.26 3459.46C2262.94 3459.46 2280.02 3467.02 2291.5 3482.14C2303.26 3497.26 2309.14 3518.82 2309.14 3546.82V3685H2246.98V3551.86C2246.98 3537.58 2244.74 3527.08 2240.26 3520.36C2235.78 3513.36 2227.8 3509.86 2216.32 3509.86C2211.28 3509.86 2206.38 3510.56 2201.62 3511.96C2196.86 3513.08 2192.52 3515.04 2188.6 3517.84C2184.96 3520.64 2182.02 3524.14 2179.78 3528.34C2177.54 3532.26 2176.42 3536.88 2176.42 3542.2V3685H2114.26V3374.2ZM2470.43 3512.8H2439.35V3464.5H2470.43V3438.46C2470.43 3417.18 2476.03 3401.22 2487.23 3390.58C2498.43 3379.66 2514.81 3374.2 2536.37 3374.2H2576.69V3422.5H2532.59V3464.5H2576.69V3512.8H2532.59V3685H2470.43V3512.8ZM2696.99 3690.04C2680.75 3690.04 2666.19 3687.38 2653.31 3682.06C2640.71 3676.74 2629.93 3669.04 2620.97 3658.96C2612.29 3648.88 2605.57 3636.7 2600.81 3622.42C2596.05 3608.14 2593.67 3592.18 2593.67 3574.54C2593.67 3556.9 2596.05 3540.94 2600.81 3526.66C2605.57 3512.38 2612.29 3500.34 2620.97 3490.54C2629.93 3480.46 2640.71 3472.76 2653.31 3467.44C2666.19 3462.12 2680.75 3459.46 2696.99 3459.46C2713.23 3459.46 2727.65 3462.12 2740.25 3467.44C2753.13 3472.76 2763.91 3480.46 2772.59 3490.54C2781.55 3500.34 2788.41 3512.38 2793.17 3526.66C2797.93 3540.94 2800.31 3556.9 2800.31 3574.54C2800.31 3592.18 2797.93 3608.14 2793.17 3622.42C2788.41 3636.7 2781.55 3648.88 2772.59 3658.96C2763.91 3669.04 2753.13 3676.74 2740.25 3682.06C2727.65 3687.38 2713.23 3690.04 2696.99 3690.04ZM2696.99 3640.9C2709.31 3640.9 2718.83 3637.12 2725.55 3629.56C2732.27 3622 2735.63 3611.22 2735.63 3597.22V3552.28C2735.63 3538.28 2732.27 3527.5 2725.55 3519.94C2718.83 3512.38 2709.31 3508.6 2696.99 3508.6C2684.67 3508.6 2675.15 3512.38 2668.43 3519.94C2661.71 3527.5 2658.35 3538.28 2658.35 3552.28V3597.22C2658.35 3611.22 2661.71 3622 2668.43 3629.56C2675.15 3637.12 2684.67 3640.9 2696.99 3640.9ZM2842.5 3685V3464.5H2904.66V3512.38H2906.76C2907.88 3506.22 2909.84 3500.34 2912.64 3494.74C2915.44 3488.86 2919.08 3483.68 2923.56 3479.2C2928.32 3474.72 2933.92 3471.22 2940.36 3468.7C2946.8 3465.9 2954.36 3464.5 2963.04 3464.5H2973.96V3522.46H2958.42C2940.22 3522.46 2926.64 3524.84 2917.68 3529.6C2909 3534.36 2904.66 3543.18 2904.66 3556.06V3685H2842.5ZM3169.1 3685C3147.82 3685 3132.14 3679.82 3122.06 3669.46C3112.26 3659.1 3107.36 3644.12 3107.36 3624.52V3374.2H3169.52V3636.7H3197.24V3685H3169.1ZM3321.87 3690.04C3305.63 3690.04 3291.07 3687.38 3278.19 3682.06C3265.59 3676.74 3254.81 3669.04 3245.85 3658.96C3237.17 3648.88 3230.45 3636.7 3225.69 3622.42C3220.93 3608.14 3218.55 3592.18 3218.55 3574.54C3218.55 3556.9 3220.93 3540.94 3225.69 3526.66C3230.45 3512.38 3237.17 3500.34 3245.85 3490.54C3254.81 3480.46 3265.59 3472.76 3278.19 3467.44C3291.07 3462.12 3305.63 3459.46 3321.87 3459.46C3338.11 3459.46 3352.53 3462.12 3365.13 3467.44C3378.01 3472.76 3388.79 3480.46 3397.47 3490.54C3406.43 3500.34 3413.29 3512.38 3418.05 3526.66C3422.81 3540.94 3425.19 3556.9 3425.19 3574.54C3425.19 3592.18 3422.81 3608.14 3418.05 3622.42C3413.29 3636.7 3406.43 3648.88 3397.47 3658.96C3388.79 3669.04 3378.01 3676.74 3365.13 3682.06C3352.53 3687.38 3338.11 3690.04 3321.87 3690.04ZM3321.87 3640.9C3334.19 3640.9 3343.71 3637.12 3350.43 3629.56C3357.15 3622 3360.51 3611.22 3360.51 3597.22V3552.28C3360.51 3538.28 3357.15 3527.5 3350.43 3519.94C3343.71 3512.38 3334.19 3508.6 3321.87 3508.6C3309.55 3508.6 3300.03 3512.38 3293.31 3519.94C3286.59 3527.5 3283.23 3538.28 3283.23 3552.28V3597.22C3283.23 3611.22 3286.59 3622 3293.31 3629.56C3300.03 3637.12 3309.55 3640.9 3321.87 3640.9ZM3556.42 3690.04C3539.9 3690.04 3525.2 3687.38 3512.32 3682.06C3499.44 3676.46 3488.66 3668.76 3479.98 3658.96C3471.3 3648.88 3464.72 3636.7 3460.24 3622.42C3455.76 3608.14 3453.52 3592.18 3453.52 3574.54C3453.52 3556.9 3455.76 3541.08 3460.24 3527.08C3464.72 3512.8 3471.3 3500.62 3479.98 3490.54C3488.66 3480.46 3499.44 3472.76 3512.32 3467.44C3525.2 3462.12 3539.9 3459.46 3556.42 3459.46C3578.82 3459.46 3597.44 3464.5 3612.28 3474.58C3627.4 3484.66 3638.18 3498.8 3644.62 3517L3594.22 3538.84C3592.26 3530.44 3588.2 3523.3 3582.04 3517.42C3575.88 3511.54 3567.34 3508.6 3556.42 3508.6C3543.82 3508.6 3534.3 3512.8 3527.86 3521.2C3521.42 3529.32 3518.2 3540.38 3518.2 3554.38V3595.54C3518.2 3609.54 3521.42 3620.6 3527.86 3628.72C3534.3 3636.84 3543.82 3640.9 3556.42 3640.9C3567.62 3640.9 3576.44 3637.96 3582.88 3632.08C3589.6 3625.92 3594.5 3617.94 3597.58 3608.14L3645.88 3629.14C3638.6 3650.14 3627.26 3665.54 3611.86 3675.34C3596.74 3685.14 3578.26 3690.04 3556.42 3690.04ZM3845.21 3685C3834.01 3685 3824.63 3681.5 3817.07 3674.5C3809.79 3667.5 3805.17 3658.12 3803.21 3646.36H3800.69C3797.33 3660.64 3789.91 3671.56 3778.43 3679.12C3766.95 3686.4 3752.81 3690.04 3736.01 3690.04C3713.89 3690.04 3696.95 3684.16 3685.19 3672.4C3673.43 3660.64 3667.55 3645.1 3667.55 3625.78C3667.55 3602.54 3675.95 3585.32 3692.75 3574.12C3709.83 3562.64 3732.93 3556.9 3762.05 3556.9H3796.91V3543.04C3796.91 3532.4 3794.11 3524 3788.51 3517.84C3782.91 3511.4 3773.53 3508.18 3760.37 3508.18C3748.05 3508.18 3738.25 3510.84 3730.97 3516.16C3723.69 3521.48 3717.67 3527.5 3712.91 3534.22L3675.95 3501.46C3684.91 3488.3 3696.11 3478.08 3709.55 3470.8C3723.27 3463.24 3741.75 3459.46 3764.99 3459.46C3796.35 3459.46 3819.87 3466.32 3835.55 3480.04C3851.23 3493.76 3859.07 3513.78 3859.07 3540.1V3636.7H3879.65V3685H3845.21ZM3759.11 3646.78C3769.47 3646.78 3778.29 3644.54 3785.57 3640.06C3793.13 3635.58 3796.91 3628.3 3796.91 3618.22V3592.18H3766.67C3742.31 3592.18 3730.13 3600.44 3730.13 3616.96V3623.26C3730.13 3631.38 3732.65 3637.4 3737.69 3641.32C3742.73 3644.96 3749.87 3646.78 3759.11 3646.78ZM3994.09 3685C3972.53 3685 3956.15 3679.54 3944.95 3668.62C3934.03 3657.7 3928.57 3641.74 3928.57 3620.74V3512.8H3897.49V3464.5H3913.03C3921.43 3464.5 3927.17 3462.54 3930.25 3458.62C3933.33 3454.42 3934.87 3448.54 3934.87 3440.98V3404.86H3990.73V3464.5H4034.41V3512.8H3990.73V3636.7H4031.05V3685H3994.09ZM4106.57 3440.98C4093.97 3440.98 4084.73 3438.18 4078.85 3432.58C4073.25 3426.7 4070.45 3419.28 4070.45 3410.32V3401.08C4070.45 3392.12 4073.25 3384.84 4078.85 3379.24C4084.73 3373.36 4093.97 3370.42 4106.57 3370.42C4119.17 3370.42 4128.27 3373.36 4133.87 3379.24C4139.75 3384.84 4142.69 3392.12 4142.69 3401.08V3410.32C4142.69 3419.28 4139.75 3426.7 4133.87 3432.58C4128.27 3438.18 4119.17 3440.98 4106.57 3440.98ZM4075.49 3464.5H4137.65V3685H4075.49V3464.5ZM4283.03 3690.04C4266.79 3690.04 4252.23 3687.38 4239.35 3682.06C4226.75 3676.74 4215.97 3669.04 4207.01 3658.96C4198.33 3648.88 4191.61 3636.7 4186.85 3622.42C4182.09 3608.14 4179.71 3592.18 4179.71 3574.54C4179.71 3556.9 4182.09 3540.94 4186.85 3526.66C4191.61 3512.38 4198.33 3500.34 4207.01 3490.54C4215.97 3480.46 4226.75 3472.76 4239.35 3467.44C4252.23 3462.12 4266.79 3459.46 4283.03 3459.46C4299.27 3459.46 4313.69 3462.12 4326.29 3467.44C4339.17 3472.76 4349.95 3480.46 4358.63 3490.54C4367.59 3500.34 4374.45 3512.38 4379.21 3526.66C4383.97 3540.94 4386.35 3556.9 4386.35 3574.54C4386.35 3592.18 4383.97 3608.14 4379.21 3622.42C4374.45 3636.7 4367.59 3648.88 4358.63 3658.96C4349.95 3669.04 4339.17 3676.74 4326.29 3682.06C4313.69 3687.38 4299.27 3690.04 4283.03 3690.04ZM4283.03 3640.9C4295.35 3640.9 4304.87 3637.12 4311.59 3629.56C4318.31 3622 4321.67 3611.22 4321.67 3597.22V3552.28C4321.67 3538.28 4318.31 3527.5 4311.59 3519.94C4304.87 3512.38 4295.35 3508.6 4283.03 3508.6C4270.71 3508.6 4261.19 3512.38 4254.47 3519.94C4247.75 3527.5 4244.39 3538.28 4244.39 3552.28V3597.22C4244.39 3611.22 4247.75 3622 4254.47 3629.56C4261.19 3637.12 4270.71 3640.9 4283.03 3640.9ZM4428.54 3685V3464.5H4490.7V3501.88H4493.22C4497.14 3490.4 4504 3480.46 4513.8 3472.06C4523.6 3463.66 4537.18 3459.46 4554.54 3459.46C4577.22 3459.46 4594.3 3467.02 4605.78 3482.14C4617.54 3497.26 4623.42 3518.82 4623.42 3546.82V3685H4561.26V3551.86C4561.26 3537.58 4559.02 3527.08 4554.54 3520.36C4550.06 3513.36 4542.08 3509.86 4530.6 3509.86C4525.56 3509.86 4520.66 3510.56 4515.9 3511.96C4511.14 3513.08 4506.8 3515.04 4502.88 3517.84C4499.24 3520.64 4496.3 3524.14 4494.06 3528.34C4491.82 3532.26 4490.7 3536.88 4490.7 3542.2V3685H4428.54Z" fill="#677677"/>
<path d="M1037.58 3210.64C1025.11 3210.64 1014.48 3208.29 1005.68 3203.6C996.88 3198.76 989.4 3192.16 983.24 3183.8L996.88 3172.36C1002.31 3179.55 1008.32 3185.05 1014.92 3188.86C1021.52 3192.53 1029.29 3194.36 1038.24 3194.36C1049.24 3194.36 1057.6 3191.72 1063.32 3186.44C1069.19 3181.16 1072.12 3174.12 1072.12 3165.32C1072.12 3157.99 1069.92 3152.34 1065.52 3148.38C1061.12 3144.42 1053.86 3141.27 1043.74 3138.92L1031.2 3136.06C1017.12 3132.83 1006.34 3127.99 998.86 3121.54C991.527 3114.94 987.86 3105.7 987.86 3093.82C987.86 3087.07 989.107 3081.06 991.6 3075.78C994.093 3070.5 997.54 3066.1 1001.94 3062.58C1006.49 3059.06 1011.84 3056.42 1018 3054.66C1024.31 3052.75 1031.2 3051.8 1038.68 3051.8C1050.27 3051.8 1060.17 3053.93 1068.38 3058.18C1076.74 3062.43 1083.78 3068.67 1089.5 3076.88L1075.64 3087C1071.39 3081.13 1066.25 3076.51 1060.24 3073.14C1054.23 3069.77 1046.75 3068.08 1037.8 3068.08C1027.97 3068.08 1020.2 3070.21 1014.48 3074.46C1008.91 3078.57 1006.12 3084.8 1006.12 3093.16C1006.12 3100.49 1008.47 3106.07 1013.16 3109.88C1018 3113.55 1025.26 3116.48 1034.94 3118.68L1047.48 3121.54C1062.59 3124.91 1073.51 3130.05 1080.26 3136.94C1087.01 3143.83 1090.38 3153 1090.38 3164.44C1090.38 3171.48 1089.13 3177.86 1086.64 3183.58C1084.29 3189.3 1080.85 3194.14 1076.3 3198.1C1071.75 3202.06 1066.18 3205.14 1059.58 3207.34C1053.13 3209.54 1045.79 3210.64 1037.58 3210.64ZM1184.4 3070.72V3208H1165.92V3070.72H1117.08V3054.44H1233.24V3070.72H1184.4ZM1271.8 3208V3054.44H1365.52V3070.72H1290.28V3122.2H1361.12V3138.48H1290.28V3191.72H1365.52V3208H1271.8ZM1413.26 3208V3054.44H1474.42C1488.21 3054.44 1498.77 3058.4 1506.1 3066.32C1513.58 3074.09 1517.32 3084.8 1517.32 3098.44C1517.32 3112.08 1513.58 3122.86 1506.1 3130.78C1498.77 3138.55 1488.21 3142.44 1474.42 3142.44H1431.74V3208H1413.26ZM1431.74 3126.16H1474.42C1481.75 3126.16 1487.4 3124.25 1491.36 3120.44C1495.47 3116.63 1497.52 3111.2 1497.52 3104.16V3092.72C1497.52 3085.68 1495.47 3080.25 1491.36 3076.44C1487.4 3072.63 1481.75 3070.72 1474.42 3070.72H1431.74V3126.16ZM1682.49 3210.64C1672.52 3210.64 1663.5 3208.95 1655.43 3205.58C1647.51 3202.06 1640.69 3197 1634.97 3190.4C1629.4 3183.65 1625.07 3175.37 1621.99 3165.54C1618.91 3155.57 1617.37 3144.13 1617.37 3131.22C1617.37 3118.31 1618.91 3106.95 1621.99 3097.12C1625.07 3087.29 1629.4 3079.01 1634.97 3072.26C1640.69 3065.51 1647.51 3060.45 1655.43 3057.08C1663.5 3053.56 1672.52 3051.8 1682.49 3051.8C1692.32 3051.8 1701.26 3053.56 1709.33 3057.08C1717.4 3060.45 1724.22 3065.51 1729.79 3072.26C1735.51 3079.01 1739.91 3087.29 1742.99 3097.12C1746.07 3106.95 1747.61 3118.31 1747.61 3131.22C1747.61 3144.13 1746.07 3155.57 1742.99 3165.54C1739.91 3175.37 1735.51 3183.65 1729.79 3190.4C1724.22 3197 1717.4 3202.06 1709.33 3205.58C1701.26 3208.95 1692.32 3210.64 1682.49 3210.64ZM1682.49 3194.14C1689.09 3194.14 1695.18 3192.97 1700.75 3190.62C1706.32 3188.27 1711.09 3184.9 1715.05 3180.5C1719.16 3176.1 1722.31 3170.82 1724.51 3164.66C1726.71 3158.5 1727.81 3151.61 1727.81 3143.98V3118.46C1727.81 3110.83 1726.71 3103.94 1724.51 3097.78C1722.31 3091.62 1719.16 3086.34 1715.05 3081.94C1711.09 3077.54 1706.32 3074.17 1700.75 3071.82C1695.18 3069.47 1689.09 3068.3 1682.49 3068.3C1675.89 3068.3 1669.8 3069.47 1664.23 3071.82C1658.66 3074.17 1653.82 3077.54 1649.71 3081.94C1645.75 3086.34 1642.67 3091.62 1640.47 3097.78C1638.27 3103.94 1637.17 3110.83 1637.17 3118.46V3143.98C1637.17 3151.61 1638.27 3158.5 1640.47 3164.66C1642.67 3170.82 1645.75 3176.1 1649.71 3180.5C1653.82 3184.9 1658.66 3188.27 1664.23 3190.62C1669.8 3192.97 1675.89 3194.14 1682.49 3194.14ZM1831.21 3114.28L1812.73 3080.18H1812.07V3208H1794.03V3054.44H1815.37L1871.47 3148.16L1889.95 3182.26H1890.61V3054.44H1908.65V3208H1887.31L1831.21 3114.28ZM1962.78 3208V3054.44H2056.5V3070.72H1981.26V3122.2H2052.1V3138.48H1981.26V3191.72H2056.5V3208H1962.78Z" fill="#818D8E"/>
<path d="M974 2165C974 2360 1108 2476 1253 2476C1418 2476 1514 2369 1514 2234C1514 2054 1309 2003 1309 1788C1169 1788 974 1925 974 2165Z" fill="url(#paint3_linear_125_263)"/>
<path d="M1565 1510C1415 1510 1309 1643 1309 1788C1429 1788 1478 1871 1608 1871C1723 1871 1785 1791 1785 1706C1785 1596 1695 1510 1565 1510Z" fill="url(#paint4_linear_125_263)"/>
<defs>
<filter id="filter0_d_125_263" x="4278" y="1540" width="998" height="998" filterUnits="userSpaceOnUse" color-interpolation-filters="sRGB">
<feFlood flood-opacity="0" result="BackgroundImageFix"/>
<feColorMatrix in="SourceAlpha" type="matrix" values="0 0 0 0 0 0 0 0 0 0 0 0 0 0 0 0 0 0 127 0" result="hardAlpha"/>
<feOffset dy="40"/>
<feGaussianBlur stdDeviation="125"/>
<feColorMatrix type="matrix" values="0 0 0 0 0.184314 0 0 0 0 0.211765 0 0 0 0 0.211765 0 0 0 0.15 0"/>
<feBlend mode="normal" in2="BackgroundImageFix" result="effect1_dropShadow_125_263"/>
<feBlend mode="normal" in="SourceGraphic" in2="effect1_dropShadow_125_263" result="shape"/>
</filter>
<filter id="filter1_d_125_263" x="2918" y="1540" width="1623" height="998" filterUnits="userSpaceOnUse" color-interpolation-filters="sRGB">
<feFlood flood-opacity="0" result="BackgroundImageFix"/>
<feColorMatrix in="SourceAlpha" type="matrix" values="0 0 0 0 0 0 0 0 0 0 0 0 0 0 0 0 0 0 127 0" result="hardAlpha"/>
<feOffset dy="40"/>
<feGaussianBlur stdDeviation="125"/>
<feColorMatrix type="matrix" values="0 0 0 0 0.184314 0 0 0 0 0.211765 0 0 0 0 0.211765 0 0 0 0.15 0"/>
<feBlend mode="normal" in2="BackgroundImageFix" result="effect1_dropShadow_125_263"/>
<feBlend mode="normal" in="SourceGraphic" in2="effect1_dropShadow_125_263" result="shape"/>
</filter>
<linearGradient id="paint0_linear_125_263" x1="3000" y1="1036" x2="3000" y2="4000" gradientUnits="userSpaceOnUse">
<stop stop-color="#DBDDDD"/>
<stop offset="0.5625" stop-color="white"/>
</linearGradient>
<linearGradient id="paint1_linear_125_263" x1="4777" y1="1770" x2="4777" y2="2228" gradientUnits="userSpaceOnUse">
<stop stop-color="#596566" stop-opacity="0"/>
<stop offset="1" stop-color="#596566"/>
</linearGradient>
<linearGradient id="paint2_linear_125_263" x1="3729.5" y1="1750" x2="3729.5" y2="2248" gradientUnits="userSpaceOnUse">
<stop stop-color="#ECECEC"/>
<stop offset="1" stop-color="white"/>
</linearGradient>
<linearGradient id="paint3_linear_125_263" x1="1244" y1="1871" x2="1244" y2="2476" gradientUnits="userSpaceOnUse">
<stop stop-color="#677677"/>
<stop offset="1" stop-color="#ECECEC"/>
</linearGradient>
<linearGradient id="paint4_linear_125_263" x1="1309" y1="1395" x2="1785" y2="1871" gradientUnits="userSpaceOnUse">
<stop stop-color="#ECECEC"/>
<stop offset="1" stop-color="#677677"/>
</linearGradient>
</defs>
</svg>
