<svg width="3000" height="4000" viewBox="0 0 3000 4000" fill="none" xmlns="http://www.w3.org/2000/svg">
<g clip-path="url(#clip0_20_31)">
<rect width="3000" height="4000" fill="url(#paint0_linear_20_31)"/>
<path d="M3621.65 72C1499.59 72 0 1953.16 0 4004.04C1697.65 4004.04 2390.85 5178 4229.97 5178C5856.88 5178 6734 4046.48 6734 2844.23C6734 1288.39 5460.76 72 3621.65 72Z" fill="url(#paint1_linear_20_31)"/>
<path fill-rule="evenodd" clip-rule="evenodd" d="M1395.65 1755.14C1410.44 1607.66 1523.55 1475 1685 1475C1831.14 1475 1940 1573.63 1940 1706C1940 1756.93 1921.4 1807.17 1884.68 1844.82C1847.63 1882.8 1794.05 1906 1728 1906C1654.58 1906 1603.71 1882.09 1559.68 1861.09L1558.89 1860.71C1526.89 1845.45 1499.2 1832.24 1466.58 1826.32C1476.66 1898.94 1515.04 1949.17 1558.5 2001.85C1561.21 2005.14 1563.95 2008.44 1566.72 2011.78C1614.51 2069.37 1669 2135.04 1669 2234C1669 2309.95 1641.86 2379.8 1589.84 2430.65C1537.75 2481.57 1463.27 2511 1373 2511C1207.58 2511 1059 2378.22 1059 2165C1059 1922.58 1242.56 1774.39 1395.65 1755.14ZM1465.99 1755.42C1514.28 1761.82 1551.99 1779.84 1585.95 1796.06C1587.25 1796.68 1588.54 1797.3 1589.82 1797.91C1632.79 1818.41 1671.42 1836 1728 1836C1776.95 1836 1811.87 1819.2 1834.57 1795.93C1857.6 1772.33 1870 1740.07 1870 1706C1870 1618.37 1798.86 1545 1685 1545C1569.09 1545 1480.21 1639.7 1465.99 1755.42ZM1396 1825.78C1277.54 1845.1 1129 1964.51 1129 2165C1129 2341.78 1248.42 2441 1373 2441C1447.73 2441 1503.75 2416.93 1540.91 2380.6C1578.14 2344.2 1599 2293.05 1599 2234C1599 2160.84 1559.82 2113.38 1509 2051.84C1507.51 2050.04 1506.01 2048.23 1504.5 2046.4C1458.33 1990.43 1406.68 1924.87 1396 1825.78Z" fill="#ECECEC"/>
</g>
<defs>
<linearGradient id="paint0_linear_20_31" x1="1500" y1="482.558" x2="1500" y2="4000" gradientUnits="userSpaceOnUse">
<stop stop-color="#677677"/>
<stop offset="1" stop-color="#ECECEC"/>
</linearGradient>
<linearGradient id="paint1_linear_20_31" x1="3367" y1="687.985" x2="3367" y2="5178" gradientUnits="userSpaceOnUse">
<stop stop-color="#677677"/>
<stop offset="1" stop-color="#ECECEC"/>
</linearGradient>
<clipPath id="clip0_20_31">
<rect width="3000" height="4000" fill="white"/>
</clipPath>
</defs>
</svg>
