<svg width="6001" height="4000" viewBox="0 0 6001 4000" fill="none" xmlns="http://www.w3.org/2000/svg">
<g clip-path="url(#clip0_113_3717)">
<rect width="6000" height="4000" transform="translate(0.666016)" fill="#F2F2F2"/>
<rect x="3250.33" y="550" width="1900" height="700" rx="350" fill="#00CC66"/>
<circle cx="2400.33" cy="900" r="350" transform="rotate(-180 2400.33 900)" fill="#2D563C"/>
<circle cx="1200.33" cy="900.001" r="350" transform="rotate(-180 1200.33 900.001)" fill="#E2EDD1"/>
<circle cx="2400.33" cy="2000" r="350" transform="rotate(90 2400.33 2000)" fill="#D3CCC7"/>
<circle cx="3600.33" cy="2000" r="350" transform="rotate(90 3600.33 2000)" fill="#DDEEF5"/>
<circle cx="4800.33" cy="2000" r="350" transform="rotate(90 4800.33 2000)" fill="#CCD6DD"/>
<circle cx="1200.33" cy="2000" r="350" transform="rotate(90 1200.33 2000)" fill="#F2D8B9"/>
<rect x="3250.33" y="550" width="2306" height="700" rx="350" fill="#00BB66"/>
<path d="M3600.33 725C3503.73 725 3425.33 803.4 3425.33 900C3425.33 996.6 3503.73 1075 3600.33 1075C3696.93 1075 3775.33 996.6 3775.33 900C3775.33 803.4 3696.93 725 3600.33 725ZM3600.33 1040C3523.16 1040 3460.33 977.175 3460.33 900C3460.33 822.825 3523.16 760 3600.33 760C3677.51 760 3740.33 822.825 3740.33 900C3740.33 977.175 3677.51 1040 3600.33 1040ZM3680.66 822.65L3565.33 937.975L3520.01 892.825L3495.33 917.5L3565.33 987.5L3705.33 847.5L3680.66 822.65Z" fill="#D9FFE5"/>
<path d="M4007.17 885.09H4089.74V915.96H4007.17V885.09ZM4010.11 955.65H4103.46V987.5H3970.67V816H4100.27V847.85H4010.11V955.65ZM4147.29 987.5V816H4180.12L4281.3 939.48H4265.38V816H4304.58V987.5H4271.99L4170.56 864.02H4186.49V987.5H4147.29ZM4334.86 987.5L4411.3 816H4450.5L4527.19 987.5H4485.54L4422.82 836.09H4438.5L4375.53 987.5H4334.86ZM4373.08 950.75L4383.62 920.615H4471.82L4482.6 950.75H4373.08ZM4557.23 987.5V816H4641.02C4662.58 816 4678.75 820.083 4689.53 828.25C4700.47 836.417 4705.94 847.197 4705.94 860.59C4705.94 869.573 4703.74 877.413 4699.33 884.11C4694.92 890.643 4688.88 895.707 4681.2 899.3C4673.52 902.893 4664.7 904.69 4654.74 904.69L4659.39 894.645C4670.17 894.645 4679.73 896.442 4688.06 900.035C4696.39 903.465 4702.84 908.61 4707.41 915.47C4712.15 922.33 4714.52 930.742 4714.52 940.705C4714.52 955.405 4708.72 966.92 4697.12 975.25C4685.53 983.417 4668.46 987.5 4645.92 987.5H4557.23ZM4596.67 957.61H4642.98C4653.27 957.61 4661.03 955.977 4666.25 952.71C4671.64 949.28 4674.34 943.89 4674.34 936.54C4674.34 929.353 4671.64 924.045 4666.25 920.615C4661.03 917.022 4653.27 915.225 4642.98 915.225H4593.73V886.315H4636.12C4645.76 886.315 4653.11 884.682 4658.17 881.415C4663.4 877.985 4666.01 872.84 4666.01 865.98C4666.01 859.283 4663.4 854.302 4658.17 851.035C4653.11 847.605 4645.76 845.89 4636.12 845.89H4596.67V957.61ZM4756.82 987.5V816H4796.51V955.16H4882.5V987.5H4756.82ZM4953.43 885.09H5036V915.96H4953.43V885.09ZM4956.37 955.65H5049.72V987.5H4916.93V816H5046.53V847.85H4956.37V955.65ZM5093.55 987.5V816H5171.46C5190.08 816 5206.49 819.593 5220.7 826.78C5234.91 833.803 5246.02 843.685 5254.02 856.425C5262.03 869.165 5266.03 884.273 5266.03 901.75C5266.03 919.063 5262.03 934.172 5254.02 947.075C5246.02 959.815 5234.91 969.778 5220.7 976.965C5206.49 983.988 5190.08 987.5 5171.46 987.5H5093.55ZM5133.24 954.915H5169.5C5180.93 954.915 5190.81 952.792 5199.14 948.545C5207.64 944.135 5214.17 937.928 5218.74 929.925C5223.48 921.922 5225.85 912.53 5225.85 901.75C5225.85 890.807 5223.48 881.415 5218.74 873.575C5214.17 865.572 5207.64 859.447 5199.14 855.2C5190.81 850.79 5180.93 848.585 5169.5 848.585H5133.24V954.915Z" fill="white"/>
<path d="M815.544 3563L1149.26 2807H1359.86L1694.66 3563H1472.18L1210.82 2911.76H1295.06L1033.7 3563H815.544ZM998.064 3416.12L1053.14 3258.44H1422.5L1477.58 3416.12H998.064ZM2092.25 3563V3449.6L2081.45 3424.76V3221.72C2081.45 3185.72 2070.29 3157.64 2047.97 3137.48C2026.37 3117.32 1992.89 3107.24 1947.53 3107.24C1916.57 3107.24 1885.97 3112.28 1855.73 3122.36C1826.21 3131.72 1801.01 3144.68 1780.13 3161.24L1719.65 3043.52C1751.33 3021.2 1789.49 3003.92 1834.13 2991.68C1878.77 2979.44 1924.13 2973.32 1970.21 2973.32C2058.77 2973.32 2127.53 2994.2 2176.49 3035.96C2225.45 3077.72 2249.93 3142.88 2249.93 3231.44V3563H2092.25ZM1915.13 3571.64C1869.77 3571.64 1830.89 3564.08 1798.49 3548.96C1766.09 3533.12 1741.25 3511.88 1723.97 3485.24C1706.69 3458.6 1698.05 3428.72 1698.05 3395.6C1698.05 3361.04 1706.33 3330.8 1722.89 3304.88C1740.17 3278.96 1767.17 3258.8 1803.89 3244.4C1840.61 3229.28 1888.49 3221.72 1947.53 3221.72H2101.97V3320H1965.89C1926.29 3320 1898.93 3326.48 1883.81 3339.44C1869.41 3352.4 1862.21 3368.6 1862.21 3388.04C1862.21 3409.64 1870.49 3426.92 1887.05 3439.88C1904.33 3452.12 1927.73 3458.24 1957.25 3458.24C1985.33 3458.24 2010.53 3451.76 2032.85 3438.8C2055.17 3425.12 2071.37 3405.32 2081.45 3379.4L2107.37 3457.16C2095.13 3494.6 2072.81 3523.04 2040.41 3542.48C2008.01 3561.92 1966.25 3571.64 1915.13 3571.64ZM2404.57 3563V2807H2758.81C2849.53 2807 2918.65 2825 2966.17 2861C3013.69 2896.28 3037.45 2943.8 3037.45 3003.56C3037.45 3043.88 3028.09 3078.44 3009.37 3107.24C2990.65 3135.32 2965.45 3157.28 2933.77 3173.12C2902.81 3188.24 2868.97 3195.8 2832.25 3195.8L2851.69 3156.92C2894.17 3156.92 2932.33 3164.84 2966.17 3180.68C3000.01 3195.8 3026.65 3218.12 3046.09 3247.64C3066.25 3277.16 3076.33 3313.88 3076.33 3357.8C3076.33 3422.6 3051.49 3473 3001.81 3509C2952.13 3545 2878.33 3563 2780.41 3563H2404.57ZM2544.97 3452.84H2771.77C2824.33 3452.84 2864.65 3444.2 2892.73 3426.92C2920.81 3409.64 2934.85 3381.92 2934.85 3343.76C2934.85 3306.32 2920.81 3278.96 2892.73 3261.68C2864.65 3243.68 2824.33 3234.68 2771.77 3234.68H2534.17V3125.6H2743.69C2792.65 3125.6 2830.09 3116.96 2856.01 3099.68C2882.65 3082.4 2895.97 3056.48 2895.97 3021.92C2895.97 2986.64 2882.65 2960.36 2856.01 2943.08C2830.09 2925.8 2792.65 2917.16 2743.69 2917.16H2544.97V3452.84ZM3504.81 3569.48C3455.85 3569.48 3411.57 3558.68 3371.97 3537.08C3333.09 3514.76 3302.13 3482 3279.09 3438.8C3256.77 3395.6 3245.61 3341.6 3245.61 3276.8C3245.61 3212 3257.13 3158 3280.17 3114.8C3303.93 3071.6 3335.25 3039.2 3374.13 3017.6C3413.73 2996 3457.29 2985.2 3504.81 2985.2C3560.97 2985.2 3610.65 2997.44 3653.85 3021.92C3697.05 3046.4 3731.25 3080.6 3756.45 3124.52C3781.65 3167.72 3794.25 3218.48 3794.25 3276.8C3794.25 3335.12 3781.65 3386.24 3756.45 3430.16C3731.25 3474.08 3697.05 3508.28 3653.85 3532.76C3610.65 3557.24 3560.97 3569.48 3504.81 3569.48ZM3201.33 3563V2761.64H3305.01V3142.88L3294.21 3275.72L3300.69 3408.56V3563H3201.33ZM3496.17 3478.76C3532.89 3478.76 3565.65 3470.48 3594.45 3453.92C3623.97 3437.36 3647.01 3413.96 3663.57 3383.72C3680.85 3352.76 3689.49 3317.12 3689.49 3276.8C3689.49 3235.76 3680.85 3200.48 3663.57 3170.96C3647.01 3140.72 3623.97 3117.32 3594.45 3100.76C3565.65 3084.2 3532.89 3075.92 3496.17 3075.92C3460.17 3075.92 3427.41 3084.2 3397.89 3100.76C3369.09 3117.32 3346.05 3140.72 3328.77 3170.96C3312.21 3200.48 3303.93 3235.76 3303.93 3276.8C3303.93 3317.12 3312.21 3352.76 3328.77 3383.72C3346.05 3413.96 3369.09 3437.36 3397.89 3453.92C3427.41 3470.48 3460.17 3478.76 3496.17 3478.76ZM4269.06 3569.48C4212.18 3569.48 4159.62 3560.12 4111.38 3541.4C4063.14 3521.96 4021.38 3494.96 3986.1 3460.4C3950.82 3425.84 3923.1 3385.16 3902.94 3338.36C3883.5 3291.56 3873.78 3240.44 3873.78 3185C3873.78 3129.56 3883.5 3078.44 3902.94 3031.64C3923.1 2984.84 3950.82 2944.16 3986.1 2909.6C4022.1 2875.04 4064.22 2848.4 4112.46 2829.68C4160.7 2810.24 4213.26 2800.52 4270.14 2800.52C4324.86 2800.52 4376.34 2809.88 4424.58 2828.6C4472.82 2846.6 4513.5 2873.96 4546.62 2910.68L4495.86 2961.44C4464.9 2929.76 4430.7 2907.08 4393.26 2893.4C4355.82 2879 4315.5 2871.8 4272.3 2871.8C4226.94 2871.8 4184.82 2879.72 4145.94 2895.56C4107.06 2910.68 4073.22 2932.64 4044.42 2961.44C4015.62 2989.52 3992.94 3022.64 3976.38 3060.8C3960.54 3098.24 3952.62 3139.64 3952.62 3185C3952.62 3230.36 3960.54 3272.12 3976.38 3310.28C3992.94 3347.72 4015.62 3380.84 4044.42 3409.64C4073.22 3437.72 4107.06 3459.68 4145.94 3475.52C4184.82 3490.64 4226.94 3498.2 4272.3 3498.2C4315.5 3498.2 4355.82 3491 4393.26 3476.6C4430.7 3462.2 4464.9 3439.16 4495.86 3407.48L4546.62 3458.24C4513.5 3494.96 4472.82 3522.68 4424.58 3541.4C4376.34 3560.12 4324.5 3569.48 4269.06 3569.48ZM4910.31 3567.32C4855.59 3567.32 4806.63 3555.08 4763.43 3530.6C4720.95 3506.12 4687.11 3472.28 4661.91 3429.08C4637.43 3385.88 4625.19 3336.56 4625.19 3281.12C4625.19 3224.96 4637.43 3175.28 4661.91 3132.08C4687.11 3088.88 4720.95 3055.4 4763.43 3031.64C4806.63 3007.16 4855.59 2994.92 4910.31 2994.92C4955.67 2994.92 4996.71 3003.56 5033.43 3020.84C5070.87 3038.12 5101.11 3064.04 5124.15 3098.6L5084.19 3127.76C5064.03 3098.96 5038.83 3077.72 5008.59 3064.04C4978.35 3050.36 4945.59 3043.52 4910.31 3043.52C4866.39 3043.52 4826.79 3053.6 4791.51 3073.76C4756.95 3093.2 4729.59 3120.92 4709.43 3156.92C4689.99 3192.2 4680.27 3233.6 4680.27 3281.12C4680.27 3328.64 4689.99 3370.4 4709.43 3406.4C4729.59 3441.68 4756.95 3469.4 4791.51 3489.56C4826.79 3509 4866.39 3518.72 4910.31 3518.72C4945.59 3518.72 4978.35 3511.88 5008.59 3498.2C5038.83 3484.52 5064.03 3463.28 5084.19 3434.48L5124.15 3463.64C5101.11 3498.2 5070.87 3524.12 5033.43 3541.4C4996.71 3558.68 4955.67 3567.32 4910.31 3567.32Z" fill="#333333"/>
<rect x="3250.33" y="550" width="140" height="140" fill="#2D563C" fill-opacity="0.7"/>
<rect x="3390.33" y="690" width="420" height="420" stroke="#2D563C" stroke-width="7" stroke-dasharray="101 101"/>
<path fill-rule="evenodd" clip-rule="evenodd" d="M5381.33 546.5H5412.83H5416.33H5419.83H5451.33V553.5H5419.83V608.333H5412.83V553.5H5381.33V546.5ZM5276.33 546.5H5311.33V553.5H5279.83V608.333H5272.83V550V546.5H5276.33ZM5272.83 841.667V725H5279.83V841.667H5272.83ZM5272.83 1075V958.333H5279.83V1075H5272.83ZM5419.83 1253.5H5416.33H5412.83H5381.33V1246.5H5412.83V1191.67H5419.83V1246.5H5451.33V1253.5H5419.83ZM5272.83 1250V1191.67H5279.83V1246.5H5311.33V1253.5H5276.33H5272.83V1250ZM5556.33 546.5H5559.83V550V608.333H5552.83V553.5H5521.33V546.5H5556.33ZM5559.83 725V841.667H5552.83V725H5559.83ZM5412.83 841.667V725H5419.83V841.667H5412.83ZM5559.83 958.333V1075H5552.83V958.333H5559.83ZM5412.83 1075V958.333H5419.83V1075H5412.83ZM5559.83 1191.67V1250V1253.5H5556.33H5521.33V1246.5H5552.83V1191.67H5559.83Z" fill="#2D563C"/>
<rect x="3250.33" y="550" width="700" height="700" stroke="#2D563C" stroke-width="7" stroke-dasharray="101 101"/>
</g>
<defs>
<clipPath id="clip0_113_3717">
<rect width="6000" height="4000" fill="white" transform="translate(0.666016)"/>
</clipPath>
</defs>
</svg>
