<svg width="6000" height="4000" viewBox="0 0 6000 4000" fill="none" xmlns="http://www.w3.org/2000/svg">
<rect width="6000" height="4000" fill="black"/>
<g clip-path="url(#clip0_2_457)">
<path d="M436.5 620C436.5 728.524 348.524 816.5 240 816.5C131.476 816.5 43.5 728.524 43.5 620C43.5 511.476 131.476 423.5 240 423.5C348.524 423.5 436.5 511.476 436.5 620Z" stroke="#333333" stroke-width="7"/>
<path d="M336.5 620C336.5 673.296 293.295 716.5 240 716.5C186.705 716.5 143.5 673.296 143.5 620C143.5 566.705 186.705 523.5 240 523.5C293.295 523.5 336.5 566.705 336.5 620Z" stroke="#333333" stroke-width="7"/>
<path d="M63.5 480C63.5 459.842 79.8416 443.5 100 443.5H380C400.158 443.5 416.5 459.842 416.5 480V760C416.5 780.158 400.158 796.5 380 796.5H100C79.8416 796.5 63.5 780.158 63.5 760V480Z" stroke="#333333" stroke-width="7"/>
<path d="M83.5 460C83.5 439.842 99.8416 423.5 120 423.5H360C380.158 423.5 396.5 439.842 396.5 460V780C396.5 800.158 380.158 816.5 360 816.5H120C99.8416 816.5 83.5 800.158 83.5 780V460Z" stroke="#333333" stroke-width="7"/>
<path d="M43.5 500C43.5 479.842 59.8416 463.5 80 463.5H400C420.158 463.5 436.5 479.842 436.5 500V740C436.5 760.159 420.158 776.5 400 776.5H80C59.8416 776.5 43.5 760.158 43.5 740V500Z" stroke="#333333" stroke-width="7"/>
<rect x="3.5" y="383.5" width="473" height="473" stroke="#555555" stroke-width="7"/>
<path d="M0.625 380.625L479.375 859.375" stroke="#555555" stroke-width="7" stroke-miterlimit="10"/>
<path d="M479.375 380.625L0.625 859.375" stroke="#555555" stroke-width="7" stroke-miterlimit="10"/>
<path d="M320 380V860" stroke="#555555" stroke-width="7" stroke-miterlimit="10"/>
<path d="M160 380V860" stroke="#555555" stroke-width="7" stroke-miterlimit="10"/>
<path d="M480 700H0" stroke="#555555" stroke-width="7" stroke-miterlimit="10"/>
<path d="M480 540H0" stroke="#555555" stroke-width="7" stroke-miterlimit="10"/>
<path d="M0 620H480" stroke="#555555" stroke-width="7" stroke-miterlimit="10"/>
<path d="M240 380V860" stroke="#555555" stroke-width="7" stroke-miterlimit="10"/>
</g>
<path fill-rule="evenodd" clip-rule="evenodd" d="M1000 460C977.909 460 960 477.909 960 500V690C960 712.091 977.909 730 1000 730H1040V800H1000C1000 811.046 1008.95 820 1020 820H1300C1311.05 820 1320 811.046 1320 800H1280V730H1320C1342.09 730 1360 712.091 1360 690V500C1360 477.909 1342.09 460 1320 460H1000ZM980 490C980 484.477 984.477 480 990 480H1330C1335.52 480 1340 484.477 1340 490V700C1340 705.523 1335.52 710 1330 710H1280V670C1280 664.477 1275.52 660 1270 660H1050C1044.48 660 1040 664.477 1040 670V710H990C984.477 710 980 705.523 980 700V490ZM1260 680H1060V800H1260V680Z" fill="#999999"/>
<path fill-rule="evenodd" clip-rule="evenodd" d="M1960 420C1937.91 420 1920 437.909 1920 460V780C1920 802.091 1937.91 820 1960 820H2200C2222.09 820 2240 802.091 2240 780V460C2240 437.909 2222.09 420 2200 420H1960ZM1950 440C1944.48 440 1940 444.477 1940 450V790C1940 795.523 1944.48 800 1950 800H2210C2215.52 800 2220 795.523 2220 790V450C2220 444.477 2215.52 440 2210 440H1950Z" fill="#999999"/>
<path fill-rule="evenodd" clip-rule="evenodd" d="M2880 460C2880 437.909 2897.91 420 2920 420H3080C3102.09 420 3120 437.909 3120 460V780C3120 802.091 3102.09 820 3080 820H2920C2897.91 820 2880 802.091 2880 780V460ZM2900 450C2900 444.477 2904.48 440 2910 440H3090C3095.52 440 3100 444.477 3100 450V790C3100 795.523 3095.52 800 3090 800H2910C2904.48 800 2900 795.523 2900 790V450Z" fill="#999999"/>
<path d="M3033.69 665.192C3027.16 671.526 3020.02 670.526 3013.16 667.526C3005.89 664.459 2999.22 664.326 2991.56 667.526C2981.96 671.659 2976.89 670.459 2971.16 665.192C2938.62 631.659 2943.42 580.592 2980.36 578.726C2989.36 579.192 2995.62 583.659 3000.89 584.059C3008.76 582.459 3016.29 577.859 3024.69 578.459C3034.76 579.259 3042.36 583.259 3047.36 590.459C3026.56 602.926 3031.49 630.326 3050.56 637.992C3046.76 647.992 3041.82 657.926 3033.62 665.259L3033.69 665.192ZM3000.22 578.326C2999.22 563.459 3011.29 551.192 3025.16 549.992C3027.09 567.192 3009.56 579.992 3000.22 578.326Z" fill="#999999"/>
<path fill-rule="evenodd" clip-rule="evenodd" d="M3800 460C3800 437.909 3817.91 420 3840 420H4000C4022.09 420 4040 437.909 4040 460V780C4040 802.091 4022.09 820 4000 820H3840C3817.91 820 3800 802.091 3800 780V460ZM3820 450C3820 444.477 3824.48 440 3830 440H4010C4015.52 440 4020 444.477 4020 450V790C4020 795.523 4015.52 800 4010 800H3830C3824.48 800 3820 795.523 3820 790V450Z" fill="#999999"/>
<path d="M3957.33 583.2L3969.6 562C3970.67 559.933 3969.87 557.4 3967.87 556.333C3965.93 555.333 3963.53 555.933 3962.33 557.8L3949.8 579.4C3930.73 571.333 3909.27 571.333 3890.2 579.4L3877.67 557.8C3876.4 555.867 3873.8 555.267 3871.87 556.467C3870 557.667 3869.4 560.067 3870.4 562L3882.67 583.2C3862 595 3848.53 616.267 3846.67 640H3993.33C3991.47 616.267 3978 595 3957.33 583.2ZM3886.67 621.667C3882.07 621.667 3878.33 617.933 3878.33 613.333C3878.33 608.733 3882.07 605 3886.67 605C3891.27 605 3895 608.733 3895 613.333C3895 617.933 3891.27 621.667 3886.67 621.667ZM3953.33 621.667C3948.73 621.667 3945 617.933 3945 613.333C3945 608.733 3948.73 605 3953.33 605C3957.93 605 3961.67 608.733 3961.67 613.333C3961.67 617.933 3957.93 621.667 3953.33 621.667Z" fill="#999999"/>
<path fill-rule="evenodd" clip-rule="evenodd" d="M4760 460C4760 437.909 4777.91 420 4800 420H4880C4902.09 420 4920 437.909 4920 460V493.414C4943.3 501.651 4960 523.876 4960 550V690C4960 716.124 4943.3 738.349 4920 746.586V780C4920 802.091 4902.09 820 4880 820H4800C4777.91 820 4760 802.091 4760 780V746.586C4736.7 738.349 4720 716.124 4720 690V550C4720 523.876 4736.7 501.651 4760 493.414V460ZM4790 440C4784.48 440 4780 444.477 4780 450V490H4900V450C4900 444.477 4895.52 440 4890 440H4790ZM4780 750H4900V790C4900 795.523 4895.52 800 4890 800H4790C4784.48 800 4780 795.523 4780 790V750ZM4780 510C4757.91 510 4740 527.909 4740 550V690C4740 712.091 4757.91 730 4780 730H4900C4922.09 730 4940 712.091 4940 690V550C4940 527.909 4922.09 510 4900 510H4780Z" fill="#999999"/>
<path fill-rule="evenodd" clip-rule="evenodd" d="M5920 420H5900V480H5920L5920 560C5920 609.62 5897.41 653.965 5861.96 683.312C5873.39 664.935 5880 643.239 5880 620C5880 553.726 5826.27 500 5760 500C5660.59 500 5580 580.589 5580 680V760H5560V820H5620V760H5600V680C5600 630.38 5622.59 586.035 5658.04 556.688C5646.61 575.066 5640 596.761 5640 620C5640 686.274 5693.73 740 5760 740C5859.41 740 5940 659.411 5940 560L5940 480H5960V420H5940V440H5920V420ZM5760 720C5815.23 720 5860 675.229 5860 620C5860 564.772 5815.23 520 5760 520C5704.77 520 5660 564.772 5660 620C5660 675.229 5704.77 720 5760 720Z" fill="#999999"/>
<path fill-rule="evenodd" clip-rule="evenodd" d="M80 1360C57.9086 1360 40 1377.91 40 1400V1620C40 1642.09 57.9086 1660 80 1660H180C180 1693.14 153.137 1720 120 1720V1740H360V1720C326.863 1720 300 1693.14 300 1660H400C422.091 1660 440 1642.09 440 1620V1400C440 1377.91 422.091 1360 400 1360H80ZM172.917 1720C189.525 1705.34 200 1683.89 200 1660H280C280 1683.89 290.475 1705.34 307.084 1720H172.917ZM70 1380C64.4772 1380 60 1384.48 60 1390V1590C60 1595.52 64.4772 1600 70 1600H410C415.523 1600 420 1595.52 420 1590V1390C420 1384.48 415.523 1380 410 1380H70Z" fill="#999999"/>
<path fill-rule="evenodd" clip-rule="evenodd" d="M960 1620C960 1631.05 968.954 1640 980 1640H1340C1351.05 1640 1360 1631.05 1360 1620H1310V1440C1310 1428.95 1301.05 1420 1290 1420H1030C1018.95 1420 1010 1428.95 1010 1440V1620H960ZM1040 1440C1034.48 1440 1030 1444.48 1030 1450V1610H1290V1450C1290 1444.48 1285.52 1440 1280 1440H1040Z" fill="#999999"/>
<path fill-rule="evenodd" clip-rule="evenodd" d="M2180 1380H1980C1946.86 1380 1920 1406.86 1920 1440V1640C1920 1673.14 1946.86 1700 1980 1700H2180C2213.14 1700 2240 1673.14 2240 1640V1440C2240 1406.86 2213.14 1380 2180 1380ZM1980 1360C1935.82 1360 1900 1395.82 1900 1440V1640C1900 1684.18 1935.82 1720 1980 1720H2180C2224.18 1720 2260 1684.18 2260 1640V1440C2260 1395.82 2224.18 1360 2180 1360H1980Z" fill="#999999"/>
<path d="M2113.69 1585.19C2107.16 1591.53 2100.02 1590.53 2093.16 1587.53C2085.89 1584.46 2079.22 1584.33 2071.56 1587.53C2061.96 1591.66 2056.89 1590.46 2051.16 1585.19C2018.62 1551.66 2023.42 1500.59 2060.36 1498.73C2069.36 1499.19 2075.62 1503.66 2080.89 1504.06C2088.76 1502.46 2096.29 1497.86 2104.69 1498.46C2114.76 1499.26 2122.36 1503.26 2127.36 1510.46C2106.56 1522.93 2111.49 1550.33 2130.56 1557.99C2126.76 1567.99 2121.82 1577.93 2113.62 1585.26L2113.69 1585.19ZM2080.22 1498.33C2079.22 1483.46 2091.29 1471.19 2105.16 1469.99C2107.09 1487.19 2089.56 1499.99 2080.22 1498.33Z" fill="#999999"/>
<path fill-rule="evenodd" clip-rule="evenodd" d="M2920 1340C2897.91 1340 2880 1357.91 2880 1380L2880 1700C2880 1722.09 2897.91 1740 2920 1740H3080C3102.09 1740 3120 1722.09 3120 1700V1380C3120 1357.91 3102.09 1340 3080 1340H2920ZM2900 1710C2900 1715.52 2904.48 1720 2910 1720H3090C3095.52 1720 3100 1715.52 3100 1710V1370C3100 1364.48 3095.52 1360 3090 1360L3050 1360V1370C3050 1375.52 3045.52 1380 3040 1380H2960C2954.48 1380 2950 1375.52 2950 1370V1360L2910 1360C2904.48 1360 2900 1364.48 2900 1370V1710Z" fill="#999999"/>
<path fill-rule="evenodd" clip-rule="evenodd" d="M3800 1380C3800 1357.91 3817.91 1340 3840 1340H4000C4022.09 1340 4040 1357.91 4040 1380V1700C4040 1722.09 4022.09 1740 4000 1740H3840C3817.91 1740 3800 1722.09 3800 1700V1380ZM3820 1370C3820 1364.48 3824.48 1360 3830 1360H4010C4015.52 1360 4020 1364.48 4020 1370V1710C4020 1715.52 4015.52 1720 4010 1720H3830C3824.48 1720 3820 1715.52 3820 1710V1370Z" fill="#999999"/>
<path fill-rule="evenodd" clip-rule="evenodd" d="M4800 1340C4777.91 1340 4760 1357.91 4760 1380V1425.09C4723.73 1450.39 4700 1492.43 4700 1540C4700 1587.58 4723.73 1629.61 4760 1654.91V1700C4760 1722.09 4777.91 1740 4800 1740H4880C4902.09 1740 4920 1722.09 4920 1700V1654.91C4956.27 1629.61 4980 1587.58 4980 1540C4980 1492.43 4956.27 1450.39 4920 1425.09V1380C4920 1357.91 4902.09 1340 4880 1340H4800ZM4900 1413.47V1370C4900 1364.48 4895.52 1360 4890 1360H4790C4784.48 1360 4780 1364.48 4780 1370V1413.47C4798.19 1404.83 4818.53 1400 4840 1400C4861.47 1400 4881.81 1404.83 4900 1413.47ZM4900 1666.53C4881.81 1675.17 4861.47 1680 4840 1680C4818.53 1680 4798.19 1675.17 4780 1666.53V1710C4780 1715.52 4784.48 1720 4790 1720H4890C4895.52 1720 4900 1715.52 4900 1710V1666.53ZM4960 1540C4960 1606.27 4906.27 1660 4840 1660C4773.73 1660 4720 1606.27 4720 1540C4720 1473.73 4773.73 1420 4840 1420C4906.27 1420 4960 1473.73 4960 1540Z" fill="#999999"/>
<path d="M5920 1520C5920 1431.63 5848.37 1360 5760 1360C5671.64 1360 5600 1431.63 5600 1520V1530H5580L5580 1520C5580 1420.59 5660.59 1340 5760 1340C5859.41 1340 5940 1420.59 5940 1520V1530H5920V1520Z" fill="#999999"/>
<path fill-rule="evenodd" clip-rule="evenodd" d="M5630 1540C5602.39 1540 5580 1562.39 5580 1590V1690C5580 1717.61 5602.39 1740 5630 1740C5657.62 1740 5680 1717.61 5680 1690V1590C5680 1562.39 5657.62 1540 5630 1540ZM5630 1560C5613.43 1560 5600 1573.43 5600 1590V1690C5600 1706.57 5613.43 1720 5630 1720C5646.57 1720 5660 1706.57 5660 1690V1590C5660 1573.43 5646.57 1560 5630 1560Z" fill="#999999"/>
<path fill-rule="evenodd" clip-rule="evenodd" d="M5890 1540C5862.39 1540 5840 1562.39 5840 1590V1690C5840 1717.61 5862.39 1740 5890 1740C5917.62 1740 5940 1717.61 5940 1690V1590C5940 1562.39 5917.62 1540 5890 1540ZM5890 1560C5873.43 1560 5860 1573.43 5860 1590V1690C5860 1706.57 5873.43 1720 5890 1720C5906.57 1720 5920 1706.57 5920 1690V1590C5920 1573.43 5906.57 1560 5890 1560Z" fill="#999999"/>
<path fill-rule="evenodd" clip-rule="evenodd" d="M160 2260C137.909 2260 120 2277.91 120 2300V2620C120 2642.09 137.909 2660 160 2660H320C342.091 2660 360 2642.09 360 2620V2300C360 2277.91 342.091 2260 320 2260H160ZM150 2280C144.477 2280 140 2284.48 140 2290V2350C140 2355.52 144.477 2360 150 2360H210C215.523 2360 220 2355.52 220 2350V2290C220 2284.48 215.523 2280 210 2280H150Z" fill="#999999"/>
<path fill-rule="evenodd" clip-rule="evenodd" d="M1160 2640C1259.41 2640 1340 2559.41 1340 2460C1340 2360.59 1259.41 2280 1160 2280C1060.59 2280 980 2360.59 980 2460C980 2559.41 1060.59 2640 1160 2640ZM1160 2660C1270.46 2660 1360 2570.46 1360 2460C1360 2349.54 1270.46 2260 1160 2260C1049.54 2260 960 2349.54 960 2460C960 2570.46 1049.54 2660 1160 2660Z" fill="#999999"/>
<path d="M1053.93 2551.92L1251.92 2353.93L1266.07 2368.08L1068.08 2566.07L1053.93 2551.92Z" fill="#999999"/>
<path d="M1240 2560C1240 2571.05 1231.05 2580 1220 2580C1208.95 2580 1200 2571.05 1200 2560C1200 2548.95 1208.95 2540 1220 2540C1231.05 2540 1240 2548.95 1240 2560Z" fill="#999999"/>
<path d="M1120 2360C1120 2371.05 1111.05 2380 1100 2380C1088.95 2380 1080 2371.05 1080 2360C1080 2348.95 1088.95 2340 1100 2340C1111.05 2340 1120 2348.95 1120 2360Z" fill="#999999"/>
<path fill-rule="evenodd" clip-rule="evenodd" d="M2260 2600C2260 2622.09 2242.09 2640 2220 2640L1940 2640C1917.91 2640 1900 2622.09 1900 2600L1900 2320C1900 2297.91 1917.91 2280 1940 2280L2220 2280C2242.09 2280 2260 2297.91 2260 2320L2260 2600ZM2220 2620L1940 2620C1928.95 2620 1920 2611.05 1920 2600L1920 2320C1920 2308.95 1928.95 2300 1940 2300L2030 2300L2030 2360C2030 2371.05 2038.95 2380 2050 2380L2110 2380C2121.05 2380 2130 2371.05 2130 2360L2130 2300L2220 2300C2231.05 2300 2240 2308.95 2240 2320L2240 2600C2240 2611.05 2231.05 2620 2220 2620Z" fill="#999999"/>
<path d="M2080 2460H2200V2480H2080V2460Z" fill="#999999"/>
<path d="M2080 2500H2160V2520H2080V2500Z" fill="#999999"/>
<path d="M2080 2540H2200V2560H2080V2540Z" fill="#999999"/>
<path fill-rule="evenodd" clip-rule="evenodd" d="M3090 2350V2360H3160C3182.09 2360 3200 2377.91 3200 2400V2620C3200 2642.09 3182.09 2660 3160 2660H2840C2817.91 2660 2800 2642.09 2800 2620V2400C2800 2377.91 2817.91 2360 2840 2360H2910V2350C2910 2300.29 2950.29 2260 3000 2260C3049.71 2260 3090 2300.29 3090 2350ZM2830 2380C2824.48 2380 2820 2384.48 2820 2390V2630C2820 2635.52 2824.48 2640 2830 2640H3170C3175.52 2640 3180 2635.52 3180 2630V2390C3180 2384.48 3175.52 2380 3170 2380C3164.48 2380 2835.52 2380 2830 2380ZM3070 2350V2360H2930V2350C2930 2311.34 2961.34 2280 3000 2280C3038.66 2280 3070 2311.34 3070 2350Z" fill="#999999"/>
<path d="M3000 2470C3038.66 2470 3070 2438.66 3070 2400H3090C3090 2449.71 3049.71 2490 3000 2490C2950.29 2490 2910 2449.71 2910 2400H2930C2930 2438.66 2961.34 2470 3000 2470Z" fill="#999999"/>
<path fill-rule="evenodd" clip-rule="evenodd" d="M3930 2520H3964.63C3973.7 2520 3981.62 2526.09 3983.82 2534.88C3989.63 2558.06 4000 2602 4000 2620C4000 2640 3978.35 2660 3950 2660C3870 2660 3820 2560 3820 2460C3820 2360 3870 2260 3950 2260C3980 2260 4000 2280 4000 2300C4000 2314.52 3989.46 2360.65 3983.68 2384.85C3981.55 2393.78 3973.56 2400 3964.38 2400H3930C3930 2400 3920 2425 3920 2460C3920 2495 3930 2520 3930 2520ZM3915.58 2540H3964.49C3967.35 2551.46 3971.29 2567.8 3974.5 2583.41C3977.87 2599.81 3980 2613.35 3980 2620C3980 2625.78 3970.77 2640 3950 2640C3919.46 2640 3892.5 2621.12 3872.15 2587.21C3851.82 2553.32 3840 2507.01 3840 2460C3840 2412.99 3851.82 2366.68 3872.15 2332.79C3892.5 2298.88 3919.46 2280 3950 2280C3971.96 2280 3980 2293.83 3980 2300C3980 2304.81 3977.9 2317.79 3974.42 2334.78C3971.14 2350.75 3967.15 2367.99 3964.28 2380H3915.58C3915.58 2380 3900 2415 3900 2460C3900 2505 3915.58 2540 3915.58 2540Z" fill="#999999"/>
<path fill-rule="evenodd" clip-rule="evenodd" d="M4660 2580L4780 2460L4660 2340V2580ZM5020 2340L4900 2460L5020 2580V2340ZM4640 2340C4640 2334.13 4641.26 2328.56 4643.54 2323.53C4646.36 2317.3 4650.73 2311.91 4656.16 2307.88C4662.82 2302.93 4671.07 2300 4680 2300H5000C5008.93 2300 5017.18 2302.93 5023.84 2307.88C5029.27 2311.92 5033.65 2317.3 5036.47 2323.54C5038.74 2328.56 5040 2334.13 5040 2340V2580C5040 2585.87 5038.74 2591.44 5036.46 2596.46C5033.64 2602.7 5029.27 2608.08 5023.83 2612.12C5017.18 2617.07 5008.93 2620 5000 2620H4680C4671.07 2620 4662.82 2617.07 4656.16 2612.12C4650.73 2608.08 4646.35 2602.7 4643.53 2596.46C4641.26 2591.44 4640 2585.87 4640 2580V2340ZM4795 2475L4670 2600H5010L4885 2475L4860 2500C4855 2505 4850 2510 4840 2510C4830 2510 4825 2505 4820 2500L4795 2475ZM4840 2490L4670 2320H5010L4840 2490Z" fill="#999999"/>
<path fill-rule="evenodd" clip-rule="evenodd" d="M5760 2620C5870.46 2620 5960 2548.37 5960 2460C5960 2371.63 5870.46 2300 5760 2300C5649.54 2300 5560 2371.63 5560 2460C5560 2519.22 5600.22 2570.93 5660 2598.6V2660L5760 2620ZM5760 2600C5859.41 2600 5940 2537.32 5940 2460C5940 2382.68 5859.41 2320 5760 2320C5660.59 2320 5580 2382.68 5580 2460C5580 2514.97 5620.73 2562.54 5680 2585.45V2630L5760 2600Z" fill="#999999"/>
<path d="M5700 2460C5700 2471.05 5691.05 2480 5680 2480C5668.95 2480 5660 2471.05 5660 2460C5660 2448.95 5668.95 2440 5680 2440C5691.05 2440 5700 2448.95 5700 2460Z" fill="#999999"/>
<path d="M5780 2460C5780 2471.05 5771.05 2480 5760 2480C5748.95 2480 5740 2471.05 5740 2460C5740 2448.95 5748.95 2440 5760 2440C5771.05 2440 5780 2448.95 5780 2460Z" fill="#999999"/>
<path d="M5860 2460C5860 2471.05 5851.05 2480 5840 2480C5828.95 2480 5820 2471.05 5820 2460C5820 2448.95 5828.95 2440 5840 2440C5851.05 2440 5860 2448.95 5860 2460Z" fill="#999999"/>
<path d="M340 3300H140V3320H340V3300Z" fill="#999999"/>
<path d="M140 3340H340V3360H140V3340Z" fill="#999999"/>
<path d="M340 3380H140V3400H340V3380Z" fill="#999999"/>
<path d="M140 3420H340V3440H140V3420Z" fill="#999999"/>
<path d="M300 3460H140V3480H300V3460Z" fill="#999999"/>
<path fill-rule="evenodd" clip-rule="evenodd" d="M80 3220C80 3197.91 97.9086 3180 120 3180H320L400 3260V3540C400 3562.09 382.091 3580 360 3580H120C97.9086 3580 80 3562.09 80 3540V3220ZM100 3210C100 3204.48 104.477 3200 110 3200H300V3240C300 3262.09 317.909 3280 340 3280H380V3550C380 3555.52 375.523 3560 370 3560H110C104.477 3560 100 3555.52 100 3550V3210Z" fill="#999999"/>
<path d="M340 3300H140V3320H340V3300Z" fill="#999999"/>
<path d="M140 3340H340V3360H140V3340Z" fill="#999999"/>
<path d="M340 3380H140V3400H340V3380Z" fill="#999999"/>
<path d="M140 3420H340V3440H140V3420Z" fill="#999999"/>
<path d="M300 3460H140V3480H300V3460Z" fill="#999999"/>
<path fill-rule="evenodd" clip-rule="evenodd" d="M1160 3360C1196.73 3360 1230 3326.22 1230 3280C1230 3233.78 1196.73 3200 1160 3200C1123.27 3200 1090 3233.78 1090 3280C1090 3326.22 1123.27 3360 1160 3360ZM1160 3380C1209.71 3380 1250 3335.23 1250 3280C1250 3224.77 1209.71 3180 1160 3180C1110.29 3180 1070 3224.77 1070 3280C1070 3335.23 1110.29 3380 1160 3380Z" fill="#999999"/>
<path fill-rule="evenodd" clip-rule="evenodd" d="M1294.25 3538.69C1299.36 3534.86 1300 3532.14 1300 3530C1300 3503.31 1284.83 3478.76 1258.44 3460.07C1232.02 3441.36 1196.12 3430 1160 3430C1123.88 3430 1087.98 3441.36 1061.56 3460.07C1035.17 3478.76 1020 3503.31 1020 3530C1020 3532.14 1020.64 3534.86 1025.75 3538.69C1031.42 3542.94 1040.97 3547.13 1054.85 3550.6C1082.4 3557.49 1120.41 3560 1160 3560C1199.59 3560 1237.6 3557.49 1265.15 3550.6C1279.03 3547.13 1288.58 3542.94 1294.25 3538.69ZM1160 3580C1240 3580 1320 3570 1320 3530C1320 3460 1240 3410 1160 3410C1080 3410 1000 3460 1000 3530C1000 3570 1080 3580 1160 3580Z" fill="#999999"/>
<path fill-rule="evenodd" clip-rule="evenodd" d="M2080 3340C2100.61 3340 2120 3321.39 2120 3295C2120 3268.61 2100.61 3250 2080 3250C2059.39 3250 2040 3268.61 2040 3295C2040 3321.39 2059.39 3340 2080 3340ZM2080 3360C2113.14 3360 2140 3330.9 2140 3295C2140 3259.1 2113.14 3230 2080 3230C2046.86 3230 2020 3259.1 2020 3295C2020 3330.9 2046.86 3360 2080 3360Z" fill="#999999"/>
<path fill-rule="evenodd" clip-rule="evenodd" d="M2159.9 3462.38C2159.95 3461.89 2160 3461.12 2160 3460C2160 3433.83 2131.96 3400 2080 3400C2028.04 3400 2000 3433.83 2000 3460C2000 3461.12 2000.05 3461.89 2000.1 3462.38C2000.65 3462.7 2001.58 3463.16 2003.08 3463.7C2013.04 3467.32 2034.57 3470 2080 3470C2125.43 3470 2146.96 3467.32 2156.92 3463.7C2158.42 3463.16 2159.35 3462.7 2159.9 3462.38ZM2080 3490C2170 3490 2180 3480 2180 3460C2180 3420 2140 3380 2080 3380C2020 3380 1980 3420 1980 3460C1980 3480 1990 3490 2080 3490Z" fill="#999999"/>
<g clip-path="url(#clip1_2_457)">
<path fill-rule="evenodd" clip-rule="evenodd" d="M3000 3340C3020.61 3340 3040 3321.39 3040 3295C3040 3268.61 3020.61 3250 3000 3250C2979.39 3250 2960 3268.61 2960 3295C2960 3321.39 2979.39 3340 3000 3340ZM3000 3360C3033.14 3360 3060 3330.9 3060 3295C3060 3259.1 3033.14 3230 3000 3230C2966.86 3230 2940 3259.1 2940 3295C2940 3330.9 2966.86 3360 3000 3360Z" fill="#999999"/>
<path fill-rule="evenodd" clip-rule="evenodd" d="M2855 3350C2872.73 3350 2890 3333.77 2890 3310C2890 3286.24 2872.73 3270 2855 3270C2837.27 3270 2820 3286.24 2820 3310C2820 3333.77 2837.27 3350 2855 3350ZM2855 3370C2885.38 3370 2910 3343.14 2910 3310C2910 3276.86 2885.38 3250 2855 3250C2824.62 3250 2800 3276.86 2800 3310C2800 3343.14 2824.62 3370 2855 3370Z" fill="#999999"/>
<path fill-rule="evenodd" clip-rule="evenodd" d="M3145 3350C3162.73 3350 3180 3333.77 3180 3310C3180 3286.24 3162.73 3270 3145 3270C3127.27 3270 3110 3286.24 3110 3310C3110 3333.77 3127.27 3350 3145 3350ZM3145 3370C3175.38 3370 3200 3343.14 3200 3310C3200 3276.86 3175.38 3250 3145 3250C3114.62 3250 3090 3276.86 3090 3310C3090 3343.14 3114.62 3370 3145 3370Z" fill="#999999"/>
<path fill-rule="evenodd" clip-rule="evenodd" d="M3109.77 3489.24C3119.77 3489.75 3131.43 3490 3145 3490C3230.5 3490 3240 3480 3240 3460C3240 3420 3202 3380 3145 3380C3123.94 3380 3105.47 3385.46 3090.55 3394.37C3095.52 3399.15 3099.95 3404.32 3103.77 3409.8C3114.96 3403.77 3128.79 3400 3145 3400C3192.94 3400 3220 3432.93 3220 3460C3220 3461.31 3219.93 3462.17 3219.87 3462.69C3219.4 3462.97 3218.62 3463.36 3217.41 3463.82C3208.31 3467.31 3188.19 3470 3145 3470C3135.3 3470 3126.77 3469.86 3119.26 3469.61C3118.49 3474.1 3116.96 3478.98 3113.99 3483.73C3112.73 3485.74 3111.32 3487.57 3109.77 3489.24Z" fill="#999999"/>
<path fill-rule="evenodd" clip-rule="evenodd" d="M2909.45 3394.37C2894.53 3385.46 2876.06 3380 2855 3380C2798 3380 2760 3420 2760 3460C2760 3480 2769.5 3490 2855 3490C2868.57 3490 2880.23 3489.75 2890.23 3489.24C2888.68 3487.57 2887.27 3485.74 2886.01 3483.73C2883.04 3478.98 2881.51 3474.1 2880.74 3469.61C2873.23 3469.86 2864.7 3470 2855 3470C2811.81 3470 2791.69 3467.31 2782.59 3463.82C2781.38 3463.36 2780.6 3462.97 2780.13 3462.69C2780.07 3462.17 2780 3461.31 2780 3460C2780 3432.93 2807.06 3400 2855 3400C2871.21 3400 2885.04 3403.77 2896.23 3409.8C2900.05 3404.32 2904.48 3399.15 2909.45 3394.37Z" fill="#999999"/>
<path fill-rule="evenodd" clip-rule="evenodd" d="M3079.9 3462.38C3079.95 3461.89 3080 3461.12 3080 3460C3080 3433.83 3051.96 3400 3000 3400C2948.04 3400 2920 3433.83 2920 3460C2920 3461.12 2920.05 3461.89 2920.1 3462.38C2920.65 3462.7 2921.58 3463.16 2923.08 3463.7C2933.04 3467.32 2954.57 3470 3000 3470C3045.43 3470 3066.96 3467.32 3076.92 3463.7C3078.42 3463.16 3079.35 3462.7 3079.9 3462.38ZM3000 3490C3090 3490 3100 3480 3100 3460C3100 3420 3060 3380 3000 3380C2940 3380 2900 3420 2900 3460C2900 3480 2910 3490 3000 3490Z" fill="#999999"/>
</g>
<defs>
<clipPath id="clip0_2_457">
<rect width="480" height="480" fill="white" transform="translate(0 380)"/>
</clipPath>
<clipPath id="clip1_2_457">
<rect width="480" height="480" fill="white" transform="translate(2760 3140)"/>
</clipPath>
</defs>
</svg>
