<svg width="6000" height="4000" viewBox="0 0 6000 4000" fill="none" xmlns="http://www.w3.org/2000/svg">
<rect width="6000" height="4000" fill="black"/>
<path d="M2338 1735C2191.72 1735 2073 1854.25 2073 2000H2103.74C2103.74 1870.68 2208.68 1769.45 2338 1769.45C2412.73 1769.45 2465.73 1809.2 2465.73 1818.74C2465.73 1825.63 2448.77 1834.64 2424.92 1847.36C2509.72 1895.59 2575.44 1940.64 2603 1968.2C2596.11 1903.54 2576.5 1830.4 2550.53 1771.04C2531.98 1783.76 2517.67 1793.83 2509.72 1793.83C2497 1793.83 2447.18 1735 2338 1735ZM2338 2265C2484.28 2265 2603 2145.75 2603 2000H2572.26C2572.26 2129.32 2467.32 2230.55 2338 2230.55C2263.27 2230.55 2210.27 2190.8 2210.27 2181.26C2210.27 2174.37 2227.23 2165.36 2251.08 2152.64C2166.28 2104.41 2100.56 2059.36 2073 2031.8C2079.89 2096.46 2099.5 2169.6 2125.47 2228.96C2144.02 2216.24 2158.33 2206.17 2166.28 2206.17C2179 2206.17 2228.82 2265 2338 2265Z" fill="#F2F2F2"/>
<path d="M3915 2000C3915 1853.72 3795.75 1735 3650 1735C3503.72 1735 3385 1853.72 3385 2000C3385 2073.14 3414.68 2139.39 3462.38 2187.62L3484.11 2165.89C3441.71 2123.49 3415.74 2064.66 3415.74 2000C3415.74 1870.68 3520.68 1765.74 3650 1765.74C3779.32 1765.74 3880.55 1870.68 3880.55 2000C3880.55 2074.73 3840.8 2127.73 3831.26 2127.73C3824.37 2127.73 3815.36 2110.77 3802.64 2086.92C3754.41 2171.72 3709.36 2237.44 3681.8 2265C3746.46 2258.11 3819.6 2238.5 3878.96 2212.53C3866.24 2193.98 3856.17 2179.67 3856.17 2171.72C3856.17 2159 3915 2109.18 3915 2000Z" fill="#F2F2F2"/>
<path d="M5196.26 2000C5196.26 2129.32 5091.32 2234.26 4962 2234.26C4832.68 2234.26 4731.45 2129.32 4731.45 2000C4731.45 1925.27 4771.2 1872.27 4780.74 1872.27C4787.63 1872.27 4796.64 1889.23 4809.36 1913.08C4877.73 1793.3 4913.77 1763.62 4972.6 1763.62C5086.02 1763.62 5196.26 1865.91 5196.26 2000ZM4933.38 2159.53C4951.4 2164.3 4978.96 2158.47 4990.09 2142.57C5001.75 2126.14 5009.7 2028.09 5088.14 1865.38C5091.32 1859.02 5089.73 1845.24 5067.47 1835.17C4995.39 1960.25 4968.89 2064.66 4958.82 2106.53C4940.27 2069.43 4904.23 2019.61 4899.99 1981.98C4874.02 1985.16 4859.71 1995.23 4859.71 2009.01C4859.71 2038.69 4918.01 2109.71 4933.38 2159.53ZM5227 2000.53C5227 1853.72 5108.28 1735 4962 1735C4880.91 1735 4792.4 1761.5 4733.04 1787.47C4745.76 1806.02 4755.83 1820.33 4755.83 1828.28C4755.83 1841 4697 1890.82 4697 2000C4697 2146.28 4816.25 2265 4962 2265C5108.28 2265 5227 2146.28 5227 2000.53Z" fill="#F2F2F2"/>
<path d="M1344 2000C1344 2175.63 1201.63 2318 1026 2318C850.373 2318 708 2175.63 708 2000C708 1824.37 850.373 1682 1026 1682C1201.63 1682 1344 1824.37 1344 2000Z" fill="url(#paint0_linear_17_6441)" stroke="#333333" stroke-width="7"/>
<path d="M761 2000C761 2146.28 880.25 2265 1026 2265C1172.28 2265 1291 2146.28 1291 2000C1291 1926.86 1261.32 1860.61 1213.62 1812.38L1191.89 1834.11C1234.29 1876.51 1260.26 1935.34 1260.26 2000C1260.26 2129.32 1155.32 2234.26 1026 2234.26C896.68 2234.26 795.45 2129.32 795.45 2000C795.45 1925.27 835.2 1872.27 844.74 1872.27C851.63 1872.27 860.64 1889.23 873.36 1913.08C921.59 1828.28 966.64 1762.56 994.2 1735C929.54 1741.89 856.4 1761.5 797.04 1787.47C809.76 1806.02 819.83 1820.33 819.83 1828.28C819.83 1841 761 1890.82 761 2000Z" fill="#F2F2F2"/>
<path d="M709.5 1683.5L1342.5 2316.5" stroke="#555555" stroke-width="7" stroke-miterlimit="10"/>
<path d="M1340.03 1681.03L707.025 2314.03L711.975 2318.97L1344.97 1685.97L1340.03 1681.03Z" fill="#555555"/>
<path d="M578 2000H1474" stroke="#555555" stroke-width="7" stroke-miterlimit="10"/>
<path d="M1026 1552L1026 2448" stroke="#555555" stroke-width="7" stroke-miterlimit="10"/>
<defs>
<linearGradient id="paint0_linear_17_6441" x1="1026" y1="1682" x2="1026" y2="2318" gradientUnits="userSpaceOnUse">
<stop stop-opacity="0"/>
<stop offset="1" stop-color="#555555"/>
</linearGradient>
</defs>
</svg>
