<svg width="4000" height="4000" viewBox="0 0 4000 4000" fill="none" xmlns="http://www.w3.org/2000/svg">
<rect width="4000" height="4000" fill="black"/>
<g clip-path="url(#clip0_9_214)">
<path d="M2492.5 2000C2492.5 2272 2272 2492.5 2000 2492.5C1728 2492.5 1507.5 2272 1507.5 2000C1507.5 1728 1728 1507.5 2000 1507.5C2272 1507.5 2492.5 1728 2492.5 2000Z" stroke="#333333" stroke-width="15"/>
<rect x="807.5" y="807.5" width="2385" height="2385" stroke="#333333" stroke-width="15"/>
<path d="M2400 800V3200" stroke="#333333" stroke-width="15" stroke-miterlimit="10"/>
<path d="M1600 800V3200" stroke="#333333" stroke-width="15" stroke-miterlimit="10"/>
<path d="M2000 800V3200" stroke="#333333" stroke-width="15" stroke-miterlimit="10"/>
</g>
<path fill-rule="evenodd" clip-rule="evenodd" d="M1600 1200C1600 1089.54 1689.54 1000 1800 1000H2200C2310.46 1000 2400 1089.54 2400 1200V1367.07C2516.52 1408.25 2600 1519.38 2600 1650V2350C2600 2480.62 2516.52 2591.75 2400 2632.93V2800C2400 2910.46 2310.46 3000 2200 3000H1800C1689.54 3000 1600 2910.46 1600 2800V2632.93C1483.48 2591.75 1400 2480.62 1400 2350V1650C1400 1519.38 1483.48 1408.25 1600 1367.07V1200ZM1750 1100C1722.39 1100 1700 1122.39 1700 1150V1350H2300V1150C2300 1122.39 2277.61 1100 2250 1100H1750ZM1700 2650H2300V2850C2300 2877.61 2277.61 2900 2250 2900H1750C1722.39 2900 1700 2877.61 1700 2850V2650ZM1700 1450C1589.54 1450 1500 1539.54 1500 1650V2350C1500 2460.46 1589.54 2550 1700 2550H2300C2410.46 2550 2500 2460.46 2500 2350V1650C2500 1539.54 2410.46 1450 2300 1450H1700Z" fill="#555555"/>
<circle cx="1700" cy="2350" r="300" stroke="#DADADA" stroke-width="15"/>
<circle cx="1700" cy="2350" r="200" stroke="#DADADA" stroke-width="15"/>
<circle cx="2200" cy="1200" r="200" stroke="#DADADA" stroke-width="15"/>
<circle cx="2250" cy="1150" r="50" stroke="#DADADA" stroke-width="15"/>
<defs>
<clipPath id="clip0_9_214">
<rect width="2400" height="2400" fill="white" transform="translate(800 800)"/>
</clipPath>
</defs>
</svg>
