<svg width="6000" height="4000" viewBox="0 0 6000 4000" fill="none" xmlns="http://www.w3.org/2000/svg">
<rect width="6000" height="4000" fill="black"/>
<path d="M1199.5 1683.5L1832.5 2316.5" stroke="#333333" stroke-width="7" stroke-miterlimit="10"/>
<path d="M1832.5 1683.5L1199.5 2316.5" stroke="#333333" stroke-width="7" stroke-miterlimit="10"/>
<path d="M1068 2000H1964" stroke="#333333" stroke-width="7" stroke-miterlimit="10"/>
<path d="M1516 1552L1516 2448" stroke="#333333" stroke-width="7" stroke-miterlimit="10"/>
<path d="M1834 2000C1834 2175.63 1691.63 2318 1516 2318C1340.37 2318 1198 2175.63 1198 2000C1198 1824.37 1340.37 1682 1516 1682C1691.63 1682 1834 1824.37 1834 2000Z" fill="url(#paint0_linear_2_5354)" stroke="#333333" stroke-width="7"/>
<path d="M1251 2000C1251 2146.28 1370.25 2265 1516 2265C1662.28 2265 1781 2146.28 1781 2000C1781 1926.86 1751.32 1860.61 1703.62 1812.38L1681.89 1834.11C1724.29 1876.51 1750.26 1935.34 1750.26 2000C1750.26 2129.32 1645.32 2234.26 1516 2234.26C1386.68 2234.26 1285.45 2129.32 1285.45 2000C1285.45 1925.27 1325.2 1872.27 1334.74 1872.27C1341.63 1872.27 1350.64 1889.23 1363.36 1913.08C1411.59 1828.28 1456.64 1762.56 1484.2 1735C1419.54 1741.89 1346.4 1761.5 1287.04 1787.47C1299.76 1806.02 1309.83 1820.33 1309.83 1828.28C1309.83 1841 1251 1890.82 1251 2000Z" fill="#F2F2F2"/>
<g clip-path="url(#clip0_2_5354)">
<path d="M2523 1735C2376.72 1735 2258 1854.25 2258 2000H2288.74C2288.74 1870.68 2393.68 1769.45 2523 1769.45C2597.73 1769.45 2650.73 1809.2 2650.73 1818.74C2650.73 1825.63 2633.77 1834.64 2609.92 1847.36C2694.72 1895.59 2760.44 1940.64 2788 1968.2C2781.11 1903.54 2761.5 1830.4 2735.53 1771.04C2716.98 1783.76 2702.67 1793.83 2694.72 1793.83C2682 1793.83 2632.18 1735 2523 1735ZM2523 2265C2669.28 2265 2788 2145.75 2788 2000H2757.26C2757.26 2129.32 2652.32 2230.55 2523 2230.55C2448.27 2230.55 2395.27 2190.8 2395.27 2181.26C2395.27 2174.37 2412.23 2165.36 2436.08 2152.64C2351.28 2104.41 2285.56 2059.36 2258 2031.8C2264.89 2096.46 2284.5 2169.6 2310.47 2228.96C2329.02 2216.24 2343.33 2206.17 2351.28 2206.17C2364 2206.17 2413.82 2265 2523 2265Z" fill="#F2F2F2"/>
</g>
<g clip-path="url(#clip1_2_5354)">
<path d="M3795 2000C3795 1853.72 3675.75 1735 3530 1735C3383.72 1735 3265 1853.72 3265 2000C3265 2073.14 3294.68 2139.39 3342.38 2187.62L3364.11 2165.89C3321.71 2123.49 3295.74 2064.66 3295.74 2000C3295.74 1870.68 3400.68 1765.74 3530 1765.74C3659.32 1765.74 3760.55 1870.68 3760.55 2000C3760.55 2074.73 3720.8 2127.73 3711.26 2127.73C3704.37 2127.73 3695.36 2110.77 3682.64 2086.92C3634.41 2171.72 3589.36 2237.44 3561.8 2265C3626.46 2258.11 3699.6 2238.5 3758.96 2212.53C3746.24 2193.98 3736.17 2179.67 3736.17 2171.72C3736.17 2159 3795 2109.18 3795 2000Z" fill="#F2F2F2"/>
</g>
<g clip-path="url(#clip2_2_5354)">
<path d="M4771.26 2000C4771.26 2129.32 4666.32 2234.26 4537 2234.26C4407.68 2234.26 4306.45 2129.32 4306.45 2000C4306.45 1925.27 4346.2 1872.27 4355.74 1872.27C4362.63 1872.27 4371.64 1889.23 4384.36 1913.08C4452.73 1793.3 4488.77 1763.62 4547.6 1763.62C4661.02 1763.62 4771.26 1865.91 4771.26 2000ZM4508.38 2159.53C4526.4 2164.3 4553.96 2158.47 4565.09 2142.57C4576.75 2126.14 4584.7 2028.09 4663.14 1865.38C4666.32 1859.02 4664.73 1845.24 4642.47 1835.17C4570.39 1960.25 4543.89 2064.66 4533.82 2106.53C4515.27 2069.43 4479.23 2019.61 4474.99 1981.98C4449.02 1985.16 4434.71 1995.23 4434.71 2009.01C4434.71 2038.69 4493.01 2109.71 4508.38 2159.53ZM4802 2000.53C4802 1853.72 4683.28 1735 4537 1735C4455.91 1735 4367.4 1761.5 4308.04 1787.47C4320.76 1806.02 4330.83 1820.33 4330.83 1828.28C4330.83 1841 4272 1890.82 4272 2000C4272 2146.28 4391.25 2265 4537 2265C4683.28 2265 4802 2146.28 4802 2000.53Z" fill="#F2F2F2"/>
</g>
<defs>
<linearGradient id="paint0_linear_2_5354" x1="1516" y1="1682" x2="1516" y2="2318" gradientUnits="userSpaceOnUse">
<stop stop-opacity="0"/>
<stop offset="1" stop-color="#555555"/>
</linearGradient>
<clipPath id="clip0_2_5354">
<rect width="530" height="530" fill="white" transform="translate(2258 1735)"/>
</clipPath>
<clipPath id="clip1_2_5354">
<rect width="530" height="530" fill="white" transform="translate(3265 1735)"/>
</clipPath>
<clipPath id="clip2_2_5354">
<rect width="530" height="530" fill="white" transform="translate(4272 1735)"/>
</clipPath>
</defs>
</svg>
