<svg width="1440" height="1440" viewBox="0 0 1440 1440" fill="none" xmlns="http://www.w3.org/2000/svg">
<path d="M1440 0H0V1440H1440V0Z" fill="#FDEA00"/>
<path d="M785.8 625H772.4L778.4 593H761V583.2L784.2 543H797.6L791.6 571H810.8V580.8L785.8 625ZM779.6 619H782.2L805 579.2V577H784.2L790.2 549H787.6L766.8 584.8V587H785.4L779.6 619Z" fill="#2D373B"/>
<path d="M795.8 688.6L804.2 702.6L797.4 699.2L794.8 704.6L810.8 712.6L815.2 710V692H809.2V699.2L801 685.6C798.2 681 793.4 678.4 788.2 678.4C783 678.4 778 681.2 775.4 685.6L767.6 698.4L772.8 701.4L780.6 688.6C782.2 685.8 785.2 684.2 788.4 684.2C791.6 684.2 794 686 795.8 688.6Z" fill="#2D373B"/>
<path d="M827.598 730.2L820.598 718.4L815.398 721.4L822.398 733.2C823.998 736 824.198 739.4 822.598 742.2C820.998 745 817.998 746.8 814.798 746.8H794.398L801.598 742.4L798.398 737.4L782.398 747.4V752.4L798.398 762.4L801.598 757.4L794.398 753H814.798C820.198 753 825.198 750.2 827.798 745.4C830.598 740.6 830.398 735 827.598 730.2Z" fill="#2D373B"/>
<path d="M753.399 742.4C751.799 739.6 751.799 736.2 753.599 733.4L761.199 720.8V728H767.199V710L762.799 707.4L746.799 715.4L749.399 720.8L756.199 717.4L748.399 730.4C745.599 735 745.599 740.8 748.199 745.6C750.799 750.4 755.799 753.2 761.199 753.2H771.999V747.2H761.199C757.999 747 754.999 745.2 753.399 742.4Z" fill="#2D373B"/>
<path d="M776 873V867C781 867 785 863 785 858C785 853 781 849 776 849H773V844C773 834.6 780.6 827 790 827C799.4 827 807 834.6 807 844H801C801 838 796 833 790 833C784.2 833 779.4 837.6 779 843.4C785.8 844.8 791 850.8 791 858C791 866.2 784.2 873 776 873Z" fill="#2D373B"/>
<path d="M782 899C773.8 899 767 892.2 767 884H773C773 889 777 893 782 893C785.4 893 793 891.8 793 880C793 872 798.2 866.6 803.4 861.2C808.4 856 813 851 813 844C813 831.4 802.6 821 790 821C777.4 821 767 831.4 767 844H761C761 828 774 815 790 815C806 815 819 828 819 844C819 853.4 813 859.8 807.6 865.4C803 870.2 799 874.4 799 880C799 894 789.8 899 782 899Z" fill="#2D373B"/>
<path d="M664 545H640C625.2 545 613 557.2 613 572V596C613 610.8 625.2 623 640 623H644V617H640C628.4 617 619 607.6 619 596V572C619 560.4 628.4 551 640 551H664C675.6 551 685 560.4 685 572V596C685 607.6 675.6 617 664 617H660C657.2 617 655 614.8 655 612V598.6C661.8 597.2 667 591.2 667 584V573H661V566H655V573H649V566H643V573H637V584C637 591.2 642.2 597.4 649 598.6V612C649 618 654 623 660 623H664C678.8 623 691 610.8 691 596V572C691 557.2 678.8 545 664 545ZM643 584V579H661V584C661 589 657 593 652 593C647 593 643 589 643 584Z" fill="#2D373B"/>
<path d="M692 717H666V723H692V717Z" fill="#2D373B"/>
<path d="M638 717H612V723H638V717Z" fill="#2D373B"/>
<path d="M639.785 727.974L621.824 745.935L626.067 750.177L644.027 732.217L639.785 727.974Z" fill="#2D373B"/>
<path d="M677.785 689.974L659.824 707.935L664.067 712.177L682.027 694.217L677.785 689.974Z" fill="#2D373B"/>
<path d="M664.067 727.831L659.824 732.073L677.785 750.034L682.027 745.791L664.067 727.831Z" fill="#2D373B"/>
<path d="M626.067 689.831L621.824 694.073L639.785 712.034L644.027 707.791L626.067 689.831Z" fill="#2D373B"/>
<path d="M655 734H649V760H655V734Z" fill="#2D373B"/>
<path d="M655 680H649V706H655V680Z" fill="#2D373B"/>
<path d="M687.973 815.897L613.838 889.97L618.079 894.214L692.214 820.141L687.973 815.897Z" fill="#2D373B"/>
<path d="M656 819H648C631.4 819 617 834.4 617 852V862V870C617 878.2 623.8 885 632 885H635.2L639 881.2V850.8L635.2 847H632C628.6 847 625.6 848.2 623.2 850C624.2 836.4 635.4 825 648 825H656C668.6 825 679.8 836.4 680.8 850C678.4 848.2 675.2 847 672 847H668.8L665 850.8V881.2L668.8 885H672C680.2 885 687 878.2 687 870V862V852C687 834.4 672.6 819 656 819ZM632 853H632.8L633 853.2V878.8L632.8 879H632C627 879 623 875 623 870V862C623 857 627 853 632 853ZM672 879H671.2L671 878.8V853.2L671.2 853H672C677 853 681 857 681 862V870C681 875 677 879 672 879Z" fill="#2D373B"/>
</svg>
